<?xml version="1.0" encoding="utf-8"?>
<!-- Generator: Adobe Illustrator 16.0.0, SVG Export Plug-In . SVG Version: 6.00 Build 0)  -->
<!DOCTYPE svg PUBLIC "-//W3C//DTD SVG 1.1//EN" "http://www.w3.org/Graphics/SVG/1.1/DTD/svg11.dtd">
<svg version="1.1" id="Ebene_1" xmlns="http://www.w3.org/2000/svg" xmlns:xlink="http://www.w3.org/1999/xlink" x="0px" y="0px"
	 width="80px" height="80px" viewBox="0 0 80 80" enable-background="new 0 0 80 80" xml:space="preserve">
<g>
	<path fill="#FFFFFF" stroke="#B1B1B1" stroke-miterlimit="10" d="M31.896,31.525L15.149,48.271
		c-4.981,4.981-5.055,12.983-0.164,17.872c4.889,4.891,12.89,4.818,17.87-0.164l16.747-16.747L31.896,31.525z"/>
	<g>
		<path fill="#0DA59B" d="M49.431,50.033l17.025-17.025c5.063-5.064,5.063-13.273,0-18.336c-5.062-5.062-13.271-5.062-18.335,0
			L31.095,31.698L49.431,50.033z"/>
		<path fill="#99CCCC" d="M43.498,22.534l-4.596,4.595l-0.351,0.353l-4.595,4.595l5.324,5.323l4.596-4.596l0.351-0.35l4.595-4.596
			c1.47-1.469,1.471-3.854-0.001-5.325C47.35,21.064,44.967,21.065,43.498,22.534z"/>
	</g>
</g>
</svg>
