<?xml version="1.0" encoding="utf-8"?>
<!-- Generator: Adobe Illustrator 16.0.0, SVG Export Plug-In . SVG Version: 6.00 Build 0)  -->
<!DOCTYPE svg PUBLIC "-//W3C//DTD SVG 1.1//EN" "http://www.w3.org/Graphics/SVG/1.1/DTD/svg11.dtd">
<svg version="1.1" id="Ebene_1" xmlns="http://www.w3.org/2000/svg" xmlns:xlink="http://www.w3.org/1999/xlink" x="0px" y="0px"
	 width="99.21px" height="36.85px" viewBox="0 0 99.21 36.85" enable-background="new 0 0 99.21 36.85" xml:space="preserve">
<path fill="#FFFFFF" d="M49.647,1.141H17.969C8.547,1.141,0.91,8.778,0.91,18.198c0,9.423,7.637,17.06,17.059,17.06h31.678V1.141z"
	/>
<path fill="#10A69C" d="M47.972,35.396h31.941c9.498,0,17.196-7.699,17.196-17.198C97.11,8.7,89.412,1,79.914,1H47.972V35.396z"/>
<rect x="32.315" y="9.88" fill="none" width="57.461" height="21.38"/>
<g enable-background="new    ">
	<path fill="#10A69C" d="M41.007,28.732c-3.862,0-6.84-2.802-6.84-6.915v-0.051c0-3.811,2.701-6.94,6.512-6.94
		c4.24,0,6.334,3.483,6.334,6.562c0,0.857-0.656,1.464-1.438,1.464h-8.354c0.328,2.17,1.867,3.382,3.836,3.382
		c1.287,0,2.297-0.455,3.155-1.161c0.227-0.177,0.429-0.278,0.782-0.278c0.682,0,1.211,0.53,1.211,1.237
		c0,0.378-0.177,0.706-0.404,0.934C44.591,28.05,43.077,28.732,41.007,28.732z M44.036,20.832c-0.202-1.969-1.363-3.508-3.382-3.508
		c-1.868,0-3.18,1.438-3.458,3.508H44.036z"/>
</g>
<g enable-background="new    ">
	<path fill="#FFFFFF" d="M50.496,12.327c0-0.884,0.681-1.565,1.564-1.565h5.4c4.139,0,6.713,2.348,6.713,5.906v0.05
		c0,3.963-3.18,6.032-7.066,6.032h-3.508v4.266c0,0.857-0.682,1.539-1.539,1.539c-0.884,0-1.564-0.682-1.564-1.539V12.327z
		 M57.208,19.948c2.348,0,3.811-1.312,3.811-3.154v-0.051c0-2.069-1.488-3.154-3.811-3.154h-3.609v6.359H57.208z"/>
	<path fill="#FFFFFF" d="M66.949,11.52c0-0.909,0.758-1.489,1.742-1.489s1.741,0.58,1.741,1.489v0.151
		c0,0.908-0.757,1.514-1.741,1.514s-1.742-0.605-1.742-1.514V11.52z M67.176,16.491c0-0.858,0.656-1.54,1.515-1.54
		c0.857,0,1.539,0.682,1.539,1.54v10.55c0,0.857-0.682,1.514-1.539,1.514c-0.833,0-1.515-0.656-1.515-1.514V16.491z"/>
	<path fill="#FFFFFF" d="M74.394,11.393c0-0.832,0.656-1.514,1.514-1.514c0.858,0,1.539,0.682,1.539,1.514v15.648
		c0,0.857-0.681,1.514-1.539,1.514c-0.832,0-1.514-0.656-1.514-1.514V11.393z"/>
	<path fill="#FFFFFF" d="M81.611,11.393c0-0.832,0.656-1.514,1.514-1.514c0.859,0,1.54,0.682,1.54,1.514v15.648
		c0,0.857-0.681,1.514-1.54,1.514c-0.832,0-1.514-0.656-1.514-1.514V11.393z"/>
</g>
<rect y="0" fill="none" width="99.208" height="36.85"/>
</svg>
