<?xml version="1.0" encoding="UTF-8" standalone="no"?>
<svg
   xmlns:dc="http://purl.org/dc/elements/1.1/"
   xmlns:cc="http://creativecommons.org/ns#"
   xmlns:rdf="http://www.w3.org/1999/02/22-rdf-syntax-ns#"
   xmlns:svg="http://www.w3.org/2000/svg"
   xmlns="http://www.w3.org/2000/svg"
   xmlns:sodipodi="http://sodipodi.sourceforge.net/DTD/sodipodi-0.dtd"
   xmlns:inkscape="http://www.inkscape.org/namespaces/inkscape"
   viewBox="0 0 64 64"
   version="1.1"
   id="svg31"
   sodipodi:docname="allergy.svg"
   inkscape:version="0.92.4 (5da689c313, 2019-01-14)">
  <metadata
     id="metadata35">
    <rdf:RDF>
      <cc:Work
         rdf:about="">
        <dc:format>image/svg+xml</dc:format>
        <dc:type
           rdf:resource="http://purl.org/dc/dcmitype/StillImage" />
        <dc:title></dc:title>
      </cc:Work>
    </rdf:RDF>
  </metadata>
  <sodipodi:namedview
     pagecolor="#ffffff"
     bordercolor="#666666"
     borderopacity="1"
     objecttolerance="10"
     gridtolerance="10"
     guidetolerance="10"
     inkscape:pageopacity="0"
     inkscape:pageshadow="2"
     inkscape:window-width="1920"
     inkscape:window-height="1017"
     id="namedview33"
     showgrid="false"
     inkscape:zoom="3.6875"
     inkscape:cx="32"
     inkscape:cy="32"
     inkscape:window-x="-8"
     inkscape:window-y="-8"
     inkscape:window-maximized="1"
     inkscape:current-layer="Outline" />
  <defs
     id="defs4">
    <style
       id="style2">.cls-1{fill:#ffd4cf;}.cls-2{fill:#f27777;}.cls-3{fill:#58595b;}.cls-4{fill:#6a6b6b;}.cls-5{fill:#91cef4;}.cls-6{fill:#7fb5da;}.cls-7,.cls-8,.cls-9{fill:none;}.cls-7{stroke:#f27777;}.cls-7,.cls-8{stroke-linecap:round;stroke-linejoin:round;}.cls-8{stroke:#e5bbb7;}</style>
  </defs>
  <g
     id="Outline">
    <path
       class="cls-1"
       d="M46.52,24l-7.09-5.61-14.33-.14S23,30.31,21.2,32.43s-4,2.2-3.09,3.59,2.53,2.2,2.29,4.56a10.38,10.38,0,0,0,0,1.52l4.8,1.46A.89.89,0,0,1,25.54,45l-2.85,2.8a6.92,6.92,0,0,0,3.91,1.84c5.95.89,16-2.55,16-2.55l5.11-11.33Z"
       id="path8"
       style="fill:#000000;fill-opacity:1" />
    <path
       class="cls-2"
       d="M46.87,27.4,46.52,24l-7.09-5.61-14.33-.14s-.88,5.06-2,9.21A36.37,36.37,0,0,0,46.87,27.4Z"
       id="path10"
       style="fill:#000000;fill-opacity:1" />
    <path
       class="cls-3"
       d="M22.4,13.29S20,22,27.38,24.44c0,0,.73-2.2,1.63-2.45,0,0,1.55,5.67,5.79,6,0,0,1.79-2.66,2.69-3.72,0,0,2,3.09,1.64,5.7s-.81,5.7-.81,5.7,2.36-3.83,4.48-2-1.21,6.92-3.57,7.5c0,0,3.1,8.57,5.38,9.06,0,0,.1-2.2,1.08-2.69s8.19-7.2,9.24-13.64-1.65-17.1-9.47-20.51-16,1.73-20.36.84A12.42,12.42,0,0,1,22.4,13.29Z"
       id="path12"
       style="fill:#000000;fill-opacity:1" />
    <path
       class="cls-4"
       d="M54.92,33.85c1-6.43-1.65-17.1-9.47-20.51-5.87-2.56-12-.3-16.47.61a31.51,31.51,0,0,0,9.62,6.68C44.24,23,49.14,34.2,50.33,42.81,52.37,40.28,54.4,37,54.92,33.85Z"
       id="path14"
       style="fill:#000000;fill-opacity:0.14334472" />
    <path
       class="cls-5"
       d="M33.53,32.07a10.4,10.4,0,0,1-.85,1.67,3.14,3.14,0,0,0-.85,2.64c.26,1.29,2.13,1.51,2.9.8a2.08,2.08,0,0,0,.38-2.45A11.51,11.51,0,0,1,33.53,32.07Z"
       id="path16"
       style="fill:#ffffff;fill-opacity:1" />
    <path
       class="cls-6"
       d="M32,36.82a2,2,0,0,0,2.72.35,2.06,2.06,0,0,0,.59-1.84A3.81,3.81,0,0,1,32,36.82Z"
       id="path18"
       style="fill:#000000;fill-opacity:1" />
    <line
       class="cls-7"
       x1="16.91"
       x2="9.6"
       y1="42.58"
       y2="41"
       id="line20"
       style="fill:none;fill-opacity:0.11262798;stroke:#000000;stroke-opacity:1" />
    <line
       class="cls-7"
       x1="17.61"
       x2="10.77"
       y1="48.83"
       y2="51.84"
       id="line22"
       style="fill:#000000;fill-opacity:1;stroke:#000000;stroke-opacity:1" />
    <line
       class="cls-7"
       x1="16.33"
       x2="8.86"
       y1="46.05"
       y2="46.47"
       id="line24"
       style="fill:#000000;fill-opacity:1;stroke:#000000;stroke-opacity:1" />
    <path
       class="cls-8"
       d="M25.78,29.95a4.65,4.65,0,0,1-4-1.51"
       id="path26"
       style="fill:#000000;fill-opacity:0.17064847;stroke:#ffffff;stroke-opacity:1" />
    <rect
       class="cls-9"
       height="64"
       width="64"
       id="rect28" />
  </g>
</svg>
