<?xml version="1.0" encoding="UTF-8" standalone="no"?>
<svg
   xmlns:dc="http://purl.org/dc/elements/1.1/"
   xmlns:cc="http://creativecommons.org/ns#"
   xmlns:rdf="http://www.w3.org/1999/02/22-rdf-syntax-ns#"
   xmlns:svg="http://www.w3.org/2000/svg"
   xmlns="http://www.w3.org/2000/svg"
   xmlns:sodipodi="http://sodipodi.sourceforge.net/DTD/sodipodi-0.dtd"
   xmlns:inkscape="http://www.inkscape.org/namespaces/inkscape"
   width="744.09"
   height="744.09"
   viewBox="0 0 744.09448819 1052.3622047"
   version="1.1"
   id="svg182"
   sodipodi:docname="brain.svg"
   inkscape:version="0.92.4 (5da689c313, 2019-01-14)">
  <metadata
     id="metadata188">
    <rdf:RDF>
      <cc:Work
         rdf:about="">
        <dc:format>image/svg+xml</dc:format>
        <dc:type
           rdf:resource="http://purl.org/dc/dcmitype/StillImage" />
      </cc:Work>
    </rdf:RDF>
  </metadata>
  <defs
     id="defs186" />
  <sodipodi:namedview
     pagecolor="#ffffff"
     bordercolor="#666666"
     borderopacity="1"
     objecttolerance="10"
     gridtolerance="10"
     guidetolerance="10"
     inkscape:pageopacity="0"
     inkscape:pageshadow="2"
     inkscape:window-width="1920"
     inkscape:window-height="1017"
     id="namedview184"
     showgrid="false"
     inkscape:zoom="0.8970807"
     inkscape:cx="360.7806"
     inkscape:cy="301.56045"
     inkscape:window-x="-8"
     inkscape:window-y="-8"
     inkscape:window-maximized="1"
     inkscape:current-layer="svg182" />
  <path
     d="M 311.26284,1018.0729 C 281.47003,974.71468 240.86206,894.89137 221.89768,888.04825 202.12066,875.48182 118.97357,884.1082 64.508321,883.14172 40.476703,880.08119 15.282437,879.37161 8.4878739,841.43596 2.3899728,832.9379 14.979249,813.85745 11.155483,772.7438 c -29.272506,-21.45025 -24.272607,-35.02094 -26.67608,-50.29296 -33.589316,-9.26237 6.0169665,-46.60479 -2.667565,-73.59954 -33.423243,-14.43163 -77.889906,-25.23507 -64.022951,-55.20034"
     id="path2"
     inkscape:connector-curvature="0"
     style="fill:none;stroke:#000000;stroke-width:5.58363348;stroke-miterlimit:4;stroke-dasharray:none" />
  <path
     d="m -16.839243,722.46389 69.358938,3.67984"
     id="path4"
     inkscape:connector-curvature="0"
     style="fill:none;stroke:#000000;stroke-width:5.58363348;stroke-miterlimit:4;stroke-dasharray:none" />
  <path
     d="m 43.164332,715.10422 6.668943,20.85315"
     id="path6"
     inkscape:connector-curvature="0"
     style="fill:none;stroke:#000000;stroke-width:5.58363348;stroke-miterlimit:4;stroke-dasharray:none" />
  <path
     d="m -42.175433,624.31637 c -6.680729,-11.33834 3.18861,-13.97894 21.340979,-12.26649 15.0911826,-0.55849 22.6899278,3.01746 20.00712256,12.26649"
     id="path8"
     inkscape:connector-curvature="0"
     style="fill:none;stroke:#000000;stroke-width:5.58363348;stroke-miterlimit:4;stroke-dasharray:none" />
  <path
     d="m 5.1751482,623.09438 c 16.0300428,7.52327 25.0764778,3.48571 23.3416078,-18.40002 -1.470232,-6.54205 2.118506,-13.08439 -7.336025,-19.62644"
     id="path10"
     inkscape:connector-curvature="0"
     style="fill:none;stroke:#000000;stroke-width:5.58363348;stroke-miterlimit:4;stroke-dasharray:none" />
  <path
     d="m -82.852246,595.48866 76.694048,-92.6125 c 16.443464,-17.5274 35.576358,-33.64065 28.009936,-63.78755 -3.671796,-23.1041 -11.8886902,-48.59607 -4.001244,-65.62608 11.210734,-12.2715 12.245917,-24.70518 14.671726,-51.5205 16.60079,-77.47656 43.956315,-117.86035 74.69193,-146.58529 62.36203,-49.73476 134.87969,-73.79395 211.40767,-87.705123 37.1255,-8.586102 74.248,-11.84019 111.37351,-12.266495 71.80499,1.98264 118.33116,10.939528 154.71985,22.693349 45.3273,15.501699 87.74654,34.060029 120.70775,62.560009 46.57449,38.43418 63.69982,76.87113 82.6944,115.30529 20.33992,40.89759 19.82715,73.80227 19.34005,106.71808 3.55522,47.16857 -9.39823,89.99632 -30.67822,130.6384 l -67.3568,125.7338 c -6.56536,13.69482 -14.82999,27.38994 -18.03973,41.08366 l -11.97052,61.34081 c -6.26127,49.22095 2.71239,94.23716 14.00496,138.61185"
     id="path12"
     inkscape:connector-curvature="0"
     style="fill:none;stroke:#000000;stroke-width:5.58363348;stroke-miterlimit:4;stroke-dasharray:none" />
  <path
     d="m 359.24759,114.30474 c 29.98909,20.67876 14.08196,25.52919 5.65882,32.96024 -9.28018,3.71845 -12.07773,11.90825 -11.31765,22.55199 l -2.8294,38.16479 c -67.83998,37.19553 -54.49847,41.93071 -69.7938,58.11366"
     id="path14"
     inkscape:connector-curvature="0"
     style="fill:#000000;stroke:#000000;stroke-width:2.89598322;fill-opacity:1" />
  <path
     d="m 318.69157,177.62573 c -16.99487,16.11464 -25.31897,34.22389 -12.26072,57.24716 h -2.82945"
     id="path16"
     inkscape:connector-curvature="0"
     style="fill:#000000;stroke:#000000;stroke-width:2.89598322;fill-opacity:1" />
  <path
     d="m 361.11986,115.1657 -20.74909,-5.20427 c -31.97674,4.68797 -38.96458,13.20631 -57.53036,19.94973 l -47.1573,13.0108 c -6.6445,8.38474 -4.95582,16.76949 0.94314,25.15397"
     id="path18"
     inkscape:connector-curvature="0"
     style="fill:#000000;stroke:#000000;stroke-width:2.89598322;fill-opacity:1" />
  <path
     d="m 230.96615,152.46398 c -20.56367,3.22603 -35.99006,10.3899 -41.49818,25.15398 -40.9486,12.68169 -61.47725,35.79578 -80.16684,59.84944 l 6.6019,11.27584 -16.03336,-1.73475 c -26.931557,23.69623 -27.534612,44.36636 -35.839078,65.92048 l 4.715728,6.93893 -8.488376,4.33694 c -5.794699,33.85173 14.554263,47.09635 24.521752,68.52274 15.255454,14.27443 32.224364,20.67346 49.986864,23.41932 14.77592,2.92025 29.55184,11.04313 44.32775,7.80653 21.21083,1.2958 43.19534,2.59158 30.11656,3.8873 l 23.64237,3.05163"
     id="path20"
     inkscape:connector-curvature="0"
     style="fill:#000000;stroke:#000000;stroke-width:2.89598322;fill-opacity:1" />
  <path
     d="m 135.72144,417.02347 -14.1472,1.73475 c -0.99479,2.69364 -6.04778,5.76055 4.71572,7.37273 12.90938,3.18049 12.38907,6.36071 11.78933,9.5412 5.18742,4.91403 10.37456,7.90011 15.56167,4.77045 19.52488,-4.98485 38.7834,-8.252 57.05928,-5.20427 l 20.74909,-3.90311"
     id="path22"
     inkscape:connector-curvature="0"
     style="fill:#000000;stroke:#000000;stroke-width:2.89598322;fill-opacity:1" />
  <path
     d="m 367.73324,144.24335 c -11.07604,-1.74179 -23.35971,-2.00294 -38.19754,0.86738 -9.24394,2.38704 -32.48709,3.96951 -61.77621,5.20427 -19.76554,1.21858 -40.19666,27.64545 -48.57058,40.3338 5.14666,6.64954 -3.46281,8.69859 -11.78933,10.84233 -6.91626,0.19274 -13.83284,-1.29103 -20.74909,4.33694 2.40171,4.31526 -11.72804,13.38156 -29.23718,23.41931 l -15.09028,3.0358 c -14.10007,11.00841 -18.355,26.54399 -25.46484,40.76706 -0.3727,6.63202 -13.62143,9.31678 -20.749087,13.87811 -9.519653,5.91301 -9.847906,15.44867 -10.845936,24.72045"
     id="path24"
     inkscape:connector-curvature="0"
     style="fill:#000000;stroke:#000000;stroke-width:2.89598322;fill-opacity:1" />
  <path
     d="m 362.53917,116.471 c 2.24236,-5.07207 8.95826,-8.64805 24.99314,-9.1074 9.25178,5.53448 19.98932,8.33642 33.00951,6.93893 5.03524,10.61571 0.62321,19.99027 -2.8294,29.49147 -12.12453,22.98245 -44.34889,57.63875 -34.8969,68.08949 l 3.77265,21.68439 c -2.84593,24.04725 -25.53549,35.5264 -21.69219,58.54691 l 1.88627,21.68437"
     id="path26"
     inkscape:connector-curvature="0"
     style="fill:#000000;stroke:#000000;stroke-width:2.89598322;fill-opacity:1" />
  <path
     d="m 281.91031,264.80316 c 40.11815,7.89431 50.09258,13.34241 47.62841,17.78126 13.70992,23.44211 8.92624,34.5155 9.90286,49.44035"
     id="path28"
     inkscape:connector-curvature="0"
     style="fill:#000000;stroke:#000000;stroke-width:2.89598322;fill-opacity:1" />
  <path
     d="m 268.68356,167.65545 c -7.30765,16.15409 -21.97786,35.69304 -15.56168,45.53835 6.88789,19.07044 16.65031,39.34231 10.37455,52.90911"
     id="path30"
     inkscape:connector-curvature="0"
     style="fill:#000000;stroke:#000000;stroke-width:2.89598322;fill-opacity:1" />
  <path
     d="m 180.98834,237.91953 c 5.35201,18.31725 12.91934,24.4119 20.74911,29.05821 l -1.4147,-1.30105"
     id="path32"
     inkscape:connector-curvature="0"
     style="fill:#000000;stroke:#000000;stroke-width:2.89598322;fill-opacity:1" />
  <path
     d="m 236.16023,266.10848 c -3.60958,6.65397 -10.17403,10.5907 -16.17106,15.049 -12.55878,2.90749 -16.66029,13.5929 -23.44096,21.81463 -7.6821,-6.95781 -14.38396,-14.81683 -14.61858,-28.62219"
     id="path34"
     inkscape:connector-curvature="0"
     style="fill:#000000;stroke:#000000;stroke-width:2.89598322;fill-opacity:1" />
  <path
     d="m 196.05718,302.10145 c 7.0748,6.65037 8.54516,11.23891 9.43146,15.61279 -37.82307,24.83737 -28.16152,27.83901 -27.82268,35.12925"
     id="path36"
     inkscape:connector-curvature="0"
     style="fill:#000000;stroke:#000000;stroke-width:2.89598322;fill-opacity:1" />
  <path
     d="m 160.24226,260.88727 -10.84623,24.28664 c 4.56715,9.65784 7.78264,23.66705 14.61859,26.02132 7.55374,7.68128 11.14972,15.88274 9.90285,24.72018"
     id="path38"
     inkscape:connector-curvature="0"
     style="fill:#000000;stroke:#000000;stroke-width:2.89598322;fill-opacity:1" />
  <path
     d="m 148.91798,283.88278 c -27.84714,-0.54519 -28.42152,15.63112 -34.89689,28.18895 -2.92516,9.44676 -10.19577,13.29879 -7.54499,29.92471 7.95599,11.16866 5.03463,16.08547 3.30095,21.68466"
     id="path40"
     inkscape:connector-curvature="0"
     style="fill:#000000;stroke:#000000;stroke-width:2.89598322;fill-opacity:1" />
  <path
     d="m 76.774789,329.84604 c 7.327558,-7.93123 19.33461,-6.17991 31.596241,-3.90313"
     id="path42"
     inkscape:connector-curvature="0"
     style="fill:#000000;stroke:#000000;stroke-width:2.89598322;fill-opacity:1" />
  <path
     d="m 71.580712,337.65007 c 2.249304,20.809 10.552119,28.62775 20.277407,33.39348 -2.79296,-0.81378 -3.317254,3.58847 -3.637048,8.46085 3.144821,12.71281 -1.651471,9.3579 -4.37963,10.18802"
     id="path44"
     inkscape:connector-curvature="0"
     style="fill:#000000;stroke:#000000;stroke-width:2.89598322;fill-opacity:1" />
  <path
     d="M 90.454513,370.61586 110.26052,362.3758"
     id="path46"
     inkscape:connector-curvature="0"
     style="fill:#000000;stroke:#000000;stroke-width:2.89598322;fill-opacity:1" />
  <path
     d="m 145.6264,326.81885 c 7.56642,18.43723 18.21276,27.2444 32.06733,26.02132 18.0059,16.22488 37.37012,12.43952 56.58817,10.84233"
     id="path48"
     inkscape:connector-curvature="0"
     style="fill:#000000;stroke:#000000;stroke-width:2.89598322;fill-opacity:1" />
  <path
     d="m 419.58334,113.44381 18.86292,-3.0358 c 24.2234,14.40136 38.40894,11.6605 54.22971,11.70966 22.81192,-0.73741 33.23903,7.84402 42.44038,17.34773 25.17583,2.59358 45.68063,12.06099 64.60575,23.85285 30.84131,4.08337 45.71084,12.68614 43.85668,26.02131 33.88828,10.55322 35.84511,21.10616 43.38556,31.66048 37.27048,16.62482 38.44217,33.24907 44.32778,49.87361 41.95115,26.33402 46.39328,57.74152 46.21513,89.77415 1.29842,15.39145 -1.62264,41.51968 -8.87703,50.17077 l -22.24663,23.99089 c -11.8159,-2.35569 -21.03688,-0.53543 -27.82269,5.20425 -14.86801,54.15889 -59.58986,76.63783 -106.57506,96.71169 -27.47088,5.74583 -58.45441,4.75852 -100.91591,-18.21506 -13.0163,-10.88483 -27.73272,-20.40157 -31.12215,-39.03127 -15.41189,-8.11091 -36.01724,-12.46812 -34.89689,-32.52699"
     id="path50"
     inkscape:connector-curvature="0"
     style="fill:#000000;stroke:#000000;stroke-width:2.89598322;fill-opacity:1" />
  <path
     d="m 643.59267,188.90131 c -15.64079,-8e-5 -27.30511,1.04465 -25.46483,5.63806"
     id="path52"
     inkscape:connector-curvature="0"
     style="fill:#000000;stroke:#000000;stroke-width:2.89598322;fill-opacity:1" />
  <path
     d="m 686.02096,221.00616 c -16.65364,-1.36365 -37.05304,-4.58188 -38.19755,1.73475"
     id="path54"
     inkscape:connector-curvature="0"
     style="fill:#000000;stroke:#000000;stroke-width:2.89598322;fill-opacity:1" />
  <path
     d="m 731.77105,270.44096 c 4.3135,13.32351 2.91285,18.76384 -2.8294,18.21506"
     id="path56"
     inkscape:connector-curvature="0"
     style="fill:#000000;stroke:#000000;stroke-width:2.89598322;fill-opacity:1" />
  <path
     d="m 526.63552,155.51893 c 5.92757,2.97526 11.89169,5.8833 20.27741,4.33693 8.87882,-1.13981 25.05986,-2.27502 26.42693,1.19074 l 6.11119,3.57986 c 19.08096,5.92718 19.57016,11.85407 25.93622,17.78125"
     id="path58"
     inkscape:connector-curvature="0"
     style="fill:#000000;stroke:#000000;stroke-width:2.89598322;fill-opacity:1" />
  <path
     d="m 548.8009,160.268 c -3.14392,8.09565 -7.54499,12.14319 -13.20379,12.14319"
     id="path60"
     inkscape:connector-curvature="0"
     style="fill:#000000;stroke:#000000;stroke-width:2.89598322;fill-opacity:1" />
  <path
     d="m 230.03002,430.02094 c 2.79673,14.89736 16.71916,22.81833 47.15731,20.38353 5.56823,9.23291 15.2899,16.36486 45.74102,13.01079 28.13828,33.22407 58.51179,22.23816 89.12662,6.50539 l 33.4806,-22.98551"
     id="path62"
     inkscape:connector-curvature="0"
     style="fill:#000000;stroke:#000000;stroke-width:2.89598322;fill-opacity:1" />
  <path
     d="m 411.09768,469.92982 c 5.35321,39.55895 31.15536,53.14519 62.71839,59.41619 6.55752,0.47466 10.57114,3.2888 10.84594,9.54119 -1.78773,39.70614 72.30627,96.85611 108.46242,145.28555"
     id="path64"
     inkscape:connector-curvature="0"
     style="fill:none;stroke:#000000;stroke-width:2.89598322" />
  <path
     d="m 611.52231,536.72234 c 5.67573,68.08117 17.00574,101.49688 30.18056,123.60089"
     id="path66"
     inkscape:connector-curvature="0"
     style="fill:none;stroke:#000000;stroke-width:2.89598322" />
  <path
     d="m 444.58735,446.07337 c 14.8345,-14.68215 41.9119,-19.29014 80.63792,-14.31167 24.6522,8.48031 41.05429,1.78467 59.88883,-0.43368 53.22712,-4.46552 90.09595,-4.6327 116.94808,-2.16847 6.46842,5.69612 13.9802,7.55298 21.69219,8.67386"
     id="path68"
     inkscape:connector-curvature="0"
     style="fill:#000000;stroke:#000000;stroke-width:2.89598322;fill-opacity:1" />
  <path
     d="m 703.02249,428.29905 c -9.31308,8.79885 -23.89423,17.97039 -65.54795,29.05822 -34.83348,7.01836 -78.24321,2.99553 -118.83546,2.60213 -19.33977,-2.3929 -30.21318,6.89366 -39.61083,18.21506"
     id="path70"
     inkscape:connector-curvature="0"
     style="fill:#000000;stroke:#000000;stroke-width:2.89598322;fill-opacity:1" />
  <path
     d="m 110.71742,361.95089 c 26.28954,29.29706 29.63851,20.9187 39.61082,23.41932 l 36.78125,0.86738 c 11.10173,2.31303 15.06372,4.62605 17.44816,6.93892 27.17372,-0.89618 35.88437,-4.78851 41.96927,-9.10739 l 23.57866,-14.74545 c 14.07925,-8.01149 29.10067,-19.19958 39.61083,-15.17926 l 29.70886,-22.98553"
     id="path72"
     inkscape:connector-curvature="0"
     style="fill:#000000;stroke:#000000;stroke-width:2.89598322;fill-opacity:1" />
  <path
     d="m 310.65888,353.70248 c -6.49319,13.2341 -15.49555,27.42965 -7.54498,35.12928 8.82539,12.28731 20.34384,15.90468 31.59624,20.38352"
     id="path74"
     inkscape:connector-curvature="0"
     style="fill:#000000;stroke:#000000;stroke-width:2.89598322;fill-opacity:1" />
  <path
     d="m 299.81777,397.49951 c -0.54142,6.21628 -12.47905,12.43257 -22.63527,18.64857 -7.73674,2.59781 -15.63656,6.54541 -22.16387,-0.86738"
     id="path76"
     inkscape:connector-curvature="0"
     style="fill:#000000;stroke:#000000;stroke-width:2.89598322;fill-opacity:1" />
  <path
     d="m 277.65238,416.16254 -0.47156,34.26275"
     id="path78"
     inkscape:connector-curvature="0"
     style="fill:#000000;stroke:#000000;stroke-width:2.89598322;fill-opacity:1" />
  <path
     d="m 265.87513,372.7821 c -5.50149,2.73259 -11.00326,12.17208 -16.50505,21.68466 l -2.82944,10.40853 -8.01668,9.97471 c 1.2043,10.05833 -4.07463,12.66364 -7.545,17.34773"
     id="path80"
     inkscape:connector-curvature="0"
     style="fill:#000000;stroke:#000000;stroke-width:2.89598322;fill-opacity:1" />
  <path
     d="m 97.037696,390.55642 c 13.339394,10.55849 32.333074,7.24941 49.044684,9.54119 l 49.98689,-1.73478 c 18.26199,-0.0361 37.72342,-1.61512 49.98687,6.0716"
     id="path82"
     inkscape:connector-curvature="0"
     style="fill:#000000;stroke:#000000;stroke-width:2.89598322;fill-opacity:1" />
  <path
     d="m 146.56253,400.55446 c 2.55045,10.48296 0.39823,14.91127 -3.30095,17.34773"
     id="path84"
     inkscape:connector-curvature="0"
     style="fill:#000000;stroke:#000000;stroke-width:2.89598322;fill-opacity:1" />
  <path
     d="m 166.82544,403.58166 c 22.30914,11.33028 46.89762,12.18067 71.67816,12.14317"
     id="path86"
     inkscape:connector-curvature="0"
     style="fill:#000000;stroke:#000000;stroke-width:2.89598322;fill-opacity:1" />
  <path
     d="m 206.92849,341.12162 c 59.69857,11.2653 65.13725,19.47509 64.13468,27.32244"
     id="path88"
     inkscape:connector-curvature="0"
     style="fill:#000000;stroke:#000000;stroke-width:2.89598322;fill-opacity:1" />
  <path
     d="m 205.50918,317.70952 c 19.67555,0.81989 37.65398,-0.19747 36.31017,-22.11819 -3.65609,-24.15445 6.97092,-29.54423 20.74909,-30.79121"
     id="path90"
     inkscape:connector-curvature="0"
     style="fill:#000000;stroke:#000000;stroke-width:2.89598322;fill-opacity:1" />
  <path
     d="m 273.87762,285.18808 c -15.03652,4.07477 -9.64828,28.03898 -3.77264,52.47589 0.84087,16.18794 -4.0997,17.48881 -9.43146,17.78124"
     id="path92"
     inkscape:connector-curvature="0"
     style="fill:#000000;stroke:#000000;stroke-width:2.89598322;fill-opacity:1" />
  <path
     d="m 263.97266,264.35881 h 18.86292"
     id="path94"
     inkscape:connector-curvature="0"
     style="fill:#000000;stroke:#000000;stroke-width:2.89598322;fill-opacity:1" />
  <path
     d="m 275.29694,265.21975 c 20.75392,14.8896 21.45331,31.31612 28.29408,47.27133"
     id="path96"
     inkscape:connector-curvature="0"
     style="fill:#000000;stroke:#000000;stroke-width:2.89598322;fill-opacity:1" />
  <path
     d="m 329.53268,281.27217 c 4.71029,-10.218 4.57772,-26.10434 22.16387,-21.25085"
     id="path98"
     inkscape:connector-curvature="0"
     style="fill:#000000;stroke:#000000;stroke-width:2.89598322;fill-opacity:1" />
  <path
     d="m 339.89062,330.29039 c 40.58621,-28.33335 67.08804,-40.33378 78.75356,-35.12925 19.46267,4.16586 31.81972,1.79695 45.26994,0.43369 9.43147,-2.51963 18.86292,-6.04521 28.29408,-3.0358 8.39023,1.98406 12.98094,4.66715 15.09028,7.80653 43.78721,-10.88537 28.12407,-4.68547 35.83909,-5.20426 23.328,14.11559 23.85194,9.16516 34.89689,13.01079"
     id="path100"
     inkscape:connector-curvature="0"
     style="fill:#000000;stroke:#000000;stroke-width:2.89598322;fill-opacity:1" />
  <path
     d="m 395.0625,315.95986 c -16.65,22.67807 -72.20663,42.1751 -38.66863,68.95599 -0.35168,12.96914 0.199,23.44819 2.35782,29.49146 3.01212,8.9191 -0.18389,14.41276 -3.30093,19.94973 -3.36045,9.28319 1.3153,14.34331 6.60188,19.0824"
     id="path102"
     inkscape:connector-curvature="0"
     style="fill:#000000;stroke:#000000;stroke-width:2.89598322;fill-opacity:1" />
  <path
     d="m 356.40896,385.80734 26.40791,-6.93892 c 27.46184,-17.39299 38.3576,-14.10892 48.5706,-9.975 7.94722,9.65812 14.99697,7.76238 21.69218,1.30107 12.34196,-15.75275 28.83343,-23.87282 44.79885,-32.96022 0.18119,-13.32991 -5.06844,-27.42799 10.37454,-38.59803"
     id="path104"
     inkscape:connector-curvature="0"
     style="fill:#000000;stroke:#000000;stroke-width:2.89598322;fill-opacity:1" />
  <path
     d="m 470.04432,293.85306 c 2.86001,6.93893 -11.38316,13.87813 -29.70886,20.81706 -48.02703,16.49815 -38.97667,20.64541 -47.62842,28.62219"
     id="path106"
     inkscape:connector-curvature="0"
     style="fill:#000000;stroke:#000000;stroke-width:2.89598322;fill-opacity:1" />
  <path
     d="m 314.91681,431.32625 c 35.67299,1.01505 34.58284,13.29934 46.21514,21.68437"
     id="path108"
     inkscape:connector-curvature="0"
     style="fill:#000000;stroke:#000000;stroke-width:2.89598322;fill-opacity:1" />
  <path
     d="m 377.15504,465.15298 c 26.66551,-4.52524 32.74379,-17.88541 21.69219,-38.59803 20.59539,12.83722 32.81927,-2.92581 44.79884,-19.5162 30.68428,3.30409 52.42083,-4.08475 58.00446,-30.7912"
     id="path110"
     inkscape:connector-curvature="0"
     style="fill:#000000;stroke:#000000;stroke-width:2.89598322;fill-opacity:1" />
  <path
     d="m 444.58735,407.0532 c -9.26296,0.20635 -18.73036,-0.71459 -29.23718,-7.37273"
     id="path112"
     inkscape:connector-curvature="0"
     style="fill:#000000;stroke:#000000;stroke-width:2.89598322;fill-opacity:1" />
  <path
     d="m 485.14337,401.41541 c 33.00951,15.80969 57.57263,11.22948 80.63791,3.0358 7.90133,-6.98281 12.55123,-14.88572 4.24404,-26.45512"
     id="path114"
     inkscape:connector-curvature="0"
     style="fill:#000000;stroke:#000000;stroke-width:2.89598322;fill-opacity:1" />
  <path
     d="m 565.77223,403.99824 c 71.60567,11.11561 91.2012,-0.42822 91.48507,-20.38352 l -3.30095,15.61278 c 56.1805,7.95317 61.46515,-0.67045 58.00446,-12.14318"
     id="path116"
     inkscape:connector-curvature="0"
     style="fill:#000000;stroke:#000000;stroke-width:2.89598322;fill-opacity:1" />
  <path
     d="m 721.41311,356.72968 c 19.46538,-6.73424 36.83259,-9.80475 43.85666,5.20426 -2.66917,49.42091 -19.79906,42.68891 -33.00951,51.17614"
     id="path118"
     inkscape:connector-curvature="0"
     style="fill:#000000;stroke:#000000;stroke-width:2.89598322;fill-opacity:1" />
  <path
     d="m 736.96511,360.64559 c 12.94018,30.31907 2.38823,34.23221 -6.6019,39.90054"
     id="path120"
     inkscape:connector-curvature="0"
     style="fill:#000000;stroke:#000000;stroke-width:2.89598322;fill-opacity:1" />
  <path
     d="m 716.21903,411.38568 c 9.43148,8.67387 5.0301,14.45635 -13.2038,17.34773"
     id="path122"
     inkscape:connector-curvature="0"
     style="fill:#000000;stroke:#000000;stroke-width:2.89598322;fill-opacity:1" />
  <path
     d="m 498.33992,336.34477 c 21.53002,2.52432 32.47804,10.45601 42.91147,18.64858 30.49402,11.1931 60.99104,10.85205 91.48506,9.5412 23.51284,-2.1317 47.2902,-4.9957 68.37752,-0.43367 9.73314,-1.45338 15.24337,-5.49587 13.67548,-13.87813 -5.22788,-19.44204 -4.67495,-28.84159 1.41472,-28.62219"
     id="path124"
     inkscape:connector-curvature="0"
     style="fill:#000000;stroke:#000000;stroke-width:2.89598322;fill-opacity:1" />
  <path
     d="m 748.2894,333.31758 c 1.603,-13.87813 5.12611,-27.75625 -31.12213,-41.63354 5.5196,15.48947 -6.22384,21.2092 -16.50507,27.75625 -22.82522,8.29422 -39.01893,17.32051 -30.65104,29.05821"
     id="path126"
     inkscape:connector-curvature="0"
     style="fill:#000000;stroke:#000000;stroke-width:2.89598322;fill-opacity:1" />
  <path
     d="m 634.17087,364.11713 c 1.64668,20.40657 -5.14001,28.40279 -16.03337,30.35797"
     id="path128"
     inkscape:connector-curvature="0"
     style="fill:#000000;stroke:#000000;stroke-width:2.89598322;fill-opacity:1" />
  <path
     d="m 523.8271,196.70535 c 38.26398,-1.68368 73.74974,0.55094 93.36944,25.15397 29.6844,5.83608 38.84982,12.53007 41.02711,19.5162 12.93654,5.17205 23.21687,12.17596 31.12211,20.81706 28.98533,11.32057 25.58775,19.9336 28.2941,29.05821"
     id="path130"
     inkscape:connector-curvature="0"
     style="fill:#000000;stroke:#000000;stroke-width:2.89598322;fill-opacity:1" />
  <path
     d="m 616.71639,221.42275 c 8.7067,14.28194 7.1977,21.51719 6.1305,29.05822"
     id="path132"
     inkscape:connector-curvature="0"
     style="fill:#000000;stroke:#000000;stroke-width:2.89598322;fill-opacity:1" />
  <path
     d="m 659.14468,242.25201 c 2.86084,12.05349 -8.84322,13.68844 -16.50505,18.21505 -14.85113,16.44152 -6.00098,34.55994 -6.13052,52.04264 9.51691,20.32714 5.36135,26.50871 5.65881,37.29828"
     id="path134"
     inkscape:connector-curvature="0"
     style="fill:#000000;stroke:#000000;stroke-width:2.89598322;fill-opacity:1" />
  <path
     d="m 595.48712,230.53208 c 2.81669,23.63011 2.20357,37.34827 -3.77264,35.56251 -10.47057,2.03069 1.3566,21.63855 16.97646,44.23581 4.43761,32.21594 -5.19316,23.99865 -9.90286,29.92471"
     id="path136"
     inkscape:connector-curvature="0"
     style="fill:#000000;stroke:#000000;stroke-width:2.89598322;fill-opacity:1" />
  <path
     d="m 561.5445,262.19258 c -5.83397,-10.72737 6.73508,-18.32088 -29.70887,-34.26277 4.087,-7.80654 1.25751,-18.50417 -8.48838,-32.09374 -11.57462,-6.76313 -13.02353,-15.30034 -49.04469,-17.78126 -15.32914,0.65385 -10.3205,18.45335 -11.78933,30.79122 -15.00241,22.46645 -68.48017,37.69542 -34.4258,69.38925"
     id="path138"
     inkscape:connector-curvature="0"
     style="fill:#000000;stroke:#000000;stroke-width:2.89598322;fill-opacity:1" />
  <path
     d="m 462.97798,191.06755 c -2.73709,-4.95681 -9.97805,-9.16071 -40.08492,-9.5412"
     id="path140"
     inkscape:connector-curvature="0"
     style="fill:#000000;stroke:#000000;stroke-width:2.89598322;fill-opacity:1" />
  <path
     d="m 535.12118,138.1612 c -24.3028,7.24971 -36.76315,22.87638 -44.79884,41.63356"
     id="path142"
     inkscape:connector-curvature="0"
     style="fill:#000000;stroke:#000000;stroke-width:2.89598322;fill-opacity:1" />
  <path
     d="m 507.79193,155.07457 c -9.29619,0.81692 -15.01116,9.86725 -28.76579,0.4337 -9.43145,-10.22578 -18.86292,-12.33593 -28.29409,-13.44433"
     id="path144"
     inkscape:connector-curvature="0"
     style="fill:#000000;stroke:#000000;stroke-width:2.89598322;fill-opacity:1" />
  <path
     d="m 490.33743,215.78496 c 8.17642,4.41747 1.87464,12.16373 0.97434,18.66802 -8.59135,11.84768 -1.29991,23.69538 1.85506,35.54307 l -0.47156,22.11819"
     id="path146"
     inkscape:connector-curvature="0"
     style="fill:#000000;stroke:#000000;stroke-width:2.89598322;fill-opacity:1" />
  <path
     d="m 492.20971,273.02379 c -5.97318,-5.41561 -11.94636,-1.35538 -17.91954,-19.0824 -5.88983,-8.92213 -12.81756,-11.16087 -21.22078,-3.90311"
     id="path148"
     inkscape:connector-curvature="0"
     style="fill:#000000;stroke:#000000;stroke-width:2.89598322;fill-opacity:1" />
  <path
     d="m 478.07701,230.53208 c -11.87418,0.55573 -7.36681,12.41092 -4.71573,22.98551"
     id="path150"
     inkscape:connector-curvature="0"
     style="fill:#000000;stroke:#000000;stroke-width:2.89598322;fill-opacity:1" />
  <path
     d="m 479.01316,502.03467 c -5.45922,7.59074 -16.53465,13.11523 1.88626,29.49147"
     id="path152"
     inkscape:connector-curvature="0"
     style="fill:#000000;stroke:#000000;stroke-width:2.89598322;fill-opacity:1" />
  <path
     d="m 573.86531,537.33334 c -0.77808,-0.17385 -4.59795,-0.78459 -8.48837,-1.35738 -13.1262,-1.93257 -29.09494,-7.32467 -46.20911,-15.60361 -6.52096,-3.15438 -10.03814,-5.73417 -18.89645,-13.86009 -11.3587,-10.41962 -14.81969,-15.2348 -17.38894,-24.19222 l -1.27323,-4.43885 5.80891,-5.49171 c 3.59751,-3.40099 7.94693,-6.44513 11.42454,-7.99566 6.65747,-2.96859 4.604,-2.9086 61.81848,-1.80829 50.99549,0.98065 65.44527,-0.0777 87.9066,-6.44041 20.57063,-5.82693 37.27953,-12.86471 47.68277,-20.08496 l 5.90674,-4.09921 4.33343,2.52751 c 2.38349,1.39015 5.56096,2.77548 7.0612,3.07856 3.44197,0.69528 3.43775,1.62576 -0.0528,11.12283 -11.21373,30.51072 -33.57422,52.69806 -73.61384,73.04687 -14.32416,7.27969 -27.99362,12.99858 -33.95171,14.20473 -4.95912,1.00394 -29.11153,2.05356 -32.06733,1.39359 z"
     id="path154"
     inkscape:connector-curvature="0"
     style="fill:#000000;stroke:#ffffff;stroke-width:0.90447348;stroke-linecap:round;fill-opacity:1" />
  <path
     d="m 356.04658,482.5107 c -8.97002,-1.75324 -20.55703,-8.51361 -27.61492,-16.11131 l -4.37631,-4.71102 -9.95631,0.40723 c -16.0545,0.65668 -26.05036,-2.00963 -32.02807,-8.54334 l -2.45725,-2.68569 0.0565,-17.06417 0.0565,-17.06419 6.59103,-3.90311 c 7.55375,-4.47329 14.98852,-11.28864 14.98852,-13.73982 0,-0.94128 -0.82357,-1.86882 -1.88629,-2.12439 -1.2092,-0.29084 -1.88627,-0.0278 -1.88627,0.73602 0,3.82287 -17.81444,15.93467 -27.52554,18.7144 -6.23893,1.78582 -8.55209,1.5419 -11.87027,-1.25186 -1.98667,-1.67268 -2.25357,-1.69997 -3.6914,-0.37754 -2.07178,1.90532 -0.58184,3.54014 5.01952,5.50727 4.19058,1.47184 8.68949,1.15574 14.8792,-1.04542 1.74874,-0.62187 1.78543,-0.18719 1.17866,13.962 -0.34444,8.03205 -0.87835,14.83156 -1.18642,15.10955 -0.30808,0.278 -4.53455,0.44054 -9.39221,0.36082 -9.76243,-0.16025 -17.59129,-1.88613 -23.12358,-5.09817 -3.63464,-2.11008 -8.42163,-7.63797 -8.42163,-9.72477 0,-0.61632 1.44382,-3.05107 3.20853,-5.41033 2.14767,-2.87139 3.43292,-5.80415 3.8871,-8.86966 0.47739,-3.22215 1.74679,-5.99438 4.28209,-9.35068 1.9819,-2.62382 4.10121,-6.72229 4.7097,-9.10739 1.52856,-5.99327 9.73345,-19.51758 14.95076,-24.64408 4.1758,-4.10281 23.41317,-15.82774 31.52982,-19.21764 3.8279,-1.59844 11.4644,-2.32081 10.83809,-1.02528 -0.17304,0.35781 -2.11813,4.81713 -4.32257,9.90946 -6.73598,15.55974 -5.55915,21.08227 6.78008,31.81324 5.13608,4.46719 23.40442,13.63985 25.16859,12.63726 2.33187,-1.32544 0.0242,-3.30213 -8.25737,-7.07306 -10.00009,-4.55355 -15.46715,-8.51529 -20.56518,-14.90209 -4.22622,-5.29481 -4.35759,-8.8008 -0.67591,-18.04926 5.59753,-14.06143 6.71033,-15.39477 24.19351,-28.98324 33.24808,-25.83969 60.19381,-41.40304 77.90801,-44.99955 4.51038,-0.91601 6.17098,-0.86133 11.31762,0.37276 11.06308,2.65273 34.25369,2.65772 47.86396,0.0108 2.2583,-0.43934 2.08479,-0.12943 -1.82518,3.2588 -5.08383,4.40553 -12.90816,8.1251 -33.10916,15.73944 -23.78764,8.96574 -30.13193,12.6903 -36.45814,21.40415 -3.04698,4.19641 -3.49392,5.31091 -2.44948,6.10826 1.74521,1.33207 2.74667,0.59368 6.48565,-4.78185 4.90688,-7.05445 12.47874,-11.2603 36.02328,-20.00999 24.60175,-9.1421 37.13155,-16.42317 37.13155,-21.57634 0,-1.91385 0.56211,-2.1773 6.66563,-3.12412 7.535,-1.16888 11.94454,-0.50251 20.59869,3.11301 l 5.10077,2.13092 -1.92909,1.93674 c -1.06097,1.0652 -2.92356,3.69315 -4.13895,5.83996 -1.96139,3.46432 -2.24796,5.32813 -2.54806,16.57177 l -0.33809,12.66864 -11.94122,6.84756 c -9.90949,5.68249 -13.95635,8.70857 -23.78461,17.78653 -6.51372,6.0166 -12.81335,11.41666 -13.99922,12.00015 -3.00381,1.47844 -6.5841,0.44864 -10.46847,-3.01107 -4.28118,-3.81315 -10.01791,-5.61669 -17.86698,-5.61669 -9.75369,0 -19.13895,3.06829 -30.62991,10.01415 -3.10951,1.87934 -9.03437,4.00617 -16.89312,6.06439 l -12.10398,3.16992 -2.3686,-2.03448 c -4.16702,-3.57931 -7.00081,-8.95131 -7.10499,-13.46821 -0.18331,-7.95068 4.84074,-14.01142 24.09414,-29.06655 13.79629,-10.78734 24.20618,-20.22328 24.20618,-21.94127 0,-0.61919 -0.65648,-1.35747 -1.45885,-1.64063 -0.98343,-0.34708 -3.36559,1.36185 -7.30944,5.2437 -3.21791,3.16716 -10.73119,9.54286 -16.69652,14.16779 -23.84833,18.49028 -30.02051,27.72319 -25.99149,38.87852 0.86436,2.39337 3.18681,6.0416 5.16086,8.10676 l 3.58934,3.75537 0.62809,10.84233 c 0.34544,5.96329 1.35025,14.2825 2.23293,18.48724 1.59787,7.61156 1.5954,7.66851 -0.56365,13.01078 -1.1927,2.9511 -2.63064,7.0117 -3.19556,9.02353 l -1.0269,3.65762 -4.328,-2.84112 c -7.26868,-4.77102 -13.58612,-6.56872 -27.73844,-7.89346 -5.30218,-0.49628 -5.48036,-0.44639 -5.18742,1.45255 0.25819,1.67228 0.93846,1.99825 4.54752,2.17872 15.18812,0.75941 23.15679,4.10115 32.73773,13.72843 6.86675,6.90031 9.71654,8.5289 11.16182,6.37876 0.34431,-0.51238 -0.18874,-1.78091 -1.18495,-2.81891 -6.13806,-6.39736 -6.7402,-9.87445 -3.14058,-18.14173 3.23511,-7.43021 3.57937,-12.14874 1.47183,-20.1755 -0.77448,-2.94999 -1.38091,-9.56703 -1.39998,-15.27592 l -0.0335,-10.07163 12.32534,-3.22743 c 9.2391,-2.4192 14.22752,-4.28973 19.92076,-7.46993 4.1776,-2.33348 9.98409,-5.09346 12.90365,-6.13326 10.27156,-3.65844 22.32634,-2.96609 27.25345,1.56539 5.75334,5.29119 11.72442,6.78452 17.03293,4.25999 1.41562,-0.67324 6.16915,-4.84405 10.56358,-9.26846 8.65085,-8.71023 16.88557,-14.72185 31.69893,-23.14215 l 9.48824,-5.3931 7.45076,1.73759 c 9.52749,2.22196 16.96861,5.61779 25.842,11.79382 15.10176,10.51072 42.2592,15.52529 80.87649,14.93263 l 18.15659,-0.27858 -9.3e-4,4.8299 c -10e-4,10.07163 -4.2211,17.611 -11.31521,20.22161 -3.92787,1.44541 -4.28753,1.92021 -2.93853,3.87813 0.66372,0.96327 1.54868,0.86688 4.93709,-0.53776 8.46573,-3.5096 12.12935,-9.52981 12.86377,-21.13976 l 0.47409,-7.49298 4.35516,-0.52065 c 20.26986,-2.42317 44.74752,-2.62977 55.70035,-0.47005 9.39492,1.85299 18.93873,-2.77007 20.34111,-9.85335 0.3042,-1.5364 -0.31553,-6.64205 -1.37716,-11.34585 -2.57469,-11.4075 -2.58255,-18.25144 -0.0242,-19.90028 2.42278,-1.56067 1.5205,-4.27695 -1.2965,-3.90314 -4.68886,0.62263 -5.64673,9.88475 -2.53896,24.54938 1.7445,8.23145 1.75638,8.82856 0.23252,11.70967 -2.15694,4.07836 -8.83414,6.30931 -14.68894,4.90765 -5.10953,-1.22312 -41.04221,-1.10024 -51.99203,0.17773 -13.90078,1.62223 -43.99559,2.18938 -57.04116,1.07511 -25.51526,-2.17897 -41.48611,-6.46152 -52.4631,-14.06864 -9.76123,-6.76369 -16.92422,-9.95167 -27.61886,-12.29205 l -8.76379,-1.91791 0.33396,-10.84233 c 0.29171,-9.47038 0.63046,-11.37889 2.67703,-15.08233 1.28867,-2.33204 3.19344,-4.72381 4.23286,-5.31508 1.03942,-0.59128 8.13476,-2.52283 15.76763,-4.29249 15.963,-3.70122 17.00817,-3.64125 26.13493,1.49643 9.7878,5.51002 13.33033,6.67259 27.65751,9.07685 2.13355,0.35806 2.59361,0.12278 2.59361,-1.32676 0,-1.5139 -1.24349,-2.02251 -8.83142,-3.61234 -6.34069,-1.32844 -10.92898,-2.96776 -16.26921,-5.81221 -11.73044,-6.24822 -11.97143,-6.34709 -15.50067,-6.35292 -1.84107,-0.003 -9.25089,1.32685 -16.46641,2.95498 l -13.11895,2.96053 -2.59507,-2.00821 c -1.42728,-1.10452 -4.543,-2.6924 -6.92412,-3.52876 l -4.32889,-1.52043 0.14649,-11.35835 c 0.12983,-10.06053 -0.14369,-12.2501 -2.39546,-19.16458 -3.24629,-9.96918 -3.53317,-17.74432 -0.83253,-22.55199 2.77279,-4.9357 5.47069,-15.30202 4.70879,-18.09369 -0.35029,-1.28364 -1.52041,-3.14633 -2.60026,-4.13948 -1.74585,-1.60563 -2.12014,-1.66142 -3.37916,-0.50357 -1.25904,1.15786 -1.18574,1.58828 0.66127,3.88591 l 2.07708,2.58373 -1.93618,5.96522 c -1.0649,3.28075 -2.78861,8.11203 -3.83031,10.73569 -1.04187,2.6238 -1.90813,6.34959 -1.92505,8.27921 -0.0272,3.01025 3.45466,17.25413 5.29433,21.663 1.1411,2.73477 -7.02952,-1.96462 -9.48582,-5.45588 -3.09621,-4.40081 -6.80242,-13.41294 -8.10818,-19.71589 -1.30576,-6.30293 -0.2576,-9.66283 3.27558,-10.4785 1.50523,-0.34743 2.3912,-1.15984 2.3912,-2.19266 0,-2.37323 -4.00214,-2.12253 -7.2566,0.45458 -2.43722,1.92982 -2.64583,2.5806 -2.64148,8.24006 0.003,3.37963 -0.0401,6.14492 -0.0952,6.14492 -0.0549,0 -1.45844,-0.43559 -3.11915,-0.96796 -2.42128,-0.77626 -3.8273,-0.6842 -7.09867,0.46486 -2.24371,0.78806 -4.77883,2.14347 -5.63344,3.01218 -1.37084,1.39309 -1.38839,1.70564 -0.14888,2.65182 1.14044,0.87041 1.92778,0.73039 4.17761,-0.74301 1.55031,-1.01523 4.23498,-1.81561 6.09004,-1.81561 2.70213,0 3.91519,0.64194 6.53758,3.45961 1.771,1.90282 3.80013,5.07623 4.50917,7.05196 1.98416,5.5292 5.84908,9.76837 11.65193,12.78001 l 5.28769,2.74444 -0.006,8.01592 -0.006,8.01594 -7.77479,0.10692 c -5.09834,0.0703 -9.88534,0.74164 -13.90531,1.95048 -3.77747,1.13588 -11.2358,2.2398 -19.43215,2.87609 -11.86332,0.92105 -14.31087,0.86393 -22.63527,-0.52808 -15.25758,-2.55141 -18.46794,-2.6151 -25.58835,-0.50748 -7.17868,2.12486 -20.04005,7.89373 -27.87645,12.50395 l -5.21852,3.06996 -0.7673,-7.5677 c -1.98688,-19.59562 -0.90752,-24.44272 9.01805,-40.49766 11.51785,-18.62748 12.86256,-24.46106 9.50635,-41.23084 -3.30215,-16.50094 -3.30215,-15.5603 5.3e-4,-22.85665 l 3.00316,-6.63427 h 71.50299 v 8.41032 c 0,7.72793 -0.20685,8.68497 -2.55083,11.79547 -1.40294,1.86186 -8.28847,7.93289 -15.30075,13.49098 -7.01231,5.55808 -14.97282,12.18234 -17.68944,14.72018 -11.45955,10.70541 -12.88673,22.3176 -4.17368,33.96004 4.12749,5.51448 6.16041,6.94475 7.76907,5.4656 0.85923,-0.79023 0.22135,-2.09295 -2.77295,-5.66222 -7.40396,-8.82605 -8.59678,-15.16565 -4.33371,-23.03328 2.44366,-4.50997 9.77179,-11.25558 28.6779,-26.3982 4.40923,-3.53153 9.39613,-8.0812 11.08178,-10.11052 2.7968,-3.36656 3.06602,-4.23418 3.07568,-9.91057 0.006,-3.42156 0.27359,-7.68489 0.59497,-9.4737 l 0.58459,-3.2527 h 47.02444 l 4.42342,3.09217 c 7.96083,5.56476 14.94352,19.16876 14.09647,27.46353 -0.25699,2.5154 -0.75964,5.20759 -1.11727,5.98272 -0.50745,1.09979 1.1509,2.33794 7.55164,5.63806 9.04854,4.6652 15.79539,9.69007 17.80145,13.25743 0.71895,1.27867 1.73905,5.19065 2.26685,8.6933 0.5278,3.50266 1.38223,6.75729 1.89874,7.2322 1.49991,1.37943 4.19814,-10e-4 3.43775,-1.75928 -0.35935,-0.83082 -1.04603,-4.00032 -1.52591,-7.04333 -0.47988,-3.04302 -1.55283,-6.85117 -2.38433,-8.4628 -2.13342,-4.13475 -10.26674,-10.68876 -17.8078,-14.34997 l -6.41468,-3.1144 0.20445,-6.43458 c 0.21229,-6.68869 -1.69976,-13.13021 -5.79018,-19.50592 l -1.84935,-2.88277 5.04458,-0.11559 c 29.32867,-0.67145 50.93811,2.62188 64.93491,9.89614 8.10306,4.2114 16.81067,12.31759 19.90688,18.53165 3.11342,6.24852 4.77825,14.58438 3.98103,19.93334 -0.51148,3.43183 -0.37761,3.79731 1.39072,3.79731 1.61063,0 2.07635,-0.72872 2.63304,-4.12002 0.78135,-4.75964 -0.82313,-14.7052 -2.99568,-18.56888 -0.81217,-1.44448 -1.29873,-2.79002 -1.08118,-2.98999 0.82145,-0.75545 17.05405,4.12754 23.22987,6.98781 7.01531,3.24909 10.64844,6.56873 12.33621,11.27198 1.50342,4.18945 -0.18753,7.1275 -6.12206,10.63625 -11.05763,6.53818 -11.58457,6.99919 -14.56301,12.73891 -3.8406,7.40106 -4.41888,13.59346 -2.91267,31.19114 0.99373,11.60996 1.70261,15.33645 4.14861,21.8088 2.72916,7.22163 2.95063,8.66996 2.95562,19.33122 0.006,11.02812 0.0866,11.51414 1.89169,11.27586 1.78802,-0.2358 1.88209,-0.88141 1.80593,-12.39231 -0.073,-11.04618 -0.31763,-12.73112 -2.70669,-18.64858 -2.99171,-7.41049 -4.4678,-18.30087 -4.64355,-34.26277 -0.11286,-10.25938 -0.0672,-10.49516 3.1865,-16.45067 3.09168,-5.6589 3.74305,-6.27016 10.27339,-9.63978 7.67634,-3.9609 10.13266,-6.31128 11.03166,-10.55655 0.32838,-1.55046 0.91975,-2.8189 1.31418,-2.8189 1.72652,0 15.13227,8.81689 20.29371,13.34712 3.20976,2.81724 8.92414,6.53178 13.20382,8.58304 12.37426,5.93106 17.33641,11.51165 18.77383,21.11395 1.5726,10.50461 1.65009,12.46728 0.607,15.37394 -1.70074,4.73935 -10.30781,11.30224 -20.79562,15.85691 -14.88856,6.46567 -16.90247,7.53658 -21.80482,11.59551 -5.44622,4.5094 -7.57337,9.02463 -6.43581,13.66262 0.91537,3.73259 1.97631,4.78017 4.08701,4.03533 1.07372,-0.37897 1.39907,-1.05198 0.95712,-1.98008 -0.36819,-0.77329 -0.84908,-2.57693 -1.0686,-4.00809 -0.87428,-5.70056 7.47223,-12.3401 23.55452,-18.73691 9.52174,-3.78759 17.73773,-9.17098 22.7488,-14.90626 2.37451,-2.71769 2.93677,-4.24723 3.25596,-8.85772 l 0.38585,-5.5728 3.90068,1.82401 c 7.53835,3.52487 14.84356,8.66414 18.03972,12.69141 3.99581,5.03457 5.38131,10.59793 4.59011,18.4289 -0.57421,5.68195 -0.49896,6.02216 1.33264,6.02216 1.72818,0 2.01403,-0.71436 2.60441,-6.50845 1.31229,-12.87916 -3.24176,-21.34055 -15.65982,-29.0971 -2.96732,-1.85319 -7.77359,-4.33693 -10.68045,-5.5192 -3.49695,-1.42224 -5.28527,-2.66026 -5.28527,-3.65846 0,-0.82977 -0.71756,-3.87618 -1.59461,-6.76979 -1.30427,-4.30332 -2.5492,-6.13407 -6.83775,-10.05609 -3.04125,-2.78112 -8.21357,-6.20851 -12.31659,-8.16118 -3.89041,-1.85146 -9.80773,-5.70305 -13.14975,-8.55916 -6.2667,-5.35591 -17.33007,-12.43953 -22.50964,-14.41276 -1.62058,-0.61735 -3.19103,-1.83076 -3.48969,-2.69644 -1.7752,-5.144 -15.15973,-12.06098 -30.99833,-16.0191 -9.07664,-2.2685 -9.47524,-2.47603 -15.64623,-8.15146 -14.56664,-13.39655 -35.24417,-19.23043 -69.53711,-19.61922 -16.70346,-0.18941 -18.30727,-0.3455 -20.7491,-2.02023 l -2.64643,-1.815 48.67628,-0.0278 48.67628,-0.0278 -0.45074,2.16844 c -0.34238,1.64727 -0.0525,2.16846 1.20575,2.16846 0.91105,0 2.12767,-0.59074 2.70357,-1.31277 1.15414,-1.44693 9.87085,-3.01135 16.82305,-3.01912 8.081,-0.008 26.41034,7.63183 34.64927,14.44439 4.59071,3.79592 11.0839,12.10598 10.1384,12.97552 -0.28115,0.25857 -5.747,0.0772 -12.14628,-0.40338 -13.86422,-1.04116 -20.2028,-0.33358 -22.73069,2.5374 -1.72219,1.95597 -1.72439,2.04967 -0.0609,2.59732 0.94905,0.31249 2.56268,0.0359 3.58574,-0.61497 2.28294,-1.45188 13.81108,-1.56191 26.70686,-0.25495 7.65341,0.77572 10.16589,1.44083 15.28868,4.04755 11.78238,5.9955 21.62062,14.02448 26.87357,21.93155 3.65095,5.49559 11.62234,26.57315 12.43437,32.87692 0.47595,3.69595 0.28657,4.39609 -1.46087,5.39978 -2.55756,1.46893 -2.66051,4.20529 -0.15824,4.20529 1.01726,0 2.75117,-0.87822 3.85328,-1.95159 1.69845,-1.65437 1.94934,-2.76656 1.64739,-7.30274 l -0.35617,-5.3509 4.37025,3.36517 c 18.30124,14.0917 29.1635,31.24391 33.57423,53.01466 2.39653,11.82825 2.40723,49.08766 0.0182,60.14105 -2.47666,11.45582 -4.8776,15.46671 -17.10479,28.57497 l -10.97308,11.76326 -4.90235,-0.49049 c -4.73627,-0.47386 -9.23699,0.12632 -17.16307,2.28915 -3.34142,0.91171 -4.41135,0.79313 -9.36141,-1.03744 -3.07386,-1.13675 -5.7319,-2.47241 -5.90704,-2.96803 -0.17515,-0.49563 1.65303,-1.38614 4.06225,-1.97872 5.37766,-1.32278 10.7345,-5.92385 10.7345,-9.2196 0,-2.62367 -2.00681,-6.57621 -4.18183,-8.23617 -1.14442,-0.87346 -1.78003,-0.89587 -2.82332,-0.0997 -1.14689,0.87538 -1.00209,1.49419 0.97729,4.17667 2.86597,3.88397 2.62982,5.25704 -1.32604,7.70851 -5.49756,3.40711 -13.41609,4.4894 -26.15032,3.5743 -26.00387,-1.86855 -95.26587,1.24535 -120.2276,5.40505 -15.56711,2.59433 -25.45456,2.45288 -38.19754,-0.54642 -9.81286,-2.30971 -11.49823,-2.4431 -31.12214,-2.46352 -17.14285,-0.0166 -21.97847,0.2594 -27.82269,1.59536 -11.16515,2.55219 -20.41481,7.00196 -26.57069,12.78223 -2.94247,2.76299 -12.12061,9.67867 -20.39608,15.36784 -15.80961,10.86926 -29.99122,18.05648 -43.10473,21.84463 -6.50649,1.87974 -20.87502,2.99913 -25.89757,2.01738 h -6e-5 z m 33.3568,-18.68579 c 7.48157,-2.66218 13.91648,-8.41171 15.59248,-13.93174 1.18446,-3.90063 1.0045,-9.39594 -0.50857,-15.5303 l -0.57352,-2.32518 6.96459,0.4844 c 6.17852,0.42975 7.49335,0.23774 11.65102,-1.70196 5.16236,-2.40848 13.27114,-9.85837 18.371,-16.87839 l 3.29188,-4.53134 10.37456,-0.0375 c 11.38286,-0.0411 20.74788,-1.52075 26.88534,-4.24778 l 3.97738,-1.76735 3.88469,1.82267 c 5.7624,2.70368 16.19281,5.83331 24.19832,7.26081 13.43694,2.3958 28.59396,1.12762 45.04949,-3.76926 l 8.73752,-2.60031 12.95467,1.7189 c 17.52304,2.32507 45.14008,2.56064 54.23574,0.46256 6.39957,-1.47614 13.11985,-4.16085 15.78634,-6.30655 1.18101,-0.95035 3.18953,-0.92169 11.78933,0.16832 13.69544,1.73566 37.3067,1.98857 42.81786,0.45859 2.28653,-0.635 5.36347,-2.26385 6.83775,-3.61956 2.30426,-2.1192 2.68038,-3.14384 2.68038,-7.30247 0,-4.51495 -0.14948,-4.83739 -2.242,-4.83739 -2.0925,0 -2.21051,0.2569 -1.77604,3.80176 0.56733,4.6291 -1.38416,6.83644 -7.4858,8.46696 -5.07115,1.35509 -26.26084,1.16833 -38.11902,-0.33602 l -8.59741,-1.09056 1.24647,-4.33694 c 1.86884,-6.50234 1.7204,-9.97472 -0.42637,-9.97472 -1.37613,0 -1.98425,1.04486 -2.81066,4.82933 -1.2431,5.69279 -3.77476,9.26486 -8.50287,11.99795 -7.9741,4.6091 -23.63121,7.07501 -39.27563,6.18545 -8.74777,-0.49742 -34.5798,-3.05439 -35.14451,-3.47904 -0.13734,-0.10298 0.8856,-2.05521 2.27298,-4.33804 1.94135,-3.19438 2.51088,-5.28952 2.47192,-9.09323 -0.0554,-5.39394 -3.06388,-12.17402 -5.40182,-12.17402 -2.33794,0 -2.50551,1.55035 -0.5349,4.93183 2.80684,4.81628 2.53114,10.31576 -0.75523,15.06512 -3.41148,4.93014 -4.12083,5.40921 -11.3732,7.6846 -22.70654,7.12361 -44.37003,6.45209 -64.17996,-1.98891 l -4.69793,-2.00172 3.3227,-2.95471 c 6.71484,-5.97134 12.91089,-21.5144 8.86103,-22.22871 -1.00672,-0.17747 -2.03967,1.56503 -3.5818,6.04271 -3.82972,11.11978 -10.65086,17.56157 -22.90432,21.63022 -5.51388,1.83087 -7.4849,1.99822 -22.15815,1.88145 -17.71149,-0.14109 -24.89017,-1.29307 -32.02809,-5.13984 -4.12747,-2.22448 -6.09729,-2.21132 -6.09729,0.0409 0,2.73691 15.00905,8.2631 22.44231,8.2631 h 3.18318 l -3.53861,4.55385 c -8.32713,10.71539 -16.47095,16.26348 -23.87309,16.26348 -2.43569,0 -5.9442,-1.05884 -10.08375,-3.04301 -3.4915,-1.67371 -6.51614,-2.88862 -6.72148,-2.69995 -0.20534,0.18866 0.70765,2.78945 2.02864,5.77915 3.64038,8.23951 4.76495,14.39609 3.44078,18.83549 -1.94787,6.52984 -9.27142,11.61163 -20.47218,14.20529 -3.16628,0.73323 -4.13141,1.36443 -4.13141,2.702 0,1.53025 0.43572,1.6817 3.53681,1.22924 1.94519,-0.28384 6.04413,-1.40829 9.10894,-2.4988 z m 351.89818,-52.73139 c 4.52065,-1.91165 9.78358,-4.61521 11.69541,-6.00771 6.97032,-5.07734 11.42454,-16.40625 13.32551,-33.8934 1.16652,-10.73124 0.63877,-12.48477 -5.16902,-17.17443 -6.56565,-5.30174 -17.11777,-5.78664 -32.36024,-1.48662 -7.25146,2.04572 -8.42436,2.63409 -8.02847,4.02699 0.58579,2.06016 0.65564,2.05642 9.13916,-0.49046 16.31118,-4.89681 27.73451,-3.2613 32.01298,4.58356 2.14985,3.94145 -0.16791,21.00285 -4.19935,30.9134 -3.04487,7.48411 -7.40215,11.38057 -17.61092,15.7475 -7.91249,3.38461 -9.89742,5.02262 -8.0952,6.6798 0.83419,0.76718 0.0302,1.01829 9.28893,-2.89748 z m -3.32904,-13.53013 c 4.9401,-4.10476 6.62003,-7.76155 6.59255,-14.35083 -0.049,-11.69771 -5.97168,-26.83281 -8.83385,-22.57392 -0.26392,0.39282 0.58457,3.79704 1.88566,7.56519 2.93203,8.4914 3.82368,16.40764 2.32039,20.59709 -1.03585,2.88666 -5.27681,7.13389 -9.07542,9.08879 -1.09097,0.56148 -1.38037,1.38765 -0.93651,2.67375 0.77578,2.24793 2.50844,1.602 8.04718,-2.99996 z M 609.24719,335.17833 c 1.67675,-2.02672 1.87715,-3.54903 1.80419,-13.704 l -0.0821,-11.42416 -8.17734,-12.57698 C 590.52121,278.6002 587.06836,268.851 592.40799,268.15114 c 3.56427,-0.46734 5.16689,-3.15385 6.14109,-10.2955 0.62515,-4.58328 0.59829,-9.89947 -0.0828,-16.37375 -0.55469,-5.27286 -1.00844,-10.05444 -1.00844,-10.62543 0,-0.571 -0.80892,-1.03826 -1.79757,-1.03826 -1.72008,0 -1.77522,0.66539 -1.27906,15.43671 0.53891,16.04408 -0.003,19.25846 -3.2484,19.25846 -0.8487,0 -2.31923,0.64598 -3.26775,1.43552 -4.54601,3.7837 -0.41081,15.8508 11.78027,34.37664 l 7.29918,11.09144 0.53563,7.99067 c 0.69564,10.37825 -0.61649,14.3147 -5.4722,16.41735 -4.18997,1.81447 -5.07629,2.9558 -3.58119,4.61271 0.97223,1.07735 1.67983,0.95605 5.03282,-0.86248 2.14578,-1.16386 4.75015,-3.14216 5.78775,-4.39609 z"
     id="path156"
     inkscape:connector-curvature="0"
     style="fill:#000000;stroke:#ffffff;stroke-width:0.90447348;stroke-linecap:round;fill-opacity:1" />
  <path
     d="m 390.3214,189.48453 c 0.29928,-0.71748 5.81737,-9.0388 12.26223,-18.49196 14.0705,-20.63846 16.81248,-25.49891 20.00261,-35.45973 2.3759,-7.41772 2.71956,-15.03818 0.87725,-19.45344 -0.48341,-1.15854 0.66521,-1.57188 6.81209,-2.4513 l 7.39369,-1.05776 8.61369,3.97173 c 12.94773,5.97049 16.78592,6.68759 39.8977,7.4566 19.6049,0.65217 24.64224,1.3261 30.65105,4.10086 4.56444,2.10737 12.73695,8.00872 12.67927,9.15572 -0.0302,0.58086 -2.89456,2.30086 -6.36757,3.82202 -3.47299,1.52118 -9.16814,5.0343 -12.656,7.80654 -11.54323,9.17488 -21.75833,11.12839 -28.89897,5.52669 -12.65178,-9.925 -17.1232,-12.17956 -26.80532,-13.51485 -4.06255,-0.56028 -4.44273,-0.46105 -4.44273,1.15899 0,1.43894 0.93015,1.94956 4.95157,2.71818 7.38585,1.41171 13.77123,4.50355 19.57017,9.47592 6.57472,5.63778 11.48946,7.45355 18.39908,6.79756 2.84864,-0.27051 5.17926,-0.31691 5.17926,-0.10325 0,0.21359 -1.12656,2.02951 -2.50349,4.03559 -1.37695,2.00608 -3.5048,5.72944 -4.72842,8.27422 l -2.22499,4.62687 -4.4672,-0.62095 c -13.15036,-1.82801 -18.42475,-0.43453 -21.41165,5.65722 l -1.65043,3.36602 -2.96339,-1.58678 c -3.89223,-2.08411 -14.76927,-4.00783 -26.77753,-4.73603 -9.30252,-0.56408 -9.66731,-0.51958 -9.66731,1.17878 0,2.06274 1.61269,2.39087 15.09028,3.07052 9.95328,0.50196 17.53572,2.25278 20.89103,4.82377 2.20784,1.69178 2.08873,1.69803 -33.01556,1.72679 -30.9802,0.0249 -35.16566,-0.12863 -34.68853,-1.27566 z"
     id="path158"
     inkscape:connector-curvature="0"
     style="fill:#000000;stroke:#ffffff;stroke-width:0.90447348;stroke-linecap:round;fill-opacity:1" />
  <path
     d="m 515.73402,187.95706 c -5.18532,-3.67624 -10.99844,-6.38572 -17.54176,-8.17591 -2.46396,-0.67418 -4.47989,-1.61396 -4.47989,-2.08841 0,-1.29147 4.57923,-9.37872 7.82281,-13.81563 4.96728,-6.7948 15.72083,-15.79276 23.18519,-19.4001 6.56143,-3.17106 7.25175,-3.32102 12.72214,-2.76602 16.75661,1.70017 33.73126,7.66629 53.49891,18.80411 4.97573,2.80334 9.76817,5.09679 10.65025,5.09679 7.56944,0 25.73358,5.56835 32.74981,10.03942 3.19195,2.03432 7.44383,8.02427 7.44383,10.48685 0,0.51952 -3.86475,1.1165 -9.19562,1.42038 -8.70157,0.49606 -15.32612,1.82531 -15.32612,3.07553 0,0.31112 -21.81509,0.56567 -48.47696,0.56567 h -48.47699 l -4.57378,-3.24242 z m 90.21071,-5.4309 c 0.9763,-1.0819 0.41077,-2.12177 -3.36346,-6.1849 -5.61352,-6.04299 -10.38935,-9.27763 -17.11477,-11.59163 -2.85465,-0.98224 -7.16026,-3.04413 -9.56795,-4.58188 -4.22864,-2.7007 -4.69912,-2.79501 -13.80898,-2.77169 -5.18713,0.0138 -12.82663,0.19636 -16.97646,0.40642 -6.66955,0.33775 -8.16646,0.11751 -12.89941,-1.89897 -5.32452,-2.26843 -6.4349,-2.09505 -6.4349,1.00476 0,1.10743 9.43508,4.29083 14.8502,5.01041 l 4.94736,0.65741 -1.90275,2.87111 c -1.04652,1.57916 -3.37886,3.43849 -5.18321,4.13168 -2.18422,0.83934 -3.28041,1.83628 -3.28041,2.98359 0,1.96759 0.69663,2.09381 4.41859,0.80056 3.68899,-1.2818 7.31759,-4.66353 9.26416,-8.63332 1.54853,-3.15826 1.95224,-3.39239 6.80726,-3.95034 7.74579,-0.89001 13.84399,0.0656 18.41598,2.88584 2.20373,1.35937 6.97758,3.59791 10.60889,4.9743 5.15874,1.9556 7.89046,3.73093 12.49657,8.12176 3.24206,3.09051 5.89467,5.94467 5.89467,6.34237 0,1.15469 1.55175,0.83806 2.82898,-0.57728 z"
     id="path160"
     inkscape:connector-curvature="0"
     style="fill:#000000;stroke:#ffffff;stroke-width:0.90447348;stroke-linecap:round;fill-opacity:1" />
  <path
     d="m 465.42402,189.01241 c 0,-2.17362 2.17786,-6.1863 4.1921,-7.7235 1.90213,-1.4518 9.44475,-1.2997 19.00969,0.38337 9.96656,1.75375 15.11625,3.41599 20.18287,6.51483 l 4.24405,2.59581 -23.8142,0.003 c -23.37905,0.003 -23.81421,-0.0289 -23.81421,-1.77417 z"
     id="path162"
     inkscape:connector-curvature="0"
     style="fill:#000000;stroke:#ffffff;stroke-width:0.90447348;stroke-linecap:round;fill-opacity:1" />
  <path
     d="m 341.00795,316.84857 c -0.015,-11.82574 -1.28997,-17.6796 -6.09307,-28.0001 l -3.40876,-7.32357 3.04759,-8.13146 c 3.90189,-10.41047 6.5415,-12.79473 13.25757,-11.97544 4.05077,0.49418 4.5285,0.37606 4.5285,-1.11937 0,-0.91952 -0.67133,-1.90876 -1.49185,-2.19832 -2.85928,-1.00908 -9.08207,-0.5162 -11.74464,0.93018 -2.8452,1.54571 -6.51372,7.11583 -8.46633,12.855 -0.64919,1.90824 -1.34172,3.73232 -1.53896,4.05337 -0.19721,0.32104 -2.15746,-0.33196 -4.35606,-1.45132 -4.877,-2.483 -16.05179,-5.78749 -28.04737,-8.29395 -4.92802,-1.02963 -9.29467,-2.15665 -9.70415,-2.50446 -1.52437,-1.29492 8.98543,-16.0163 15.82167,-22.16205 7.33662,-6.59539 22.31729,-16.65676 38.68072,-25.97966 5.70593,-3.25076 10.55151,-6.05382 10.76773,-6.22879 0.43677,-0.35376 1.40524,-12.24261 2.8298,-34.74045 1.03516,-16.34736 1.97169,-19.60895 6.5714,-22.88608 14.44797,-10.29355 17.08517,-13.03579 17.08517,-17.76404 0,-3.6154 -2.51245,-7.59241 -8.15258,-12.90526 -5.67966,-5.35007 -5.70019,-6.18519 -0.21863,-8.79217 4.01695,-1.91032 16.5582,-3.42267 18.17139,-2.19133 3.54706,2.70745 13.6317,5.40895 22.01078,5.89636 9.24362,0.53775 8.7843,0.2803 10.08372,5.65528 0.85879,3.55264 -2.04449,15.04012 -5.58361,22.09263 -1.72317,3.43379 -8.75472,14.53773 -15.6257,24.67519 -18.36435,27.09554 -21.85103,34.83764 -19.33552,42.92774 2.36189,7.59825 4.4373,21.3314 3.77658,24.98679 -1.05272,5.82136 -4.12899,12.53089 -10.48538,22.86998 -9.21466,14.98792 -10.04057,17.26497 -10.12814,27.91957 -0.0411,5.00901 0.24913,12.6203 0.64474,16.9139 l 0.71946,7.80653 -7.79292,4.91627 c -4.28631,2.7039 -9.59665,6.15298 -11.8014,7.66462 l -4.0085,2.74846 -0.015,-10.26688 z"
     id="path164"
     inkscape:connector-curvature="0"
     style="fill:#000000;stroke:#ffffff;stroke-width:0.90447348;stroke-linecap:round;fill-opacity:1" />
  <path
     d="m 235.73746,162.54534 c -2.52276,-3.54097 -2.81401,-10.70929 -0.59666,-14.68408 l 1.84803,-3.31297 23.95614,-6.63926 c 19.60701,-5.43393 26.49457,-7.78542 37.93784,-12.95303 15.31223,-6.91448 23.65898,-9.78975 34.27179,-11.80547 6.82478,-1.29644 7.1355,-1.2772 16.44346,1.01824 9.01442,2.2231 9.80652,2.61166 15.89869,7.79905 6.74956,5.74721 9.97171,10.49628 9.0108,13.28073 -0.31666,0.91749 -1.73823,2.81279 -3.15902,4.21141 l -2.58339,2.54336 -12.71671,-0.44626 c -10.90966,-0.38288 -14.79736,-0.12022 -27.35855,1.8488 -8.92957,1.39969 -24.64978,2.91553 -40.2933,3.8859 l -25.65295,1.59075 -6.83986,3.13798 c -3.76209,1.72585 -9.47225,5.31314 -12.68955,7.9718 l -5.84967,4.83405 -1.62499,-2.28086 z"
     id="path166"
     inkscape:connector-curvature="0"
     style="fill:#000000;stroke:#ffffff;stroke-width:0.90447348;stroke-linecap:round;fill-opacity:1" />
  <path
     d="m 203.30473,389.91765 c -0.79693,-0.75629 -3.9801,-2.2165 -7.0736,-3.24492 -4.76466,-1.58397 -8.72483,-1.97356 -25.90211,-2.54826 -29.96947,-1.00266 -31.70494,-1.21761 -37.30971,-4.62409 -2.62501,-1.59477 -8.1423,-6.22268 -12.26072,-10.28439 l -7.48792,-7.38493 v -5.94301 c 0,-4.72742 -0.53046,-6.93643 -2.59363,-10.80013 -3.43774,-6.43763 -3.49211,-13.03162 -0.16729,-20.29687 1.3099,-2.86222 4.06889,-9.04184 6.13112,-13.73204 2.06223,-4.69019 4.78306,-10.4038 6.04656,-12.69669 4.19693,-7.61685 12.27038,-12.16986 21.57954,-12.16986 h 3.28162 l 3.50842,8.45697 c 4.3319,10.44184 6.24286,13.50847 11.37713,18.25922 5.3218,4.92404 8.87913,11.77159 9.52658,18.33864 0.4451,4.5144 0.783,5.25342 2.40238,5.25342 1.73938,0 1.84685,-0.43033 1.39639,-5.59113 -0.63281,-7.25025 -4.90477,-15.71361 -10.41955,-20.64292 -4.84679,-4.33221 -6.01093,-6.23489 -10.4452,-17.07055 l -3.28012,-8.01538 5.12944,-11.40778 c 2.82119,-6.27434 4.9235,-11.90129 4.67165,-12.50478 -1.25967,-3.01885 -3.39698,-0.41463 -7.81315,9.52064 -5.2741,11.8649 -3.43564,10.45073 -16.43742,12.64475 -6.64509,1.12146 -12.19851,4.42748 -15.77216,9.38928 -1.50933,2.0956 -4.95972,8.77968 -7.66789,14.85349 -7.70323,17.27747 -6.10605,15.70332 -15.394681,15.17037 -10.960996,-0.6289 -15.591262,0.16248 -19.852822,3.39268 -3.140588,2.3807 -3.389116,2.84083 -2.150667,3.98005 1.238449,1.13923 1.800138,1.00755 4.856752,-1.13666 3.878643,-2.72075 10.118157,-3.60125 18.607449,-2.6262 l 4.990529,0.57323 -0.33627,7.42106 c -0.29897,6.5987 -0.0753,7.86847 2.02095,11.45777 2.91017,4.98347 3.66633,8.3517 2.74422,12.22428 -0.65976,2.77093 -1.34655,3.24215 -9.643165,6.6176 l -8.93288,3.63429 -3.374339,-2.45203 c -6.538497,-4.75156 -11.347832,-13.53179 -12.9121,-23.57484 -0.597198,-3.83398 -1.048019,-4.6005 -2.844114,-4.83599 -2.005453,-0.26302 -2.100241,-0.0533 -1.568914,3.46959 1.689166,11.20004 7.172652,22.04181 13.704495,27.09638 l 3.191336,2.46958 0.01502,8.55915 c 0.01185,5.86692 -0.32481,8.55917 -1.066209,8.55945 -1.274355,2e-5 -17.08697,-24.49939 -19.874255,-30.79122 -3.590848,-8.10703 -5.286475,-18.10868 -4.407703,-25.99742 l 0.613619,-5.50809 4.594031,-2.29955 c 2.526734,-1.26474 4.594032,-2.47808 4.594032,-2.69632 0,-0.21823 -1.109346,-2.01299 -2.465243,-3.98839 l -2.465258,-3.59152 3.04639,-9.61867 C 77.952913,276.22738 85.15818,263.11217 97.4645,252.1282 l 3.66604,-3.27187 6.54091,0.86941 c 3.59749,0.47819 7.71893,0.87714 9.15877,0.88659 l 2.61803,0.0167 -3.90311,-6.54039 -3.90309,-6.54039 6.89965,-8.42195 c 9.5598,-11.66885 27.78403,-28.20284 37.63889,-34.14613 8.82327,-5.32174 19.99354,-10.65403 28.84912,-13.77092 5.20676,-1.83273 5.98586,-2.44892 8.35429,-6.60954 4.90478,-8.61554 15.03412,-15.0443 28.96358,-18.38282 l 6.92624,-1.65991 0.64306,3.28492 c 0.35372,1.80666 1.53851,4.89903 2.63291,6.87199 l 1.98982,3.58707 -4.13775,4.51745 c -8.15771,8.9066 -12.44582,15.52586 -12.44582,19.21292 0,4.91793 -3.40212,6.544 -15.52575,7.42021 -11.41305,0.82482 -16.91304,3.12357 -18.16354,7.59158 -0.87951,3.14244 -5.40304,6.75147 -19.06435,15.20981 -7.15149,4.42803 -9.64828,5.46117 -16.50506,6.83005 -7.33479,1.46439 -8.41681,1.95161 -11.75127,5.29121 -2.01984,2.02313 -5.1817,5.82524 -7.02619,8.44889 -3.22123,4.58217 -15.22829,28.91659 -15.23463,30.87454 -0.006,1.55077 -2.81766,3.37768 -11.79235,7.65962 -13.52088,6.45096 -17.620865,11.92823 -19.038063,25.43531 -0.523493,4.98848 -0.42093,5.42117 1.284689,5.42117 1.585068,0 2.017767,-0.97133 2.987121,-6.70563 2.040762,-12.0721 4.991137,-15.47005 19.010593,-21.89435 6.39293,-2.92942 11.31764,-6.55038 11.31764,-8.32144 0,-1.75332 11.13434,-24.73378 14.34288,-29.60255 1.66645,-2.52878 4.80481,-6.1999 6.97395,-8.15785 3.37916,-3.04996 5.05817,-3.79843 11.71895,-5.22482 6.73508,-1.44232 9.17629,-2.54472 18.25745,-8.24478 12.3338,-7.74182 16.12035,-10.85705 18.62044,-15.31867 2.25903,-4.03144 4.17339,-4.73825 15.40858,-5.68807 6.15828,-0.52064 10.22024,-1.37722 13.39496,-2.82472 4.43308,-2.02124 4.56473,-2.19357 4.85072,-6.35043 0.23826,-3.45876 1.17343,-5.44199 4.90839,-10.40853 10.7028,-14.23195 21.20811,-23.6501 31.9556,-28.64718 4.45059,-2.06973 6.76558,-2.46686 18.39124,-3.15522 28.26661,-1.67387 39.93695,-2.71583 53.20599,-4.75018 12.92508,-1.98175 27.46908,-2.74108 30.69634,-1.60259 1.11063,0.39199 0.68941,1.10816 -1.8647,3.17051 -6.82778,5.51336 -7.1346,6.76784 -8.86041,36.22348 -1.4116,24.09391 -0.27602,21.36444 -11.55621,27.77514 -8.74235,4.96875 -22.74338,13.71427 -29.09524,18.17339 l -2.46773,1.73239 -2.10281,-4.97542 c -3.16657,-7.49215 -3.62256,-17.54908 -1.13693,-25.07483 2.10798,-6.38264 7.20709,-14.33331 12.92507,-20.1544 2.9398,-2.99274 3.30157,-3.76621 2.28721,-4.89016 -1.05955,-1.17412 -1.59516,-0.99055 -4.43791,1.52096 -5.09079,4.49773 -12.38573,15.33285 -14.47876,21.50497 -3.03491,8.94937 -2.28694,22.45729 1.64253,29.66366 2.05356,3.76648 1.58303,4.94208 -4.28813,10.71457 -3.06088,3.00941 -7.95538,9.20654 -10.87705,13.77176 l -5.31183,8.30032 -7.27835,-0.005 -7.27833,-0.005 -0.0637,-8.01816 c -0.0701,-8.823 -0.58393,-10.8018 -8.65145,-33.31017 l -5.33478,-14.88376 2.85632,-7.66795 c 1.57096,-4.21751 5.5664,-12.8622 8.87883,-19.2107 5.00502,-9.59285 5.78896,-11.67855 4.64023,-12.34703 -0.76027,-0.44222 -1.60355,-0.81002 -1.87396,-0.81731 -0.838,-0.0223 -14.34772,27.02027 -16.17289,32.37424 -0.94961,2.78583 -1.7266,6.22766 -1.7266,7.6485 0,1.42083 2.71511,10.07081 6.03357,19.22181 6.30415,17.38438 8.68767,27.85845 7.6389,33.56845 -0.64363,3.50376 -1.0084,3.7426 -7.17083,4.69436 -5.36409,0.82851 -11.48101,5.07513 -14.09918,9.78782 -2.12611,3.82702 -2.31278,5.16316 -2.39832,17.16636 -0.10328,14.50578 -0.83104,16.90504 -6.27244,20.68153 -4.20268,2.91692 -9.23096,4.02255 -18.31907,4.02838 l -7.70775,0.005 -1.06485,-2.96747 c -0.58567,-1.63204 -2.34886,-4.59743 -3.91821,-6.58983 l -2.85334,-3.62262 3.40301,-4.71353 c 5.28286,-7.31746 10.02939,-11.71827 14.66177,-13.59374 5.07901,-2.05637 14.36281,-9.2393 18.1412,-14.03587 l 2.72169,-3.45517 -2.03741,-0.83608 c -1.62643,-0.66745 -2.23267,-0.4954 -3.00561,0.853 -1.84081,3.21132 -12.20153,11.52802 -17.06704,13.70011 -6.60704,2.94942 -9.05339,5.04235 -15.15642,12.96552 l -5.20827,6.76174 -3.33144,-4.15947 c -4.90418,-6.12297 -7.07209,-10.65097 -7.84849,-16.39124 -0.60136,-4.44719 -0.97464,-5.15289 -2.8549,-5.39812 -2.09006,-0.27272 -2.141,-0.12631 -1.50999,4.33693 1.3254,9.3743 5.14243,16.22989 13.80415,24.79239 3.07718,3.04191 6.44457,7.29775 7.48338,9.45732 l 1.88857,3.92646 -2.05103,1.32118 c -6.07373,3.91257 -16.43833,12.12263 -20.63526,16.34571 -5.17445,5.20704 -7.09865,9.69255 -6.10907,14.2425 l 0.61254,2.81666 -3.20432,-0.63653 c -8.6155,-1.71153 -15.72475,-7.77266 -21.32467,-18.1809 -3.34715,-6.22072 -5.04156,-7.686 -6.45573,-5.5817 -1.0577,1.57386 6.84982,15.10872 11.27142,19.2929 5.12281,4.8474 10.54818,7.45523 16.90609,8.12593 3.56127,0.37568 5.77025,1.22096 8.14321,3.11578 4.27061,3.40989 13.39436,7.29025 19.74772,8.39836 5.50783,0.96065 18.89977,1.0281 27.92569,0.14052 5.03492,-0.49506 5.69385,-0.78398 5.97619,-2.62087 0.27329,-1.77806 0.0118,-1.99466 -1.88625,-1.56119 -5.10862,1.16671 -24.14277,1.61412 -29.55486,0.69467 -7.21524,-1.22579 -18.48093,-6.29434 -21.62303,-9.72838 -3.43262,-3.75177 -3.33297,-8.91576 0.25969,-13.4771 2.8746,-3.64984 11.49974,-10.82122 19.94825,-16.58648 3.83334,-2.61583 5.81011,-3.42822 7.57308,-3.11272 1.31219,0.23495 6.08792,0.053 10.61311,-0.40431 11.1908,-1.1309 17.67614,-4.05477 21.1912,-9.55369 2.50637,-3.92119 2.59449,-4.48747 2.65637,-17.06641 0.0688,-14.00587 0.89392,-17.30468 5.25024,-20.99256 3.57636,-3.02747 8.49533,-4.49829 16.98249,-5.0779 l 7.88351,-0.53837 6.30113,5.78582 c 7.65491,7.02889 12.16922,14.7138 17.70846,30.1469 3.249,9.0521 4.29717,11.05895 5.7775,11.05895 0.99447,0 1.80816,-0.55612 1.80816,-1.23585 0,-2.5537 -8.79519,-24.57187 -11.95934,-29.9386 -1.81162,-3.07302 -5.21854,-7.65933 -7.57097,-10.19163 -2.50764,-2.69941 -3.72432,-4.60438 -2.94104,-4.60438 0.73483,0 8.10757,1.56057 16.38366,3.46793 14.86318,3.42546 26.55678,7.7921 27.87734,10.41019 8.29089,16.4368 10.27732,23.82453 10.27732,38.22589 v 11.06006 l -14.18645,10.99813 c -9.71351,7.53048 -14.66177,10.83039 -15.69453,10.46603 -4.57532,-1.61464 -16.91486,3.06023 -31.5872,11.96654 l -2.5206,1.53015 -1.61068,-3.12161 c -0.88588,-1.71685 -2.48627,-3.68568 -3.55643,-4.37498 l -1.94575,-1.2534 2.09122,-2.04722 c 4.7574,-4.65714 5.01801,-11.57078 1.11844,-29.64699 -2.7317,-12.66252 -3.5688,-23.77563 -2.24861,-29.84695 0.5953,-2.73739 4.4349,-7.26192 6.7671,-7.974 1.54971,-0.47329 0.46492,-3.37933 -1.26144,-3.37933 -2.29231,0 -6.82296,4.29721 -8.45546,8.0201 -2.62458,5.98522 -2.11559,18.43972 1.42695,34.9154 2.1953,10.20995 2.82182,15.02429 2.37042,18.21506 -1.12457,7.94872 -4.21775,10.01749 -10.87795,7.27497 -10.42347,-4.29194 -48.70647,-13.42793 -50.34624,-12.01405 -1.6039,1.38546 0.24311,3.22409 3.82249,3.80565 9.96264,1.61813 32.06733,7.18054 40.72512,10.24745 7.29042,2.58296 10.81212,4.38415 13.91136,7.11528 2.28233,2.01119 4.1498,4.24779 4.1498,4.97041 0,1.41642 -26.08448,18.17285 -31.57209,20.28132 -4.91262,1.88778 -14.926,3.63929 -24.54499,4.2936 -7.07782,0.48134 -8.72905,0.34878 -9.93727,-0.79784 z M 200.9821,264.20884 c -7.47946,-4.94182 -12.48057,-11.54969 -16.04121,-21.19448 -1.73145,-4.6902 -2.49332,-5.76998 -3.9019,-5.52892 -0.96266,0.1647 -1.87201,0.4067 -2.02079,0.53795 -0.14879,0.1312 1.02456,3.50932 2.60747,7.50715 3.5054,8.85299 8.35854,15.54058 14.53736,20.03221 4.30142,3.12688 4.75861,3.27158 6.14711,1.94661 1.37788,-1.31482 1.26957,-1.584 -1.32816,-3.30047 z"
     id="path168"
     inkscape:connector-curvature="0"
     style="fill:#000000;stroke:#ffffff;stroke-width:0.90447348;stroke-linecap:round;fill-opacity:1" />
  <path
     d="m 129.7724,413.21866 c -17.33459,-4.07475 -26.42029,-8.21951 -38.490451,-17.55741 -4.926829,-3.81203 -4.972422,-3.89062 -2.82945,-4.87571 2.038219,-0.93698 2.178165,-1.51295 2.178165,-8.96409 0,-5.9405 0.359319,-8.28254 1.41472,-9.22153 0.778084,-0.69226 5.181375,-2.81168 9.785076,-4.70963 l 8.3703,-3.451 3.93723,4.07698 c 6.35096,6.5765 15.19537,13.71122 19.5013,15.73138 4.93317,2.31461 16.24477,3.35046 37.05607,3.3935 16.29096,0.0336 25.01729,1.58144 30.24639,5.36507 2.37714,1.71966 3.2916,1.81789 12.23657,1.31457 17.05648,-0.95978 25.8568,-3.27435 35.60956,-9.36512 3.01172,-1.88094 5.47583,-3.19187 5.47583,-2.91304 0,0.27884 -1.66704,3.31825 -3.70471,6.75451 -2.03768,3.43628 -3.99459,7.71127 -4.34912,9.50037 -0.35452,1.78911 -0.70337,3.25242 -0.77534,3.25216 -0.072,-2.9e-4 -2.41156,-0.79766 -5.19919,-1.77202 -9.56766,-3.34434 -21.23077,-3.85842 -60.61359,-2.67221 -52.51143,1.58186 -67.54403,0.28886 -79.774248,-6.86199 -1.615031,-0.94417 -2.355511,-0.99054 -3.213983,-0.20107 -1.508225,1.38706 0.262719,3.28686 5.249321,5.63195 6.30627,2.96554 12.49386,4.0956 27.88581,5.09318 8.04024,0.52118 14.78346,1.09471 14.98519,1.2745 0.20172,0.1798 0.41378,2.66723 0.47158,5.52753 0.0843,4.16585 -0.27028,5.52115 -1.78121,6.81062 -1.8419,1.57191 -2.16375,1.54458 -13.67551,-1.16147 z"
     id="path170"
     inkscape:connector-curvature="0"
     style="fill:#000000;stroke:#ffffff;stroke-width:0.90447348;stroke-linecap:round;fill-opacity:1" />
  <path
     d="m 220.33643,427.46588 c -2.82916,-0.44221 -5.38492,-1.16278 -5.67966,-1.60125 -0.88004,-1.30957 -15.42335,-2.66792 -33.50476,-3.1291 -14.7726,-0.3769 -18.05572,-0.73038 -25.28997,-2.72292 -8.13779,-2.24139 -8.29724,-2.33696 -7.545,-4.52411 0.42263,-1.22888 0.75493,-4.86905 0.73848,-8.08898 l -0.0302,-5.85469 h 9.25873 c 9.02561,0 9.23276,0.0443 8.22958,1.76871 -0.94465,1.62329 -0.43319,2.02197 6.2208,4.84934 13.71447,5.82747 32.17001,8.98768 52.50842,8.9924 l 11.08178,0.003 v 2.47386 c 0,1.36066 -0.96858,3.80009 -2.15239,5.42117 -2.44049,3.34155 -5.02044,3.79175 -13.83768,2.41351 z"
     id="path172"
     inkscape:connector-curvature="0"
     style="fill:#000000;stroke:#ffffff;stroke-width:0.90447348;stroke-linecap:round;fill-opacity:1" />
  <path
     d="m 205.026,412.35772 c -5.0325,-0.63119 -12.45971,-1.97739 -16.50505,-2.99164 -8.24106,-2.06612 -20.26411,-6.86033 -19.61757,-7.82236 0.23191,-0.34525 10.72545,-0.89699 23.31895,-1.22612 25.39659,-0.66376 38.12507,0.15913 46.37518,2.99775 l 5.23695,1.80197 -3.47701,4.28334 -3.47699,4.28333 -11.35208,-0.0894 c -6.24374,-0.0491 -15.46986,-0.60582 -20.50238,-1.23701 z"
     id="path174"
     inkscape:connector-curvature="0"
     style="fill:#000000;stroke:#ffffff;stroke-width:0.90447348;stroke-linecap:round;fill-opacity:1" />
  <path
     d="m 143.65903,437.51789 c -2.49535,-1.55941 -3.51995,-2.83385 -3.51995,-4.37831 0,-3.82352 -5.20735,-6.79881 -16.74073,-9.56497 -1.9729,-0.47318 -1.31582,-2.72066 0.94315,-3.2259 8.47194,-1.89479 13.40342,-1.59376 23.91854,1.46003 13.33199,3.87185 21.33749,5.20358 27.08549,4.50577 6.65855,-0.80833 31.88484,1.18217 33.717,2.66052 0.81895,0.66076 2.35741,1.2014 3.41887,1.2014 1.06148,0 3.36172,0.26329 5.1117,0.58525 3.17713,0.58439 3.17444,0.58675 -1.86025,1.62957 -3.48551,0.72198 -7.27,0.81226 -12.25947,0.29253 -4.29996,-0.4479 -11.13614,-0.41333 -16.91162,0.0856 -9.0503,0.7817 -28.78016,4.36404 -33.90545,6.15616 -3.51721,1.22982 -5.19774,0.96689 -8.99728,-1.40759 z"
     id="path176"
     inkscape:connector-curvature="0"
     style="fill:#000000;stroke:#ffffff;stroke-width:0.90447348;stroke-linecap:round;fill-opacity:1" />
  <path
     d="m 462.49481,466.12501 c -28.31493,-15.87719 -7.09775,-32.30482 39.96715,-30.94397 43.89895,1.26828 65.02249,1.02333 130.74258,-1.51617 l 60.3599,-2.33249 -23.16977,10.57127 c -30.45476,13.89452 -59.77407,17.86013 -122.52568,16.57177 -49.19869,-1.01001 -52.11281,-0.68654 -60.75248,6.74563 -10.94379,9.41372 -9.54108,9.36206 -24.62231,0.9054 z"
     id="path178"
     inkscape:connector-curvature="0"
     style="fill:#000000;stroke:#ffffff;stroke-width:3.61795187;stroke-linecap:round;fill-opacity:1" />
  <path
     d="m 547.38159,528.72391 c -9.85575,-3.54264 -17.91953,-5.56975 -17.91953,-4.50413 0,1.06563 -3.39548,-0.8887 -7.54499,-4.34248 -4.14952,-3.45377 -7.54499,-5.25259 -7.54499,-3.99728 0,4.97515 -28.01173,-26.58702 -29.02699,-32.7075 -0.66387,-4.00062 2.86963,-8.92993 9.0875,-12.67726 8.45758,-5.09705 19.74743,-6.23018 66.92799,-6.71757 76.3015,-0.78803 97.59416,-4.43608 128.53813,-22.02459 13.57946,-7.7185 26.29527,-5.97551 22.51447,3.08606 -15.45176,37.03166 -37.24631,57.80817 -82.54342,78.68188 -30.34907,13.98532 -53.92169,15.47197 -82.48907,5.20232 z"
     id="path180"
     inkscape:connector-curvature="0"
     style="fill:#000000;stroke:#ffffff;stroke-width:3.61795187;stroke-linecap:round;fill-opacity:1" />
</svg>
