<?xml version="1.0" encoding="UTF-8" standalone="no"?>
<svg
   xmlns:dc="http://purl.org/dc/elements/1.1/"
   xmlns:cc="http://creativecommons.org/ns#"
   xmlns:rdf="http://www.w3.org/1999/02/22-rdf-syntax-ns#"
   xmlns:svg="http://www.w3.org/2000/svg"
   xmlns="http://www.w3.org/2000/svg"
   xmlns:sodipodi="http://sodipodi.sourceforge.net/DTD/sodipodi-0.dtd"
   xmlns:inkscape="http://www.inkscape.org/namespaces/inkscape"
   height="256"
   version="1.1"
   viewBox="0 0 256 256"
   width="256"
   xml:space="preserve"
   id="svg8"
   sodipodi:docname="drugs.svg"
   inkscape:version="0.92.4 (5da689c313, 2019-01-14)"><metadata
     id="metadata14"><rdf:RDF><cc:Work
         rdf:about=""><dc:format>image/svg+xml</dc:format><dc:type
           rdf:resource="http://purl.org/dc/dcmitype/StillImage" /><dc:title></dc:title></cc:Work></rdf:RDF></metadata><defs
     id="defs12" /><sodipodi:namedview
     pagecolor="#ffffff"
     bordercolor="#666666"
     borderopacity="1"
     objecttolerance="10"
     gridtolerance="10"
     guidetolerance="10"
     inkscape:pageopacity="0"
     inkscape:pageshadow="2"
     inkscape:window-width="1920"
     inkscape:window-height="1017"
     id="namedview10"
     showgrid="false"
     inkscape:zoom="0.4609375"
     inkscape:cx="256"
     inkscape:cy="256"
     inkscape:window-x="-8"
     inkscape:window-y="-8"
     inkscape:window-maximized="1"
     inkscape:current-layer="svg8" /><g
     id="_x36__x2C__medicine_x2C__Pill_x2C__capsule_x2C__drugs_x2C__tablet_x2C_"
     style="fill:#1d242d;fill-opacity:0.98823529"
     transform="matrix(0.4906389,0,0,0.4906389,8.9049184,0.03328603)"><g
       id="g4"
       style="fill:#1d242d;fill-opacity:0.98823529"><path
         d="M 254.796,75.619 H 76.973 v 19.45 h 163.417 0.151 14.256 V 75.619 Z M 76.973,66.365 H 254.796 V 46.917 H 76.973 Z m 228.76,158.373 H 26.001 V 363.7 H 219.96 v 0 l 0.112,-0.263 0.039,-0.113 0.077,-0.111 0.112,-0.227 0.074,-0.188 0.039,-0.076 0.112,-0.227 0.112,-0.188 v -0.037 l 0.112,-0.263 0.263,-0.452 0.116,-0.225 v -0.039 l 0.112,-0.188 0.151,-0.264 v -0.037 l 0.112,-0.189 0.112,-0.225 0.074,-0.075 0.078,-0.151 0.112,-0.225 0.073,-0.113 0.078,-0.112 0.112,-0.227 0.112,-0.149 0.039,-0.075 0.112,-0.227 0.151,-0.188 v -0.038 l 0.151,-0.225 0.112,-0.227 v 0 l 0.151,-0.225 0.151,-0.227 v -0.037 l 0.112,-0.15 0.151,-0.227 0.074,-0.076 0.077,-0.148 0.147,-0.227 0.077,-0.112 0.074,-0.114 0.302,-0.414 0.151,-0.225 0.112,-0.15 0.039,-0.037 0.151,-0.227 0.151,-0.227 v 0 l 0.298,-0.412 0.039,-0.039 0.112,-0.15 0.189,-0.225 0.039,-0.076 0.112,-0.15 0.151,-0.188 0.074,-0.076 0.073,-0.111 0.19,-0.227 0.074,-0.112 0.077,-0.075 0.151,-0.227 0.151,-0.149 0.035,-0.038 0.151,-0.188 0.34,-0.414 0.186,-0.188 v 0 l 0.151,-0.188 0.189,-0.226 0.035,-0.037 0.302,-0.339 0.077,-0.075 0.112,-0.114 0.151,-0.188 0.112,-0.112 0.074,-0.075 0.302,-0.339 0.074,-0.037 0.189,-0.188 0.151,-0.151 v -0.038 l 0.189,-0.188 0.186,-0.188 v 0 l 0.263,-0.263 0.151,-0.151 0.077,-0.075 0.263,-0.225 0.035,-0.075 0.228,-0.188 0.186,-0.189 0.039,-0.037 0.263,-0.227 0.112,-0.112 0.151,-0.151 0.263,-0.225 v 0 l 0.263,-0.227 0.189,-0.15 0.074,-0.075 0.263,-0.225 0.077,-0.075 0.186,-0.151 0.263,-0.225 v 0 l 0.414,-0.339 0.112,-0.075 0.263,-0.227 0.078,-0.036 0.225,-0.189 0.225,-0.15 0.039,-0.038 0.263,-0.225 0.151,-0.075 0.151,-0.151 0.263,-0.188 h 0.039 l 0.263,-0.188 0.186,-0.15 0.077,-0.075 0.298,-0.188 0.077,-0.074 0.186,-0.113 0.302,-0.189 v -0.037 l 0.302,-0.188 0.151,-0.075 0.112,-0.112 0.302,-0.189 0.074,-0.037 0.225,-0.15 0.229,-0.151 0.074,-0.036 0.302,-0.188 0.112,-0.075 0.488,-0.264 v 0 l 0.302,-0.188 0.189,-0.113 0.112,-0.074 0.302,-0.15 0.074,-0.039 0.225,-0.149 0.267,-0.151 h 0.035 l 0.302,-0.188 0.189,-0.075 0.147,-0.075 0.302,-0.151 0.039,-0.036 0.263,-0.115 0.225,-0.111 0.415,-0.227 0.112,-0.037 0.189,-0.112 0.337,-0.151 0.302,-0.15 0.189,-0.075 0.151,-0.075 0.298,-0.113 0.077,-0.036 0.263,-0.114 0.263,-0.112 0.039,-0.036 0.337,-0.115 0.151,-0.075 0.189,-0.073 0.298,-0.114 0.039,-0.037 0.302,-0.114 0.225,-0.073 0.112,-0.038 0.34,-0.113 0.074,-0.075 0.225,-0.075 0.34,-0.112 v 0 l 0.337,-0.114 0.189,-0.074 0.151,-0.038 0.337,-0.112 0.077,-0.039 0.263,-0.073 0.263,-0.075 v 0 l 0.151,-0.039 0.414,-0.15 0.449,-0.112 0.078,-0.037 v 0 l 0.186,-0.038 0.941,-0.264 h 0.077 l 0.414,-0.112 0.074,-0.038 0.34,-0.074 0.225,-0.039 v 0 l 0.225,-0.075 0.34,-0.075 v 0 h 0.074 l 0.453,-0.112 v 0 h 0.035 v 0 l 0.414,-0.075 0.151,-0.037 v 0 l 0.263,-0.039 0.302,-0.075 h 0.039 0.112 l 0.449,-0.073 v -0.039 0 l 0.414,-0.037 0.151,-0.038 v 0 l 0.302,-0.037 0.302,-0.038 v 0 l 0.151,-0.037 0.414,-0.039 v 0 h 0.035 l 0.452,-0.073 h 0.112 v 0 l 0.341,-0.038 0.225,-0.037 v 0 h 0.225 l 0.376,-0.039 v 0 l 0.077,-0.037 0.449,-0.038 h 0.077 0.375 l 0.189,-0.037 v 0 h 0.264 l 0.337,-0.036 v 0 h 0.112 0.452 l 0.039,-0.039 h 0.414 0.186 v 0 h 0.264 0.341 0.15 0.449 43.188 V 224.738 Z M 26.001,215.485 h 279.732 v -42.134 c 0,-10.984 -4.479,-20.953 -11.662,-28.139 -7.262,-7.26 -17.232,-11.736 -28.178,-11.736 -15.459,0 -23.398,-2.558 -27.536,-8.576 -3.46,-5.042 -3.611,-11.587 -2.973,-20.578 H 96.349 c 0.639,8.991 0.527,15.536 -2.934,20.578 -4.141,6.019 -12.076,8.576 -27.539,8.576 -10.985,0 -20.952,4.477 -28.139,11.699 -7.258,7.223 -11.736,17.191 -11.736,28.176 v 15.011 h 65.606 c 2.559,0 4.625,2.069 4.625,4.628 0,2.558 -2.067,4.627 -4.625,4.627 H 26.001 Z m 173.949,44.691 c -8.728,-8.729 -20.766,-14.107 -34.084,-14.107 -13.277,0 -25.318,5.379 -34.042,14.07 -8.689,8.727 -14.108,20.764 -14.108,34.08 0,13.317 5.418,25.356 14.108,34.047 8.689,8.726 20.766,14.105 34.042,14.105 13.318,0 25.356,-5.38 34.045,-14.069 8.728,-8.727 14.108,-20.766 14.108,-34.083 0.001,-13.317 -5.38,-25.354 -14.069,-34.043 z m -34.084,-23.362 c 15.838,0 30.171,6.434 40.591,16.816 10.384,10.419 16.817,24.752 16.817,40.588 0,15.839 -6.433,30.172 -16.817,40.555 -10.42,10.42 -24.752,16.853 -40.591,16.853 -15.8,0 -30.168,-6.433 -40.552,-16.815 -10.42,-10.42 -16.853,-24.753 -16.853,-40.592 0,-15.836 6.433,-30.169 16.818,-40.588 10.419,-10.383 24.752,-16.817 40.587,-16.817 z m 25.58,52.78 c 2.559,0 4.629,2.068 4.629,4.625 0,2.559 -2.07,4.628 -4.629,4.628 H 170.494 V 319.8 c 0,2.559 -2.071,4.628 -4.629,4.628 -2.52,0 -4.625,-2.069 -4.625,-4.628 v -20.953 h -20.956 c -2.52,0 -4.625,-2.069 -4.625,-4.628 0,-2.557 2.106,-4.625 4.625,-4.625 h 20.956 v -20.953 c 0,-2.559 2.105,-4.627 4.625,-4.627 2.558,0 4.629,2.068 4.629,4.627 v 20.953 z m 24.304,93.48 v 0 0 -0.188 -0.15 -0.151 -0.112 -0.075 -0.151 -0.148 -0.339 -0.151 l 0.035,-0.15 c 0,-0.715 0.039,-1.429 0.116,-2.105 V 379.2 c 0.035,-0.714 0.112,-1.392 0.225,-2.069 v 0 -0.15 l 0.039,-0.188 0.035,-0.151 v -0.112 -0.039 l 0.039,-0.148 v -0.15 l 0.225,-1.279 v -0.113 l 0.039,-0.038 v -0.151 l 0.039,-0.148 0.112,-0.603 0.039,-0.189 0.151,-0.751 H 26.001 v 34.346 h 88.629 c 2.559,0 4.625,2.069 4.625,4.627 0,2.558 -2.067,4.626 -4.625,4.626 H 26.001 v 8.729 c 0,10.946 4.478,20.916 11.701,28.139 6.994,6.996 16.589,11.436 27.121,11.699 h 202.088 c 10.57,-0.264 20.123,-4.703 27.121,-11.699 6.17,-6.208 10.381,-14.408 11.438,-23.512 h -42.925 -0.6 l -0.604,-0.039 v 0 h -0.6 l -0.604,-0.036 v 0 l -0.601,-0.037 v 0 l -0.564,-0.039 v 0 l -0.604,-0.036 v 0 l -0.601,-0.039 v 0 l -0.565,-0.075 v 0 l -0.6,-0.075 v 0 l -0.565,-0.074 v 0 l -0.604,-0.075 v 0 l -0.565,-0.114 v 0 l -0.562,-0.112 h -0.039 l -0.527,-0.075 h -0.039 l -0.565,-0.112 v 0 l -0.562,-0.151 v 0 l -0.565,-0.112 v 0 l -0.565,-0.15 v 0 l -0.565,-0.112 c -8.198,-2.145 -15.572,-6.472 -21.405,-12.265 -2.895,-2.934 -5.454,-6.244 -7.524,-9.855 l -0.263,-0.451 v -0.037 l -0.263,-0.489 h -0.035 l -0.264,-0.49 v 0 l -0.263,-0.489 V 404.3 l -0.228,-0.489 v 0 l -0.263,-0.488 v -0.038 l -0.225,-0.488 h -0.039 l -0.225,-0.527 v 0 l -0.225,-0.488 v -0.039 l -0.228,-0.487 v -0.039 l -0.225,-0.489 v -0.037 l -0.225,-0.489 v -0.036 l -0.189,-0.527 v 0 l -0.189,-0.526 v 0 l -0.186,-0.528 h -0.039 l -0.189,-0.526 v -0.036 l -0.147,-0.527 v 0 l -0.189,-0.564 v 0 l -0.151,-0.526 h -0.039 l -0.147,-0.565 v 0 l -0.151,-0.563 v 0 l -0.151,-0.527 v -0.038 l -0.151,-0.526 v -0.037 l -0.112,-0.526 v 0 l -0.151,-0.565 v -0.037 l -0.112,-0.564 v 0 l -0.112,-0.564 v 0 l -0.116,-0.564 v 0 l -0.074,-0.564 v 0 l -0.112,-0.602 v 0 l -0.077,-0.563 v 0 l -0.074,-0.603 v 0 l -0.077,-0.564 v 0 l -0.074,-0.602 v 0 l -0.039,-0.563 v 0 l -0.035,-0.603 h -0.039 l -0.039,-0.602 v 0 l -0.039,-0.602 v 0 -0.564 0 l -0.035,-0.603 v 0 -0.602 0 -0.619 z m 98.635,-37.581 h -3.914 -0.112 -47.813 -0.375 l -0.112,0.038 v 0 h -0.264 -0.229 -0.146 -0.341 v 0 l -0.376,0.037 h -0.077 v 0 h -0.298 l -0.189,0.039 h -0.488 l -0.038,0.037 h -0.376 -0.038 l -0.302,0.038 -0.187,0.037 v 0 h -0.189 l -0.263,0.036 v 0 h -0.112 l -0.337,0.039 v 0.037 h -0.039 v 0 l -0.341,0.039 h -0.112 v 0 l -0.225,0.036 -0.224,0.038 h -0.039 l -0.112,0.037 -0.34,0.039 v 0 0 l -0.337,0.074 h -0.112 v 0 l -0.263,0.038 -0.189,0.036 v 0 l -0.151,0.039 -0.302,0.076 h -0.035 l -0.379,0.073 h -0.074 v 0 l -0.263,0.075 -0.19,0.039 v 0 l -0.147,0.037 -0.302,0.074 v 0 h -0.039 l -0.375,0.113 v 0 h -0.039 v 0 l -0.302,0.075 -0.147,0.038 -0.189,0.076 -0.225,0.075 h -0.039 -0.077 l -0.337,0.112 v 0 0 l -0.453,0.15 v 0 l -0.225,0.037 v 0 l -0.225,0.076 -0.112,0.036 -0.302,0.114 h -0.039 v 0 l -0.302,0.112 -0.112,0.037 v 0 l -0.864,0.339 v 0 h -0.039 l -0.039,0.038 -0.751,0.3 -0.189,0.039 -0.263,0.112 v 0 l -0.039,0.036 -0.337,0.115 v 0.036 h -0.039 v 0 l -1.653,0.79 v 0 l -0.19,0.075 -0.189,0.114 -0.112,0.037 -0.712,0.414 -0.228,0.111 -0.151,0.076 -0.147,0.075 -0.905,0.526 -0.151,0.112 -0.112,0.075 -0.6,0.378 h -0.039 l -0.263,0.188 -0.112,0.075 -0.151,0.112 -0.604,0.376 v 0 c -1.877,1.317 -3.611,2.785 -5.19,4.363 -1.579,1.582 -3.046,3.312 -4.324,5.193 h -0.039 c -0.488,0.714 -0.979,1.504 -1.428,2.256 h -0.039 l -0.414,0.79 h -0.039 l -0.639,1.204 v 0 c -0.34,0.677 -0.639,1.354 -0.979,2.068 v 0 l -0.151,0.414 h -0.035 l -0.151,0.414 v 0 l -0.34,0.865 v 0 l -0.337,0.865 v 0 l -0.151,0.451 v 0 l -0.112,0.414 h -0.039 l -0.112,0.451 v 0 l -0.151,0.452 v 0 l -0.112,0.413 v 0 l -0.112,0.452 h -0.039 l -0.112,0.451 v 0 l -0.112,0.45 v 0 l -0.112,0.451 v 0 l -0.077,0.453 v 0 l -0.112,0.451 v 0 l -0.074,0.451 v 0 l -0.116,0.489 v 0 l -0.074,0.45 v 0 l -0.073,0.451 v 0 l -0.078,0.49 v 0 l -0.039,0.451 v 0 l -0.074,0.489 v 0 l -0.039,0.45 v 0 l -0.039,0.49 v 0 l -0.035,0.451 h -0.039 v 0.489 0 l -0.039,0.489 v 0 l -0.035,0.451 v 0 0.49 0 0.487 0 0.489 0.49 0 0.451 0 0.489 0 l 0.035,0.487 v 0 l 0.039,0.49 v 0 l 0.112,1.391 v 0 l 0.151,1.431 v 0 l 0.225,1.392 v 0 l 0.302,1.354 v 0 l 0.077,0.451 v 0 l 0.112,0.489 v 0 l 0.225,0.865 v 0 c 0.189,0.602 0.34,1.204 0.526,1.806 v 0 l 0.151,0.414 v 0 l 0.302,0.865 h 0.035 l 0.302,0.865 v 0 l 0.189,0.414 v 0 l 0.151,0.451 h 0.035 l 0.151,0.414 v 0 l 0.189,0.414 v 0 l 0.186,0.412 v 0 l 0.189,0.414 h 0.039 l 0.375,0.79 v 0 l 0.414,0.828 h 0.039 l 0.186,0.375 v 0 l 0.229,0.414 v 0 l 0.225,0.378 v 0 l 0.263,0.412 v 0 l 0.449,0.753 v 0 l 0.267,0.377 v 0 l 0.263,0.376 v 0 l 0.225,0.375 v 0 l 0.263,0.378 v 0 l 0.263,0.338 v 0.037 l 0.263,0.339 h 0.039 l 0.263,0.375 v 0 l 0.263,0.339 v 0 l 0.263,0.378 h 0.035 l 0.267,0.338 v 0 l 0.298,0.339 v 0 l 0.302,0.339 v 0 l 0.263,0.339 h 0.039 l 0.263,0.337 h 0.039 l 0.298,0.339 v 0 l 0.302,0.338 v 0 l 0.302,0.302 v 0.037 l 0.302,0.302 h 0.035 l 0.302,0.301 v 0 l 0.337,0.302 v 0.036 l 0.302,0.302 h 0.039 l 0.302,0.301 v 0 l 0.337,0.302 v 0 l 0.341,0.3 v 0 l 0.337,0.302 h 0.039 l 0.337,0.264 v 0 l 0.34,0.3 v 0 l 0.337,0.263 v 0.039 l 0.375,0.263 v 0 l 0.34,0.264 h 0.039 l 0.337,0.263 v 0 l 0.375,0.264 v 0 l 0.755,0.526 v 0 l 0.751,0.489 v 0 l 0.375,0.264 v 0 l 0.375,0.227 v 0 l 1.583,0.901 v 0 l 0.414,0.227 v 0 l 0.375,0.188 h 0.035 l 0.379,0.227 v 0 l 0.414,0.188 v 0 l 0.825,0.414 v 0 l 0.414,0.149 v 0 l 0.414,0.189 v 0 l 0.414,0.188 h 0.039 l 0.414,0.188 v 0 l 0.414,0.15 v 0 l 0.415,0.149 h 0.035 l 0.415,0.151 v 0 l 0.414,0.15 h 0.039 l 0.863,0.3 v 0 l 0.453,0.151 v 0 l 0.414,0.112 h 0.039 l 0.863,0.227 v 0 l 0.453,0.15 v 0 l 0.449,0.075 v 0 l 0.453,0.112 v 0 l 0.902,0.188 h 0.039 l 0.453,0.075 v 0 l 0.449,0.112 v 0 l 0.453,0.038 h 0.039 l 0.449,0.076 v 0 l 0.453,0.075 v 0 l 0.488,0.073 v 0 l 0.452,0.039 v 0 l 0.488,0.037 v 0 l 0.452,0.038 v 0 l 0.488,0.037 0.487,0.039 v 0 h 0.453 l 0.487,0.036 h 0.492 v 0 h 0.487 47.813 0.112 3.914 v -75.108 z m 92.84,57.631 c -1.39,-0.375 -2.783,-0.864 -4.138,-1.353 h -0.035 c -0.94,-0.339 -1.881,-0.716 -2.821,-1.129 l -0.303,-0.113 -0.263,-0.112 c -3.801,-1.618 -7.374,-3.575 -10.761,-5.794 l -0.525,-0.338 c -1.355,-0.903 -2.672,-1.881 -3.949,-2.859 l -0.15,-0.113 -0.302,-0.263 -0.337,-0.263 -0.15,-0.114 -0.453,-0.376 -0.488,-0.414 -0.189,-0.148 -0.264,-0.227 c -0.75,-0.641 -1.467,-1.279 -2.182,-1.957 l -0.074,-0.075 -0.453,-0.414 -0.863,-0.827 -0.375,-0.377 -0.078,-0.073 -0.414,-0.415 -0.111,-0.113 -0.303,-0.339 -1.238,-1.315 -0.15,-0.151 -0.264,-0.3 -0.302,-0.303 -0.112,-0.148 -0.375,-0.453 -0.039,-0.037 -0.376,-0.45 -0.15,-0.151 -0.264,-0.302 -0.263,-0.339 -0.151,-0.148 -0.376,-0.49 v 0 l -0.375,-0.489 -0.15,-0.149 -0.264,-0.338 -0.229,-0.34 -0.15,-0.15 -0.375,-0.489 v -0.037 l -0.376,-0.489 -0.112,-0.151 -0.264,-0.376 -0.716,-1.016 -0.337,-0.526 -0.077,-0.112 -0.298,-0.414 -0.189,-0.264 -0.151,-0.263 -0.302,-0.452 -0.035,-0.074 -0.34,-0.528 -0.039,-0.073 -0.299,-0.453 -0.642,-1.09 -0.298,-0.526 -0.039,-0.075 -0.302,-0.49 -0.112,-0.226 -0.189,-0.3 c -4.173,-7.562 -6.959,-15.988 -8.013,-24.942 h -34.87 v 75.124 h 51.874 c 7.524,0 14.522,-2.22 20.429,-6.056 4.511,-2.978 8.346,-6.852 11.281,-11.443 z m 36.151,-103.712 c -2.555,0 -4.626,-2.069 -4.626,-4.628 0,-2.558 2.071,-4.627 4.626,-4.627 8.163,0 15.575,3.348 20.955,8.689 5.342,5.38 8.689,12.79 8.689,20.953 0,2.559 -2.07,4.628 -4.626,4.628 -2.522,0 -4.629,-2.069 -4.629,-4.628 0,-5.604 -2.295,-10.722 -5.979,-14.408 -3.688,-3.684 -8.802,-5.979 -14.41,-5.979 z M 265.742,356.29 c 2.559,0 4.629,2.069 4.629,4.628 0,2.558 -2.07,4.627 -4.629,4.627 -5.604,0 -10.721,2.295 -14.368,5.943 -3.727,3.723 -6.019,8.84 -6.019,14.445 0,2.559 -2.07,4.627 -4.629,4.627 -2.558,0 -4.625,-2.068 -4.625,-4.627 0,-8.125 3.348,-15.537 8.728,-20.916 5.377,-5.415 12.788,-8.727 20.913,-8.727 z m 165.484,40.214 c 14.558,-1.129 27.651,-7.486 37.355,-17.191 l 0.263,-0.225 c 10.571,-10.722 17.155,-25.469 17.155,-41.758 0,-16.402 -6.658,-31.261 -17.418,-41.98 l -0.225,-0.266 c -9.669,-9.555 -22.686,-15.836 -37.131,-16.965 v 118.385 z m -58.419,-34.081 0.112,0.263 0.187,0.376 0.076,0.151 0.225,0.487 0.039,0.075 0.639,1.204 0.189,0.378 0.147,0.263 0.151,0.263 0.189,0.376 0.337,0.641 0.038,0.036 0.639,1.054 0.078,0.114 0.225,0.412 0.15,0.227 0.15,0.263 0.225,0.339 0.113,0.15 0.263,0.414 0.077,0.113 0.337,0.489 v 0 l 0.341,0.487 0.035,0.114 0.301,0.376 0.113,0.227 0.228,0.263 0.187,0.3 0.15,0.188 0.303,0.378 0.073,0.112 0.341,0.451 v 0.038 l 0.375,0.451 0.074,0.075 0.301,0.414 0.151,0.151 0.225,0.3 0.189,0.264 0.189,0.188 0.298,0.338 0.116,0.151 0.337,0.415 0.039,0.036 0.375,0.452 0.039,0.037 0.375,0.414 0.112,0.113 0.302,0.338 0.187,0.188 0.228,0.227 0.264,0.301 0.15,0.15 0.338,0.339 0.073,0.112 0.414,0.414 h 0.038 l 0.414,0.414 0.074,0.075 0.379,0.339 0.112,0.15 0.302,0.301 0.225,0.188 0.225,0.227 0.302,0.264 0.526,0.45 0.074,0.075 0.453,0.414 v 0 l 0.564,0.451 0.337,0.339 0.189,0.112 0.302,0.264 0.264,0.189 0.186,0.188 0.375,0.264 0.116,0.111 0.449,0.34 0.039,0.038 0.487,0.339 0.039,0.037 0.453,0.338 0.111,0.076 0.376,0.263 0.189,0.188 0.298,0.188 0.303,0.227 0.189,0.111 0.414,0.264 0.073,0.075 0.487,0.339 h 0.039 l 0.488,0.338 0.077,0.037 0.452,0.266 0.187,0.112 0.341,0.225 0.263,0.15 0.225,0.151 0.376,0.227 0.15,0.111 0.453,0.264 0.111,0.037 0.527,0.302 v 0 l 0.525,0.3 0.113,0.039 0.414,0.227 0.225,0.111 0.302,0.188 0.341,0.151 0.225,0.111 0.414,0.227 0.111,0.076 0.527,0.225 0.038,0.038 0.562,0.263 h 0.039 l 0.526,0.264 0.15,0.037 0.376,0.188 0.263,0.114 0.302,0.149 0.376,0.15 0.189,0.075 0.487,0.188 0.078,0.038 0.561,0.225 h 0.039 l 0.565,0.227 0.073,0.036 0.491,0.189 0.225,0.076 0.678,0.264 0.263,0.073 0.414,0.151 0.189,0.074 0.488,0.151 0.073,0.037 0.604,0.188 h 0.038 l 0.562,0.19 h 0.112 l 0.491,0.148 0.225,0.076 0.341,0.113 0.375,0.074 0.601,0.15 0.112,0.039 0.15,0.037 0.565,0.15 h 0.039 l 0.6,0.15 h 0.077 l 0.526,0.149 0.187,0.038 0.414,0.076 0.302,0.075 0.34,0.073 c 2.292,0.453 4.626,0.754 7.033,0.941 V 278.119 c -14.596,1.129 -27.647,7.486 -37.355,17.191 -10.76,10.759 -17.417,25.617 -17.417,42.02 0.004,8.955 1.997,17.456 5.574,25.093 z"
         style="clip-rule:evenodd;fill:#1d242d;fill-opacity:0.98823529;fill-rule:evenodd"
         id="path2"
         inkscape:connector-curvature="0" /></g></g><g
     id="Layer_1"
     transform="translate(0,-256)" /></svg>