<?xml version="1.0" encoding="UTF-8" standalone="no"?>
<svg
   xmlns:dc="http://purl.org/dc/elements/1.1/"
   xmlns:cc="http://creativecommons.org/ns#"
   xmlns:rdf="http://www.w3.org/1999/02/22-rdf-syntax-ns#"
   xmlns:svg="http://www.w3.org/2000/svg"
   xmlns="http://www.w3.org/2000/svg"
   xmlns:sodipodi="http://sodipodi.sourceforge.net/DTD/sodipodi-0.dtd"
   xmlns:inkscape="http://www.inkscape.org/namespaces/inkscape"
   version="1.1"
   viewBox="0 0 256 256"
   xml:space="preserve"
   id="svg88"
   sodipodi:docname="infection.svg"
   width="256"
   height="256"
   inkscape:version="0.92.4 (5da689c313, 2019-01-14)"><metadata
     id="metadata94"><rdf:RDF><cc:Work
         rdf:about=""><dc:format>image/svg+xml</dc:format><dc:type
           rdf:resource="http://purl.org/dc/dcmitype/StillImage" /><dc:title></dc:title></cc:Work></rdf:RDF></metadata><defs
     id="defs92" /><sodipodi:namedview
     pagecolor="#ffffff"
     bordercolor="#666666"
     borderopacity="1"
     objecttolerance="10"
     gridtolerance="10"
     guidetolerance="10"
     inkscape:pageopacity="0"
     inkscape:pageshadow="2"
     inkscape:window-width="1920"
     inkscape:window-height="1017"
     id="namedview90"
     showgrid="false"
     inkscape:zoom="0.921875"
     inkscape:cx="22.909108"
     inkscape:cy="-11.515094"
     inkscape:window-x="-8"
     inkscape:window-y="-8"
     inkscape:window-maximized="1"
     inkscape:current-layer="g75" /><style
     type="text/css"
     id="style2">
	.st0{fill:#75C6A8;}
	.st1{fill:#57B5B5;}
	.st2{fill:#263047;}
	.st3{fill:#DB7158;}
	.st4{fill:none;stroke:#263047;stroke-width:0.5;stroke-linecap:round;stroke-miterlimit:10;}
	.st5{fill:none;stroke:#EA8B78;stroke-width:2;stroke-linecap:round;stroke-miterlimit:10;}
	.st6{fill:#E89715;}
	.st7{fill:none;stroke:#263047;stroke-linecap:round;stroke-miterlimit:10;}
	.st8{fill:none;stroke:#263047;stroke-width:0.5;stroke-linecap:round;stroke-linejoin:round;stroke-miterlimit:10;}
	.st9{fill:#456BA8;}
	.st10{fill:#9EC6B8;}
	.st11{fill:#C14F46;}
	.st12{fill:#BFD8D0;}
	.st13{fill:#E57417;}
	.st14{fill:none;stroke:#9EC6B8;stroke-width:0.75;stroke-linecap:round;stroke-linejoin:round;stroke-miterlimit:10;}
	.st15{fill:#FFFFFF;}
	.st16{fill:#D8EAE3;}
	.st17{fill:none;stroke:#DB7158;stroke-linecap:round;stroke-miterlimit:10;}
	.st18{fill:none;stroke:#BFD8D0;stroke-width:0.5;stroke-linecap:round;stroke-miterlimit:10;}
	.st19{fill:none;stroke:#263047;stroke-width:0.5;stroke-linecap:round;stroke-miterlimit:10;stroke-dasharray:1.0458,1.0458;}
	.st20{fill:#75C6A8;stroke:#75C6A8;stroke-width:0.25;stroke-linejoin:round;stroke-miterlimit:10;}
	.st21{fill:#EF8873;}
	.st22{fill:none;stroke:#263047;stroke-width:0.5;stroke-miterlimit:10;}
	.st23{fill:none;stroke:#263047;stroke-width:0.5;stroke-linecap:round;stroke-miterlimit:10;stroke-dasharray:1.8125,1.8125;}
	.st24{fill:none;stroke:#263047;stroke-linecap:round;stroke-miterlimit:10;stroke-dasharray:1.912,1.912;}
	.st25{fill:none;}
	.st26{fill:none;stroke:#EA8B78;stroke-linecap:round;stroke-miterlimit:10;}
	.st27{fill:none;stroke:#263047;stroke-width:3;stroke-miterlimit:10;}
	.st28{fill:none;stroke:#BFD8D0;stroke-miterlimit:10;}
	.st29{fill:none;stroke:#BFD8D0;stroke-width:0.5;stroke-miterlimit:10;}
	.st30{fill:none;stroke:#9EC6B8;stroke-width:0.5;stroke-miterlimit:10;}
	.st31{fill:none;stroke:#75C6A8;stroke-width:0.5;stroke-miterlimit:10;}
	.st32{fill:none;stroke:#F9F9F9;stroke-width:0.5;stroke-linecap:round;stroke-linejoin:round;stroke-miterlimit:10;}
	.st33{fill:none;stroke:#9EC6B8;stroke-width:0.5;stroke-linecap:round;stroke-linejoin:round;stroke-miterlimit:10;}
	.st34{fill:#EA8B78;}
	.st35{fill:none;stroke:#EA8B78;stroke-width:0.75;stroke-linecap:round;stroke-miterlimit:10;}
</style><g
     id="Layer_1"
     transform="translate(0,192)" /><g
     id="artworks"
     transform="translate(0,192)"><g
       id="g75"><g
         id="g73"
         transform="matrix(13.795298,0,0,13.795298,-57.918518,-755.49363)"
         style="fill:#1d242d;fill-opacity:0.98823529"><g
           id="g71"
           style="fill:#1d242d;fill-opacity:0.98823529"><circle
             class="st2"
             cx="13.6"
             cy="50.400002"
             r="4.5"
             id="circle25"
             style="fill:#1d242d;fill-opacity:0.98823529" /><g
             id="g31"
             style="fill:#1d242d;fill-opacity:0.98823529"><path
               class="st2"
               d="m 19.7,46.2 c 0.3,-0.3 0.2,-1 -0.4,-1.6 -0.5,-0.5 -1.2,-0.7 -1.6,-0.4 -0.1,0.1 -0.1,0.2 -0.2,0.3 -0.1,0.7 -0.6,1.3 -1.1,1.8 l -1.2,1.2 1,1 1.2,-1.2 c 0.5,-0.5 1.1,-0.9 1.8,-1.1 0.3,0.2 0.4,0.1 0.5,0 z"
               id="path27"
               inkscape:connector-curvature="0"
               style="fill:#1d242d;fill-opacity:0.98823529" /><path
               class="st2"
               d="m 7.5,54.5 c -0.3,0.3 -0.2,1 0.4,1.6 0.5,0.5 1.2,0.7 1.6,0.4 0.1,-0.1 0.1,-0.2 0.2,-0.3 0.1,-0.7 0.6,-1.3 1.1,-1.8 l 1.2,-1.2 -1,-1 -1.2,1.2 c -0.5,0.5 -1.1,0.9 -1.8,1.1 -0.3,-0.1 -0.4,0 -0.5,0 z"
               id="path29"
               inkscape:connector-curvature="0"
               style="fill:#1d242d;fill-opacity:0.98823529" /></g><g
             id="g37"
             style="fill:#1d242d;fill-opacity:0.98823529"><path
               class="st2"
               d="m 16.3,44.1 c 0.1,-0.3 -0.3,-0.7 -0.8,-0.9 -0.5,-0.1 -1,0 -1.1,0.3 0,0.1 0,0.2 0,0.2 0.2,0.5 0.1,1 0,1.5 l -0.3,1.2 1,0.3 0.3,-1.2 c 0.1,-0.5 0.4,-1 0.7,-1.3 0.1,0 0.2,-0.1 0.2,-0.1 z"
               id="path33"
               inkscape:connector-curvature="0"
               style="fill:#1d242d;fill-opacity:0.98823529" /><path
               class="st2"
               d="m 10.9,56.7 c -0.1,0.3 0.3,0.7 0.8,0.9 0.5,0.1 1,0 1.1,-0.3 0,-0.1 0,-0.2 0,-0.2 -0.2,-0.5 -0.1,-1 0,-1.5 l 0.3,-1.2 -1,-0.3 -0.3,1.2 c -0.1,0.5 -0.4,1 -0.7,1.3 -0.2,0 -0.2,0 -0.2,0.1 z"
               id="path35"
               inkscape:connector-curvature="0"
               style="fill:#1d242d;fill-opacity:0.98823529" /></g><g
             id="g43"
             style="fill:#1d242d;fill-opacity:0.98823529"><path
               class="st2"
               d="M 9.5,44.9 C 9.3,44.7 8.8,44.8 8.4,45.2 8,45.6 7.9,46.1 8.1,46.3 c 0.1,0.1 0.1,0.1 0.2,0.1 0.5,0.1 0.9,0.4 1.3,0.8 l 0.9,0.9 0.7,-0.7 -0.9,-0.9 C 10,46 9.7,45.6 9.6,45.1 9.6,45 9.5,44.9 9.5,44.9 Z"
               id="path39"
               inkscape:connector-curvature="0"
               style="fill:#1d242d;fill-opacity:0.98823529" /><path
               class="st2"
               d="m 17.7,55.9 c 0.2,0.2 0.7,0.1 1.1,-0.3 0.4,-0.4 0.5,-0.9 0.3,-1.1 C 19,54.4 19,54.4 18.9,54.4 18.4,54.3 18,54 17.6,53.6 l -0.9,-0.9 -0.7,0.7 0.9,0.9 c 0.4,0.4 0.7,0.8 0.8,1.3 -0.1,0.2 -0.1,0.2 0,0.3 z"
               id="path41"
               inkscape:connector-curvature="0"
               style="fill:#1d242d;fill-opacity:0.98823529" /></g><g
             id="g49"
             style="fill:#1d242d;fill-opacity:0.98823529"><path
               class="st2"
               d="M 6.8,51.2 C 6.5,51.3 6.3,51.8 6.5,52.3 6.6,52.8 7,53.2 7.4,53.1 7.5,53.1 7.5,53 7.6,53 7.9,52.6 8.4,52.4 8.9,52.3 L 10.1,52 9.8,51 8.6,51.3 c -0.5,0.1 -1,0.2 -1.5,0 C 6.9,51.2 6.8,51.2 6.8,51.2 Z"
               id="path45"
               inkscape:connector-curvature="0"
               style="fill:#1d242d;fill-opacity:0.98823529" /><path
               class="st2"
               d="m 20.4,49.6 c 0.3,-0.1 0.5,-0.6 0.3,-1.1 -0.1,-0.5 -0.5,-0.9 -0.9,-0.8 -0.1,0 -0.1,0.1 -0.2,0.1 -0.3,0.4 -0.8,0.6 -1.3,0.7 l -1.2,0.3 0.3,1 1.2,-0.3 c 0.5,-0.1 1,-0.2 1.5,0 0.2,0.1 0.2,0.1 0.3,0.1 z"
               id="path47"
               inkscape:connector-curvature="0"
               style="fill:#1d242d;fill-opacity:0.98823529" /></g><g
             id="g55"
             style="fill:#1d242d;fill-opacity:0.98823529"><path
               class="st2"
               d="m 13,43 c -0.1,-0.5 -0.8,-0.7 -1.6,-0.5 -0.7,0.2 -1.2,0.7 -1.1,1.2 0,0.1 0.1,0.2 0.2,0.3 0.5,0.5 0.9,1.1 1,1.8 L 12,47.5 13.4,47.1 13,45.5 c -0.2,-0.7 -0.2,-1.4 0,-2.1 0.1,-0.2 0.1,-0.3 0,-0.4 z"
               id="path51"
               inkscape:connector-curvature="0"
               style="fill:#1d242d;fill-opacity:0.98823529" /><path
               class="st2"
               d="m 14.1,57.7 c 0.1,0.5 0.8,0.7 1.6,0.5 0.7,-0.2 1.2,-0.7 1.1,-1.2 0,-0.1 -0.1,-0.2 -0.2,-0.3 -0.5,-0.5 -0.9,-1.1 -1,-1.8 l -0.5,-1.7 -1.4,0.4 0.5,1.7 c 0.2,0.7 0.2,1.4 0,2.1 -0.1,0.1 -0.1,0.2 -0.1,0.3 z"
               id="path53"
               inkscape:connector-curvature="0"
               style="fill:#1d242d;fill-opacity:0.98823529" /></g><g
             id="g61"
             style="fill:#1d242d;fill-opacity:0.98823529"><path
               class="st2"
               d="m 6.9,47.2 c -0.5,-0.1 -1,0.4 -1.2,1.1 -0.2,0.7 0,1.4 0.5,1.6 0.1,0 0.2,0 0.3,0 0.7,-0.2 1.4,-0.2 2.1,0 L 10.3,50.4 10.7,49 9,48.4 C 8.3,48.2 7.6,47.9 7.2,47.4 7.1,47.3 7,47.2 6.9,47.2 Z"
               id="path57"
               inkscape:connector-curvature="0"
               style="fill:#1d242d;fill-opacity:0.98823529" /><path
               class="st2"
               d="m 20.2,53.6 c 0.5,0.1 1,-0.4 1.2,-1.1 0.2,-0.7 0,-1.4 -0.5,-1.6 -0.1,0 -0.2,0 -0.3,0 -0.7,0.2 -1.4,0.2 -2.1,0 l -1.7,-0.5 -0.4,1.4 1.7,0.5 c 0.7,0.2 1.4,0.5 1.8,1 0.1,0.2 0.2,0.3 0.3,0.3 z"
               id="path59"
               inkscape:connector-curvature="0"
               style="fill:#1d242d;fill-opacity:0.98823529" /></g><g
             id="g65"
             style="fill:#1d242d;fill-opacity:0.98823529"><path
               class="st9"
               d="m 14.3,48.6 0.5,-1.2 c 0.4,0.2 0.7,0.4 1,0.7 L 14.9,49 c -0.2,-0.1 -0.4,-0.3 -0.6,-0.4 z"
               id="path63"
               inkscape:connector-curvature="0"
               style="fill:#1d242d;fill-opacity:0.98823529" /></g><g
             id="g69"
             style="fill:#1d242d;fill-opacity:0.98823529"><path
               class="st9"
               d="m 12.3,49.1 -0.9,-0.9 c 0.6,-0.6 1.4,-0.9 2.3,-0.9 v 1.3 c -0.6,-0.1 -1.1,0.1 -1.4,0.5 z"
               id="path67"
               inkscape:connector-curvature="0"
               style="fill:#1d242d;fill-opacity:0.98823529" /></g></g></g></g></g></svg>