<?xml version="1.0" encoding="UTF-8" standalone="no"?>
<svg
   xmlns:dc="http://purl.org/dc/elements/1.1/"
   xmlns:cc="http://creativecommons.org/ns#"
   xmlns:rdf="http://www.w3.org/1999/02/22-rdf-syntax-ns#"
   xmlns:svg="http://www.w3.org/2000/svg"
   xmlns="http://www.w3.org/2000/svg"
   xmlns:sodipodi="http://sodipodi.sourceforge.net/DTD/sodipodi-0.dtd"
   xmlns:inkscape="http://www.inkscape.org/namespaces/inkscape"
   version="1.0"
   width="300.000000pt"
   height="409.000000pt"
   viewBox="0 0 300.000000 409.000000"
   preserveAspectRatio="xMidYMid meet"
   id="svg8"
   sodipodi:docname="kidney.svg"
   inkscape:version="0.92.4 (5da689c313, 2019-01-14)">
  <defs
     id="defs12" />
  <sodipodi:namedview
     pagecolor="#ffffff"
     bordercolor="#666666"
     borderopacity="1"
     objecttolerance="10"
     gridtolerance="10"
     guidetolerance="10"
     inkscape:pageopacity="0"
     inkscape:pageshadow="2"
     inkscape:window-width="1920"
     inkscape:window-height="1017"
     id="namedview10"
     showgrid="false"
     inkscape:zoom="1.2240381"
     inkscape:cx="31.272848"
     inkscape:cy="233.18881"
     inkscape:window-x="-8"
     inkscape:window-y="-8"
     inkscape:window-maximized="1"
     inkscape:current-layer="g6" />
  <metadata
     id="metadata2"> Created by potrace 1.10, written by Peter Selinger 2001-2011 <rdf:RDF>
  <cc:Work
     rdf:about="">
    <dc:format>image/svg+xml</dc:format>
    <dc:type
       rdf:resource="http://purl.org/dc/dcmitype/StillImage" />
    <dc:title></dc:title>
  </cc:Work>
</rdf:RDF>
</metadata>
  <g
     transform="translate(0.000000,409.000000) scale(0.100000,-0.100000)"
     fill="#000000"
     stroke="none"
     id="g6">
    <path
       d="m 1293,4054 c -51,-7 -127,-27 -170,-44 C 899,3920 757,3794 654,3593 603,3492 584,3436 529,3222 489,3065 481,3046 390,2900 256,2686 144,2408 104,2195 79,2060 78,1737 103,1605 c 21,-113 65,-266 107,-370 18,-46 40,-130 51,-199 33,-199 90,-340 199,-491 139,-192 335,-328 563,-391 72,-21 123,-27 237,-31 133,-5 154,-3 255,21 195,48 389,163 508,303 65,75 129,217 166,363 18,69 37,142 42,163 20,74 20,266 0,337 -34,126 -93,227 -197,339 -44,48 -53,62 -40,67 9,3 28,-2 44,-12 22,-15 25,-15 14,-1 -20,23 -9,33 61,55 86,28 214,37 307,22 41,-7 93,-13 115,-15 22,-1 50,-7 62,-13 12,-7 40,-12 62,-12 32,0 43,5 60,29 12,16 24,46 29,67 4,22 11,38 15,38 4,-1 34,-7 67,-14 52,-11 63,-11 84,4 30,19 40,64 34,141 -5,57 -25,90 -64,106 -12,4 -66,15 -120,24 -185,31 -360,97 -474,180 -76,56 -229,250 -230,291 0,6 15,17 33,24 99,36 156,69 207,120 87,87 105,167 89,400 -7,110 -28,247 -45,295 -86,254 -222,428 -406,521 -173,88 -418,121 -645,88 z m 647,-1475 c 0,-27 66,-146 103,-186 45,-49 42,-51 -63,-28 -36,8 -94,14 -130,15 h -65 l 14.8231,64.1663 c 17.4499,86.7335 17.4499,86.7335 17.4499,86.7335 C 1818.192,2545.0235 1886,2587 1918,2589 c 12,0 22,-4 22,-10 z m -25,-329 c 119,-19 271,-100 390,-206 l 40,-36 -39,7 c -21,3 -91,34 -154,67 -63,34 -162,80 -221,104 -64,26 -107,49 -109,58 -4,19 10,20 93,6 z m -47,-224 c 39,-20 179,-63 231,-71 59,-10 148,-49 132,-59 -7,-5 -40,-12 -74,-16 -54,-6 -132,-31 -227,-72 -15,-6 -20,-13 -12,-15 20,-8 13,-22 -8,-16 -29,8 -88,80 -100,122 -5,20 -10,60 -10,89 0,46 2,52 20,52 12,0 33,-6 48,-14 z"
       id="path4"
       inkscape:connector-curvature="0"
       sodipodi:nodetypes="cccccccccccccccccccccccccscccccccccccsccccscccccccsccccccccccccccccasc" />
  </g>
</svg>
