<?xml version="1.0" encoding="UTF-8" standalone="no"?>
<svg
   xmlns:dc="http://purl.org/dc/elements/1.1/"
   xmlns:cc="http://creativecommons.org/ns#"
   xmlns:rdf="http://www.w3.org/1999/02/22-rdf-syntax-ns#"
   xmlns:svg="http://www.w3.org/2000/svg"
   xmlns="http://www.w3.org/2000/svg"
   xmlns:sodipodi="http://sodipodi.sourceforge.net/DTD/sodipodi-0.dtd"
   xmlns:inkscape="http://www.inkscape.org/namespaces/inkscape"
   height="512px"
   style="enable-background:new 0 0 512 512;"
   version="1.1"
   viewBox="0 0 512 512"
   width="512px"
   xml:space="preserve"
   id="svg12"
   sodipodi:docname="nonalcohol.svg"
   inkscape:version="0.92.4 (5da689c313, 2019-01-14)"><metadata
     id="metadata18"><rdf:RDF><cc:Work
         rdf:about=""><dc:format>image/svg+xml</dc:format><dc:type
           rdf:resource="http://purl.org/dc/dcmitype/StillImage" /><dc:title></dc:title></cc:Work></rdf:RDF></metadata><defs
     id="defs16" /><sodipodi:namedview
     pagecolor="#ffffff"
     bordercolor="#666666"
     borderopacity="1"
     objecttolerance="10"
     gridtolerance="10"
     guidetolerance="10"
     inkscape:pageopacity="0"
     inkscape:pageshadow="2"
     inkscape:window-width="1920"
     inkscape:window-height="1017"
     id="namedview14"
     showgrid="false"
     inkscape:zoom="0.4609375"
     inkscape:cx="-765.91982"
     inkscape:cy="81.579266"
     inkscape:window-x="-8"
     inkscape:window-y="-8"
     inkscape:window-maximized="1"
     inkscape:current-layer="XMLID_374_" /><g
     id="_x31_019_x2C__Alcohol_x2C__bar_x2C__drink_x2C__whiskey"
     style="fill:#1d242d;fill-opacity:0.98823529"><g
       id="XMLID_374_"
       style="fill:#1d242d;fill-opacity:0.98823529"><rect
         height="93.195"
         id="XMLID_375_"
         width="83.876"
         x="114.343"
         y="288.618"
         style="fill:#1d242d;fill-opacity:0.98823529" /><path
         d="M198.219,251.34H77.064v167.752h121.154v-27.958h-88.536c-2.573,0-4.66-2.086-4.66-4.66V283.958    c0-2.573,2.087-4.659,4.66-4.659h88.536V251.34z"
         id="XMLID_376_"
         style="fill:#1d242d;fill-opacity:0.98823529" /><path
         d="M186.57,152.88c-1.941-0.61-3.263-2.41-3.263-4.445V74.269h-46.599v74.166    c0,2.035-1.321,3.835-3.263,4.445c-37.068,11.644-61.974,45.594-61.974,84.48v4.66h125.813c2.574,0,4.66,2.086,4.66,4.66v37.277    v102.516v37.278c0,2.574-2.086,4.66-4.66,4.66H71.473v7.455c0,11.306,9.197,20.503,20.503,20.503h136.065    c11.306,0,20.503-9.197,20.503-20.503V237.36C248.544,198.474,223.639,164.523,186.57,152.88z"
         id="XMLID_377_"
         style="fill:#1d242d;fill-opacity:0.98823529" /><path
         d="m 124.00302,64.180969 h 8.077 55.917 8.077 c 3.254,0 5.902,-2.647 5.902,-5.902 v -6.834 c 0,-3.255 -2.648,-5.902 -5.902,-5.902 h -72.071 c -3.255,0 -5.902,2.647 -5.902,5.902 v 6.834 c 0,3.255 2.648,5.902 5.902,5.902 z"
         id="XMLID_378_"
         style="fill:#1d242d;fill-opacity:0.98823529"
         inkscape:connector-curvature="0" /><path
         d="M361.311,120.866c7.709,0,13.979-6.271,13.979-13.979s-6.271-13.979-13.979-13.979    c-7.708,0-13.979,6.271-13.979,13.979S353.603,120.866,361.311,120.866z"
         id="XMLID_379_"
         style="fill:#1d242d;fill-opacity:0.98823529" /><path
         d="M249.477,102.227c-7.709,0-13.979,6.271-13.979,13.979s6.271,13.979,13.979,13.979    c7.708,0,13.979-6.271,13.979-13.979S257.185,102.227,249.477,102.227z"
         id="XMLID_380_"
         style="fill:#1d242d;fill-opacity:0.98823529" /><path
         d="M435.867,456.37H375.29V344.339c31.23-2.39,55.918-28.549,55.918-60.381v-69.896h-88.536    c-2.574,0-4.66-2.086-4.66-4.659c0-2.574,2.086-4.66,4.66-4.66h88.536v-27.959H310.053v107.175    c0,31.832,24.688,57.991,55.918,60.381V456.37h-60.577c-2.574,0-4.66,2.086-4.66,4.66s2.086,4.66,4.66,4.66h130.474    c2.574,0,4.66-2.086,4.66-4.66S438.441,456.37,435.867,456.37z"
         id="XMLID_381_"
         style="fill:#1d242d;fill-opacity:0.98823529" /></g></g><g
     id="Layer_1" /><rect
     style="opacity:1;fill:#ff0000;fill-opacity:0.98823529;stroke:none;stroke-width:6.33363199;stroke-miterlimit:4;stroke-dasharray:none;stroke-opacity:0.98823529"
     id="rect828"
     width="28.072567"
     height="571.35516"
     x="353.026"
     y="-272.93359"
     transform="matrix(0.73546438,0.67756338,-0.669923,0.74243059,0,0)" /></svg>