<?xml version="1.0" encoding="UTF-8" standalone="no"?>
<svg
   xmlns:dc="http://purl.org/dc/elements/1.1/"
   xmlns:cc="http://creativecommons.org/ns#"
   xmlns:rdf="http://www.w3.org/1999/02/22-rdf-syntax-ns#"
   xmlns:svg="http://www.w3.org/2000/svg"
   xmlns="http://www.w3.org/2000/svg"
   xmlns:sodipodi="http://sodipodi.sourceforge.net/DTD/sodipodi-0.dtd"
   xmlns:inkscape="http://www.inkscape.org/namespaces/inkscape"
   viewBox="0 0 202 219"
   version="1.1"
   id="svg4"
   sodipodi:docname="old.svg"
   inkscape:version="0.92.4 (5da689c313, 2019-01-14)">
  <metadata
     id="metadata10">
    <rdf:RDF>
      <cc:Work
         rdf:about="">
        <dc:format>image/svg+xml</dc:format>
        <dc:type
           rdf:resource="http://purl.org/dc/dcmitype/StillImage" />
        <dc:title></dc:title>
      </cc:Work>
    </rdf:RDF>
  </metadata>
  <defs
     id="defs8" />
  <sodipodi:namedview
     pagecolor="#ffffff"
     bordercolor="#666666"
     borderopacity="1"
     objecttolerance="10"
     gridtolerance="10"
     guidetolerance="10"
     inkscape:pageopacity="0"
     inkscape:pageshadow="2"
     inkscape:window-width="1920"
     inkscape:window-height="1017"
     id="namedview6"
     showgrid="false"
     inkscape:zoom="1.0776256"
     inkscape:cx="101"
     inkscape:cy="109.5"
     inkscape:window-x="-8"
     inkscape:window-y="-8"
     inkscape:window-maximized="1"
     inkscape:current-layer="svg4" />
  <path
     d="m155.49 0c-9.6502 0.17996-19.666 4.1285-19.562 21.656-29.138 12.759-48.948 42.808-52.812 67.938-0.026184 0.10938-0.036682 0.14255-0.0625 0.25-13.568-5.1413-17.244-18.119-12.531-29.906 1.5002-4.5998 3.1606-7.9922 5.4586-12.327 0.30786-0.6947 2.0036-1.5593 2.6308-1.5593 7.5323 0.38171 16.598-7.7811 16.598-18.176s-8.4486-18.844-18.844-18.844-18.722 7.9987-18.722 18.394c0.22092 2.9066 1.1616 7.3427 0.032959 9.5295-11.256 10.661-0.91892-1.8604-24.029 27.264-23.29 29.124-34.225 78.282-33.625 99.531 0.29889 3.9815-0.13248 9.5137 0.1875 13.469 6.2405 0.21997 8.728 0.36301 12.75 0.34375-0.74716 2.9523-2.4751 31.678-2.75 41.875l26.25-0.25c9.7718-4.1041-10.432-7.7722-13.469-10.781 1.3619-8.3322 6.5208-19.002 8.125-30.875l9.1562 0.0938c2.6498 10.24 7.0528 22.027 10.531 31.531 2.3798 3.4647 1.1535 6.1749 3.3125 9.6562h23c1.0083 0.002197 31.269 0.94623 33.906-0.0625 2.6444-1.0116 1.79-2.1651 1.0312-3.7188-0.91345-2.0872-12.041-5.4951-11.875-6.6562 4.8619-18.25 4.9376-33.42 5.625-42.562 4.4064 10.6 8.1736 20.736 12.812 37.875 0.67569 3.247 1.8466 10.582 3.0625 15.062l27 0.0938c1.0574 0.003113 2.9698-0.97138 2.875-2.625-0.1752-3.1203-13.706-6.1908-15.031-6.875-0.69101-0.32544-0.94989-2.2254-1.2188-3.625-1.0038-12.427-4.2375-24.859-6.2812-37.125-2.6856-11.56-4.7924-23.116-6.6562-35.281-1.1093-10.627-0.55179-24.221 1.5312-32.469 2.8471-10.154 5.544-19.282 13.469-28.625 2.3724-2.2785 4.7101-0.55621 6.7812 2.5312 9.0835 13.8 23.596 28.986 37.188 38.656-0.12256 0.16306-0.29474 0.26294-0.40625 0.4375-0.80322 1.2574-1.328 2.7867-1.6875 4.6562l4.9062 0.9375c0.2767-1.4388 0.65006-2.3584 1-2.9062 0.045471-0.071167 0.11288-0.033173 0.15625-0.09375 3.4705 2.6511 5.4646 4.0379 7.5 4.5625 0.009613 0.002197 0.021515 0.028961 0.03125 0.03125l-16.406 97.031 4.9375 0.8125 16.5-97.656c1.171-0.37363 2.3786-1.0684 3.6562-2.6562 0.81439-1.4902 2.5532-4.6154-3.5625-7.8438-9.1347-6.0918-16.005-13.965-24.094-22.75-8.7874-10.566-13.836-20.774-18.562-32.312-1.3772-7.4314-7.273-13.632-5.4062-21.344 0.31259-0.30212 0.66968-0.68713 1-1 1.1352 0.2598 2.3177 0.40625 3.5312 0.40625 9.2493 1.4396 18.656-4.9189 18.656-16.688 0-8.7095-8.8842-17.031-17.594-17.031zm-94.781 95.75c1.3698-0.07782 2.945 1.1842 4.9062 3.5625 3.5239 2.7999 9.0153 7.6118 14.281 7.0312-0.14563 3.1062-0.13046 6.869 0.15625 14.031 0.7366 9.8706 5.2923 27.861 5.4062 40.312 0.008331 11.646-2.2559 34.052-5.1875 47.625-1.4906 3.1835-0.88254 5.2109-3.9688 5.1875-0.056427-0.036682-0.1369-0.087463-0.1875-0.125-4.4653-1.9402-10.413-4.2723-13.562-5.5-1.0127-7.416-4.4425-20.802-6-30.531 1.1706 0.29776 2.859 0.080048 4.625-0.34375-7.1422-37.522-10.796-45.664-4.1875-76.812 1.1848-2.9423 2.349-4.3597 3.7188-4.4375z"
     fill-rule="evenodd"
     stroke-width="5"
     id="path2" />
</svg>
