<?xml version="1.0" encoding="UTF-8" standalone="no"?>
<!-- Generator: Adobe Illustrator 16.0.0, SVG Export Plug-In . SVG Version: 6.00 Build 0)  -->

<svg
   xmlns:dc="http://purl.org/dc/elements/1.1/"
   xmlns:cc="http://creativecommons.org/ns#"
   xmlns:rdf="http://www.w3.org/1999/02/22-rdf-syntax-ns#"
   xmlns:svg="http://www.w3.org/2000/svg"
   xmlns="http://www.w3.org/2000/svg"
   xmlns:sodipodi="http://sodipodi.sourceforge.net/DTD/sodipodi-0.dtd"
   xmlns:inkscape="http://www.inkscape.org/namespaces/inkscape"
   version="1.1"
   id="Ebene_1"
   x="0px"
   y="0px"
   width="256"
   height="256"
   viewBox="0 0 256 256"
   enable-background="new 0 0 80 80"
   xml:space="preserve"
   sodipodi:docname="pregnant.svg"
   inkscape:version="0.92.4 (5da689c313, 2019-01-14)"><metadata
   id="metadata15"><rdf:RDF><cc:Work
       rdf:about=""><dc:format>image/svg+xml</dc:format><dc:type
         rdf:resource="http://purl.org/dc/dcmitype/StillImage" /><dc:title></dc:title></cc:Work></rdf:RDF></metadata><defs
   id="defs13" /><sodipodi:namedview
   pagecolor="#ffffff"
   bordercolor="#666666"
   borderopacity="1"
   objecttolerance="10"
   gridtolerance="10"
   guidetolerance="10"
   inkscape:pageopacity="0"
   inkscape:pageshadow="2"
   inkscape:window-width="1920"
   inkscape:window-height="1017"
   id="namedview11"
   showgrid="false"
   inkscape:zoom="1.0429825"
   inkscape:cx="-96.527905"
   inkscape:cy="52.558976"
   inkscape:window-x="-8"
   inkscape:window-y="-8"
   inkscape:window-maximized="1"
   inkscape:current-layer="Ebene_1" />

<path
   stroke-miterlimit="10"
   d="m 183.52335,145.42726 c 3.95277,-1.97983 8.30427,-26.88578 11.85833,-51.001166 3.5575,-24.118838 -8.2974,-36.870857 -10.53845,-40.593347 -1.18582,-1.979823 -4.61271,-2.237616 -16.86635,-2.636335 -12.25363,-0.395273 -10.016,2.636335 1.05523,6.857219 6.46538,2.457601 14.49811,12.384234 15.28867,17.921568 0.78712,5.53389 -9.09484,45.333241 -11.86522,44.539241 -2.76694,-0.78713 -28.85873,-30.439846 -30.83858,-32.811521 -1.97637,-2.371655 -12.65233,-3.16222 -12.65233,-3.16222 0,0 -2.37167,-7.709639 -2.37167,-16.013916 0,-8.297405 11.86178,-4.052459 16.31295,-5.334537 4.44431,-1.285515 2.46791,-15.219928 2.46791,-15.219928 0,0 5.04238,-0.890232 5.34141,-3.062544 0.29561,-2.175745 -5.14205,-7.018762 -7.11842,-10.180988 -1.97641,-3.162224 -1.1893,-14.628727 -2.76696,-16.209839 C 139.24875,16.941272 134.4676,6.6056084 115.92047,5.4713333 96.551844,4.2854989 91.409794,22.471728 91.409794,22.471728 89.82868,22.07645 74.010684,19.312941 68.872069,41.451949 63.730016,63.587528 75.595233,82.56774 75.595233,82.56774 75.196517,79.797363 74.804677,71.101248 84.68663,61.215858 c 7.042824,-7.042824 7.658083,-16.467628 7.434661,-21.317524 1.928272,12.013022 12.336119,15.539588 12.336119,17.361304 0,1.979824 1.97639,13.442892 -2.37167,14.236885 -4.348057,0.790557 -16.996956,15.024001 -20.953175,20.557906 -3.952782,5.533885 -31.63256,45.467271 -30.443289,50.602441 1.185834,5.14205 19.334256,10.78249 27.545726,14.76277 8.190848,3.97341 24.070708,16.96603 28.264098,20.98755 -0.16154,1.61205 -0.32653,2.79788 -0.46058,3.39253 -0.78712,3.5575 -12.648894,22.53428 -13.047613,26.48706 -0.391838,3.95278 3.952783,23.71668 9.490103,28.46346 5.53734,4.74678 2.37168,9.88539 2.37168,9.88539 0,0 15.41584,3.95622 34.3995,2.77038 18.97678,-1.18927 34.39607,-8.69955 34.39607,-8.69955 0,0 -5.13861,-10.27723 -7.115,-13.05105 -1.97983,-2.76695 3.94935,-9.88194 13.83472,-16.60168 9.88541,-6.71973 13.44291,-28.85531 9.09484,-38.34542 -4.35149,-9.49011 -20.56132,-29.26088 -20.56132,-29.26088 0,0 10.66906,3.95621 14.62185,1.97983 z m -88.954766,1.18581 c -6.327889,-3.16564 -18.976787,-11.06778 -18.976787,-11.06778 9.091396,-4.35149 16.206398,-13.4463 16.206398,-13.4463 0,0 6.723167,11.46304 11.861785,21.345 2.38541,4.58866 3.23441,12.40486 3.38564,19.83264 -2.65352,-5.72637 -7.778388,-14.31593 -12.477036,-16.66356 z"
   id="path4"
   style="fill:#1d242d;fill-opacity:0.98823529;stroke:#1d242d;stroke-width:3.43720078;stroke-miterlimit:10;stroke-opacity:0.98823529"
   inkscape:connector-curvature="0" />


</svg>