<?xml version="1.0" encoding="UTF-8" standalone="no"?>
<svg
   xmlns:dc="http://purl.org/dc/elements/1.1/"
   xmlns:cc="http://creativecommons.org/ns#"
   xmlns:rdf="http://www.w3.org/1999/02/22-rdf-syntax-ns#"
   xmlns:svg="http://www.w3.org/2000/svg"
   xmlns="http://www.w3.org/2000/svg"
   xmlns:sodipodi="http://sodipodi.sourceforge.net/DTD/sodipodi-0.dtd"
   xmlns:inkscape="http://www.inkscape.org/namespaces/inkscape"
   height="512px"
   style="enable-background:new 0 0 512 512;"
   version="1.1"
   viewBox="0 0 512 512"
   width="512px"
   xml:space="preserve"
   id="svg8"
   sodipodi:docname="lab.svg"
   inkscape:version="0.92.4 (5da689c313, 2019-01-14)"><metadata
     id="metadata14"><rdf:RDF><cc:Work
         rdf:about=""><dc:format>image/svg+xml</dc:format><dc:type
           rdf:resource="http://purl.org/dc/dcmitype/StillImage" /><dc:title></dc:title></cc:Work></rdf:RDF></metadata><defs
     id="defs12" /><sodipodi:namedview
     pagecolor="#ffffff"
     bordercolor="#666666"
     borderopacity="1"
     objecttolerance="10"
     gridtolerance="10"
     guidetolerance="10"
     inkscape:pageopacity="0"
     inkscape:pageshadow="2"
     inkscape:window-width="1920"
     inkscape:window-height="1017"
     id="namedview10"
     showgrid="false"
     inkscape:zoom="0.4609375"
     inkscape:cx="256"
     inkscape:cy="256"
     inkscape:window-x="1912"
     inkscape:window-y="-8"
     inkscape:window-maximized="1"
     inkscape:current-layer="svg8" /><g
     id="_x31_86_x2C__Testing_x2C__Chemistry_x2C__flask_x2C__lab_x2C__science_x2C_"
     style="fill:#616161;fill-opacity:1"><g
       id="g4"
       style="fill:#616161;fill-opacity:1"><path
         d="M371.689,371.92c1.992-1.994,4.729-3.221,7.719-3.221    c3.016,0,5.752,1.227,7.745,3.194c1.97,1.994,3.196,4.729,3.196,7.745c0,3.017-1.227,5.752-3.196,7.721    c-1.993,1.967-4.729,3.193-7.745,3.193c-2.889,0-5.547-1.124-7.489-2.99l-0.229-0.203c-1.969-1.969-3.195-4.704-3.195-7.721    C368.494,376.623,369.721,373.888,371.689,371.92 M379.408,374.986c-1.277,0-2.453,0.512-3.271,1.355    c-0.844,0.844-1.354,2.02-1.354,3.297c0,1.278,0.51,2.429,1.354,3.271l0.129,0.154c0.817,0.741,1.942,1.227,3.143,1.227    c1.279,0,2.455-0.537,3.297-1.381c0.844-0.843,1.355-1.993,1.355-3.271c0-1.277-0.512-2.453-1.355-3.297    C381.863,375.523,380.688,374.986,379.408,374.986z M337.796,342.141c1.993-1.994,4.702-3.195,7.72-3.195    c2.912,0,5.57,1.125,7.514,2.99l0.229,0.205c1.969,1.969,3.195,4.703,3.195,7.72c0,3.016-1.227,5.751-3.195,7.72    c-1.993,1.993-4.728,3.221-7.743,3.221c-3.018,0-5.727-1.228-7.72-3.221c-1.969-1.969-3.195-4.704-3.195-7.72    C334.601,346.844,335.827,344.109,337.796,342.141z M345.516,345.208c-1.279,0-2.43,0.537-3.273,1.38    c-0.844,0.818-1.354,1.994-1.354,3.272s0.511,2.454,1.354,3.297c0.844,0.818,1.994,1.355,3.273,1.355    c1.303,0,2.453-0.537,3.297-1.355c0.844-0.843,1.354-2.019,1.354-3.297s-0.511-2.454-1.354-3.272l-0.129-0.152    C347.866,345.693,346.742,345.208,345.516,345.208z M258.939,365.811c2.401-2.377,5.699-3.859,9.354-3.859    c3.63,0,6.928,1.482,9.33,3.859c2.403,2.402,3.885,5.725,3.885,9.355c0,3.629-1.481,6.952-3.858,9.355    c-2.402,2.377-5.702,3.859-9.356,3.859c-3.655,0-6.953-1.482-9.354-3.859c-2.378-2.403-3.861-5.727-3.861-9.355    C255.079,371.51,256.562,368.213,258.939,365.811z M268.294,368.213c-1.917,0-3.655,0.793-4.906,2.045    c-1.253,1.252-2.021,2.99-2.021,4.908c0,1.916,0.768,3.655,2.021,4.908c1.251,1.252,2.989,2.019,4.906,2.019    c1.918,0,3.654-0.767,4.907-2.019c1.253-1.253,2.021-2.992,2.021-4.908c0-1.918-0.768-3.656-2.021-4.908    S270.212,368.213,268.294,368.213z M261.316,306.662c1.968-1.969,4.703-3.195,7.72-3.195s5.75,1.227,7.719,3.195    c1.993,1.994,3.22,4.729,3.22,7.719c0,2.914-1.149,5.547-3.015,7.516l-0.205,0.205c-1.969,1.993-4.702,3.22-7.719,3.22    s-5.752-1.227-7.72-3.22c-1.969-1.969-3.195-4.703-3.195-7.721c0-2.888,1.125-5.547,2.99-7.514L261.316,306.662z M269.036,309.729    c-1.277,0-2.455,0.537-3.272,1.381l-0.153,0.128c-0.742,0.818-1.227,1.917-1.227,3.144c0,1.278,0.537,2.455,1.354,3.272    c0.843,0.843,2.021,1.38,3.298,1.38s2.453-0.537,3.297-1.38l0.128-0.128c0.767-0.818,1.227-1.917,1.227-3.145    c0-1.277-0.511-2.453-1.354-3.271C271.489,310.266,270.313,309.729,269.036,309.729z M403.692,479.711    c1.737,0,3.143,1.406,3.143,3.144c0,1.738-1.405,3.145-3.143,3.145H192.02c-1.737,0-3.145-1.406-3.145-3.145    c0-1.737,1.407-3.144,3.145-3.144H403.692z M279.745,466.828c1.739,0,3.145,1.405,3.145,3.144s-1.405,3.144-3.145,3.144h-146.49    c-1.737,0-3.145-1.405-3.145-3.144s1.407-3.144,3.145-3.144H279.745z M118.25,466.828c1.739,0,3.145,1.405,3.145,3.144    s-1.406,3.144-3.145,3.144h-18.3c-1.739,0-3.145-1.405-3.145-3.144s1.405-3.144,3.145-3.144H118.25z M412.05,467.211    c1.713,0,3.145,1.432,3.145,3.145c0,1.738-1.432,3.145-3.145,3.145h-69.423c-1.739,0-3.145-1.406-3.145-3.145    c0-1.713,1.405-3.145,3.145-3.145H412.05z M129.805,153.27c4.192,0,7.616,3.4,7.616,7.617c0,4.193-3.423,7.592-7.616,7.592    c-4.192,0-7.617-3.398-7.617-7.592C122.188,156.67,125.613,153.27,129.805,153.27z M178.396,130.93    c5.7,0,10.301,4.627,10.301,10.301c0,5.7-4.601,10.326-10.301,10.326c-5.699,0-10.3-4.626-10.3-10.326    C168.096,135.557,172.697,130.93,178.396,130.93z M177.322,167.431c3.067,0,5.547,2.505,5.547,5.572s-2.479,5.547-5.547,5.547    s-5.547-2.479-5.547-5.547S174.255,167.431,177.322,167.431z M305.282,264.665h-0.128h-0.257l-0.152,0.026h-0.077l-1.151,0.051    h-0.102l-0.511,0.025h-0.256l-0.23,0.025h-0.128l-0.128,0.025c-8.562,0.537-16.819,2.224-24.641,4.883l-0.026,0.025h-0.051    l-0.024,0.025h-0.051l-0.026,0.025h-0.051c-13.904,4.806-26.379,12.704-36.578,22.877c-17.33,17.33-28.065,41.281-28.065,67.737    c0,16.794,4.345,32.591,11.936,46.317h80.697v6.287h-76.888c3.578,5.47,7.719,10.531,12.32,15.133    c17.33,17.33,41.281,28.04,67.737,28.04c26.43,0,50.381-10.71,67.711-28.04c4.601-4.602,8.742-9.663,12.346-15.133h-76.938v-6.287    h80.722c7.617-13.727,11.938-29.523,11.938-46.317c0-26.456-10.734-50.407-28.066-67.737    c-15.949-15.95-37.498-26.303-61.448-27.836l-0.128-0.025h-0.102l-0.256-0.025h-0.257l-0.484-0.025h-0.104l-1.149-0.051h-0.077    l-0.179-0.026h-0.256h-0.153v-6.288h0.051h0.281l0.256,0.025h0.229h0.027h0.28l0.256,0.025h0.255l0.282,0.026h0.204h0.051    l0.256,0.025h0.281l0.256,0.025l0.254,0.025h0.205h0.078l0.254,0.026c7.593,0.511,14.979,1.84,22.035,3.936v-87.648h-25.792    v-6.288h28.937h0.074h9.611v-23.03h-38.622v-41.23c0-21.522-8.793-41.102-22.98-55.289    c-13.929-13.904-33.049-22.646-54.111-22.953c-0.384-0.025-0.767-0.051-1.151-0.051c-0.382,0-0.767,0.025-1.149,0.051    c-21.063,0.307-40.182,9.049-54.113,22.979c-14.187,14.187-22.98,33.767-22.98,55.263v82h-38.598v23.03h38.598v6.288h-27.606    v139.819h27.606v6.288h-27.606v50.893l0,0v0.383l0,0v0.408l0,0v0.385l0,0l0.026,0.383v0.025l0.024,0.383l0.026,0.385l0.025,0.382    l0.051,0.385l0.026,0.383l0.051,0.384v0.025l0.051,0.384l0.051,0.357l0,0l0.078,0.383l0.051,0.385l0.077,0.382l0,0    c1.79,8.973,7.284,16.692,15.566,21.217l0,0l0.332,0.18l0,0l0.665,0.331l0,0l0.333,0.179l0,0l0.663,0.308h0.026l0.332,0.152l0,0    l0.333,0.154l0,0l0.358,0.128l0,0l0.69,0.281l0,0l0.358,0.127l0,0l0.358,0.128l0,0l0.716,0.256l0,0l0.356,0.128l0,0l0.716,0.204    l0,0l0.358,0.103l0,0l0.384,0.103l0,0l0.358,0.077l0,0l0.383,0.102l0,0l0.358,0.077l0,0l0.384,0.076l0,0l0.358,0.076h0.024    l0.358,0.077l0.384,0.077l0.383,0.051l0,0l0.384,0.052l0.382,0.051l0,0l0.384,0.051l0.383,0.051l0.384,0.026l0.382,0.024    l0.384,0.026l0.409,0.025l0,0l0.382,0.025l0,0h0.384h0.024l0.384,0.025l0,0h0.383h0.026h0.382l0,0l0.384-0.025l0,0h0.409l0,0    l0.383-0.025l0,0l0.384-0.025l0,0l0.409-0.026l0,0l0.383-0.024l0,0l0.384-0.026l0.382-0.051l0.384-0.051l0.383-0.051l0,0    l0.384-0.052l0.382-0.051v-0.025l0.384-0.052l0.358-0.077l0.383-0.076l0.384-0.076l0.74-0.179l0.358-0.077l0,0l0.743-0.205    l0.358-0.103l0.358-0.102v-0.025l0.358-0.103l0,0l0.356-0.128l0,0l0.358-0.128l0,0l0.358-0.128l0,0l0.358-0.127l0,0l0.333-0.128    c6.594-2.607,11.986-7.361,15.489-13.445l0,0l0.179-0.332l0,0l0.179-0.333l0.179-0.307l0,0l0.179-0.332l0,0l0.152-0.332l0,0    l0.155-0.333h0.024l0.154-0.331l0.153-0.333l0,0l0.154-0.333v-0.025l0.126-0.332l0.154-0.332l0,0l0.128-0.357l0,0l0.126-0.333l0,0    l0.128-0.357h0.026l0.102-0.358l0,0l0.128-0.357l0.128-0.333l0,0l0.102-0.357l0.102-0.357l0,0l0.104-0.358l0.025-0.025    l0.077-0.357l0,0l0.102-0.358l0,0l0.102-0.357l0.077-0.384l0,0l0.077-0.357l0,0l0.077-0.357l0.076-0.385l0,0l0.077-0.383l0,0    l0.051-0.357h0.026l0.051-0.385l0.051-0.382l0.051-0.385l0,0l0.051-0.382l0.026-0.385l0.051-0.383l0.024-0.384l0,0l0.026-0.383    l0,0l0.026-0.384l0,0l0.024-0.383v-0.385v-0.024v-0.384l0,0l0.026-0.383l0,0v-50.893h-27.632v-6.288h27.632V215.613h-27.632    v-6.288h30.75h0.102h7.745v-23.03h-38.597v-82c0-19.785,8.128-37.779,21.164-50.815c10.02-10.046,22.98-17.151,37.422-19.887    c-1.023,1.253-1.969,2.659-2.862,4.167c-4.576,7.77-7.414,18.582-7.414,30.57s2.837,22.775,7.414,30.546    c4.268,7.259,10.044,11.758,16.256,11.758c6.212,0,11.989-4.499,16.258-11.758c4.575-7.771,7.412-18.558,7.412-30.546    s-2.837-22.801-7.412-30.57c-0.895-1.508-1.867-2.914-2.864-4.167c14.441,2.735,27.402,9.841,37.422,19.861    c13.036,13.062,21.14,31.056,21.14,50.841v41.23h-38.573v23.03h9.586h0.077h28.91v6.288h-25.767v87.648    c7.08-2.096,14.443-3.425,22.059-3.936l0.256-0.026h0.051h0.206l0.254-0.025l0.282-0.025h0.255l0.256-0.025h0.051h0.23    l0.256-0.026h0.257l0.28-0.025h0.255h0.026h0.229l0.28-0.025h0.257h0.026V264.665z"
         style="fill-rule:evenodd;clip-rule:evenodd;fill:#616161;fill-opacity:1"
         id="path2" /></g></g><g
     id="Layer_1"
     style="fill:#616161;fill-opacity:1" /></svg>