<?xml version="1.0" encoding="utf-8"?>
<!-- Generator: Adobe Illustrator 16.0.0, SVG Export Plug-In . SVG Version: 6.00 Build 0)  -->
<!DOCTYPE svg PUBLIC "-//W3C//DTD SVG 1.1//EN" "http://www.w3.org/Graphics/SVG/1.1/DTD/svg11.dtd">
<svg version="1.1" id="Ebene_1" xmlns="http://www.w3.org/2000/svg" xmlns:xlink="http://www.w3.org/1999/xlink" x="0px" y="0px"
	 width="25px" height="100px" viewBox="0 0 25 100" enable-background="new 0 0 25 100" xml:space="preserve">
<g>
	<g>
		<path fill="#D9D9D9" d="M23.316,10.037l-5.893,5.129l1.777,7.617L12.5,18.721l-6.703,4.062l1.777-7.617l-5.891-5.129l7.77-0.66
			l3.047-7.16l3.047,7.16L23.316,10.037z M12.5,16.74l4.062,2.438l-1.066-4.621l3.605-3.147l-4.773-0.406L12.5,6.635l-1.828,4.367
			l-4.773,0.406l3.605,3.148l-1.066,4.62L12.5,16.74z"/>
	</g>
</g>
<g>
	<g>
		<path fill="#96CFC7" d="M23.316,35.037l-5.893,5.129l1.777,7.617L12.5,43.721l-6.703,4.062l1.777-7.617l-5.891-5.129l7.77-0.66
			l3.047-7.16l3.047,7.16L23.316,35.037z M12.5,41.74l4.062,2.438l-1.066-4.621l3.605-3.147l-4.773-0.406L12.5,31.635l-1.828,4.367
			l-4.773,0.406l3.605,3.148l-1.066,4.62L12.5,41.74z"/>
	</g>
</g>
<g>
	<g>
		<path fill="#99CCCC" d="M23.316,60.037l-5.893,5.129l1.777,7.617L12.5,68.721l-6.703,4.062l1.777-7.617l-5.891-5.129l7.77-0.66
			l3.047-7.16l3.047,7.16L23.316,60.037z"/>
	</g>
</g>
<g>
	<g>
		<path fill="#00A6A8" d="M23.316,85.037l-5.893,5.129l1.777,7.617L12.5,93.721l-6.703,4.062l1.777-7.617l-5.891-5.129l7.77-0.66
			l3.047-7.16l3.047,7.16L23.316,85.037z"/>
	</g>
</g>
</svg>
