<?xml version="1.0" encoding="UTF-8" standalone="no"?>
<svg
   xmlns:dc="http://purl.org/dc/elements/1.1/"
   xmlns:cc="http://creativecommons.org/ns#"
   xmlns:rdf="http://www.w3.org/1999/02/22-rdf-syntax-ns#"
   xmlns:svg="http://www.w3.org/2000/svg"
   xmlns="http://www.w3.org/2000/svg"
   xmlns:sodipodi="http://sodipodi.sourceforge.net/DTD/sodipodi-0.dtd"
   xmlns:inkscape="http://www.inkscape.org/namespaces/inkscape"
   viewBox="0 0 21.336601 21.601238"
   version="1.1"
   id="svg12"
   sodipodi:docname="2.svg"
   inkscape:version="0.92.4 (5da689c313, 2019-01-14)"
   width="21.336601"
   height="21.601238">
  <metadata
     id="metadata18">
    <rdf:RDF>
      <cc:Work
         rdf:about="">
        <dc:format>image/svg+xml</dc:format>
        <dc:type
           rdf:resource="http://purl.org/dc/dcmitype/StillImage" />
        <dc:title></dc:title>
      </cc:Work>
    </rdf:RDF>
  </metadata>
  <defs
     id="defs16" />
  <sodipodi:namedview
     pagecolor="#ffffff"
     bordercolor="#666666"
     borderopacity="1"
     objecttolerance="10"
     gridtolerance="10"
     guidetolerance="10"
     inkscape:pageopacity="0"
     inkscape:pageshadow="2"
     inkscape:window-width="1920"
     inkscape:window-height="1017"
     id="namedview14"
     showgrid="false"
     inkscape:zoom="6.675088"
     inkscape:cx="-13.414176"
     inkscape:cy="19.851034"
     inkscape:window-x="-8"
     inkscape:window-y="-8"
     inkscape:window-maximized="1"
     inkscape:current-layer="g8" />
  <g
     transform="matrix(0.32802,0,0,0.32802,-68.64918,-8.0978067)"
     id="g10"
     style="fill-rule:evenodd">
    <path
       d="m 259,24.6875 c -3.12383,0.03298 -6.27336,1.23167 -8.90625,3.65625 L 231.0625,45.875 c 0.31715,0.04677 0.61216,0.04366 0.9375,0.125 0.8667,0.21667 1.72736,0.57232 2.53125,1.125 1.60778,1.10535 5.42721,4.31077 8.84375,7.25 3.41654,2.93923 6.4375,5.59375 6.4375,5.59375 0,0 0.21723,0.12019 0.53125,0.46875 0.31402,0.34856 0.7108,0.93294 1.0625,1.875 0.19107,0.51179 0.29824,1.44477 0.4375,2.1875 0.11708,0.62443 0.29212,1.03054 0.34375,1.84375 0.0593,0.93443 -0.12307,2.40821 -0.1875,3.625 l 17.15625,-15.8125 c 3.61875,-3.33244 5.37144,-8.19618 5.15625,-12.96875 -0.14267,-3.16427 -1.12271,-6.28414 -3.0625,-8.90625 l -1.53125,-2.0625 C 267.286,26.93028 263.88956,25.08937 260.34375,24.75 259.90052,24.70758 259.44626,24.68279 259,24.6875 Z"
       id="path2"
       style="fill:#62626a;fill-opacity:1"
       inkscape:connector-curvature="0" />
    <g
       transform="matrix(0.94689,0,0,0.94889,12.638,3.1033)"
       id="g8"
       style="fill:#ffffff;stroke:#000000;stroke-width:1.77160001;stroke-linecap:round;stroke-linejoin:round">
      <path
         d="m 252,69.969 c 0.0644,-1.2168 0.24683,-2.6906 0.1875,-3.625 -0.0516,-0.81322 -0.22667,-1.2193 -0.34375,-1.8438 l -18.031,16.594 c -0.75225,0.69274 -1.55,1.2865 -2.375,1.7812 -0.825,0.4947 -1.6906,0.88828 -2.5625,1.1875 -0.8719,0.29922 -1.7635,0.48758 -2.6562,0.59375 -0.8927,0.10617 -1.7998,0.11568 -2.6875,0.03125 -0.8877,-0.08443 -1.7682,-0.2587 -2.625,-0.53125 -0.8568,-0.27255 -1.6689,-0.63555 -2.4688,-1.0938 -0.7999,-0.45825 -1.5643,-1.0149 -2.2812,-1.6562 -0.7169,-0.6413 -1.3918,-1.3654 -2,-2.1875 l -1.5312,-2.0312 c -0.60819,-0.82212 -1.1027,-1.718 -1.5312,-2.625 -0.4285,-0.907 -0.77965,-1.8494 -1.0312,-2.8125 -0.25155,-0.9631 -0.42258,-1.9473 -0.5,-2.9375 -0.0138,-0.17718 0.008,-0.35375 0,-0.53125 -1.8044,5.0759 -1.2032,10.981 2.0938,15.438 l 1.5,2.0312 c 4.8655,6.577 13.638,7.4169 19.656,1.875 l 19.188,-17.656 z"
         id="path4"
         style="stroke:#62626a;stroke-opacity:1"
         inkscape:connector-curvature="0" />
      <path
         d="m 251.84,64.5 c -0.13926,-0.74273 -0.24643,-1.6757 -0.4375,-2.1875 -0.3517,-0.94206 -0.74848,-1.5264 -1.0625,-1.875 -0.31402,-0.3486 -0.53125,-0.46875 -0.53125,-0.46875 0,0 -3.021,-2.6545 -6.4375,-5.5938 -3.4165,-2.9393 -7.236,-6.1446 -8.8438,-7.25 -0.80389,-0.55268 -1.6646,-0.90833 -2.5312,-1.125 -0.32534,-0.08134 -0.62035,-0.07823 -0.9375,-0.125 l -17.344,15.969 c -1.9401,1.7866 -3.2978,4.0226 -4.1562,6.4375 0.008,0.1775 -0.0138,0.35407 0,0.53125 0.0774,0.99022 0.2484,1.9744 0.5,2.9375 0.2516,0.9631 0.60273,1.9055 1.0312,2.8125 0.42847,0.907 0.92306,1.8029 1.5312,2.625 l 1.5312,2.0312 c 0.60819,0.82212 1.283,1.5461 2,2.1875 0.717,0.6414 1.4814,1.198 2.2812,1.6562 0.7998,0.4582 1.612,0.8212 2.4688,1.0938 0.8568,0.2726 1.7373,0.44683 2.625,0.53125 0.8877,0.08442 1.7947,0.07492 2.6875,-0.03125 0.8928,-0.10617 1.7844,-0.29453 2.6562,-0.59375 0.8718,-0.29922 1.7375,-0.69275 2.5625,-1.1875 0.825,-0.49475 1.6228,-1.0885 2.375,-1.7812 l 18.031,-16.594 z"
         id="path6"
         style="fill:#ffffff;fill-opacity:1;stroke:#62626a;stroke-opacity:1"
         inkscape:connector-curvature="0" />
    </g>
  </g>
</svg>
