<?xml version="1.0" encoding="UTF-8" standalone="no"?>
<!-- Created with Inkscape (http://www.inkscape.org/) -->

<svg
   xmlns:dc="http://purl.org/dc/elements/1.1/"
   xmlns:cc="http://creativecommons.org/ns#"
   xmlns:rdf="http://www.w3.org/1999/02/22-rdf-syntax-ns#"
   xmlns:svg="http://www.w3.org/2000/svg"
   xmlns="http://www.w3.org/2000/svg"
   xmlns:sodipodi="http://sodipodi.sourceforge.net/DTD/sodipodi-0.dtd"
   xmlns:inkscape="http://www.inkscape.org/namespaces/inkscape"
   version="1.1"
   id="svg2"
   xml:space="preserve"
   width="645.84131"
   height="1034.666"
   viewBox="0 0 645.84131 1034.666"
   sodipodi:docname="3.svg"
   inkscape:version="0.92.4 (5da689c313, 2019-01-14)"><metadata
     id="metadata8"><rdf:RDF><cc:Work
         rdf:about=""><dc:format>image/svg+xml</dc:format><dc:type
           rdf:resource="http://purl.org/dc/dcmitype/StillImage" /><dc:title></dc:title></cc:Work></rdf:RDF></metadata><defs
     id="defs6"><clipPath
       clipPathUnits="userSpaceOnUse"
       id="clipPath20"><path
         d="M 0,1080 H 1350 V 0 H 0 Z"
         id="path18"
         inkscape:connector-curvature="0" /></clipPath></defs><sodipodi:namedview
     pagecolor="#ffffff"
     bordercolor="#666666"
     borderopacity="1"
     objecttolerance="10"
     gridtolerance="10"
     guidetolerance="10"
     inkscape:pageopacity="0"
     inkscape:pageshadow="2"
     inkscape:window-width="1920"
     inkscape:window-height="1017"
     id="namedview4"
     showgrid="false"
     inkscape:zoom="0.65555555"
     inkscape:cx="370.69137"
     inkscape:cy="375.82709"
     inkscape:window-x="-8"
     inkscape:window-y="-8"
     inkscape:window-maximized="1"
     inkscape:current-layer="g50" /><g
     id="g10"
     inkscape:groupmode="layer"
     inkscape:label="pot-4325111"
     transform="matrix(1.3333333,0,0,-1.3333333,-653.24665,1195.9254)"><path
       d="m 974.316,603.264 h -4.375 v 1.36 h 4.375 z"
       style="fill:#afaaaa;fill-opacity:1;fill-rule:nonzero;stroke:none"
       id="path12"
       inkscape:connector-curvature="0" /><g
       id="g14"><g
         id="g16"
         clip-path="url(#clipPath20)"><g
           id="g22"
           transform="translate(945.458,608.2656)"><path
             d="m 0,0 -116.372,134.988 c -3.032,3.518 -7.179,5.5 -11.507,5.5 h -3.36 c -8.907,0 -16.129,8.227 -16.129,18.376 v 43.47 c 0,10.149 -7.221,18.377 -16.129,18.377 h -109.757 c -8.908,0 -16.129,-8.228 -16.129,-18.377 v -43.47 c 0,-10.149 -7.221,-18.376 -16.129,-18.376 -4.198,0 -8.23,-1.865 -11.24,-5.198 L -437.242,1.888 c -1.447,-1.603 -2.644,-3.486 -3.454,-5.592 -2.834,-7.372 -4.327,-15.622 -4.327,-24.025 v -399.694 c 0,-27.282 15.873,-49.398 35.454,-49.398 h 376.967 c 21.861,0 39.581,24.69 39.581,55.148 v 395.728 c 0,7.352 -1.353,14.561 -3.912,20.948 C 2.321,-3.135 1.259,-1.46 0,0"
             style="fill:#ffffff;fill-opacity:1;fill-rule:nonzero;stroke:none"
             id="path24"
             inkscape:connector-curvature="0" /></g><g
           id="g26"
           transform="translate(945.458,608.2656)"
           style="stroke:#62626a;stroke-opacity:1"><path
             d="m 0,0 -116.372,134.988 c -3.032,3.518 -7.179,5.5 -11.507,5.5 h -3.36 c -8.907,0 -16.129,8.227 -16.129,18.376 v 43.47 c 0,10.149 -7.221,18.377 -16.129,18.377 h -109.757 c -8.908,0 -16.129,-8.228 -16.129,-18.377 v -43.47 c 0,-10.149 -7.221,-18.376 -16.129,-18.376 -4.198,0 -8.23,-1.865 -11.24,-5.198 L -437.242,1.888 c -1.447,-1.603 -2.644,-3.486 -3.454,-5.592 -2.834,-7.372 -4.327,-15.622 -4.327,-24.025 v -399.694 c 0,-27.282 15.873,-49.398 35.454,-49.398 h 376.967 c 21.861,0 39.581,24.69 39.581,55.148 v 395.728 c 0,7.352 -1.353,14.561 -3.912,20.948 C 2.321,-3.135 1.259,-1.46 0,0 Z"
             style="fill:none;stroke:#62626a;stroke-width:21;stroke-linecap:butt;stroke-linejoin:miter;stroke-miterlimit:10;stroke-dasharray:none;stroke-opacity:1"
             id="path28"
             inkscape:connector-curvature="0" /></g><g
           id="g30"
           transform="translate(821.4531,797.7031)"><path
             d="m 0,0 h -193.515 c -4.893,0 -8.859,3.966 -8.859,8.859 v 72.023 c 0,4.892 3.966,8.859 8.859,8.859 L 0,89.741 c 4.893,0 8.859,-3.967 8.859,-8.859 V 8.859 C 8.859,3.966 4.893,0 0,0"
             style="fill:#ffffff;fill-opacity:1;fill-rule:nonzero;stroke:none"
             id="path32"
             inkscape:connector-curvature="0" /></g><g
           id="g34"
           transform="translate(821.4531,797.7031)"><path
             d="m 0,0 h -193.515 c -4.893,0 -8.859,3.966 -8.859,8.859 v 72.023 c 0,4.892 3.966,8.859 8.859,8.859 L 0,89.741 c 4.893,0 8.859,-3.967 8.859,-8.859 V 8.859 C 8.859,3.966 4.893,0 0,0 Z"
             style="fill:none;stroke:#62626a;stroke-width:19;stroke-linecap:butt;stroke-linejoin:miter;stroke-miterlimit:10;stroke-dasharray:none;stroke-opacity:0.89419795"
             id="path36"
             inkscape:connector-curvature="0" /></g><g
           id="g38"
           transform="translate(674.3506,825.5771)"
           style="fill:#62626a;fill-opacity:1"><path
             d="m 0,0 h -13.877 c -4.407,0 -7.979,3.572 -7.979,7.979 v 18.035 c 0,4.406 3.572,7.979 7.979,7.979 H 0 c 4.406,0 7.979,-3.573 7.979,-7.979 V 7.979 C 7.979,3.572 4.406,0 0,0"
             style="fill:#62626a;fill-opacity:1;fill-rule:nonzero;stroke:none"
             id="path40"
             inkscape:connector-curvature="0" /></g><g
           id="g42"
           transform="translate(733.8623,825.5771)"
           style="fill:#62626a;fill-opacity:1"><path
             d="m 0,0 h -14.853 c -4.137,0 -7.491,3.354 -7.491,7.491 v 19.01 c 0,4.138 3.354,7.492 7.491,7.492 H 0 c 4.138,0 7.491,-3.354 7.491,-7.492 V 7.491 C 7.491,3.354 4.138,0 0,0"
             style="fill:#62626a;fill-opacity:1;fill-rule:nonzero;stroke:none"
             id="path44"
             inkscape:connector-curvature="0" /></g><g
           id="g46"
           transform="translate(789.2656,825.5771)"
           style="fill:#62626a;fill-opacity:1"><path
             d="m 0,0 h -14.871 c -4.132,0 -7.483,3.35 -7.483,7.482 V 26.51 c 0,4.133 3.351,7.483 7.483,7.483 H 0 c 4.132,0 7.482,-3.35 7.482,-7.483 V 7.482 C 7.482,3.35 4.132,0 0,0"
             style="fill:#62626a;fill-opacity:1;fill-rule:nonzero;stroke:none"
             id="path48"
             inkscape:connector-curvature="0" /></g><g
           id="g50"
           transform="translate(902.6729,154.9473)"
           style="fill:#62626a;fill-opacity:1"><path
             d="m 0,0 c -117.587,0.308 -235.174,0.615 -352.76,0.924 -10.13,0.026 -18.323,9.401 -18.303,20.942 0.237,135.125 0.473,270.25 0.709,405.375 14.252,-3.528 35.802,-7.013 61.759,-4.079 18.444,2.086 41.403,4.681 64.445,20.396 34.62,23.612 34.021,52.695 56.388,55.068 20.758,2.203 25.88,-22.358 56.388,-25.494 20.877,-2.147 22.181,8.973 46.543,10.198 40.157,2.017 70.988,-26.468 78.766,-33.653 C 8.331,436.375 17.399,422.25 22.566,412.972 21.2,282.229 19.834,151.486 18.467,20.744 18.347,9.229 10.107,-0.027 0,0"
             style="fill:#62626a;fill-opacity:1;fill-rule:nonzero;stroke:none"
             id="path52"
             inkscape:connector-curvature="0" /></g><g
           id="g54"
           transform="translate(891.1758,337.4404)"><path
             d="m 0,0 h -15.684 c -5.437,0 -9.844,4.408 -9.844,9.846 v 190.44 c 0,5.438 4.407,9.846 9.844,9.846 H 0 c 5.437,0 9.846,-4.408 9.846,-9.846 V 9.846 C 9.846,4.408 5.437,0 0,0"
             style="fill:#f9f9f9;fill-opacity:1;fill-rule:nonzero;stroke:none"
             id="path56"
             inkscape:connector-curvature="0" /></g></g></g></g></svg>