<?xml version="1.0" encoding="UTF-8" standalone="no"?>
<!-- Created with Inkscape (http://www.inkscape.org/) -->

<svg
   xmlns:osb="http://www.openswatchbook.org/uri/2009/osb"
   xmlns:dc="http://purl.org/dc/elements/1.1/"
   xmlns:cc="http://creativecommons.org/ns#"
   xmlns:rdf="http://www.w3.org/1999/02/22-rdf-syntax-ns#"
   xmlns:svg="http://www.w3.org/2000/svg"
   xmlns="http://www.w3.org/2000/svg"
   xmlns:sodipodi="http://sodipodi.sourceforge.net/DTD/sodipodi-0.dtd"
   xmlns:inkscape="http://www.inkscape.org/namespaces/inkscape"
   sodipodi:docname="no_driving.svg"
   viewBox="0 0 192 192"
   height="192"
   width="192"
   xml:space="preserve"
   inkscape:version="0.92.4 (5da689c313, 2019-01-14)"
   version="1.1"
   id="svg2"
   inkscape:export-filename="/home/joker/Projects/Kunzisoft/Inkscape/Android Icon Template_low"
   inkscape:export-xdpi="22.5"
   inkscape:export-ydpi="22.5"><sodipodi:namedview
     inkscape:current-layer="g10"
     inkscape:window-maximized="1"
     inkscape:window-y="-8"
     inkscape:window-x="1912"
     inkscape:cy="85.568931"
     inkscape:cx="41.342253"
     inkscape:zoom="3.123055"
     showgrid="false"
     id="namedview4"
     inkscape:window-height="1017"
     inkscape:window-width="1920"
     inkscape:pageshadow="2"
     inkscape:pageopacity="0"
     guidetolerance="10"
     gridtolerance="10"
     objecttolerance="10"
     borderopacity="1"
     bordercolor="#666666"
     pagecolor="#d7d7d7"
     inkscape:snap-bbox="true"
     inkscape:bbox-paths="true"
     inkscape:bbox-nodes="true"
     inkscape:snap-bbox-edge-midpoints="true"
     inkscape:snap-bbox-midpoints="true"
     inkscape:object-paths="true"
     inkscape:snap-intersection-paths="true"
     inkscape:snap-smooth-nodes="true"
     inkscape:snap-midpoints="true"
     showguides="false"><inkscape:grid
       empspacing="4"
       type="xygrid"
       id="grid4646" /></sodipodi:namedview><metadata
     id="metadata8"><rdf:RDF><cc:Work
         rdf:about=""><dc:format>image/svg+xml</dc:format><dc:type
           rdf:resource="http://purl.org/dc/dcmitype/StillImage" /><dc:title></dc:title></cc:Work></rdf:RDF></metadata><defs
     id="defs6"><linearGradient
       id="linearGradient5664"
       osb:paint="solid"><stop
         style="stop-color:#000000;stop-opacity:1;"
         offset="0"
         id="stop5662" /></linearGradient><marker
       inkscape:isstock="true"
       style="overflow:visible"
       id="marker11240"
       refX="0.0"
       refY="0.0"
       orient="auto"
       inkscape:stockid="Arrow1Mstart"><path
         transform="scale(0.4) translate(10,0)"
         style="fill-rule:evenodd;stroke:#000000;stroke-width:1pt;stroke-opacity:1;fill:#000000;fill-opacity:1"
         d="M 0.0,0.0 L 5.0,-5.0 L -12.5,0.0 L 5.0,5.0 L 0.0,0.0 z "
         id="path11242" /></marker><marker
       inkscape:isstock="true"
       style="overflow:visible;"
       id="Arrow1Mend"
       refX="0.0"
       refY="0.0"
       orient="auto"
       inkscape:stockid="Arrow1Mend"><path
         transform="scale(0.4) rotate(180) translate(10,0)"
         style="fill-rule:evenodd;stroke:#000000;stroke-width:1pt;stroke-opacity:1;fill:#000000;fill-opacity:1"
         d="M 0.0,0.0 L 5.0,-5.0 L -12.5,0.0 L 5.0,5.0 L 0.0,0.0 z "
         id="path10431" /></marker><marker
       inkscape:isstock="true"
       style="overflow:visible"
       id="marker11224"
       refX="0.0"
       refY="0.0"
       orient="auto"
       inkscape:stockid="Arrow1Mstart"><path
         transform="scale(0.4) translate(10,0)"
         style="fill-rule:evenodd;stroke:#000000;stroke-width:1pt;stroke-opacity:1;fill:#000000;fill-opacity:1"
         d="M 0.0,0.0 L 5.0,-5.0 L -12.5,0.0 L 5.0,5.0 L 0.0,0.0 z "
         id="path11226" /></marker><marker
       inkscape:isstock="true"
       style="overflow:visible"
       id="marker11098"
       refX="0.0"
       refY="0.0"
       orient="auto"
       inkscape:stockid="Arrow1Mstart"><path
         transform="scale(0.4) translate(10,0)"
         style="fill-rule:evenodd;stroke:#000000;stroke-width:1pt;stroke-opacity:1;fill:#000000;fill-opacity:1"
         d="M 0.0,0.0 L 5.0,-5.0 L -12.5,0.0 L 5.0,5.0 L 0.0,0.0 z "
         id="path11100" /></marker><marker
       inkscape:isstock="true"
       style="overflow:visible"
       id="marker10904"
       refX="0.0"
       refY="0.0"
       orient="auto"
       inkscape:stockid="Arrow1Mstart"><path
         transform="scale(0.4) translate(10,0)"
         style="fill-rule:evenodd;stroke:#000000;stroke-width:1pt;stroke-opacity:1;fill:#000000;fill-opacity:1"
         d="M 0.0,0.0 L 5.0,-5.0 L -12.5,0.0 L 5.0,5.0 L 0.0,0.0 z "
         id="path10906" /></marker><marker
       inkscape:isstock="true"
       style="overflow:visible"
       id="marker10888"
       refX="0.0"
       refY="0.0"
       orient="auto"
       inkscape:stockid="Arrow1Mstart"><path
         transform="scale(0.4) translate(10,0)"
         style="fill-rule:evenodd;stroke:#000000;stroke-width:1pt;stroke-opacity:1;fill:#000000;fill-opacity:1"
         d="M 0.0,0.0 L 5.0,-5.0 L -12.5,0.0 L 5.0,5.0 L 0.0,0.0 z "
         id="path10890" /></marker><marker
       inkscape:isstock="true"
       style="overflow:visible"
       id="marker10882"
       refX="0.0"
       refY="0.0"
       orient="auto"
       inkscape:stockid="Arrow1Mstart"><path
         transform="scale(0.4) translate(10,0)"
         style="fill-rule:evenodd;stroke:#000000;stroke-width:1pt;stroke-opacity:1;fill:#000000;fill-opacity:1"
         d="M 0.0,0.0 L 5.0,-5.0 L -12.5,0.0 L 5.0,5.0 L 0.0,0.0 z "
         id="path10884" /></marker><marker
       inkscape:stockid="Arrow1Mstart"
       orient="auto"
       refY="0.0"
       refX="0.0"
       id="marker10851"
       style="overflow:visible"
       inkscape:isstock="true"><path
         id="path10853"
         d="M 0.0,0.0 L 5.0,-5.0 L -12.5,0.0 L 5.0,5.0 L 0.0,0.0 z "
         style="fill-rule:evenodd;stroke:#000000;stroke-width:1pt;stroke-opacity:1;fill:#000000;fill-opacity:1"
         transform="scale(0.4) translate(10,0)" /></marker><marker
       inkscape:isstock="true"
       style="overflow:visible"
       id="Arrow1Mstart"
       refX="0.0"
       refY="0.0"
       orient="auto"
       inkscape:stockid="Arrow1Mstart"><path
         transform="scale(0.4) translate(10,0)"
         style="fill-rule:evenodd;stroke:#000000;stroke-width:1pt;stroke-opacity:1;fill:#000000;fill-opacity:1"
         d="M 0.0,0.0 L 5.0,-5.0 L -12.5,0.0 L 5.0,5.0 L 0.0,0.0 z "
         id="path10428" /></marker><marker
       inkscape:isstock="true"
       style="overflow:visible"
       id="marker10769"
       refX="0.0"
       refY="0.0"
       orient="auto"
       inkscape:stockid="Arrow2Lstart"><path
         transform="scale(1.1) translate(1,0)"
         d="M 8.7185878,4.0337352 L -2.2072895,0.016013256 L 8.7185884,-4.0017078 C 6.9730900,-1.6296469 6.9831476,1.6157441 8.7185878,4.0337352 z "
         style="fill-rule:evenodd;stroke-width:0.625;stroke-linejoin:round;stroke:#000000;stroke-opacity:1;fill:#000000;fill-opacity:1"
         id="path10771" /></marker><marker
       inkscape:isstock="true"
       style="overflow:visible"
       id="Arrow2Mstart"
       refX="0.0"
       refY="0.0"
       orient="auto"
       inkscape:stockid="Arrow2Mstart"><path
         transform="scale(0.6) translate(0,0)"
         d="M 8.7185878,4.0337352 L -2.2072895,0.016013256 L 8.7185884,-4.0017078 C 6.9730900,-1.6296469 6.9831476,1.6157441 8.7185878,4.0337352 z "
         style="fill-rule:evenodd;stroke-width:0.625;stroke-linejoin:round;stroke:#000000;stroke-opacity:1;fill:#000000;fill-opacity:1"
         id="path10446" /></marker><marker
       inkscape:isstock="true"
       style="overflow:visible"
       id="Arrow1Sstart"
       refX="0.0"
       refY="0.0"
       orient="auto"
       inkscape:stockid="Arrow1Sstart"><path
         transform="scale(0.2) translate(6,0)"
         style="fill-rule:evenodd;stroke:#000000;stroke-width:1pt;stroke-opacity:1;fill:#000000;fill-opacity:1"
         d="M 0.0,0.0 L 5.0,-5.0 L -12.5,0.0 L 5.0,5.0 L 0.0,0.0 z "
         id="path10434" /></marker><marker
       inkscape:isstock="true"
       style="overflow:visible"
       id="Arrow2Lstart"
       refX="0.0"
       refY="0.0"
       orient="auto"
       inkscape:stockid="Arrow2Lstart"><path
         transform="scale(1.1) translate(1,0)"
         d="M 8.7185878,4.0337352 L -2.2072895,0.016013256 L 8.7185884,-4.0017078 C 6.9730900,-1.6296469 6.9831476,1.6157441 8.7185878,4.0337352 z "
         style="fill-rule:evenodd;stroke-width:0.625;stroke-linejoin:round;stroke:#000000;stroke-opacity:1;fill:#000000;fill-opacity:1"
         id="path10440" /></marker><marker
       inkscape:isstock="true"
       style="overflow:visible"
       id="Arrow1Lstart"
       refX="0.0"
       refY="0.0"
       orient="auto"
       inkscape:stockid="Arrow1Lstart"><path
         transform="scale(0.8) translate(12.5,0)"
         style="fill-rule:evenodd;stroke:#000000;stroke-width:1pt;stroke-opacity:1;fill:#000000;fill-opacity:1"
         d="M 0.0,0.0 L 5.0,-5.0 L -12.5,0.0 L 5.0,5.0 L 0.0,0.0 z "
         id="path10422" /></marker><clipPath
       clipPathUnits="userSpaceOnUse"
       id="clipPath16"><path
         d="M 0,192 192,192 192,0 0,0 0,192 Z"
         id="path18"
         inkscape:connector-curvature="0" /></clipPath><clipPath
       clipPathUnits="userSpaceOnUse"
       id="clipPath26"><path
         d="M -4.88281e-4,192 192,192 192,-4.88281e-4 l -192.000488281,0 0,192.000488281 z"
         id="path28"
         inkscape:connector-curvature="0" /></clipPath><clipPath
       clipPathUnits="userSpaceOnUse"
       id="clipPath34"><path
         d="M -4.88281e-4,192 192,192 192,-4.88281e-4 l -192.000488281,0 0,192.000488281 z"
         id="path36"
         inkscape:connector-curvature="0" /></clipPath><clipPath
       clipPathUnits="userSpaceOnUse"
       id="clipPath38"><path
         d="M 0,192 192,192 192,0 0,0 0,192 Z"
         id="path40"
         inkscape:connector-curvature="0" /></clipPath><clipPath
       clipPathUnits="userSpaceOnUse"
       id="clipPath42"><path
         d="M 0,192 192,192 192,0 0,0 0,192 Z"
         id="path44"
         inkscape:connector-curvature="0" /></clipPath><clipPath
       clipPathUnits="userSpaceOnUse"
       id="clipPath116"><path
         d="m 0,192 192,0 0,-192.000488281 -192,0 L 0,192 Z"
         id="path118"
         inkscape:connector-curvature="0" /></clipPath><clipPath
       clipPathUnits="userSpaceOnUse"
       id="clipPath120"><path
         d="m 0,192 192,0 0,-191.999511719 -192,0 L 0,192 Z"
         id="path122"
         inkscape:connector-curvature="0" /></clipPath><clipPath
       clipPathUnits="userSpaceOnUse"
       id="clipPath124"><path
         d="M 192,192 0,192 0,0 l 192,0 0,192 z"
         id="path126"
         inkscape:connector-curvature="0" /></clipPath><filter
       id="filter10356"
       inkscape:label="Drop Shadow"
       style="color-interpolation-filters:sRGB;"><feFlood
         id="feFlood10358"
         result="flood"
         flood-color="rgb(0,0,0)"
         flood-opacity="0.196078" /><feComposite
         id="feComposite10360"
         result="composite1"
         operator="in"
         in2="SourceGraphic"
         in="flood" /><feGaussianBlur
         id="feGaussianBlur10362"
         result="blur"
         stdDeviation="4"
         in="composite1" /><feOffset
         id="feOffset10364"
         result="offset"
         dy="4"
         dx="4" /><feComposite
         id="feComposite10366"
         result="composite2"
         operator="over"
         in2="offset"
         in="SourceGraphic" /></filter><marker
       inkscape:isstock="true"
       style="overflow:visible"
       id="Arrow1Sstart-3"
       refX="0"
       refY="0"
       orient="auto"
       inkscape:stockid="Arrow1Sstart"><path
         transform="matrix(0.2,0,0,0.2,1.2,0)"
         style="fill:#000000;fill-opacity:1;fill-rule:evenodd;stroke:#000000;stroke-width:1pt;stroke-opacity:1"
         d="M 0,0 5,-5 -12.5,0 5,5 0,0 Z"
         id="path10434-6"
         inkscape:connector-curvature="0" /></marker><marker
       inkscape:isstock="true"
       style="overflow:visible"
       id="Arrow1Sstart-3-7"
       refX="0"
       refY="0"
       orient="auto"
       inkscape:stockid="Arrow1Sstart"><path
         transform="matrix(0.2,0,0,0.2,1.2,0)"
         style="fill:#000000;fill-opacity:1;fill-rule:evenodd;stroke:#000000;stroke-width:1pt;stroke-opacity:1"
         d="M 0,0 5,-5 -12.5,0 5,5 0,0 Z"
         id="path10434-6-5"
         inkscape:connector-curvature="0" /></marker><marker
       inkscape:isstock="true"
       style="overflow:visible"
       id="Arrow2Mstart-3"
       refX="0"
       refY="0"
       orient="auto"
       inkscape:stockid="Arrow2Mstart"><path
         transform="scale(0.6,0.6)"
         d="M 8.7185878,4.0337352 -2.2072895,0.01601326 8.7185884,-4.0017078 c -1.7454984,2.3720609 -1.7354408,5.6174519 -6e-7,8.035443 z"
         style="fill:#000000;fill-opacity:1;fill-rule:evenodd;stroke:#000000;stroke-width:0.625;stroke-linejoin:round;stroke-opacity:1"
         id="path10446-5"
         inkscape:connector-curvature="0" /></marker><filter
       style="color-interpolation-filters:sRGB;"
       inkscape:label="Drop Shadow"
       id="filter6016"><feFlood
         flood-opacity="0.239216"
         flood-color="rgb(0,0,0)"
         result="flood"
         id="feFlood6018" /><feComposite
         in="flood"
         in2="SourceGraphic"
         operator="in"
         result="composite1"
         id="feComposite6020" /><feGaussianBlur
         in="composite1"
         stdDeviation="2"
         result="blur"
         id="feGaussianBlur6022" /><feOffset
         dx="0"
         dy="4"
         result="offset"
         id="feOffset6024" /><feComposite
         in="SourceGraphic"
         in2="offset"
         operator="over"
         result="fbSourceGraphic"
         id="feComposite6026" /><feColorMatrix
         result="fbSourceGraphicAlpha"
         in="fbSourceGraphic"
         values="0 0 0 -1 0 0 0 0 -1 0 0 0 0 -1 0 0 0 0 1 0"
         id="feColorMatrix6028" /><feFlood
         id="feFlood6030"
         flood-opacity="0.121569"
         flood-color="rgb(0,0,0)"
         result="flood"
         in="fbSourceGraphic" /><feComposite
         id="feComposite6032"
         in2="fbSourceGraphic"
         in="flood"
         operator="in"
         result="composite1" /><feGaussianBlur
         id="feGaussianBlur6034"
         in="composite1"
         stdDeviation="2"
         result="blur" /><feOffset
         id="feOffset6036"
         dx="0"
         dy="0"
         result="offset" /><feComposite
         id="feComposite6038"
         in2="offset"
         in="fbSourceGraphic"
         operator="over"
         result="composite2" /></filter><filter
       style="color-interpolation-filters:sRGB;"
       inkscape:label="Drop Shadow"
       id="filter6045"><feFlood
         flood-opacity="0.2"
         flood-color="rgb(0,0,0)"
         result="flood"
         id="feFlood6047" /><feComposite
         in="flood"
         in2="SourceGraphic"
         operator="in"
         result="composite1"
         id="feComposite6049" /><feGaussianBlur
         in="composite1"
         stdDeviation="4"
         result="blur"
         id="feGaussianBlur6051" /><feOffset
         dx="0"
         dy="4"
         result="offset"
         id="feOffset6053" /><feComposite
         in="SourceGraphic"
         in2="offset"
         operator="over"
         result="composite2"
         id="feComposite6055" /></filter></defs><g
     inkscape:groupmode="layer"
     id="layer1"
     inkscape:label="Work Area"
     style="display:inline"><ellipse
       style="fill:#2196f3;fill-opacity:0.2"
       id="path1367"
       cx="-69.483246"
       cy="55.114803"
       rx="0.64039856"
       ry="0.48029894" /><path
       style="fill:#00aa88;fill-opacity:0.95862067;stroke:#000000;stroke-width:6.29;stroke-opacity:1;stroke-miterlimit:4;stroke-dasharray:none"
       d="M 183.99926,95.949455 A 87.875262,87.925307 0 0 1 96.124,183.87476 87.875262,87.925307 0 0 1 8.2487383,95.949455 87.875262,87.925307 0 0 1 96.124,8.024148 87.875262,87.925307 0 0 1 183.99926,95.949455 Z"
       id="path1383"
       inkscape:connector-curvature="0" /><g
       id="g1607"
       transform="matrix(0.34613228,0,0,0.34613228,396.92625,191.91626)"
       style="fill:#ffffff;fill-opacity:1;stroke-width:7.95319748;stroke-miterlimit:4;stroke-dasharray:none"><path
         style="opacity:1;vector-effect:none;fill:#ffffff;fill-opacity:1;stroke:#000000;stroke-width:15.90639496;stroke-linecap:butt;stroke-linejoin:miter;stroke-miterlimit:4;stroke-dasharray:none;stroke-dashoffset:0;stroke-opacity:1"
         id="path12"
         d="m -723.0566,-233.70526 v 136.769997 h -300 V -233.70526 a 52.75,52.75 0 0 1 42.39,-51.72 l 20.13,-4 33.3,-6.66 a 276.76,276.76 0 0 1 108.36,0 l 36.18,7.23 17.25,3.45 a 52.75,52.75 0 0 1 42.39,51.7 z"
         class="cls-3"
         inkscape:connector-curvature="0" /><circle
         style="opacity:1;vector-effect:none;fill:#ffffff;fill-opacity:1;stroke:#000000;stroke-width:7.95319748;stroke-linecap:butt;stroke-linejoin:miter;stroke-miterlimit:4;stroke-dasharray:none;stroke-dashoffset:0;stroke-opacity:1"
         id="circle16"
         r="15"
         cy="-391.93527"
         cx="-808.05658"
         class="cls-3" /><circle
         style="opacity:1;vector-effect:none;fill:#ffffff;fill-opacity:1;stroke:#000000;stroke-width:7.95319748;stroke-linecap:butt;stroke-linejoin:miter;stroke-miterlimit:4;stroke-dasharray:none;stroke-dashoffset:0;stroke-opacity:1"
         id="circle18"
         r="15"
         cy="-391.93527"
         cx="-938.05658"
         class="cls-3" /><path
         style="opacity:1;vector-effect:none;fill:#ffffff;fill-opacity:1;stroke:#000000;stroke-width:7.95319748;stroke-linecap:butt;stroke-linejoin:miter;stroke-miterlimit:4;stroke-dasharray:none;stroke-dashoffset:0;stroke-opacity:1"
         id="path20"
         d="m -818.8766,-296.10526 q -12,-2.4 -24.18,-3.7 v -37.13 h -60 v 37.13 q -12.15,1.32 -24.18,3.7 l -25.82,5.17 v 4 l 30.11,33.88 a 66.75,66.75 0 0 0 99.78,0 l 30.11,-33.88 v -4 z"
         class="cls-3"
         inkscape:connector-curvature="0" /><path
         style="opacity:1;vector-effect:none;fill:#ffffff;fill-opacity:1;stroke:#000000;stroke-width:7.95319748;stroke-linecap:butt;stroke-linejoin:miter;stroke-miterlimit:4;stroke-dasharray:none;stroke-dashoffset:0;stroke-opacity:1"
         id="path22"
         d="m -813.0566,-436.93526 v 60 a 60,60 0 0 1 -60,60 v 0 a 60,60 0 0 1 -60,-60 v -60"
         class="cls-3"
         inkscape:connector-curvature="0" /><circle
         style="opacity:1;vector-effect:none;fill:#ffffff;fill-opacity:1;stroke:#000000;stroke-width:7.95319748;stroke-linecap:butt;stroke-linejoin:miter;stroke-miterlimit:4;stroke-dasharray:none;stroke-dashoffset:0;stroke-opacity:1"
         id="circle26"
         r="7.9962153"
         cy="-404.93149"
         cx="-845.06036"
         class="cls-4" /><circle
         style="opacity:1;vector-effect:none;fill:#ffffff;fill-opacity:1;stroke:#000000;stroke-width:7.95319748;stroke-linecap:butt;stroke-linejoin:miter;stroke-miterlimit:4;stroke-dasharray:none;stroke-dashoffset:0;stroke-opacity:1"
         id="circle28"
         r="7.9962153"
         cy="-404.93149"
         cx="-900.67828"
         class="cls-4" /><path
         style="opacity:1;vector-effect:none;fill:#ffffff;fill-opacity:1;stroke:#000000;stroke-width:7.95319748;stroke-linecap:butt;stroke-linejoin:miter;stroke-miterlimit:4;stroke-dasharray:none;stroke-dashoffset:0;stroke-opacity:1"
         id="path30"
         d="m -853.0566,-366.93526 v 0 a 20,20 0 0 1 -40,0"
         class="cls-3"
         inkscape:connector-curvature="0" /><path
         inkscape:connector-curvature="0"
         style="opacity:1;vector-effect:none;fill:#ffffff;fill-opacity:1;fill-rule:nonzero;stroke:#000000;stroke-width:7.95319748;stroke-linecap:butt;stroke-linejoin:miter;stroke-miterlimit:4;stroke-dasharray:none;stroke-dashoffset:0;stroke-opacity:1"
         d="m -862.57682,-162.66516 c 0,6.69974 -5.4816,12.18135 -12.3336,12.18135 -6.69975,0 -12.18135,-5.48161 -12.18135,-12.18135 0,-6.852 5.4816,-12.3336 12.18135,-12.3336 6.852,0 12.3336,5.4816 12.3336,12.3336 z"
         id="path858" /><g
         id="g925"
         transform="matrix(1.0826749,0,0,1.0826749,72.333131,16.72749)"><path
           id="path856"
           d="m -956.52539,-183.0689 c -5.0248,0 0,-8.37466 -4.72027,-8.52693 -2.284,7.76561 -3.50212,16.14026 -3.50212,24.81947 0,3.04534 0.15227,6.09068 0.45678,9.136 2.13174,-0.60906 4.41575,3.1976 6.69975,3.1976 l 42.78694,-4.11119 c 13.09494,0 23.60135,10.5064 23.60135,23.44908 v 30.6056 c 0,10.049597 -6.24295,18.576547 -15.07441,21.926397 9.74507,3.65441 20.25148,5.63387 31.36695,5.63387 11.11546,0 21.62186,-1.97946 31.5192,-5.63387 -8.83146,-3.34985 -15.22667,-11.8768 -15.22667,-21.926397 v -30.6056 c 0,-12.94268 10.65867,-23.44908 23.60134,-23.44908 l 42.78694,4.11119 c 2.28402,0 4.56802,-3.80666 6.69975,-3.1976 0.30454,-3.04532 0.4568,-6.09066 0.4568,-9.136 0,-8.67921 -1.21814,-17.05386 -3.50214,-24.81947 -4.56799,0.15227 0.30454,8.52693 -4.56799,8.52693 0,0 -49.02989,-8.22239 -81.76723,-8.22239 -32.58509,0 -81.61497,8.22239 -81.61497,8.22239 z"
           style="opacity:1;vector-effect:none;fill:#000000;fill-opacity:1;fill-rule:nonzero;stroke:none;stroke-width:7.95319748;stroke-linecap:butt;stroke-linejoin:miter;stroke-miterlimit:4;stroke-dasharray:none;stroke-dashoffset:0;stroke-opacity:1"
           inkscape:connector-curvature="0" /><path
           id="path860"
           d="m -862.57682,-166.77636 c 0,6.852 -5.4816,12.3336 -12.3336,12.3336 -6.69975,0 -12.18135,-5.4816 -12.18135,-12.3336 0,-6.69973 5.4816,-12.18133 12.18135,-12.18133 6.852,0 12.3336,5.4816 12.3336,12.18133 z"
           style="opacity:1;vector-effect:none;fill:#000000;fill-opacity:1;fill-rule:nonzero;stroke:#e9e9fb;stroke-width:7.95319748;stroke-linecap:butt;stroke-linejoin:miter;stroke-miterlimit:4;stroke-dasharray:none;stroke-dashoffset:0;stroke-opacity:1"
           inkscape:connector-curvature="0" /><path
           id="path862"
           d="m -874.91042,-240.32117 c 40.50294,0 73.54482,33.04187 73.54482,73.54481 0,40.50294 -33.04188,73.544817 -73.54482,73.544817 -40.50296,0 -73.54483,-33.041877 -73.54483,-73.544817 0,-40.50294 33.04187,-73.54481 73.54483,-73.54481 z m 0,-16.29255 c -49.63895,0 -89.83736,40.19841 -89.83736,89.83736 0,49.63896 40.19841,89.837357 89.83736,89.837357 49.63894,0 89.83736,-40.198397 89.83736,-89.837357 0,-49.63895 -40.19842,-89.83736 -89.83736,-89.83736 z"
           style="opacity:1;vector-effect:none;fill:#000000;fill-opacity:1;fill-rule:nonzero;stroke:none;stroke-width:7.95319748;stroke-linecap:butt;stroke-linejoin:miter;stroke-miterlimit:4;stroke-dasharray:none;stroke-dashoffset:0;stroke-opacity:1"
           inkscape:connector-curvature="0" /></g><path
         id="path52"
         d="m -933.0566,-430.69109 c 8.13887,2.49839 0,15.82718 0,15.82718 0,0 5.75372,-15.11673 5.75372,-18.11479 0,-3.99741 0.56132,-22.73529 9.54214,-31.72947 10.10342,-9.99354 23.57468,-13.24144 31.15224,-8.74435 3.92911,2.24855 17.11971,13.74112 31.15223,4.24726 8.41953,-5.74629 23.85533,-18.73788 23.85533,-18.73788 0,0 -8.13887,-22.23561 -45.18478,-19.73723 -15.71644,1.24919 -33.1168,-2.24854 -33.1168,-2.24854 0,0 -0.28065,6.24596 2.52586,9.49385 -23.29402,5.99612 -30.87159,20.98642 -33.1168,32.47899 -0.5613,2.24854 -0.84196,4.49708 -0.84196,6.74564 v 3.49773 c 0,7.24531 7.15622,22.27468 8.27882,27.02161 z"
         style="opacity:1;vector-effect:none;fill:#ffffff;fill-opacity:1;stroke:#000000;stroke-width:7.95319748;stroke-linecap:butt;stroke-linejoin:miter;stroke-miterlimit:4;stroke-dasharray:none;stroke-dashoffset:0;stroke-opacity:1"
         inkscape:connector-curvature="0"
         sodipodi:nodetypes="ccsccccccccssc" /><path
         id="path50"
         d="m -813.0566,-406.93526 c 0,0 -2.56157,-23.75583 0,-23.75583 1.08088,-4.92375 7.89846,-16.8218 7.89846,-24.75448 0,-7.93269 -0.81066,-15.59183 -5.13415,-22.15681 -4.86389,-7.11206 -15.13216,-11.21517 -20.53651,-11.21517 -6.215,3.82957 -20.80673,12.58287 -25.40043,17.78015 -2.43195,2.73541 1.08087,4.92374 1.08087,4.92374 0,0 3.24261,-1.36771 4.5937,-1.64125 6.75543,-1.91479 21.61737,-3.28249 26.21107,3.55604 5.67458,8.20622 5.67458,32.27781 5.67458,35.83385 0,3.28249 5.61241,21.42976 5.61241,21.42976 z"
         style="opacity:1;vector-effect:none;fill:#f5f5f5;fill-opacity:1;stroke:#000000;stroke-width:7.95319748;stroke-linecap:butt;stroke-linejoin:miter;stroke-miterlimit:4;stroke-dasharray:none;stroke-dashoffset:0;stroke-opacity:1"
         inkscape:connector-curvature="0"
         sodipodi:nodetypes="ccsccccccsc" /><path
         style="fill:#ffffff;fill-opacity:1;stroke-width:1.80072391"
         d="m 77.540734,39.922241 c 0,-0.981091 0.628169,-3.839223 1.148907,-5.227465 0.678754,-1.809495 2.670057,-3.816853 4.845863,-4.884932 1.423477,-0.698768 1.770492,-0.775445 3.509434,-0.775445 1.816238,0 1.993296,0.04411 3.009858,0.749911 2.894782,2.009839 6.006043,2.822903 8.540638,2.231918 1.068043,-0.249033 1.550876,-0.275414 1.766436,-0.09652 0.21849,0.181332 0.72602,0.103146 1.92643,-0.296771 1.94466,-0.647861 5.84897,-0.776708 7.13229,-0.235375 1.29964,0.548216 2.09537,2.865987 2.43744,7.099663 l 0.16007,1.981132 H 94.779417 77.540734 Z"
         id="path927"
         inkscape:connector-curvature="0"
         transform="matrix(2.8890689,0,0,2.8890689,-1146.7473,-554.4593)" /></g><path
       style="fill:#ffffff;fill-opacity:1;stroke-width:0.02001246"
       d="m 77.400505,40.488773 c 0.244286,-3.233557 0.972389,-5.847198 2.097604,-7.529687 0.284566,-0.4255 0.581374,-0.771376 0.983954,-1.146621 1.819803,-1.696238 3.946879,-2.769306 6.004467,-3.029136 0.346594,-0.04377 1.145934,-0.04943 1.430891,-0.01013 0.481632,0.06642 0.903734,0.192188 1.265973,0.377216 0.118425,0.06049 0.469644,0.278491 0.780485,0.484445 1.391181,0.921753 2.265813,1.404686 3.266848,1.80381 0.14309,0.05705 0.264665,0.108555 0.270169,0.114454 0.02472,0.02649 -0.134475,-0.02825 -0.449395,-0.154525 -1.012361,-0.405945 -1.82245,-0.841093 -2.860898,-1.536763 -1.134282,-0.759872 -1.225932,-0.79013 -2.502697,-0.82627 -0.722556,-0.02045 -1.703486,-7.72e-4 -2.061912,0.04137 -0.572089,0.06726 -0.998765,0.205341 -1.791114,0.579636 -1.232656,0.58229 -2.203542,1.254905 -3.14919,2.181709 -0.886664,0.868995 -1.485189,1.682037 -1.876185,2.548625 -0.404177,0.895805 -0.994249,3.221711 -1.210402,4.771081 -0.03929,0.28166 -0.05498,0.493683 -0.06291,0.85049 l -0.01056,0.475296 h 17.242209 c 9.483218,0 17.246098,-0.0068 17.250858,-0.01501 0.009,-0.01563 -0.16103,-2.137767 -0.21606,-2.696678 -0.22651,-2.300424 -0.61885,-4.023662 -1.1573,-5.083164 -0.34088,-0.670742 -0.79285,-1.143876 -1.26752,-1.326895 -1.3553,-0.522552 -5.09864,-0.388618 -7.09427,0.253826 -0.4744,0.152722 -0.72109,0.225755 -0.73056,0.216284 -0.0107,-0.01069 0.48337,-0.208814 0.82982,-0.332763 0.74822,-0.267692 1.98616,-0.502282 3.1956,-0.605572 0.45246,-0.03864 1.71779,-0.03215 2.12132,0.01088 1.4614,0.155846 2.36193,0.53256 2.77998,1.162935 0.55865,0.842372 1.03219,2.599695 1.32147,4.903966 0.11006,0.876696 0.22102,2.129115 0.27038,3.051899 0.0115,0.214634 0.025,0.446528 0.0301,0.515321 l 0.009,0.125078 H 94.749125 77.387276 Z"
       id="path933"
       inkscape:connector-curvature="0" /><path
       style="fill:#ffffff;fill-opacity:1;stroke-width:0.02001246"
       d="m 77.402008,40.568823 c 0.0051,-0.05228 0.02755,-0.302189 0.04991,-0.555346 0.209414,-2.370868 0.722374,-4.468787 1.468123,-6.004373 0.493723,-1.016634 0.943541,-1.626426 1.711881,-2.320698 1.704062,-1.539791 3.622112,-2.52529 5.549806,-2.851505 0.378669,-0.06408 0.761728,-0.08627 1.275406,-0.07389 0.390248,0.0094 0.51154,0.01975 0.712636,0.06075 0.672798,0.137185 0.946859,0.265336 1.888983,0.883292 0.796901,0.522702 1.354876,0.859117 1.971227,1.188494 0.187117,0.09999 0.328855,0.181934 0.314974,0.182088 -0.04211,4.66e-4 -0.680391,-0.326176 -1.037502,-0.530947 -0.345321,-0.198011 -0.797165,-0.481675 -1.264867,-0.794077 -0.315823,-0.210953 -0.58191,-0.373829 -0.746219,-0.456772 -0.270893,-0.136746 -0.709715,-0.242714 -0.978696,-0.236339 -0.0947,0.0022 -0.08632,0.0049 0.06004,0.01878 0.241625,0.02296 0.403709,0.05495 0.61038,0.12045 0.297911,0.09442 0.512654,0.217339 1.240772,0.710241 2.596925,1.757993 5.409488,2.567194 7.74482,2.228258 0.154096,-0.02236 0.466347,-0.08051 0.69389,-0.129203 0.656681,-0.140539 0.849591,-0.171922 1.130652,-0.183936 0.308346,-0.01318 0.403106,0.0048 0.571376,0.108713 0.0991,0.06118 0.13834,0.07315 0.26653,0.08138 0.2693,0.01728 0.69343,-0.07689 1.50194,-0.333476 0.68537,-0.217509 1.16216,-0.326374 1.88938,-0.431403 0.7859,-0.113505 1.49975,-0.168679 2.39149,-0.184839 1.31681,-0.02386 2.3652,0.08799 2.95135,0.314874 1.22073,0.472512 2.00158,2.485424 2.39061,6.1626 0.0274,0.258661 0.0905,0.979109 0.14026,1.600996 0.0498,0.621887 0.0955,1.17348 0.10157,1.225763 l 0.0111,0.09506 H 94.779751 77.545707 l 0.01129,-0.485302 c 0.01149,-0.49401 0.0348,-0.714543 0.142257,-1.345838 0.214203,-1.258413 0.619589,-2.876769 0.954972,-3.812372 0.348113,-0.971121 0.974279,-1.897703 1.928031,-2.853047 0.452911,-0.453667 0.74085,-0.706621 1.194615,-1.04947 0.693774,-0.524191 1.278199,-0.875948 2.08803,-1.256755 0.709769,-0.333754 1.125002,-0.474027 1.60605,-0.542552 0.369862,-0.05269 0.581901,-0.0645 1.45388,-0.08102 l 0.742437,-0.01407 -0.53033,-0.003 c -0.647427,-0.0037 -1.370071,0.02571 -1.645967,0.06693 -0.57096,0.0853 -1.058298,0.262828 -1.956275,0.71263 -1.257119,0.629698 -2.206073,1.338955 -3.217472,2.404766 -0.74092,0.780781 -1.297096,1.614618 -1.611137,2.415469 -0.383726,0.978559 -0.887909,3.006273 -1.094723,4.40274 -0.04801,0.324165 -0.07538,0.673612 -0.08819,1.125701 l -0.0095,0.335209 h 17.260585 17.26058 l -0.0118,-0.135084 c -0.006,-0.0743 -0.0433,-0.535834 -0.0819,-1.025639 -0.12712,-1.615338 -0.18696,-2.191411 -0.3212,-3.091924 -0.24124,-1.61841 -0.62198,-2.953928 -1.06003,-3.718213 -0.32186,-0.561581 -0.76365,-0.996066 -1.1752,-1.155786 -0.51293,-0.199061 -1.25616,-0.295823 -2.40544,-0.313166 -1.83156,-0.02764 -3.44736,0.173049 -4.79827,0.595962 -0.20994,0.06572 -0.39055,0.116554 -0.40135,0.112954 -0.0258,-0.0086 0.49495,-0.209985 0.78321,-0.302887 0.79102,-0.254929 2.07822,-0.480503 3.16564,-0.554759 0.45692,-0.0312 1.74285,-0.01145 2.1013,0.03227 1.00532,0.122629 1.74698,0.360111 2.21968,0.710749 0.34545,0.256249 0.56937,0.594609 0.82775,1.250795 0.59552,1.512414 0.98823,3.872065 1.18512,7.120983 0.0166,0.273274 0.0301,0.532185 0.0301,0.575358 v 0.0785 H 94.742611 77.392755 Z M 88.083356,29.041862 c -0.06834,-0.0039 -0.185408,-0.0039 -0.260162,-6.4e-5 -0.07475,0.0039 -0.01884,0.007 0.124245,0.0071 0.143089,3.4e-5 0.204252,-0.0031 0.135917,-0.007 z"
       id="path935"
       inkscape:connector-curvature="0" /><path
       style="fill:#ffffff;fill-opacity:1;stroke-width:0.02001246"
       d="m 77.401008,40.558816 c 0.0058,-0.05779 0.02422,-0.262663 0.04099,-0.455283 0.290417,-3.334016 1.133268,-6.004937 2.394835,-7.589022 0.37253,-0.467766 1.041195,-1.085326 1.74664,-1.613148 1.36246,-1.019406 2.824396,-1.70522 4.27266,-2.004362 0.461658,-0.09536 0.71716,-0.123007 1.240772,-0.134277 0.712796,-0.01534 1.070528,0.02754 1.570978,0.188299 0.381955,0.122697 0.608218,0.244007 1.310815,0.702788 0.933101,0.609295 1.425791,0.904971 2.201371,1.3211 0.29826,0.160028 0.174139,0.120292 -0.183252,-0.05867 -0.603862,-0.302376 -0.985604,-0.527773 -1.828,-1.079331 -0.788379,-0.516191 -0.967953,-0.612599 -1.30218,-0.699106 -0.172298,-0.04459 -0.417481,-0.08088 -0.52896,-0.07828 -0.03852,8.98e-4 0.02451,0.01357 0.140087,0.02816 0.400733,0.05058 0.710265,0.155402 1.034959,0.350484 0.09669,0.05809 0.364913,0.233334 0.596056,0.389429 0.231144,0.156094 0.559849,0.369332 0.730455,0.473862 2.398443,1.469529 4.907129,2.125135 7.063348,1.845898 0.127155,-0.01647 0.384287,-0.06172 0.571404,-0.100563 1.043039,-0.21652 1.179542,-0.237101 1.494696,-0.225356 0.164608,0.0061 0.223578,0.01673 0.291418,0.05235 0.0468,0.02456 0.12333,0.06492 0.17011,0.08968 0.0729,0.0386 0.11505,0.04494 0.29518,0.0444 0.30219,-9.11e-4 0.62313,-0.07651 1.46091,-0.344123 0.19262,-0.06153 0.50331,-0.150416 0.69043,-0.197528 0.18712,-0.04711 0.32524,-0.08621 0.30694,-0.08688 -0.059,-0.0022 -0.66836,0.157614 -1.03139,0.270465 -0.19405,0.06032 -0.36217,0.106564 -0.37358,0.102758 -0.0523,-0.01744 0.80337,-0.320477 1.19576,-0.423477 0.74459,-0.195454 1.82972,-0.369646 2.684,-0.430857 0.36292,-0.026 1.39116,-0.02598 1.80112,4e-5 0.83204,0.05281 1.61956,0.228676 2.14481,0.478968 0.52525,0.250301 0.81212,0.529504 1.06552,1.037033 0.5476,1.096809 0.97165,2.989168 1.22122,5.449789 0.0878,0.865554 0.20134,2.394652 0.20134,2.711331 v 0.0885 H 94.741493 77.390519 Z M 112.0297,40.428735 c -0.002,-0.04719 -0.004,-0.04861 -0.0114,-0.01001 l -0.009,0.04503 H 94.780301 77.550969 l -0.0023,-0.38524 c -0.0028,-0.468609 -0.01255,-0.451867 -0.02326,0.04002 l -0.0079,0.365228 H 94.775002 112.0325 Z m -0.036,-0.444888 c -0.0628,-0.832512 -0.18722,-2.25984 -0.23211,-2.662045 -0.0908,-0.813377 -0.2748,-1.97456 -0.37741,-2.381483 -0.0484,-0.191757 -0.0344,-0.077 0.0283,0.232024 0.2221,1.095311 0.33632,2.03995 0.5127,4.240044 0.0423,0.527935 0.0803,0.942368 0.0844,0.920962 0.004,-0.02141 -0.003,-0.178681 -0.0159,-0.349502 z M 77.602565,39.273016 c 0.14543,-1.212123 0.673596,-3.436268 1.069278,-4.502802 0.370991,-0.999983 1.057583,-1.987114 2.053131,-2.951838 0.873622,-0.846572 1.81527,-1.509485 2.899775,-2.041418 1.108663,-0.543783 1.566458,-0.67512 2.511563,-0.720547 l 0.350218,-0.01683 -0.390243,0.0083 c -0.823227,0.01752 -1.326345,0.154421 -2.315021,0.629926 -0.955641,0.459616 -1.681188,0.922639 -2.457183,1.568104 -0.321406,0.267342 -1.15126,1.0987 -1.42042,1.422993 -0.63882,0.769674 -1.034635,1.455966 -1.321566,2.291426 -0.429747,1.251296 -0.983614,3.710986 -1.019918,4.529395 -0.0045,0.100946 -0.0042,0.152019 5.15e-4,0.113495 0.0048,-0.03852 0.0227,-0.187117 0.03987,-0.330206 z m 33.717845,-4.621297 c -0.0196,-0.08313 -0.0394,-0.147358 -0.0441,-0.142723 -0.005,0.0046 0.008,0.07644 0.0272,0.159575 0.0196,0.08313 0.0394,0.147358 0.0441,0.142724 0.005,-0.0046 -0.008,-0.07644 -0.0272,-0.159576 z m -0.12549,-0.485556 c -0.15224,-0.55695 -0.3172,-1.011234 -0.51456,-1.417119 -0.11637,-0.239312 -0.39176,-0.672675 -0.47061,-0.740549 -0.0265,-0.02283 -0.0157,-0.0013 0.0252,0.05003 0.35482,0.445484 0.70655,1.238226 0.94774,2.136006 0.0421,0.15667 0.0803,0.281094 0.0849,0.276498 0.005,-0.0046 -0.0281,-0.141787 -0.0727,-0.304867 z m -1.16374,-2.357793 c -0.082,-0.08255 -0.15359,-0.150093 -0.15909,-0.150093 -0.006,0 0.0571,0.06754 0.13908,0.150093 0.082,0.08255 0.15359,0.150094 0.1591,0.150094 0.005,0 -0.0571,-0.06754 -0.13909,-0.150094 z m -0.25015,-0.221759 c -0.19172,-0.168037 -0.63467,-0.332655 -1.12254,-0.417176 -1.03397,-0.179132 -2.77385,-0.175005 -4.28082,0.01015 -0.44289,0.05442 -1.16487,0.178501 -1.03861,0.178501 0.0103,0 0.17615,-0.02639 0.36857,-0.05864 1.84976,-0.310048 4.13868,-0.323213 5.30827,-0.03053 0.28649,0.07169 0.49828,0.159676 0.67166,0.279022 0.18177,0.125123 0.20135,0.133222 0.0935,0.03867 z m -6.48904,-0.221762 c -0.0138,-0.0056 -0.0363,-0.0056 -0.05,0 -0.0138,0.0056 -0.003,0.01009 0.025,0.01009 0.0275,0 0.0388,-0.0045 0.025,-0.01009 z M 88.022761,29.04257 c -0.02461,-0.0048 -0.06964,-0.0049 -0.100062,-2.73e-4 -0.03042,0.0046 -0.01028,0.0085 0.04475,0.0086 0.05503,1.5e-4 0.07992,-0.0036 0.05531,-0.0084 z M 87.243165,29.0217 c -0.134193,-0.0035 -0.359333,-0.0035 -0.500311,-2.2e-5 -0.140978,0.0034 -0.03118,0.0063 0.243987,0.0063 0.275172,1.2e-5 0.390517,-0.0028 0.256324,-0.0063 z"
       id="path937"
       inkscape:connector-curvature="0" /><path
       style="fill:#ffffff;fill-opacity:1;stroke-width:0.02001246"
       d="m 83.221138,40.46876 c 3.124097,-0.0028 8.230275,-0.0028 11.347062,0 3.116788,0.0028 0.560709,0.0051 -5.680175,0.0051 -6.240885,0 -8.790984,-0.0023 -5.666887,-0.0051 z"
       id="path939"
       inkscape:connector-curvature="0" /><path
       style="fill:#ffffff;fill-opacity:1;stroke-width:0.02001246"
       d="m 83.81987,40.468763 c 0.712694,-0.0029 1.87892,-0.0029 2.591613,0 0.712694,0.0029 0.129581,0.0053 -1.295806,0.0053 -1.425387,0 -2.0085,-0.0024 -1.295807,-0.0053 z"
       id="path941"
       inkscape:connector-curvature="0" /><path
       style="fill:#ffffff;fill-opacity:1;stroke-width:0.02001246"
       d="m 77.399532,40.558816 c 0.0063,-0.05779 0.02534,-0.267166 0.0422,-0.465289 0.265003,-3.114143 1.061027,-5.760909 2.204409,-7.329623 0.322138,-0.441972 0.712521,-0.851319 1.255652,-1.316651 1.634053,-1.399987 3.466376,-2.308023 5.264541,-2.608924 0.347001,-0.05807 0.66629,-0.08142 1.116483,-0.08165 0.593207,-3.09e-4 0.923863,0.04608 1.385074,0.19431 0.394964,0.12694 0.590526,0.232252 1.360847,0.732829 0.861389,0.559756 1.309479,0.83289 1.811127,1.103975 0.470344,0.25417 0.531729,0.289491 0.503669,0.289816 -0.05138,5.95e-4 -0.857543,-0.420874 -1.234124,-0.645209 -0.20913,-0.124582 -0.614382,-0.379561 -0.90056,-0.566619 -0.502668,-0.328566 -0.691401,-0.44811 -0.670418,-0.424647 0.01663,0.01859 0.812281,0.548058 1.090679,0.72579 1.627196,1.038819 3.382153,1.721248 5.015196,1.9502 0.46507,0.0652 0.759489,0.08542 1.248703,0.08576 0.674338,4.61e-4 1.052501,-0.04311 1.850103,-0.213187 0.672481,-0.143393 0.782331,-0.159071 1.122739,-0.160241 l 0.311178,-0.0011 0.16556,0.08634 c 0.13064,0.06813 0.19375,0.08866 0.2992,0.09732 0.25442,0.02091 0.67514,-0.07633 1.66929,-0.385817 0.1732,-0.05392 0.30774,-0.100463 0.29899,-0.103434 -0.009,-0.003 -0.19495,0.04899 -0.41376,0.115472 -0.21882,0.06648 -0.40738,0.117698 -0.41903,0.113816 -0.0556,-0.01854 0.87543,-0.344864 1.25955,-0.441467 0.70681,-0.177759 1.79437,-0.350757 2.59061,-0.41209 0.34451,-0.02654 1.43653,-0.02666 1.85216,-2.16e-4 0.82343,0.0524 1.61045,0.231594 2.14412,0.488191 0.62426,0.300152 0.9152,0.645326 1.24723,1.479765 0.48207,1.211474 0.84946,3.081004 1.06044,5.396123 0.0754,0.827256 0.16076,2.045091 0.16098,2.296429 v 0.105065 H 94.740134 77.387895 l 0.01154,-0.105065 z m 34.631318,-0.110068 c -9.4e-4,-0.02092 -0.006,-0.02495 -0.0117,-0.01001 -0.008,0.01999 -3.47464,0.02502 -17.239155,0.02502 H 77.550969 l -0.0027,-0.345215 c -0.0032,-0.409537 -0.01276,-0.388113 -0.02226,0.05003 l -0.0068,0.315197 h 17.256638 c 16.422143,0 17.256553,-0.0017 17.255053,-0.03502 z m -0.0241,-0.279899 c -0.005,-0.03042 -0.008,-0.01028 -0.009,0.04475 -2e-4,0.05504 0.004,0.07992 0.008,0.05531 0.005,-0.02461 0.005,-0.06964 2.8e-4,-0.100062 z m -0.0199,-0.250431 c -0.004,-0.03577 -0.008,-0.0065 -0.008,0.06504 0,0.07155 0.004,0.100813 0.008,0.06504 0.004,-0.03577 0.004,-0.09431 0,-0.13008 z m -0.0639,-0.810869 c -0.10054,-1.223585 -0.24366,-2.602342 -0.27988,-2.696314 -0.0186,-0.04826 -0.008,0.07614 0.0387,0.435393 0.0715,0.555113 0.11953,1.043953 0.20506,2.086176 0.0416,0.506315 0.0784,0.895644 0.0819,0.865175 0.004,-0.03047 -0.0171,-0.341163 -0.0458,-0.69043 z M 77.565123,39.49839 c -0.0048,-0.02489 -0.0089,-0.0092 -0.0091,0.03479 -2.22e-4,0.04403 0.0037,0.06439 0.0087,0.04526 0.005,-0.01913 0.0052,-0.05516 4.04e-4,-0.08005 z m 0.154861,-0.998009 c 0.03961,-0.223531 0.116855,-0.615242 0.171643,-0.870468 0.09514,-0.443188 0.117626,-0.569393 0.07808,-0.438192 -0.08667,0.287526 -0.365879,1.796901 -0.38686,2.091301 -0.0073,0.102395 0.0013,0.06646 0.02721,-0.113063 0.02085,-0.144737 0.07032,-0.446047 0.109931,-0.669578 z m 0.619486,-2.686905 c 0.04066,-0.141652 0.07014,-0.261333 0.06552,-0.265958 -0.01778,-0.01778 -0.416495,1.490102 -0.412081,1.558418 9.16e-4,0.01416 0.06263,-0.212901 0.13715,-0.504583 0.07452,-0.291681 0.168753,-0.646226 0.209414,-0.787877 z m 33.28649,0.472681 c -0.005,-0.01926 -0.009,-0.0035 -0.009,0.03502 0,0.03852 0.004,0.05428 0.009,0.03502 0.005,-0.01926 0.005,-0.05078 0,-0.07004 z m -0.0246,-0.174339 c -0.008,-0.06197 -0.0182,-0.108512 -0.0233,-0.103432 -0.005,0.0051 -0.003,0.05994 0.005,0.121905 0.008,0.06197 0.0182,0.108512 0.0233,0.103432 0.005,-0.0051 0.003,-0.05994 -0.005,-0.121905 z m -0.0354,-0.205517 c -0.005,-0.01947 -0.01,-0.0084 -0.01,0.02464 -4e-4,0.03302 0.004,0.04895 0.009,0.0354 0.005,-0.01355 0.006,-0.04057 7.4e-4,-0.06004 z m -0.02,-0.120074 c -0.005,-0.01947 -0.01,-0.0084 -0.01,0.02463 -4e-4,0.03302 0.004,0.04895 0.009,0.0354 0.005,-0.01355 0.006,-0.04057 7.4e-4,-0.06004 z m -0.0248,-0.154568 c -0.008,-0.05105 -0.018,-0.08872 -0.023,-0.08372 -0.005,0.005 -0.003,0.05086 0.005,0.101911 0.008,0.05105 0.018,0.08872 0.023,0.08372 0.005,-0.005 0.003,-0.05086 -0.005,-0.101911 z M 78.468496,35.360581 c 0,-0.01651 -0.01214,0.0015 -0.02697,0.04002 -0.01484,0.03852 -0.02697,0.08355 -0.02697,0.100062 0,0.01651 0.01214,-0.0015 0.02697,-0.04002 0.01483,-0.03852 0.02697,-0.08355 0.02697,-0.100062 z m 33.012684,0.05094 c -0.008,-0.05105 -0.018,-0.08872 -0.023,-0.08372 -0.005,0.005 -0.003,0.05086 0.005,0.101911 0.008,0.05105 0.018,0.08872 0.023,0.08372 0.005,-0.005 0.003,-0.05086 -0.005,-0.101911 z m -0.0359,-0.176019 c -0.006,-0.01376 -0.0101,-0.0025 -0.0101,0.02502 0,0.02752 0.005,0.03877 0.0101,0.02501 0.006,-0.01376 0.006,-0.03627 0,-0.05003 z M 78.62348,34.86545 c -0.0091,-0.0091 -0.132635,0.355827 -0.130408,0.385112 8.35e-4,0.01098 0.03225,-0.06944 0.06982,-0.17872 0.03757,-0.109276 0.06483,-0.202152 0.06059,-0.206392 z m 32.80182,0.269991 c -0.006,-0.01376 -0.0101,-0.0025 -0.0101,0.02502 0,0.02752 0.005,0.03877 0.0101,0.02502 0.006,-0.01376 0.006,-0.03627 0,-0.05003 z m -0.02,-0.100062 c -0.006,-0.01376 -0.0101,-0.0025 -0.0101,0.02502 0,0.02752 0.005,0.03877 0.0101,0.02502 0.006,-0.01376 0.006,-0.03627 0,-0.05003 z m -0.0196,-0.0788 c -0.006,-0.01597 -0.0111,-0.01122 -0.0121,0.01209 -8.6e-4,0.0211 0.004,0.03292 0.0105,0.02627 0.007,-0.0067 0.007,-0.02391 0.002,-0.03836 z m -0.02,-0.08005 c -0.006,-0.01597 -0.0111,-0.01122 -0.0121,0.01209 -8.6e-4,0.0211 0.004,0.03292 0.0105,0.02627 0.007,-0.0067 0.007,-0.02391 0.002,-0.03836 z M 78.734482,34.610114 c 0.104586,-0.263793 0.106118,-0.268264 0.07889,-0.230143 -0.0229,0.03206 -0.181729,0.427191 -0.181729,0.452107 0,0.03086 0.01804,-0.0081 0.102841,-0.221964 z m 32.586388,0.04114 c -0.008,-0.04016 -0.0177,-0.06902 -0.0226,-0.06413 -0.005,0.0049 -0.003,0.04176 0.005,0.08192 0.008,0.04016 0.0177,0.06902 0.0226,0.06413 0.005,-0.0049 0.003,-0.04175 -0.005,-0.08192 z m -0.0753,-0.295045 c -0.006,-0.01597 -0.0111,-0.01122 -0.0121,0.01209 -8.6e-4,0.0211 0.004,0.03292 0.0105,0.02627 0.007,-0.0067 0.007,-0.02391 0.002,-0.03836 z M 79.205171,33.674371 c 0.218041,-0.362064 0.613579,-0.891706 0.944577,-1.264827 0.09318,-0.105037 0.08946,-0.10252 -0.02835,0.01921 -0.401267,0.414616 -0.923796,1.162672 -1.210612,1.733122 -0.122812,0.244261 -0.09237,0.214604 0.04319,-0.04207 0.06685,-0.126579 0.179887,-0.327026 0.251197,-0.445438 z m 32.015329,0.576948 c -0.007,-0.02933 -0.0173,-0.04947 -0.022,-0.04475 -0.005,0.0047 -0.003,0.03257 0.005,0.0619 0.007,0.02933 0.0172,0.04946 0.022,0.04475 0.005,-0.0047 0.003,-0.03257 -0.005,-0.0619 z m -0.0349,-0.11525 c -0.006,-0.01597 -0.0111,-0.01122 -0.0121,0.01209 -8.6e-4,0.0211 0.004,0.03292 0.0105,0.02627 0.007,-0.0066 0.007,-0.02391 0.002,-0.03836 z m -0.0251,-0.104887 c -0.007,-0.02933 -0.0172,-0.04946 -0.022,-0.04475 -0.005,0.0047 -0.003,0.03257 0.005,0.0619 0.007,0.02933 0.0173,0.04946 0.022,0.04475 0.005,-0.0047 0.003,-0.03257 -0.005,-0.0619 z m -0.0704,-0.229753 c -0.0135,-0.04517 -0.0283,-0.07844 -0.0328,-0.07394 -0.005,0.0045 0.003,0.04514 0.0164,0.09031 0.0135,0.04517 0.0283,0.07844 0.0328,0.07394 0.005,-0.0045 -0.003,-0.04514 -0.0164,-0.09031 z m -0.13993,-0.410407 c -0.0346,-0.09564 -0.0662,-0.170563 -0.0703,-0.166494 -0.004,0.0041 0.0208,0.08575 0.0553,0.181503 0.0345,0.09576 0.0661,0.17068 0.0703,0.166494 0.004,-0.0042 -0.0207,-0.08586 -0.0553,-0.181503 z m -0.12933,-0.334708 c -0.0666,-0.158951 -0.27696,-0.573915 -0.31821,-0.627558 -0.0169,-0.02201 0.0355,0.09056 0.11656,0.250156 0.081,0.159599 0.16813,0.341852 0.19354,0.405007 0.0254,0.06315 0.0496,0.11141 0.0538,0.107234 0.004,-0.0042 -0.0164,-0.06485 -0.0457,-0.134839 z m -0.38268,-0.737933 c -0.0196,-0.03319 -0.0566,-0.08497 -0.0822,-0.115072 -0.0256,-0.0301 -0.0133,-0.0029 0.0273,0.06035 0.077,0.119927 0.11685,0.159724 0.0548,0.05473 z m -29.835212,-0.37993 c 0.164828,-0.165103 0.295184,-0.300187 0.28968,-0.300187 -0.0055,0 -0.144865,0.135084 -0.309692,0.300187 -0.164828,0.165103 -0.295184,0.300187 -0.289681,0.300187 0.0055,0 0.144865,-0.135084 0.309693,-0.300187 z m 29.708492,0.192569 c 0,-0.0042 -0.0158,-0.01992 -0.035,-0.03502 -0.0318,-0.02489 -0.0325,-0.02419 -0.008,0.0076 0.0261,0.03334 0.0426,0.04394 0.0426,0.02747 z m -0.1601,-0.19815 c 0,-0.0031 -0.0608,-0.06386 -0.13509,-0.135084 l -0.13508,-0.129503 0.1295,0.135084 c 0.12029,0.125472 0.14067,0.144232 0.14067,0.129503 z m -0.3202,-0.303866 c 0,-0.0144 -0.22047,-0.160301 -0.3144,-0.20806 -0.13251,-0.06738 -0.12917,-0.04912 0.004,0.02294 0.066,0.03568 0.1606,0.09361 0.21013,0.128734 0.0967,0.06854 0.10006,0.07046 0.10006,0.05639 z M 81.513435,31.119769 c 0.415988,-0.334582 0.931295,-0.694145 1.305812,-0.91115 0.09519,-0.05515 0.134783,-0.09378 0.05003,-0.0488 -0.08608,0.04568 -0.463284,0.282048 -0.643849,0.403459 -0.383125,0.25761 -1.063682,0.801375 -1.222313,0.976628 -0.03302,0.03648 0.003,0.0094 0.08005,-0.06021 0.07705,-0.06959 0.270668,-0.231562 0.430268,-0.359928 z m 21.303255,0.358173 c 0.077,-0.02163 0.10792,-0.03483 0.0686,-0.02932 -0.0779,0.01092 -0.26108,0.06467 -0.22871,0.06714 0.011,8.36e-4 0.0831,-0.01618 0.1601,-0.03781 z m 0.20472,-0.05189 c -0.007,-0.0067 -0.0239,-0.0074 -0.0384,-0.0016 -0.016,0.0064 -0.0112,0.01113 0.0121,0.01209 0.0211,8.68e-4 0.0329,-0.0039 0.0263,-0.01051 z m 0.08,-0.02001 c -0.007,-0.0067 -0.0239,-0.0074 -0.0383,-0.0016 -0.016,0.0064 -0.0112,0.01113 0.0121,0.01209 0.0211,8.69e-4 0.0329,-0.0039 0.0263,-0.01051 z m 6.28934,-0.0361 c 0,-0.01097 -0.24228,-0.09231 -0.26906,-0.09033 -0.0116,8.58e-4 0.0374,0.02267 0.10896,0.04847 0.1361,0.04908 0.1601,0.05535 0.1601,0.04186 z m -5.98915,-0.02393 c -0.007,-0.0067 -0.0239,-0.0074 -0.0384,-0.0016 -0.016,0.0064 -0.0112,0.01113 0.0121,0.01209 0.0211,8.68e-4 0.0329,-0.0039 0.0263,-0.01051 z m 0.11049,-0.02117 c -0.0138,-0.0056 -0.0363,-0.0056 -0.05,0 -0.0138,0.0056 -0.003,0.01009 0.025,0.01009 0.0275,0 0.0388,-0.0045 0.025,-0.01009 z m 0.10006,-0.02001 c -0.0138,-0.0056 -0.0363,-0.0056 -0.05,0 -0.0138,0.0056 -0.003,0.01009 0.025,0.01009 0.0275,0 0.0388,-0.0045 0.025,-0.01009 z m 0.12045,-0.01989 c -0.0135,-0.0055 -0.0406,-0.0058 -0.06,-7.41e-4 -0.0195,0.0051 -0.008,0.0096 0.0246,0.01 0.033,4.08e-4 0.049,-0.0037 0.0354,-0.0092 z m 0.20475,-0.02575 c 0.0514,-0.01062 0.0621,-0.01697 0.03,-0.01771 -0.0275,-6.3e-4 -0.0861,0.0063 -0.13008,0.01541 -0.0513,0.01062 -0.0621,0.01697 -0.03,0.0177 0.0275,6.31e-4 0.0861,-0.0063 0.13008,-0.01541 z m 5.11532,-0.0028 c -0.16893,-0.06758 -0.96986,-0.173352 -1.41892,-0.187392 l -0.27427,-0.0086 0.26016,0.01782 c 0.41219,0.02823 0.83755,0.07786 1.12961,0.131807 0.14835,0.0274 0.27382,0.05391 0.27883,0.05893 0.005,0.005 0.0234,0.0085 0.0408,0.0078 0.019,-7.63e-4 0.0126,-0.0089 -0.0162,-0.02043 z m -4.9302,-0.03212 c -0.0193,-0.005 -0.0508,-0.005 -0.0701,0 -0.0193,0.005 -0.004,0.0092 0.035,0.0092 0.0385,0 0.0543,-0.0041 0.035,-0.0092 z m 0.16033,-0.01997 c -0.0191,-0.005 -0.0552,-0.0052 -0.08,-4.05e-4 -0.0249,0.0048 -0.009,0.0089 0.0348,0.0091 0.044,2.22e-4 0.0644,-0.0037 0.0453,-0.0087 z m 0.1601,-0.02001 c -0.0191,-0.005 -0.0552,-0.0052 -0.08,-4.04e-4 -0.0249,0.0048 -0.009,0.0089 0.0348,0.0091 0.044,2.22e-4 0.0644,-0.0037 0.0453,-0.0087 z m 0.50508,-0.04523 c 0.20363,-0.02018 0.33356,-0.03768 0.28873,-0.03889 -0.0848,-0.0023 -0.70397,0.05399 -0.73901,0.06717 -0.0416,0.01563 0.0918,0.0073 0.45028,-0.02828 z m 0.61591,-0.05563 c -0.041,-0.0043 -0.11303,-0.0044 -0.1601,-1.4e-4 -0.0471,0.0042 -0.0135,0.0077 0.0745,0.0078 0.0881,8e-5 0.12657,-0.0034 0.0856,-0.0077 z m 0.41046,-0.02019 c -0.0574,-0.004 -0.15645,-0.0041 -0.22014,-8e-5 -0.0637,0.004 -0.0167,0.0073 0.10434,0.0073 0.12107,4.1e-5 0.17318,-0.0032 0.1158,-0.0072 z m 1.0199,-0.02025 c -0.16785,-0.0033 -0.44252,-0.0033 -0.61038,0 -0.16785,0.0033 -0.0305,0.0061 0.30519,0.0061 0.33571,0 0.47305,-0.0027 0.30519,-0.0061 z M 83.054394,30.066259 c 0,-0.0055 -0.02702,0.004 -0.06004,0.02104 -0.03302,0.01708 -0.06004,0.03555 -0.06004,0.04105 0,0.0055 0.02702,-0.004 0.06004,-0.02104 0.03302,-0.01707 0.06004,-0.03555 0.06004,-0.04105 z m 0.220137,-0.119721 c 0,-0.0055 -0.04503,0.01281 -0.100062,0.0407 -0.05504,0.02789 -0.100063,0.05521 -0.100063,0.06071 0,0.0055 0.04503,-0.01281 0.100063,-0.0407 0.05503,-0.02789 0.100062,-0.05521 0.100062,-0.06071 z m 0.811857,-0.404893 c -0.0089,-0.0089 -0.75182,0.349182 -0.75182,0.362375 0,0.0054 0.17073,-0.07234 0.3794,-0.172777 0.208669,-0.100441 0.376258,-0.18576 0.37242,-0.189598 z m 0.128728,-0.04471 c 0.03852,-0.02109 0.06104,-0.03835 0.05003,-0.03835 -0.01101,0 -0.05153,0.01726 -0.09006,0.03835 -0.03852,0.02109 -0.06104,0.03835 -0.05003,0.03835 0.01101,0 0.05153,-0.01726 0.09006,-0.03835 z m 0.255563,-0.104939 c 0.05801,-0.02256 0.101883,-0.0446 0.0975,-0.04898 -0.0099,-0.0099 -0.273014,0.09435 -0.273014,0.108157 0,0.0055 0.01576,0.0037 0.03502,-0.0041 0.01926,-0.0077 0.08248,-0.03255 0.140491,-0.0551 z m 5.047738,0.03541 c 0,-0.0052 -0.02702,-0.02346 -0.06004,-0.04054 -0.07527,-0.03892 -0.07982,-0.02202 -0.005,0.01857 0.06289,0.03412 0.06504,0.03485 0.06504,0.02197 z m -4.706243,-0.161008 c 0.07337,-0.02566 0.123717,-0.04733 0.111886,-0.04815 -0.0277,-0.0019 -0.31145,0.0944 -0.326952,0.110977 -0.01366,0.01461 0.03075,0.0016 0.215066,-0.06283 z m 4.515001,0.0513 c -0.06883,-0.06883 -0.528604,-0.211705 -0.739979,-0.229947 -0.115083,-0.0099 -0.113966,-0.0093 0.03066,0.01706 0.231199,0.04216 0.382332,0.08587 0.553596,0.160098 0.179728,0.0779 0.1814,0.07846 0.155723,0.05279 z m -4.091424,-0.161455 c 0.104566,-0.0225 0.302689,-0.05311 0.440274,-0.06802 0.137586,-0.01491 0.209631,-0.02793 0.1601,-0.02895 -0.185287,-0.0038 -0.880548,0.115825 -0.880548,0.151477 0,0.0059 0.02026,0.0052 0.04503,-0.0015 0.02477,-0.0067 0.130581,-0.03055 0.235146,-0.05305 z m 3.19699,-0.09337 c -0.01926,-0.005 -0.05078,-0.005 -0.07004,0 -0.01926,0.005 -0.0035,0.0092 0.03502,0.0092 0.03852,0 0.05428,-0.0041 0.03502,-0.0092 z m -2.20137,-0.0208 c -0.04128,-0.0043 -0.108818,-0.0043 -0.150093,0 -0.04128,0.0043 -0.0075,0.0078 0.07505,0.0078 0.08255,0 0.116323,-0.0035 0.07505,-0.0078 z m 0.870542,-0.02019 c -0.05779,-0.004 -0.152345,-0.004 -0.210131,0 -0.05779,0.004 -0.01051,0.0073 0.105066,0.0073 0.115571,0 0.162851,-0.0033 0.105065,-0.0073 z"
       id="path943"
       inkscape:connector-curvature="0" /><path
       style="fill:#ffffff;fill-opacity:1;stroke-width:0.02001246"
       d="m 77.399674,40.538804 c 0.0066,-0.06879 0.02564,-0.278173 0.04233,-0.46529 0.259737,-2.912887 0.936569,-5.322516 1.947676,-6.934032 0.394027,-0.628006 0.89072,-1.17485 1.620573,-1.784202 1.673663,-1.397336 3.471315,-2.259997 5.296169,-2.541536 0.335172,-0.05171 1.197991,-0.07375 1.532671,-0.03915 0.416281,0.04303 0.867348,0.163106 1.213481,0.32302 0.212011,0.09795 0.385679,0.202762 1.076227,0.649525 0.86931,0.562418 1.313085,0.828576 1.937252,1.161886 0.162927,0.087 0.287597,0.161067 0.277045,0.164585 -0.02891,0.0096 -0.695718,-0.329063 -1.067268,-0.542113 -0.306964,-0.176017 -0.869051,-0.5293 -1.327141,-0.834137 -0.221116,-0.147142 -0.271215,-0.177564 -0.24015,-0.145828 0.02931,0.02995 0.760682,0.51455 1.044462,0.69206 1.738494,1.087462 3.607463,1.759916 5.353812,1.926297 0.26942,0.02567 0.476488,0.03065 0.936291,0.02251 0.728888,-0.0129 0.905158,-0.03489 1.801121,-0.224755 0.57443,-0.121729 0.82178,-0.15466 1.09874,-0.146283 0.226035,0.0068 0.236605,0.0092 0.402215,0.09099 0.0936,0.04618 0.21154,0.08978 0.26221,0.09689 0.20538,0.02882 0.65766,-0.06322 1.33658,-0.271987 0.18847,-0.05796 0.33888,-0.109179 0.33422,-0.113829 -0.005,-0.0047 -0.11346,0.02433 -0.2418,0.06439 -0.12835,0.04007 -0.24392,0.06933 -0.25682,0.06503 -0.0267,-0.0089 0.38864,-0.173313 0.71692,-0.283751 0.6324,-0.212746 1.54037,-0.393961 2.64165,-0.527228 0.42126,-0.05098 0.48262,-0.05328 1.42088,-0.0533 0.82177,-1.6e-5 1.02762,0.0058 1.27079,0.03587 1.39793,0.172877 2.2375,0.541645 2.65285,1.165218 0.5775,0.86701 1.07649,2.808077 1.3579,5.282181 0.11104,0.976255 0.25155,2.743412 0.25183,3.166971 v 0.125078 H 94.739995 77.387603 l 0.01199,-0.125078 z m 17.197438,-0.07004 -17.045074,-0.005 -0.0056,-0.295172 -0.0056,-0.295172 -0.01,0.30522 -0.01,0.305219 17.060618,-0.005 17.060624,-0.005 z m 17.408548,-0.270168 c -0.006,-0.01376 -0.0101,-0.0025 -0.0101,0.02502 0,0.02752 0.005,0.03877 0.0101,0.02502 0.006,-0.01376 0.006,-0.03627 0,-0.05003 z m -0.0195,-0.250156 c -0.005,-0.01926 -0.009,-0.0035 -0.009,0.03502 0,0.03852 0.004,0.05428 0.009,0.03502 0.005,-0.01926 0.005,-0.05078 0,-0.07004 z m -0.0197,-0.29018 c -0.005,-0.02477 -0.009,-0.0045 -0.009,0.04503 0,0.04953 0.004,0.06979 0.009,0.04503 0.005,-0.02477 0.005,-0.06529 0,-0.09006 z m -0.0198,-0.230143 c -0.005,-0.03027 -0.008,-0.0055 -0.008,0.05503 0,0.06054 0.004,0.0853 0.008,0.05503 0.005,-0.03027 0.005,-0.0798 0,-0.110068 z m -34.382061,0.09131 c -0.0064,-0.01596 -0.01113,-0.01122 -0.01209,0.01209 -8.68e-4,0.0211 0.0039,0.03292 0.01051,0.02627 0.0067,-0.0067 0.0074,-0.02391 0.0016,-0.03836 z m 34.362221,-0.341104 c -0.004,-0.03597 -0.008,-0.01136 -0.008,0.05468 -2e-4,0.06604 0.004,0.09547 0.008,0.0654 0.005,-0.03007 0.005,-0.08411 2e-4,-0.120075 z m -34.322071,-0.03038 c -0.005,-0.01926 -0.0092,-0.0035 -0.0092,0.03502 0,0.03852 0.0041,0.05428 0.0092,0.03502 0.005,-0.01926 0.005,-0.05078 0,-0.07004 z m 0.02001,-0.140087 c -0.005,-0.01926 -0.0092,-0.0035 -0.0092,0.03502 0,0.03852 0.0041,0.05428 0.0092,0.03502 0.005,-0.01926 0.005,-0.05078 0,-0.07004 z m 34.282051,-0.06968 c -0.004,-0.03597 -0.008,-0.01137 -0.008,0.05468 -2e-4,0.06604 0.004,0.09547 0.008,0.0654 0.005,-0.03007 0.005,-0.08411 2e-4,-0.120075 z m -34.261965,-0.05001 c -0.0051,-0.01947 -0.0096,-0.0084 -0.01,0.02464 -4.08e-4,0.03302 0.0037,0.04895 0.0092,0.0354 0.0055,-0.01355 0.0058,-0.04057 7.42e-4,-0.06004 z m 34.241945,-0.190141 c -0.004,-0.03597 -0.008,-0.01137 -0.008,0.05468 -2e-4,0.06604 0.004,0.09547 0.008,0.0654 0.005,-0.03007 0.005,-0.08411 2e-4,-0.120075 z m -34.221933,0.07007 c -0.0051,-0.01947 -0.0096,-0.0084 -0.01,0.02464 -4.08e-4,0.03302 0.0037,0.04895 0.0092,0.0354 0.0055,-0.01355 0.0058,-0.04057 7.41e-4,-0.06004 z m 0.02001,-0.120074 c -0.0051,-0.01947 -0.0096,-0.0084 -0.01,0.02463 -4.08e-4,0.03302 0.0037,0.04895 0.0092,0.0354 0.0055,-0.01355 0.0058,-0.04057 7.42e-4,-0.06004 z M 111.86678,38.45788 c -0.004,-0.03597 -0.008,-0.01136 -0.008,0.05468 -2e-4,0.06604 0.004,0.09547 0.008,0.0654 0.005,-0.03007 0.005,-0.08411 2e-4,-0.120075 z m -34.161901,0.07007 c -0.0051,-0.01947 -0.0096,-0.0084 -0.01,0.02464 -4.08e-4,0.03302 0.0037,0.04895 0.0092,0.0354 0.0055,-0.01355 0.0058,-0.04057 7.41e-4,-0.06004 z m 0.04143,-0.205509 c 0,-0.04463 -0.0016,-0.04355 -0.01528,0.01001 -0.0084,0.03302 -0.01528,0.08255 -0.01528,0.110068 0,0.04463 0.0016,0.04355 0.01528,-0.01001 0.0084,-0.03302 0.01528,-0.08255 0.01528,-0.110069 z m 34.100281,-0.09506 c -0.005,-0.03027 -0.008,-0.0055 -0.008,0.05504 0,0.06054 0.004,0.0853 0.008,0.05503 0.005,-0.03027 0.005,-0.0798 0,-0.11007 z m -34.082292,-0.03002 c -0.0056,-0.01376 -0.01009,-0.0025 -0.01009,0.02501 0,0.02752 0.0045,0.03877 0.01009,0.02502 0.0056,-0.01376 0.0056,-0.03627 0,-0.05003 z m 0.02001,-0.100063 c -0.0056,-0.01376 -0.01009,-0.0025 -0.01009,0.02502 0,0.02752 0.0045,0.03877 0.01009,0.02501 0.0056,-0.01376 0.0056,-0.03627 0,-0.05003 z m 34.042292,-0.08978 c -0.005,-0.03042 -0.008,-0.01028 -0.009,0.04475 -2e-4,0.05503 0.004,0.07992 0.008,0.05531 0.005,-0.02461 0.005,-0.06964 2.8e-4,-0.100063 z m -34.022279,-0.01028 c -0.0056,-0.01376 -0.01009,-0.0025 -0.01009,0.02502 0,0.02752 0.0045,0.03877 0.01009,0.02501 0.0056,-0.01376 0.0056,-0.03627 0,-0.05003 z m 0.02001,-0.100062 c -0.0056,-0.01376 -0.01009,-0.0025 -0.01009,0.02502 0,0.02752 0.0045,0.03877 0.01009,0.02502 0.0056,-0.01376 0.0056,-0.03627 0,-0.05003 z M 111.8064,37.797097 c -0.005,-0.02477 -0.009,-0.0045 -0.009,0.04503 0,0.04953 0.004,0.06979 0.009,0.04503 0.005,-0.02477 0.005,-0.06529 0,-0.09006 z m -33.962003,0 c -0.0056,-0.01376 -0.01009,-0.0025 -0.01009,0.02502 0,0.02752 0.0045,0.03877 0.01009,0.02502 0.0056,-0.01376 0.0056,-0.03627 0,-0.05003 z m 0.02001,-0.100062 c -0.0056,-0.01376 -0.01009,-0.0025 -0.01009,0.02502 0,0.02752 0.0045,0.03877 0.01009,0.02501 0.0056,-0.01376 0.0056,-0.03627 0,-0.05003 z m 33.921983,-0.100062 c -0.005,-0.02476 -0.009,-0.0045 -0.009,0.04503 0,0.04953 0.004,0.06979 0.009,0.04503 0.005,-0.02477 0.005,-0.06529 0,-0.09006 z m -33.879189,-0.06504 c 0,-0.03169 -0.0033,-0.02961 -0.01602,0.01001 -0.0088,0.02752 -0.01602,0.06804 -0.01602,0.09006 0,0.03169 0.0033,0.02961 0.01602,-0.01001 0.0088,-0.02752 0.01602,-0.06804 0.01602,-0.09006 z m 33.859179,-0.135084 c -0.005,-0.02476 -0.009,-0.0045 -0.009,0.04503 0,0.04953 0.004,0.06979 0.009,0.04503 0.005,-0.02477 0.005,-0.06529 0,-0.09006 z m -33.841935,0.02001 c -0.0056,-0.01376 -0.01009,-0.0025 -0.01009,0.02502 0,0.02752 0.0045,0.03878 0.01009,0.02502 0.0056,-0.01376 0.0056,-0.03627 0,-0.05003 z m 0.02043,-0.0788 c -0.0064,-0.01597 -0.01113,-0.01122 -0.01209,0.01209 -8.69e-4,0.0211 0.0039,0.03292 0.01051,0.02627 0.0066,-0.0067 0.0074,-0.02391 0.0016,-0.03836 z m 33.801495,-0.121326 c -0.005,-0.02476 -0.009,-0.0045 -0.009,0.04503 0,0.04953 0.004,0.06979 0.009,0.04503 0.005,-0.02477 0.005,-0.06529 0,-0.09006 z m -33.781899,0.02001 c -0.0056,-0.01376 -0.01009,-0.0025 -0.01009,0.02501 0,0.02752 0.0045,0.03877 0.01009,0.02502 0.0056,-0.01376 0.0056,-0.03627 0,-0.05003 z m 33.761879,-0.200125 c -0.005,-0.02477 -0.009,-0.0045 -0.009,0.04503 0,0.04953 0.004,0.06979 0.009,0.04503 0.005,-0.02477 0.005,-0.06529 0,-0.09006 z m -0.02,-0.159866 c -0.005,-0.02489 -0.009,-0.0092 -0.009,0.03479 -2.2e-4,0.04403 0.004,0.06439 0.009,0.04526 0.005,-0.01913 0.005,-0.05516 4e-4,-0.08005 z m -33.661433,0.02103 c -0.0064,-0.01597 -0.01113,-0.01122 -0.01209,0.01209 -8.69e-4,0.0211 0.0039,0.03292 0.01051,0.02627 0.0067,-0.0067 0.0074,-0.02391 0.0016,-0.03836 z m 0.02001,-0.08005 c -0.0064,-0.01597 -0.01113,-0.01122 -0.01209,0.01209 -8.69e-4,0.0211 0.0039,0.03292 0.01051,0.02627 0.0066,-0.0067 0.0074,-0.02391 0.0016,-0.03836 z m 33.621073,-0.0913 c -0.005,-0.01926 -0.009,-0.0035 -0.009,0.03502 0,0.03852 0.004,0.05428 0.009,0.03502 0.005,-0.01926 0.005,-0.05078 0,-0.07004 z m -33.601037,0.01126 c -0.0064,-0.01596 -0.01113,-0.01122 -0.01209,0.01209 -8.69e-4,0.0211 0.0039,0.03292 0.01051,0.02627 0.0067,-0.0067 0.0074,-0.02391 0.0016,-0.03836 z m 0.02001,-0.08005 c -0.0064,-0.01596 -0.01113,-0.01122 -0.01209,0.01209 -8.69e-4,0.0211 0.0039,0.03292 0.01051,0.02627 0.0066,-0.0067 0.0074,-0.02391 0.0016,-0.03836 z m 33.561017,-0.09131 c -0.005,-0.01926 -0.009,-0.0035 -0.009,0.03502 0,0.03852 0.004,0.05428 0.009,0.03502 0.005,-0.01926 0.005,-0.05078 0,-0.07004 z m -33.541005,0.01126 c -0.0064,-0.01596 -0.01113,-0.01122 -0.01209,0.01209 -8.69e-4,0.0211 0.0039,0.03292 0.01051,0.02627 0.0067,-0.0067 0.0074,-0.02391 0.0016,-0.03836 z m 0.02001,-0.08005 c -0.0064,-0.01597 -0.01113,-0.01122 -0.01209,0.01209 -8.69e-4,0.0211 0.0039,0.03292 0.01051,0.02627 0.0066,-0.0067 0.0074,-0.02391 0.0016,-0.03836 z m 33.501045,-0.0509 c -0.005,-0.01947 -0.01,-0.0084 -0.01,0.02463 -4e-4,0.03302 0.004,0.04895 0.009,0.0354 0.005,-0.01355 0.006,-0.04057 7.4e-4,-0.06004 z m -33.457492,-0.08543 c 0,-0.01892 -0.0064,-0.01522 -0.0172,0.01001 -0.0095,0.02201 -0.0172,0.05353 -0.0172,0.07004 0,0.01892 0.0064,0.01522 0.0172,-0.01001 0.0095,-0.02201 0.0172,-0.05353 0.0172,-0.07004 z m 33.436862,-0.06504 c -0.006,-0.01376 -0.0101,-0.0025 -0.0101,0.02502 0,0.02752 0.005,0.03877 0.0101,0.02501 0.006,-0.01376 0.006,-0.03627 0,-0.05003 z m -33.420378,-0.01876 c -0.0064,-0.01597 -0.01113,-0.01122 -0.01209,0.01209 -8.69e-4,0.0211 0.0039,0.03292 0.01051,0.02627 0.0067,-0.0067 0.0074,-0.02391 0.0016,-0.03836 z m 0.02001,-0.08005 c -0.0064,-0.01597 -0.01113,-0.01122 -0.01209,0.01209 -8.69e-4,0.0211 0.0039,0.03292 0.01051,0.02627 0.0066,-0.0067 0.0074,-0.02391 0.0016,-0.03836 z m 33.380358,-0.04128 c -0.006,-0.01376 -0.0101,-0.0025 -0.0101,0.02502 0,0.02752 0.005,0.03877 0.0101,0.02502 0.006,-0.01376 0.006,-0.03627 0,-0.05003 z m -33.360345,-0.03877 c -0.0064,-0.01597 -0.01113,-0.01122 -0.01209,0.01209 -8.69e-4,0.0211 0.0039,0.03292 0.01051,0.02627 0.0067,-0.0067 0.0074,-0.02391 0.0016,-0.03836 z m 33.340335,-0.0813 c -0.006,-0.01376 -0.0101,-0.0025 -0.0101,0.02502 0,0.02752 0.005,0.03877 0.0101,0.02502 0.006,-0.01376 0.006,-0.03627 0,-0.05003 z m -33.30031,-0.05879 c -0.0064,-0.01597 -0.01113,-0.01122 -0.01209,0.01209 -8.69e-4,0.0211 0.0039,0.03292 0.01051,0.02627 0.0067,-0.0067 0.0074,-0.02391 0.0016,-0.03836 z m 33.28071,-0.06004 c -0.006,-0.01596 -0.0111,-0.01122 -0.0121,0.01209 -8.6e-4,0.0211 0.004,0.03292 0.0105,0.02627 0.007,-0.0067 0.007,-0.02391 0.002,-0.03836 z m -33.260698,-0.02001 c -0.0064,-0.01597 -0.01113,-0.01122 -0.01209,0.01209 -8.69e-4,0.0211 0.0039,0.03292 0.01051,0.02627 0.0066,-0.0067 0.0074,-0.02391 0.0016,-0.03836 z m 33.240688,-0.100062 c -0.006,-0.01597 -0.0111,-0.01122 -0.0121,0.01209 -8.6e-4,0.0211 0.004,0.03292 0.0105,0.02627 0.007,-0.0067 0.007,-0.02391 0.002,-0.03836 z m -33.200663,-0.04002 c -0.0064,-0.01597 -0.01113,-0.01122 -0.01209,0.01209 -8.69e-4,0.0211 0.0039,0.03292 0.01051,0.02627 0.0066,-0.0067 0.0074,-0.02391 0.0016,-0.03836 z m 33.180653,-0.08005 c -0.006,-0.01597 -0.0111,-0.01122 -0.0121,0.01209 -8.6e-4,0.0211 0.004,0.03292 0.0105,0.02627 0.007,-0.0067 0.007,-0.02391 0.002,-0.03836 z m -33.140628,-0.06004 c -0.0064,-0.01597 -0.01113,-0.01122 -0.01209,0.01209 -8.69e-4,0.0211 0.0039,0.03292 0.01051,0.02627 0.0066,-0.0066 0.0074,-0.02391 0.0016,-0.03836 z m 33.120608,-0.04002 c -0.006,-0.01597 -0.0111,-0.01122 -0.0121,0.01209 -8.6e-4,0.0211 0.004,0.03292 0.0105,0.02627 0.007,-0.0066 0.007,-0.02391 0.002,-0.03836 z m -0.02,-0.120075 c -0.006,-0.01597 -0.0111,-0.01122 -0.0121,0.01209 -8.6e-4,0.0211 0.004,0.03292 0.0105,0.02627 0.007,-0.0066 0.007,-0.02391 0.002,-0.03836 z m -33.01592,-0.0863 c 6.06e-4,-0.01101 -0.0076,-0.0065 -0.0183,0.01001 -0.01067,0.01651 -0.0189,0.04353 -0.0183,0.06004 0.0012,0.0317 0.03451,-0.03214 0.0366,-0.07004 z m 32.99591,-0.01376 c -0.006,-0.01596 -0.0111,-0.01122 -0.0121,0.01209 -8.6e-4,0.0211 0.004,0.03292 0.0105,0.02627 0.007,-0.0067 0.007,-0.02391 0.002,-0.03836 z M 78.588468,34.990351 c -5.6e-5,-0.01101 -0.01247,0.007 -0.02759,0.04002 -0.01512,0.03302 -0.02721,0.07355 -0.02687,0.09006 3.41e-4,0.01651 0.01276,-0.0015 0.02759,-0.04002 0.01483,-0.03852 0.02693,-0.07905 0.02687,-0.09006 z m 0.102598,-0.280175 c 0,-0.01101 -0.0087,-0.0065 -0.0194,0.01001 -0.01067,0.01651 -0.0194,0.03903 -0.0194,0.05003 0,0.01101 0.0087,0.0065 0.0194,-0.01001 0.01067,-0.01651 0.0194,-0.03902 0.0194,-0.05003 z m 0.04002,-0.100062 c 0,-0.01101 -0.0087,-0.0065 -0.0194,0.01001 -0.01067,0.01651 -0.0194,0.03902 -0.0194,0.05003 0,0.01101 0.0087,0.0065 0.0194,-0.01001 0.01067,-0.01651 0.0194,-0.03902 0.0194,-0.05003 z m 0.04002,-0.100062 c 0,-0.01101 -0.0087,-0.0065 -0.0194,0.01001 -0.01067,0.01651 -0.0194,0.03902 -0.0194,0.05003 0,0.01101 0.0087,0.0065 0.0194,-0.01001 0.01067,-0.01651 0.0194,-0.03902 0.0194,-0.05003 z m 0.04002,-0.100063 c 0,-0.01101 -0.0087,-0.0065 -0.0194,0.01001 -0.01067,0.01651 -0.0194,0.03902 -0.0194,0.05003 0,0.01101 0.0087,0.0065 0.0194,-0.01001 0.01067,-0.01651 0.0194,-0.03902 0.0194,-0.05003 z m 0.1286,-0.265165 c 0.03995,-0.0798 0.06814,-0.14509 0.06264,-0.14509 -0.01118,0 -0.150597,0.271269 -0.150597,0.293016 0,0.02366 0.013,0.0018 0.08796,-0.147926 z m 0.1722,-0.315196 c 0.03632,-0.06604 0.05668,-0.111069 0.04523,-0.100062 -0.01145,0.01101 -0.05028,0.07405 -0.0863,0.140087 -0.03602,0.06604 -0.05637,0.111069 -0.04523,0.100062 0.01114,-0.01101 0.04998,-0.07405 0.0863,-0.140087 z m 31.973564,-0.03377 c -0.006,-0.01596 -0.0111,-0.01122 -0.0121,0.01209 -8.6e-4,0.0211 0.004,0.03292 0.0105,0.02627 0.007,-0.0067 0.007,-0.02391 0.002,-0.03836 z M 79.299198,33.522229 c 0.138989,-0.219248 0.481764,-0.682506 0.653603,-0.883342 0.07063,-0.08255 0.111701,-0.136689 0.09126,-0.120305 -0.04797,0.03845 -0.333022,0.387225 -0.474522,0.580592 -0.182485,0.249373 -0.41154,0.600373 -0.391791,0.600373 0.005,0 0.05962,-0.07979 0.121447,-0.177318 z m 31.670352,-0.08062 c -0.0123,-0.03537 -0.0259,-0.0608 -0.0302,-0.05652 -0.004,0.0043 0.002,0.03672 0.0146,0.07209 0.0123,0.03537 0.0259,0.0608 0.0302,0.05652 0.004,-0.0043 -0.002,-0.03672 -0.0146,-0.07209 z m -0.0754,-0.187673 c -0.0198,-0.01962 -0.0221,-0.01732 -0.0112,0.0112 0.008,0.01974 0.0187,0.03084 0.0249,0.02468 0.006,-0.0062 1e-5,-0.02231 -0.0137,-0.03589 z m -0.0356,-0.105594 c -0.007,-0.01698 -0.0161,-0.02659 -0.0214,-0.02134 -0.005,0.0052 -0.004,0.01914 0.004,0.03088 0.0197,0.03193 0.0313,0.02573 0.0177,-0.0095 z m -0.0546,-0.122446 c -0.0169,-0.03124 -0.0311,-0.05047 -0.0316,-0.04274 -0.001,0.02379 0.0452,0.116705 0.054,0.107861 0.005,-0.0046 -0.006,-0.03388 -0.0225,-0.06512 z m -0.1414,-0.304849 c -0.0613,-0.122236 -0.11584,-0.222247 -0.12119,-0.222247 -0.005,0 0.0416,0.103184 0.10441,0.229299 0.0628,0.126114 0.11732,0.226125 0.12119,0.222247 0.004,-0.0039 -0.0431,-0.107063 -0.10441,-0.229299 z M 80.132575,32.428756 c 0.02585,-0.02752 0.0425,-0.05003 0.037,-0.05003 -0.0055,0 -0.03116,0.02251 -0.05701,0.05003 -0.02585,0.02752 -0.0425,0.05003 -0.037,0.05003 0.0055,0 0.03116,-0.02251 0.05701,-0.05003 z m 0.662964,-0.685426 c 0.02489,-0.03174 0.02418,-0.03245 -0.0076,-0.0076 -0.01926,0.01511 -0.03502,0.03087 -0.03502,0.03502 0,0.01647 0.01643,0.0059 0.04258,-0.02747 z m 21.630911,-0.155097 c 0.0385,-0.01483 0.0565,-0.02697 0.04,-0.02697 -0.0165,0 -0.0615,0.01214 -0.10007,0.02697 -0.0385,0.01484 -0.0565,0.02697 -0.04,0.02697 0.0165,0 0.0615,-0.01214 0.10006,-0.02697 z m 7.34457,0.0024 c 0,-0.0042 -0.0158,-0.01991 -0.035,-0.03502 -0.0317,-0.02489 -0.0324,-0.02419 -0.008,0.0076 0.0261,0.03334 0.0426,0.04394 0.0426,0.02746 z m -28.037448,-0.64641 c 0.115572,-0.08832 0.322701,-0.2393 0.460286,-0.335504 0.258325,-0.180629 0.298661,-0.211463 0.230143,-0.175928 -0.217697,0.112904 -1.337318,0.982517 -1.404096,1.090566 -0.007,0.01135 0.103416,-0.07819 0.245394,-0.19896 0.141978,-0.120773 0.352701,-0.291851 0.468273,-0.380174 z M 109.69097,31.5289 c 0,-0.0051 -0.0203,-0.01912 -0.045,-0.03112 -0.0432,-0.02095 -0.0435,-0.02058 -0.006,0.0093 0.0408,0.03271 0.0512,0.03713 0.0512,0.02182 z m -0.10006,-0.06023 c 0,-0.01214 -0.11288,-0.07083 -0.13409,-0.06972 -0.009,4.6e-4 0.0155,0.01809 0.054,0.03919 0.0789,0.04318 0.08,0.04363 0.08,0.03053 z m -0.22014,-0.10877 c -0.0165,-0.0093 -0.0525,-0.02249 -0.08,-0.02921 -0.0417,-0.01019 -0.04,-0.0074 0.01,0.01669 0.0641,0.03089 0.12024,0.04092 0.07,0.01252 z m -0.1701,-0.06185 c -0.055,-0.02364 -0.0866,-0.02364 -0.05,0 0.0165,0.01067 0.0435,0.0189 0.06,0.0183 0.0198,-7.25e-4 0.0164,-0.007 -0.01,-0.0183 z m -5.47883,-0.01209 c -0.007,-0.0067 -0.0239,-0.0074 -0.0384,-0.0016 -0.016,0.0064 -0.0112,0.01113 0.0121,0.01209 0.0211,8.69e-4 0.0329,-0.0039 0.0263,-0.01051 z m 0.14009,-0.02001 c -0.007,-0.0067 -0.0239,-0.0074 -0.0384,-0.0016 -0.016,0.0064 -0.0112,0.01113 0.0121,0.01209 0.0211,8.68e-4 0.0329,-0.0039 0.0263,-0.01051 z m 0.11048,-0.02117 c -0.0138,-0.0056 -0.0363,-0.0056 -0.05,0 -0.0138,0.0056 -0.002,0.01009 0.025,0.01009 0.0275,0 0.0388,-0.0045 0.025,-0.01009 z m 5.03272,0.0012 c -0.007,-0.0067 -0.0239,-0.0074 -0.0384,-0.0016 -0.016,0.0064 -0.0112,0.01113 0.0121,0.01209 0.0211,8.69e-4 0.0329,-0.0039 0.0263,-0.01051 z M 104.1125,31.2248 c -0.0138,-0.0056 -0.0363,-0.0056 -0.05,0 -0.0138,0.0056 -0.002,0.01009 0.025,0.01009 0.0275,0 0.0388,-0.0045 0.025,-0.01009 z m 4.72794,-0.01722 c -0.055,-0.01415 -0.12257,-0.02557 -0.15009,-0.0254 -0.0275,1.8e-4 -5e-4,0.01181 0.06,0.02585 0.14367,0.03332 0.21996,0.03293 0.0901,-4.57e-4 z m -4.56784,-0.0028 c -0.0138,-0.0056 -0.0363,-0.0056 -0.05,0 -0.0138,0.0056 -0.002,0.01009 0.025,0.01009 0.0275,0 0.0388,-0.0045 0.025,-0.01009 z m 0.1601,-0.02001 c -0.0138,-0.0056 -0.0363,-0.0056 -0.05,0 -0.0138,0.0056 -0.002,0.01009 0.025,0.01009 0.0275,0 0.0388,-0.0045 0.025,-0.01009 z m 0.17011,-0.02055 c -0.0193,-0.005 -0.0508,-0.005 -0.0701,0 -0.0193,0.005 -0.004,0.0092 0.035,0.0092 0.0385,0 0.0543,-0.0041 0.035,-0.0092 z m 4.00249,0 c -0.0193,-0.005 -0.0508,-0.005 -0.07,0 -0.0193,0.005 -0.004,0.0092 0.035,0.0092 0.0385,0 0.0543,-0.0041 0.035,-0.0092 z m -3.81238,-0.02034 c -0.0248,-0.0048 -0.0653,-0.0048 -0.09,0 -0.0248,0.0048 -0.005,0.0087 0.045,0.0087 0.0495,0 0.0698,-0.0039 0.045,-0.0087 z m 3.67229,3.28e-4 c -0.0193,-0.005 -0.0508,-0.005 -0.07,0 -0.0193,0.005 -0.004,0.0092 0.035,0.0092 0.0385,0 0.0543,-0.0041 0.035,-0.0092 z m -3.45188,-0.0203 c -0.0246,-0.0048 -0.0696,-0.0049 -0.10006,-2.73e-4 -0.0304,0.0046 -0.0103,0.0085 0.0448,0.0086 0.055,1.6e-4 0.0799,-0.0036 0.0553,-0.0084 z m 3.31203,3.38e-4 c -0.0191,-0.005 -0.0552,-0.0052 -0.08,-4.04e-4 -0.0249,0.0048 -0.009,0.0089 0.0348,0.0091 0.044,2.22e-4 0.0644,-0.0037 0.0453,-0.0087 z m -3.12195,-0.02001 c -0.0191,-0.005 -0.0552,-0.0052 -0.08,-4.04e-4 -0.0249,0.0048 -0.009,0.0089 0.0348,0.0091 0.044,2.22e-4 0.0644,-0.0037 0.0453,-0.0087 z m 2.93159,-3.74e-4 c -0.0248,-0.0048 -0.0653,-0.0048 -0.0901,0 -0.0248,0.0048 -0.005,0.0087 0.045,0.0087 0.0495,0 0.0698,-0.0039 0.045,-0.0087 z m -2.61139,-0.01964 c -0.0191,-0.005 -0.0552,-0.0052 -0.08,-4.04e-4 -0.0249,0.0048 -0.009,0.0089 0.0348,0.0091 0.044,2.22e-4 0.0644,-0.0037 0.0453,-0.0087 z m 2.40162,-5.5e-4 c -0.0301,-0.0046 -0.0841,-0.0047 -0.12007,-2.05e-4 -0.036,0.0045 -0.0114,0.0082 0.0547,0.0083 0.066,1.2e-4 0.0955,-0.0035 0.0654,-0.0081 z m -2.00124,-0.02001 c -0.0301,-0.0046 -0.0841,-0.0047 -0.12008,-2.04e-4 -0.036,0.0045 -0.0114,0.0082 0.0547,0.0083 0.066,1.2e-4 0.0955,-0.0035 0.0654,-0.0081 z m 1.7007,-4e-5 c -0.0303,-0.0046 -0.0798,-0.0046 -0.11007,0 -0.0303,0.0046 -0.006,0.0083 0.055,0.0083 0.0605,0 0.0853,-0.0038 0.055,-0.0083 z m -0.79137,-0.02056 c -0.0803,-0.0038 -0.20636,-0.0038 -0.28018,6e-5 -0.0738,0.0038 -0.008,0.007 0.14597,0.0069 0.1541,-4e-5 0.21449,-0.0032 0.13421,-0.007 z m -24.249219,-0.695196 0.04002,-0.03259 -0.04002,0.01965 c -0.02201,0.01081 -0.05804,0.03431 -0.08005,0.05224 l -0.04002,0.03259 0.04002,-0.01965 c 0.02201,-0.01081 0.05804,-0.03431 0.08005,-0.05224 z m 0.1601,-0.100062 0.04002,-0.03259 -0.04002,0.01965 c -0.02201,0.01081 -0.05804,0.03431 -0.08005,0.05224 l -0.04002,0.03259 0.04002,-0.01965 c 0.02201,-0.01081 0.05804,-0.03431 0.08005,-0.05224 z m 0.130081,-0.08182 c 0,-0.0055 -0.01801,-3.67e-4 -0.04002,0.01141 -0.02201,0.01178 -0.04002,0.02592 -0.04002,0.03143 0,0.0055 0.01801,3.67e-4 0.04002,-0.01141 0.02201,-0.01178 0.04002,-0.02592 0.04002,-0.03143 z m 0.140087,-0.08005 c 0,-0.0055 -0.01801,-3.67e-4 -0.04002,0.01141 -0.02201,0.01178 -0.04002,0.02592 -0.04002,0.03143 0,0.0055 0.01801,3.67e-4 0.04002,-0.01141 0.02201,-0.01178 0.04002,-0.02592 0.04002,-0.03143 z m 0.220137,-0.119695 c 0,-0.0055 -0.02702,0.004 -0.06004,0.02104 -0.03302,0.01707 -0.06004,0.03555 -0.06004,0.04105 0,0.0055 0.02702,-0.004 0.06004,-0.02104 0.03302,-0.01708 0.06004,-0.03555 0.06004,-0.04105 z m 0.391673,-0.204336 c -0.009,-0.009 -0.211561,0.09195 -0.211561,0.105422 0,0.0052 0.04928,-0.01472 0.109509,-0.04426 0.06023,-0.02954 0.106154,-0.05706 0.102052,-0.06117 z m 0.3688,-0.164866 c 0.03852,-0.02109 0.06104,-0.03835 0.05003,-0.03835 -0.01101,0 -0.05153,0.01726 -0.09006,0.03835 -0.03852,0.02109 -0.06104,0.03835 -0.05003,0.03835 0.01101,0 0.05153,-0.01726 0.09006,-0.03835 z m 0.220137,-0.100062 c 0.01651,-0.01067 0.02101,-0.0194 0.01001,-0.0194 -0.01101,0 -0.03352,0.0087 -0.05003,0.0194 -0.01651,0.01067 -0.02101,0.0194 -0.01001,0.0194 0.01101,0 0.03352,-0.0087 0.05003,-0.0194 z m 0.140087,-0.06004 c 0.01651,-0.01067 0.02101,-0.0194 0.01001,-0.0194 -0.01101,0 -0.03352,0.0087 -0.05003,0.0194 -0.01651,0.01067 -0.02101,0.0194 -0.01001,0.0194 0.01101,0 0.03352,-0.0087 0.05003,-0.0194 z m 0.420262,-0.163476 c 0.02086,-0.01289 0.01476,-0.01446 -0.02001,-0.0052 -0.02752,0.0074 -0.06354,0.02173 -0.08005,0.03193 -0.02086,0.01289 -0.01476,0.01447 0.02001,0.0052 0.02752,-0.0074 0.06354,-0.02173 0.08005,-0.03193 z m 4.40274,-0.02495 c -0.02752,-0.0147 -0.07255,-0.03233 -0.100062,-0.03918 -0.02752,-0.0069 -0.01401,0.0049 0.03002,0.02604 0.09056,0.04355 0.146697,0.05408 0.07004,0.01314 z m -4.308098,-0.0038 c -0.0067,-0.0067 -0.02391,-0.0074 -0.03836,-0.0016 -0.01596,0.0064 -0.01122,0.01113 0.01209,0.01209 0.0211,8.69e-4 0.03292,-0.0039 0.02627,-0.01051 z m 0.215551,-0.05655 c 0.05503,-0.01531 0.08205,-0.02796 0.06004,-0.0281 -0.0426,-2.67e-4 -0.213979,0.05133 -0.180112,0.05423 0.01101,9.42e-4 0.06504,-0.01082 0.120075,-0.02613 z m 3.842392,-0.03142 c -0.02201,-0.0095 -0.05353,-0.0172 -0.07004,-0.0172 -0.01892,0 -0.01522,0.0064 0.01001,0.0172 0.02201,0.0095 0.05353,0.0172 0.07004,0.0172 0.01892,0 0.01522,-0.0064 -0.01001,-0.0172 z m -3.667283,-0.01325 c -0.01376,-0.0056 -0.03627,-0.0056 -0.05003,0 -0.01376,0.0056 -0.0025,0.01009 0.02501,0.01009 0.02752,0 0.03878,-0.0045 0.02502,-0.01009 z m 0.100062,-0.02001 c -0.01376,-0.0056 -0.03627,-0.0056 -0.05003,0 -0.01376,0.0056 -0.0025,0.01009 0.02502,0.01009 0.02752,0 0.03877,-0.0045 0.02501,-0.01009 z m 3.442143,0 c -0.01376,-0.0056 -0.03627,-0.0056 -0.05003,0 -0.01376,0.0056 -0.0025,0.01009 0.02501,0.01009 0.02752,0 0.03877,-0.0045 0.02502,-0.01009 z M 85.49091,29.1029 c -0.01926,-0.005 -0.05078,-0.005 -0.07004,0 -0.01926,0.005 -0.0035,0.0092 0.03502,0.0092 0.03852,0 0.05428,-0.0041 0.03502,-0.0092 z m 3.211999,5.41e-4 c -0.01376,-0.0056 -0.03627,-0.0056 -0.05003,0 -0.01376,0.0056 -0.0025,0.01009 0.02502,0.01009 0.02752,0 0.03877,-0.0045 0.02502,-0.01009 z m -3.051666,-0.02051 c -0.01913,-0.005 -0.05516,-0.0052 -0.08005,-4.04e-4 -0.02489,0.0048 -0.0092,0.0089 0.03479,0.0091 0.04403,2.22e-4 0.0644,-0.0037 0.04526,-0.0087 z m 2.941181,0.0017 c -0.0066,-0.0067 -0.02391,-0.0074 -0.03836,-0.0016 -0.01597,0.0064 -0.01122,0.01113 0.01209,0.01209 0.0211,8.69e-4 0.03292,-0.0039 0.02627,-0.01051 z m -2.781314,-0.02172 c -0.01926,-0.005 -0.05078,-0.005 -0.07004,0 -0.01926,0.005 -0.0035,0.0092 0.03502,0.0092 0.03852,0 0.05428,-0.0041 0.03502,-0.0092 z m 0.359807,-0.01831 c -0.0067,-0.0067 -0.02391,-0.0074 -0.03836,-0.0016 -0.01596,0.0064 -0.01122,0.01113 0.01209,0.01209 0.0211,8.68e-4 0.03292,-0.0039 0.02627,-0.01051 z"
       id="path945"
       inkscape:connector-curvature="0" /><path
       style="fill:#ffffff;fill-opacity:1;stroke-width:0.02001246"
       d="m 77.390956,40.638866 c 1.85e-4,-0.05331 0.0813,-0.919877 0.110995,-1.185738 0.336259,-3.010788 1.158046,-5.46656 2.315488,-6.919442 0.214383,-0.269106 0.61813,-0.681214 0.960045,-0.979928 1.736647,-1.517223 3.654831,-2.462234 5.578965,-2.748531 0.282774,-0.04207 1.22149,-0.0614 1.500228,-0.03089 0.408136,0.04468 0.868335,0.168671 1.196131,0.322281 0.214319,0.100434 0.383861,0.202954 1.12602,0.680893 0.886894,0.571146 1.302918,0.820003 1.908425,1.141579 0.293241,0.155736 0.351447,0.218875 0.07246,0.07861 -0.09014,-0.04532 -0.16755,-0.07875 -0.172014,-0.07429 -0.0045,0.0045 0.108696,0.06376 0.251465,0.13178 1.335619,0.636288 2.708313,1.021141 4.012762,1.125032 0.378033,0.03011 1.249296,0.01335 1.591667,-0.03061 0.137586,-0.01767 0.538335,-0.09002 0.890555,-0.160779 0.78067,-0.156839 0.928376,-0.176866 1.227169,-0.166383 0.227143,0.008 0.238243,0.01051 0.393833,0.09025 0.19309,0.09896 0.28761,0.114241 0.52666,0.08517 0.25836,-0.03141 1.1642,-0.266404 1.13592,-0.294679 -0.005,-0.0052 -0.052,0.0051 -0.10409,0.02288 -0.1184,0.04034 -0.17712,0.04126 -0.10413,0.0016 0.10763,-0.05845 0.65495,-0.254385 0.94714,-0.339068 0.77206,-0.223767 1.96229,-0.426438 2.89428,-0.492833 0.44115,-0.03143 1.87941,-0.01188 2.2089,0.03002 1.14194,0.14523 1.91778,0.428945 2.37578,0.868793 0.18131,0.174124 0.31253,0.369869 0.47577,0.70976 0.527,1.097241 0.9389,2.953347 1.1801,5.317749 0.0849,0.831876 0.20099,2.391596 0.20099,2.699511 v 0.142258 H 94.741668 c -13.867344,0 -17.350782,-0.005 -17.350712,-0.02502 z m 14.94483,-0.170106 -14.783586,-0.005 -0.0063,-0.245139 -0.0063,-0.245139 -0.0043,0.255159 -0.0043,0.255159 14.794208,-0.005 14.794202,-0.005 z m 19.629844,-0.790492 c -0.006,-0.01376 -0.0101,-0.0025 -0.0101,0.02502 0,0.02752 0.005,0.03877 0.0101,0.02502 0.006,-0.01376 0.006,-0.03627 0,-0.05003 z m -0.0195,-0.230143 c -0.005,-0.01926 -0.009,-0.0035 -0.009,0.03502 0,0.03852 0.004,0.05428 0.009,0.03502 0.005,-0.01926 0.005,-0.05078 0,-0.07004 z m -0.02,-0.240149 c -0.005,-0.01926 -0.009,-0.0035 -0.009,0.03502 0,0.03852 0.004,0.05428 0.009,0.03502 0.005,-0.01926 0.005,-0.05078 0,-0.07004 z m -34.321903,-0.05003 c -0.0056,-0.01376 -0.01009,-0.0025 -0.01009,0.02502 0,0.02752 0.0045,0.03877 0.01009,0.02502 0.0056,-0.01376 0.0056,-0.03627 0,-0.05003 z m 0.02001,-0.140087 c -0.0056,-0.01376 -0.01009,-0.0025 -0.01009,0.02502 0,0.02752 0.0045,0.03877 0.01009,0.02502 0.0056,-0.01376 0.0056,-0.03627 0,-0.05003 z m 34.281883,-0.05003 c -0.005,-0.01926 -0.009,-0.0035 -0.009,0.03502 0,0.03852 0.004,0.05428 0.009,0.03502 0.005,-0.01926 0.005,-0.05078 0,-0.07004 z m -34.261454,-0.06879 c -0.0064,-0.01596 -0.01113,-0.01122 -0.01209,0.01209 -8.69e-4,0.0211 0.0039,0.03292 0.01051,0.02627 0.0067,-0.0067 0.0074,-0.02391 0.0016,-0.03836 z m 0.02001,-0.120074 c -0.0064,-0.01597 -0.01113,-0.01122 -0.01209,0.01209 -8.69e-4,0.0211 0.0039,0.03292 0.01051,0.02627 0.0066,-0.0067 0.0074,-0.02391 0.0016,-0.03836 z m 34.221414,-0.05128 c -0.005,-0.01926 -0.009,-0.0035 -0.009,0.03502 0,0.03852 0.004,0.05428 0.009,0.03502 0.005,-0.01926 0.005,-0.05078 0,-0.07004 z m -34.201402,-0.06879 c -0.0064,-0.01597 -0.01113,-0.01122 -0.01209,0.01209 -8.69e-4,0.0211 0.0039,0.03292 0.01051,0.02627 0.0067,-0.0067 0.0074,-0.02391 0.0016,-0.03836 z m 0.02001,-0.120075 c -0.0064,-0.01596 -0.01113,-0.01122 -0.01209,0.01209 -8.69e-4,0.0211 0.0039,0.03292 0.01051,0.02627 0.0066,-0.0067 0.0074,-0.02391 0.0016,-0.03836 z m 34.161382,-0.05128 c -0.005,-0.01926 -0.009,-0.0035 -0.009,0.03502 0,0.03852 0.004,0.05428 0.009,0.03502 0.005,-0.01926 0.005,-0.05078 0,-0.07004 z M 77.72471,38.41875 c -0.0064,-0.01596 -0.01113,-0.01122 -0.01209,0.01209 -8.69e-4,0.0211 0.0039,0.03292 0.01051,0.02627 0.0067,-0.0067 0.0074,-0.02391 0.0016,-0.03836 z m 0.02001,-0.100062 c -0.0064,-0.01596 -0.01113,-0.01122 -0.01209,0.01209 -8.69e-4,0.0211 0.0039,0.03292 0.01051,0.02627 0.0066,-0.0067 0.0074,-0.02391 0.0016,-0.03836 z m 34.10135,-0.07129 c -0.005,-0.01926 -0.009,-0.0035 -0.009,0.03502 0,0.03852 0.004,0.05428 0.009,0.03502 0.005,-0.01926 0.005,-0.05078 0,-0.07004 z m -0.0199,-0.219756 c -0.005,-0.01947 -0.01,-0.0084 -0.01,0.02463 -4e-4,0.03302 0.004,0.04895 0.009,0.0354 0.005,-0.01355 0.006,-0.04057 7.4e-4,-0.06004 z m -0.0206,-0.210512 c -0.006,-0.01376 -0.0101,-0.0025 -0.0101,0.02502 0,0.02752 0.005,0.03877 0.0101,0.02501 0.006,-0.01376 0.006,-0.03627 0,-0.05003 z m -0.02,-0.200125 c -0.006,-0.01376 -0.0101,-0.0025 -0.0101,0.02502 0,0.02752 0.005,0.03877 0.0101,0.02502 0.006,-0.01376 0.006,-0.03627 0,-0.05003 z m -0.02,-0.200124 c -0.006,-0.01376 -0.0101,-0.0025 -0.0101,0.02502 0,0.02752 0.005,0.03878 0.0101,0.02502 0.006,-0.01376 0.006,-0.03627 0,-0.05003 z m -0.02,-0.180112 c -0.006,-0.01376 -0.0101,-0.0025 -0.0101,0.02501 0,0.02752 0.005,0.03877 0.0101,0.02502 0.006,-0.01376 0.006,-0.03627 0,-0.05003 z m -0.02,-0.180112 c -0.006,-0.01376 -0.0101,-0.0025 -0.0101,0.02501 0,0.02752 0.005,0.03877 0.0101,0.02502 0.006,-0.01376 0.006,-0.03627 0,-0.05003 z m -0.02,-0.1601 c -0.006,-0.01376 -0.0101,-0.0025 -0.0101,0.02502 0,0.02752 0.005,0.03877 0.0101,0.02501 0.006,-0.01376 0.006,-0.03627 0,-0.05003 z m -0.02,-0.1601 c -0.006,-0.01376 -0.0101,-0.0025 -0.0101,0.02502 0,0.02752 0.005,0.03877 0.0101,0.02501 0.006,-0.01376 0.006,-0.03627 0,-0.05003 z m -0.02,-0.160099 c -0.006,-0.01376 -0.0101,-0.0025 -0.0101,0.02502 0,0.02752 0.005,0.03877 0.0101,0.02502 0.006,-0.01376 0.006,-0.03627 0,-0.05003 z m -0.0196,-0.118824 c -0.006,-0.01597 -0.0111,-0.01122 -0.0121,0.01209 -8.6e-4,0.0211 0.004,0.03292 0.0105,0.02627 0.007,-0.0067 0.007,-0.02391 0.002,-0.03836 z M 78.691066,34.710176 c 0,-0.01101 -0.0087,-0.0065 -0.0194,0.01001 -0.01067,0.01651 -0.0194,0.03903 -0.0194,0.05003 0,0.01101 0.0087,0.0065 0.0194,-0.01001 0.01067,-0.01651 0.0194,-0.03902 0.0194,-0.05003 z m 0.120074,-0.300187 c 0,-0.01101 -0.0087,-0.0065 -0.0194,0.01001 -0.01067,0.01651 -0.0194,0.03902 -0.0194,0.05003 0,0.01101 0.0087,0.0065 0.0194,-0.01001 0.01067,-0.01651 0.0194,-0.03902 0.0194,-0.05003 z m 0.128624,-0.265165 c 0.02903,-0.05779 0.04827,-0.105065 0.04277,-0.105065 -0.01128,0 -0.110742,0.191118 -0.110742,0.212801 0,0.02266 0.01215,0.0034 0.06797,-0.107736 z m 0.132151,-0.245152 c 0.01178,-0.02201 0.01692,-0.04002 0.01141,-0.04002 -0.0055,0 -0.01965,0.01801 -0.03143,0.04002 -0.01178,0.02201 -0.01692,0.04002 -0.01141,0.04002 0.0055,0 0.01965,-0.01801 0.03143,-0.04002 z m 0.07618,-0.150623 c -0.0062,-0.0062 -0.01735,0.0049 -0.02487,0.02468 -0.01086,0.02852 -0.0086,0.03082 0.0112,0.0112 0.01368,-0.01358 0.01983,-0.02972 0.01366,-0.03589 z m 0.0639,-0.08953 c 0.01178,-0.02201 0.01692,-0.04002 0.01141,-0.04002 -0.0055,0 -0.01965,0.01801 -0.03143,0.04002 -0.01178,0.02201 -0.01692,0.04002 -0.01141,0.04002 0.0055,0 0.01965,-0.01801 0.03143,-0.04002 z m 0.148247,-0.235146 c 0.04063,-0.06329 0.05293,-0.09045 0.02734,-0.06035 -0.05051,0.05942 -0.122926,0.175417 -0.10951,0.175417 0.0046,0 0.04154,-0.05178 0.08217,-0.115072 z m 0.211164,-0.297043 c 0.0376,-0.05236 0.05973,-0.08987 0.04917,-0.08334 -0.01056,0.0065 -0.04997,0.05471 -0.08757,0.107073 -0.03761,0.05236 -0.05973,0.08987 -0.04918,0.08334 0.01056,-0.0065 0.04997,-0.05471 0.08757,-0.107073 z M 110.8141,33.04564 c -0.0236,-0.04057 -0.0293,-0.02758 -0.01,0.02274 0.007,0.01788 0.0167,0.0283 0.0219,0.02315 0.005,-0.0052 -2e-4,-0.0258 -0.0119,-0.04589 z M 79.712314,32.939074 c 0.03487,-0.04403 0.0589,-0.08005 0.05339,-0.08005 -0.0055,0 -0.03854,0.03602 -0.07341,0.08005 -0.03487,0.04403 -0.0589,0.08005 -0.05339,0.08005 0.0055,0 0.03854,-0.03602 0.07341,-0.08005 z m 30.950306,-0.21805 c -0.0503,-0.10021 -0.0958,-0.182199 -0.10118,-0.182199 -0.005,0 0.0326,0.0852 0.0844,0.189329 0.0517,0.104131 0.0973,0.18612 0.10118,0.182199 0.004,-0.0039 -0.034,-0.08912 -0.0844,-0.189329 z m -30.840238,0.07796 c 0.01992,-0.02201 0.03172,-0.04002 0.02622,-0.04002 -0.0055,0 -0.02631,0.01801 -0.04623,0.04002 -0.01992,0.02201 -0.03172,0.04002 -0.02622,0.04002 0.0055,0 0.02631,-0.01801 0.04623,-0.04002 z m 0.09006,-0.110069 c 0.02585,-0.02752 0.0425,-0.05003 0.037,-0.05003 -0.0055,0 -0.03116,0.02251 -0.05701,0.05003 -0.02585,0.02752 -0.0425,0.05003 -0.037,0.05003 0.0055,0 0.03116,-0.02251 0.05701,-0.05003 z m 0.09006,-0.110068 c 0.01992,-0.02201 0.03172,-0.04002 0.02622,-0.04002 -0.0055,0 -0.02631,0.01801 -0.04623,0.04002 -0.01992,0.02201 -0.03172,0.04002 -0.02622,0.04002 0.0055,0 0.02631,-0.01801 0.04623,-0.04002 z m 22.193818,-0.920573 c 0.0252,-0.01084 0.0289,-0.0172 0.01,-0.0172 -0.0165,0 -0.048,0.0077 -0.07,0.0172 -0.0252,0.01084 -0.0289,0.0172 -0.01,0.0172 0.0165,0 0.048,-0.0077 0.07,-0.0172 z M 81.103179,31.458152 c 0.01992,-0.02201 0.03172,-0.04002 0.02622,-0.04002 -0.0055,0 -0.02631,0.01801 -0.04623,0.04002 -0.01992,0.02201 -0.03172,0.04002 -0.02622,0.04002 0.0055,0 0.02631,-0.01801 0.04623,-0.04002 z m 28.487731,0.01052 c 0,-0.0052 -0.027,-0.02346 -0.06,-0.04054 -0.0753,-0.03892 -0.0798,-0.02202 -0.005,0.01857 0.0629,0.03412 0.065,0.03484 0.065,0.02197 z m -28.346384,-0.135598 0.05878,-0.06504 -0.06504,0.05878 c -0.06063,0.05479 -0.07424,0.0713 -0.05878,0.0713 0.0034,0 0.03271,-0.02927 0.06504,-0.06504 z m 0.128822,-0.105065 c 0.02585,-0.02752 0.0425,-0.05003 0.037,-0.05003 -0.0055,0 -0.03116,0.02251 -0.05701,0.05003 -0.02585,0.02752 -0.0425,0.05003 -0.037,0.05003 0.0055,0 0.03116,-0.02251 0.05701,-0.05003 z m 27.442082,-0.02326 c -0.0138,-0.0056 -0.0363,-0.0056 -0.05,0 -0.0138,0.0056 -0.003,0.01009 0.025,0.01009 0.0275,0 0.0388,-0.0045 0.025,-0.01009 z m -27.332014,-0.0668 c 0.01992,-0.02201 0.03172,-0.04002 0.02622,-0.04002 -0.0055,0 -0.02631,0.01801 -0.04623,0.04002 -0.01992,0.02201 -0.03172,0.04002 -0.02622,0.04002 0.0055,0 0.02631,-0.01801 0.04623,-0.04002 z m 23.109384,0.02677 c -0.0138,-0.0056 -0.0363,-0.0056 -0.05,0 -0.0138,0.0056 -0.002,0.01009 0.025,0.01009 0.0275,0 0.0388,-0.0045 0.025,-0.01009 z m 4.00249,0 c -0.0138,-0.0056 -0.0363,-0.0056 -0.05,0 -0.0138,0.0056 -0.002,0.01009 0.025,0.01009 0.0275,0 0.0388,-0.0045 0.025,-0.01009 z m -3.82238,-0.02001 c -0.0138,-0.0056 -0.0363,-0.0056 -0.05,0 -0.0138,0.0056 -0.002,0.01009 0.025,0.01009 0.0275,0 0.0388,-0.0045 0.025,-0.01009 z m 3.68229,0 c -0.0138,-0.0056 -0.0363,-0.0056 -0.05,0 -0.0138,0.0056 -0.002,0.01009 0.025,0.01009 0.0275,0 0.0388,-0.0045 0.025,-0.01009 z m -3.46177,-0.01989 c -0.0136,-0.0055 -0.0406,-0.0058 -0.06,-7.41e-4 -0.0195,0.0051 -0.008,0.0096 0.0246,0.01 0.033,4.09e-4 0.049,-0.0037 0.0354,-0.0092 z m 3.31126,0.001 c -0.007,-0.0067 -0.0239,-0.0074 -0.0383,-0.0016 -0.016,0.0064 -0.0112,0.01113 0.0121,0.01209 0.0211,8.69e-4 0.0329,-0.0039 0.0263,-0.01051 z m -3.12194,-0.02001 c -0.007,-0.0067 -0.0239,-0.0074 -0.0384,-0.0016 -0.016,0.0064 -0.0112,0.01113 0.0121,0.01209 0.0211,8.68e-4 0.0329,-0.0039 0.0263,-0.01051 z m 2.93224,-0.0012 c -0.0138,-0.0056 -0.0363,-0.0056 -0.05,0 -0.0138,0.0056 -0.002,0.01009 0.025,0.01009 0.0275,0 0.0388,-0.0045 0.025,-0.01009 z m -26.531512,-0.04678 c 0.01992,-0.02201 0.03172,-0.04002 0.02622,-0.04002 -0.0055,0 -0.02631,0.01801 -0.04623,0.04002 -0.01992,0.02201 -0.03172,0.04002 -0.02622,0.04002 0.0055,0 0.02631,-0.01801 0.04623,-0.04002 z m 23.919472,0.02793 c -0.007,-0.0067 -0.0239,-0.0074 -0.0384,-0.0016 -0.016,0.0064 -0.0112,0.01113 0.0121,0.01209 0.0211,8.68e-4 0.0329,-0.0039 0.0263,-0.01051 z m 2.39228,-0.001 c -0.0135,-0.0055 -0.0406,-0.0058 -0.06,-7.4e-4 -0.0195,0.0051 -0.008,0.0096 0.0246,0.01 0.033,4.08e-4 0.0489,-0.0037 0.0354,-0.0092 z m -2.00162,-0.02014 c -0.0138,-0.0056 -0.0363,-0.0056 -0.05,0 -0.0138,0.0056 -0.002,0.01009 0.025,0.01009 0.0275,0 0.0388,-0.0045 0.025,-0.01009 z m 1.69063,0.0012 c -0.007,-0.0067 -0.0239,-0.0074 -0.0383,-0.0016 -0.016,0.0064 -0.0112,0.01113 0.0121,0.01209 0.0211,8.68e-4 0.0329,-0.0039 0.0263,-0.01051 z m -0.84973,-0.02105 c -0.0135,-0.0055 -0.0406,-0.0058 -0.06,-7.4e-4 -0.0195,0.0051 -0.008,0.0096 0.0246,0.01 0.033,4.08e-4 0.0489,-0.0037 0.0354,-0.0092 z m -25.058423,-0.06192 c 0.02489,-0.03174 0.02419,-0.03245 -0.0076,-0.0076 -0.03334,0.02614 -0.04394,0.04258 -0.02747,0.04258 0.0042,0 0.01992,-0.01576 0.03502,-0.03502 z m 0.337659,-0.258827 c 0,-0.01249 -0.164691,0.107309 -0.24384,0.177377 -0.03649,0.03231 0.0034,0.0076 0.08874,-0.05491 0.0853,-0.0625 0.155096,-0.117617 0.155096,-0.122471 z m 9.946191,0.183982 c 0,-0.0054 -0.08105,-0.05051 -0.180113,-0.100264 -0.09906,-0.04975 -0.180112,-0.08596 -0.180112,-0.08047 0,0.0077 0.332042,0.184829 0.355221,0.189522 0.0028,5.56e-4 0.005,-0.0034 0.005,-0.0088 z M 82.153833,30.62491 c 0,-0.0055 -0.02702,0.0092 -0.06004,0.03274 -0.03302,0.02351 -0.06004,0.04725 -0.06004,0.05276 0,0.0055 0.02702,-0.0092 0.06004,-0.03275 0.03302,-0.02351 0.06004,-0.04725 0.06004,-0.05276 z m 9.425867,0.0844 c 0,-0.0046 -0.0788,-0.0511 -0.175109,-0.103312 -0.234404,-0.127069 -0.713354,-0.422199 -1.165726,-0.718323 -0.435281,-0.284936 -0.420261,-0.275498 -0.420261,-0.26407 0,0.0128 0.870947,0.583216 1.117311,0.731772 0.186404,0.112401 0.626334,0.361835 0.638782,0.36218 0.0028,7.6e-5 0.005,-0.0036 0.005,-0.0082 z m -9.185717,-0.245735 c 0,-0.01342 -0.115995,0.059 -0.175416,0.10951 -0.0301,0.02559 -0.0029,0.01328 0.06034,-0.02734 0.06329,-0.04063 0.115072,-0.0776 0.115072,-0.08217 z M 82.61412,30.32604 c 0,-0.0055 -0.01801,-3.67e-4 -0.04002,0.01141 -0.02201,0.01178 -0.04002,0.02592 -0.04002,0.03143 0,0.0055 0.01801,3.66e-4 0.04002,-0.01141 0.02201,-0.01178 0.04002,-0.02592 0.04002,-0.03143 z m 1.380859,-0.729046 c 0.01651,-0.01067 0.02101,-0.0194 0.01001,-0.0194 -0.01101,0 -0.03352,0.0087 -0.05003,0.0194 -0.01651,0.01067 -0.02101,0.0194 -0.01001,0.0194 0.01101,0 0.03352,-0.0087 0.05003,-0.0194 z m 0.220137,-0.100062 c 0.01651,-0.01067 0.02101,-0.0194 0.01001,-0.0194 -0.01101,0 -0.03352,0.0087 -0.05003,0.0194 -0.01651,0.01067 -0.02101,0.0194 -0.01001,0.0194 0.01101,0 0.03352,-0.0087 0.05003,-0.0194 z m 0.150623,-0.07619 c -0.0062,-0.0062 -0.02231,-1.3e-5 -0.03589,0.01366 -0.01962,0.01976 -0.01732,0.02206 0.0112,0.0112 0.01974,-0.0075 0.03084,-0.01871 0.02468,-0.02487 z m 1.115165,-0.317306 c -0.01376,-0.0056 -0.03627,-0.0056 -0.05003,0 -0.01376,0.0056 -0.0025,0.01009 0.02501,0.01009 0.02752,0 0.03878,-0.0045 0.02502,-0.01009 z m 0.1601,-0.02001 c -0.01376,-0.0056 -0.03627,-0.0056 -0.05003,0 -0.01376,0.0056 -0.0025,0.01009 0.02501,0.01009 0.02752,0 0.03877,-0.0045 0.02502,-0.01009 z m 0.169689,-0.01885 c -0.0067,-0.0066 -0.02391,-0.0074 -0.03836,-0.0016 -0.01596,0.0064 -0.01122,0.01113 0.01209,0.01209 0.0211,8.69e-4 0.03292,-0.0039 0.02627,-0.01051 z"
       id="path947"
       inkscape:connector-curvature="0" /><path
       style="fill:#ffffff;fill-opacity:1;stroke-width:0.02001246"
       d="m 77.400425,40.498779 c 0.23647,-2.845205 0.759536,-5.016269 1.611595,-6.689163 0.403441,-0.792097 0.736587,-1.254012 1.327999,-1.841306 1.434837,-1.424847 3.336364,-2.534456 5.105863,-2.979455 0.683022,-0.171768 0.980014,-0.212465 1.651028,-0.226241 0.7391,-0.01517 1.088883,0.02599 1.576893,0.185572 0.388304,0.126978 0.567348,0.224019 1.374944,0.745211 0.919667,0.593519 1.440278,0.906079 2.05843,1.235822 0.14152,0.07549 0.248077,0.140334 0.236792,0.144096 -0.01128,0.0038 -0.0762,-0.02127 -0.144262,-0.05563 -0.06806,-0.03436 -0.127622,-0.05859 -0.132359,-0.05385 -0.02524,0.02524 1.197971,0.546248 1.232447,0.524941 0.0097,-0.006 0.02075,-0.0013 0.02464,0.01034 0.0039,0.01166 0.164505,0.07401 0.35693,0.138551 1.341251,0.449891 2.591299,0.626566 3.822026,0.540188 0.35441,-0.02487 0.629798,-0.06831 1.319819,-0.208162 0.652076,-0.132163 0.853193,-0.158086 1.144743,-0.14755 0.215237,0.0078 0.234737,0.01211 0.373047,0.08295 0.19491,0.09982 0.30549,0.118869 0.53246,0.09171 0.16898,-0.02022 0.79877,-0.168912 0.91259,-0.215465 0.0432,-0.01765 0.0445,-0.02075 0.01,-0.02253 -0.0631,-0.0033 0.0386,-0.05136 0.36556,-0.17289 0.85518,-0.317886 1.84248,-0.52422 3.21667,-0.672249 0.3292,-0.03546 2.09905,-0.03537 2.39149,1.2e-4 1.23063,0.14937 2.05635,0.4521 2.50293,0.917639 0.16817,0.175319 0.2643,0.318799 0.41358,0.617334 0.5275,1.054915 0.94471,2.896277 1.1948,5.273282 0.0909,0.863836 0.21072,2.439626 0.21116,2.776728 l 2.2e-4,0.165112 H 94.739585 77.386703 Z m 10.99307,-0.03002 -10.840969,-0.005 -0.0067,-0.175091 -0.0067,-0.175091 -0.0041,0.185115 -0.0041,0.185116 10.851754,-0.005 10.851754,-0.005 z m 23.532535,-1.249527 c -0.006,-0.01597 -0.0111,-0.01122 -0.0121,0.01209 -8.6e-4,0.0211 0.004,0.03292 0.0105,0.02627 0.007,-0.0067 0.007,-0.02391 0.002,-0.03836 z m -0.02,-0.24015 c -0.006,-0.01596 -0.0111,-0.01122 -0.0121,0.01209 -8.6e-4,0.0211 0.004,0.03292 0.0105,0.02627 0.007,-0.0067 0.007,-0.02391 0.002,-0.03836 z m -0.02,-0.240149 c -0.006,-0.01597 -0.0111,-0.01122 -0.0121,0.01209 -8.6e-4,0.0211 0.004,0.03292 0.0105,0.02627 0.007,-0.0067 0.007,-0.02391 0.002,-0.03836 z m -32.955779,-4.5791 c 0.02247,-0.04717 0.02205,-0.04781 -0.0073,-0.01118 -0.01712,0.02137 -0.03112,0.04763 -0.03112,0.05837 0,0.02543 0.0092,0.01407 0.03842,-0.04719 z m 0.141694,-0.260162 c 0.01178,-0.02201 0.01692,-0.04002 0.01141,-0.04002 -0.0055,0 -0.01965,0.01801 -0.03143,0.04002 -0.01178,0.02201 -0.01692,0.04002 -0.01141,0.04002 0.0055,0 0.01965,-0.01801 0.03143,-0.04002 z m 0.662964,-0.99562 c 0.02489,-0.03174 0.02418,-0.03245 -0.0076,-0.0076 -0.03334,0.02614 -0.04394,0.04258 -0.02747,0.04258 0.0042,0 0.01992,-0.01576 0.03502,-0.03502 z M 110.704,32.805761 c -0.0169,-0.03124 -0.0311,-0.05047 -0.0316,-0.04274 -10e-4,0.02379 0.0452,0.116705 0.054,0.107861 0.005,-0.0046 -0.006,-0.03388 -0.0225,-0.06512 z m -30.889041,-0.0018 c 0.02489,-0.03174 0.02418,-0.03245 -0.0076,-0.0076 -0.01926,0.01511 -0.03502,0.03087 -0.03502,0.03502 0,0.01647 0.01643,0.0059 0.04258,-0.02747 z m 0.100062,-0.120075 c 0.02489,-0.03174 0.02419,-0.03245 -0.0076,-0.0076 -0.01926,0.01511 -0.03502,0.03087 -0.03502,0.03502 0,0.01647 0.01643,0.0059 0.04258,-0.02747 z M 110.63156,32.6589 c -0.0118,-0.02201 -0.0259,-0.04002 -0.0314,-0.04002 -0.005,0 -3.6e-4,0.01801 0.0114,0.04002 0.0118,0.02201 0.0259,0.04002 0.0314,0.04002 0.006,0 3.6e-4,-0.01801 -0.0114,-0.04002 z m -8.69541,-0.920573 c 0.0252,-0.01084 0.0289,-0.0172 0.01,-0.0172 -0.0165,0 -0.048,0.0077 -0.07,0.0172 -0.0252,0.01084 -0.0289,0.0172 -0.01,0.0172 0.0165,0 0.048,-0.0077 0.07,-0.0172 z m 7.60473,-0.300187 c -0.007,-0.01101 -0.0231,-0.01987 -0.0362,-0.01971 -0.0143,1.8e-4 -0.0119,0.008 0.006,0.01971 0.0385,0.02485 0.0454,0.02485 0.03,0 z M 81.243267,31.338077 c 0.01992,-0.02201 0.03172,-0.04002 0.02622,-0.04002 -0.0055,0 -0.02631,0.01801 -0.04623,0.04002 -0.01992,0.02201 -0.03172,0.04002 -0.02622,0.04002 0.0055,0 0.02631,-0.01801 0.04623,-0.04002 z M 81.3759,31.223006 c 0.02489,-0.03174 0.02419,-0.03245 -0.0076,-0.0076 -0.03333,0.02614 -0.04394,0.04258 -0.02746,0.04258 0.0042,0 0.01991,-0.01576 0.03502,-0.03502 z m 0.100063,-0.08005 c 0.02489,-0.03174 0.02419,-0.03245 -0.0076,-0.0076 -0.03334,0.02614 -0.04394,0.04258 -0.02747,0.04258 0.0042,0 0.01992,-0.01576 0.03502,-0.03502 z m 26.408467,-0.05712 c -0.007,-0.0067 -0.0239,-0.0074 -0.0384,-0.0016 -0.016,0.0064 -0.0112,0.01113 0.0121,0.01209 0.0211,8.68e-4 0.0329,-0.0039 0.0263,-0.01051 z m -26.208343,-0.10298 c 0.02489,-0.03174 0.02419,-0.03245 -0.0076,-0.0076 -0.03334,0.02614 -0.04394,0.04258 -0.02747,0.04258 0.0042,0 0.01992,-0.01576 0.03502,-0.03502 z m 10.243825,-0.09481 c 0,-0.0054 -0.06304,-0.0415 -0.140088,-0.0803 -0.07705,-0.0388 -0.140087,-0.06605 -0.140087,-0.06056 0,0.0077 0.252892,0.145253 0.275171,0.149636 0.0028,5.43e-4 0.005,-0.0034 0.005,-0.0088 z m -10.063713,-0.04528 c 0.02489,-0.03174 0.02419,-0.03245 -0.0076,-0.0076 -0.03333,0.02614 -0.04394,0.04258 -0.02747,0.04258 0.0042,0 0.01992,-0.01576 0.03502,-0.03502 z m 0.140087,-0.100062 c 0.02489,-0.03174 0.02419,-0.03245 -0.0076,-0.0076 -0.03334,0.02614 -0.04394,0.04258 -0.02747,0.04258 0.0042,0 0.01991,-0.01576 0.03502,-0.03502 z m 0.157547,-0.117797 c 0,-0.0055 -0.02702,0.0092 -0.06004,0.03274 -0.03302,0.02351 -0.06004,0.04725 -0.06004,0.05276 0,0.0055 0.02702,-0.0092 0.06004,-0.03275 0.03302,-0.02351 0.06004,-0.04725 0.06004,-0.05276 z m 9.385842,0.06317 c 0,-0.0053 -0.03602,-0.02798 -0.08005,-0.05044 -0.04403,-0.02246 -0.08005,-0.03637 -0.08005,-0.0309 0,0.0055 0.03377,0.02776 0.07505,0.04955 0.08491,0.04483 0.08505,0.04488 0.08505,0.03179 z m -0.180112,-0.09995 c 0,-0.0052 -0.02702,-0.02346 -0.06004,-0.04054 -0.07526,-0.03892 -0.07982,-0.02202 -0.005,0.01857 0.06289,0.03412 0.06504,0.03484 0.06504,0.02197 z m -0.1601,-0.09261 c -0.01651,-0.01083 -0.196622,-0.123552 -0.400249,-0.250487 -0.203627,-0.126935 -0.376985,-0.235146 -0.38524,-0.24047 -0.0083,-0.0053 -0.01501,-0.0056 -0.01501,-5.5e-4 0,0.01934 0.79434,0.515348 0.820511,0.51235 0.0055,-6.31e-4 -0.0035,-0.01001 -0.02001,-0.02084 z m -0.831517,-0.515661 c -0.03797,-0.03472 -0.44928,-0.303431 -0.44928,-0.293514 0,0.0056 0.101253,0.07785 0.225006,0.160547 0.207289,0.138515 0.272829,0.177372 0.224274,0.132967 z"
       id="path949"
       inkscape:connector-curvature="0" /></g><g
     style="display:inline"
     id="g10"
     inkscape:groupmode="layer"
     inkscape:label="Icon Template"
     transform="matrix(1.25,0,0,-1.25,0,192)"><rect
       style="fill:#ff2a2a;fill-opacity:1;stroke-width:0.79966444"
       id="rect5658"
       width="14.302179"
       height="138.03186"
       x="-8.0093641"
       y="-177.72694"
       transform="matrix(0.70458757,-0.70961705,-0.71293541,-0.70122971,0,0)"
       ry="0" /></g></svg>