<?xml version="1.0" encoding="utf-8"?>
<!-- Generator: Adobe Illustrator 16.0.0, SVG Export Plug-In . SVG Version: 6.00 Build 0)  -->
<!DOCTYPE svg PUBLIC "-//W3C//DTD SVG 1.1//EN" "http://www.w3.org/Graphics/SVG/1.1/DTD/svg11.dtd">
<svg version="1.1" id="Ebene_1" xmlns="http://www.w3.org/2000/svg" xmlns:xlink="http://www.w3.org/1999/xlink" x="0px" y="0px"
	 width="80px" height="80px" viewBox="0 0 80 80" enable-background="new 0 0 80 80" xml:space="preserve">
<path fill="#D5D5D6" stroke="#1D1D1B" stroke-width="4" stroke-miterlimit="10" d="M66.697,13.303
	C59.865,6.47,50.426,2.244,39.999,2.244C19.148,2.244,2.245,19.148,2.245,40c0,10.426,4.226,19.863,11.058,26.695
	c6.833,6.834,16.271,11.061,26.696,11.061c20.853,0,37.757-16.904,37.757-37.756C77.756,29.574,73.529,20.135,66.697,13.303z"/>
<g>
	<path fill="#EBE21D" stroke="#6F6F6E" stroke-miterlimit="10" d="M19.081,26.163c0,0,6.604-0.907,10.824,1.87
		c4.222,2.778,6.124,7.807,6.124,7.807s-6.616-0.419-9.524-2.066C22.341,31.367,19.081,26.163,19.081,26.163z"/>
	<path fill="#EBE21D" stroke="#6F6F6E" stroke-miterlimit="10" d="M37.104,35.223c0,0-3.35-6.424-3.035-9.984
		c0.314-3.562,2.49-6.742,3.327-8.104c0,0,2.477,3.801,2.675,8.234C40.271,29.803,37.104,35.223,37.104,35.223z"/>
	<path fill="#EBE21D" stroke="#6F6F6E" stroke-miterlimit="10" d="M37.386,62.893c0,0,7.205-0.766,10.404,0.83
		s5.359,4.785,6.321,6.062c0,0-4.444,0.914-8.644-0.525C41.271,67.821,37.386,62.893,37.386,62.893z"/>
	<path fill="#EBE21D" stroke="#6F6F6E" stroke-miterlimit="10" d="M54.872,69.316c0,0-2.454-4.28-1.675-9.146
		c0.78-4.869,6.415-10.282,6.415-10.282s1.938,5.879,0.629,11.015C58.933,66.041,54.872,69.316,54.872,69.316z"/>
	<path fill="#EBE21D" stroke="#6F6F6E" stroke-miterlimit="10" d="M23.321,10.843c0,0,4.676,1.575,7.321,5.733
		c2.646,4.159,2.02,11.949,2.02,11.949s-5.35-3.113-7.777-7.826C22.456,15.987,23.321,10.843,23.321,10.843z"/>
	<path fill="#EBE21D" stroke="#6F6F6E" stroke-miterlimit="10" d="M49.981,60.652c0,0-2.916-5.443-1.73-9.518
		s6.775-8.531,6.775-8.531s0.729,7.296,0.038,10.25C54.374,55.807,49.981,60.652,49.981,60.652z"/>
	<path fill="#EBE21D" stroke="#6F6F6E" stroke-miterlimit="10" d="M45.604,52.384c0,0-2.696-4.622-1.438-9.468
		c1.258-4.845,5.886-10.012,5.886-10.012s2.32,7.151,1.135,11.225C50.002,48.203,45.604,52.384,45.604,52.384z"/>
	<path fill="#EBE21D" stroke="#6F6F6E" stroke-miterlimit="10" d="M41.055,43.242c0,0-2.174-5.558-1.208-10.454
		c0.967-4.896,5.921-9.161,5.921-9.161s2.208,6.407,0.813,10.987C45.189,39.194,41.055,43.242,41.055,43.242z"/>
	<path fill="#EBE21D" stroke="#6F6F6E" stroke-miterlimit="10" d="M24.399,36.979c0,0,5.897-1.831,9.673,0.104
		c3.775,1.935,7.094,8.27,7.094,8.27s-7.303-0.669-10.073-1.906C28.323,42.209,24.399,36.979,24.399,36.979z"/>
	<path fill="#EBE21D" stroke="#6F6F6E" stroke-miterlimit="10" d="M32.025,55.169c0,0,4.545-2.046,8.979-0.384
		c4.437,1.662,8.902,6.498,8.902,6.498s-6.881,1.44-10.6-0.074C35.587,59.69,32.025,55.169,32.025,55.169z"/>
	<path fill="#EBE21D" stroke="#6F6F6E" stroke-miterlimit="10" d="M27.063,45.053c0,0,5.867-1.081,10.491,0.795
		c4.623,1.876,7.874,7.549,7.874,7.549s-6.709,0.954-10.942-1.281C30.252,49.879,27.063,45.053,27.063,45.053z"/>
</g>
<path d="M68.908,15.486c-1.841-1.84-3.876-3.484-6.063-4.914L10.791,63.117c1.385,2.074,2.966,4.006,4.723,5.763
	c0.188,0.187,0.384,0.364,0.574,0.548L69.21,15.803C69.108,15.699,69.011,15.59,68.908,15.486z"/>
</svg>
