<?xml version="1.0" encoding="utf-8"?>
<!-- Generator: Adobe Illustrator 16.0.0, SVG Export Plug-In . SVG Version: 6.00 Build 0)  -->
<!DOCTYPE svg PUBLIC "-//W3C//DTD SVG 1.1//EN" "http://www.w3.org/Graphics/SVG/1.1/DTD/svg11.dtd">
<svg version="1.1" id="Ebene_1" xmlns="http://www.w3.org/2000/svg" xmlns:xlink="http://www.w3.org/1999/xlink" x="0px" y="0px"
	 width="80px" height="80px" viewBox="0 0 80 80" enable-background="new 0 0 80 80" xml:space="preserve">
<path fill="#D5D5D6" stroke="#1D1D1B" stroke-width="4" stroke-miterlimit="10" d="M66.696,13.303
	C59.864,6.47,50.425,2.244,39.998,2.244C19.147,2.244,2.244,19.148,2.244,40c0,10.426,4.226,19.863,11.058,26.695
	c6.833,6.834,16.271,11.061,26.696,11.061c20.853,0,37.757-16.904,37.757-37.756C77.755,29.574,73.528,20.135,66.696,13.303z"/>
<path fill="#FFFFFF" stroke="#6F6F6E" stroke-miterlimit="10" d="M53.991,47.189c1.15-0.576,2.416-7.822,3.45-14.838
	c1.035-7.017-2.414-10.727-3.066-11.81c-0.345-0.576-1.342-0.651-4.907-0.767c-3.565-0.115-2.914,0.767,0.307,1.995
	c1.881,0.715,4.218,3.603,4.448,5.214c0.229,1.61-2.646,13.189-3.452,12.958c-0.805-0.229-8.396-8.856-8.972-9.546
	c-0.575-0.69-3.681-0.92-3.681-0.92s-0.69-2.243-0.69-4.659c0-2.414,3.451-1.179,4.746-1.552c1.293-0.374,0.718-4.428,0.718-4.428
	s1.467-0.259,1.554-0.891c0.086-0.633-1.496-2.042-2.071-2.962c-0.575-0.92-0.346-4.256-0.805-4.716
	c-0.46-0.459-1.851-3.466-7.247-3.796c-5.635-0.345-7.131,4.946-7.131,4.946c-0.46-0.115-5.062-0.919-6.557,5.522
	c-1.496,6.44,1.956,11.962,1.956,11.962c-0.116-0.806-0.23-3.336,2.645-6.212c2.049-2.049,2.228-4.791,2.163-6.202
	c0.561,3.495,3.589,4.521,3.589,5.051c0,0.576,0.575,3.911-0.69,4.142c-1.265,0.23-4.945,4.371-6.096,5.981
	c-1.15,1.61-9.203,13.228-8.857,14.722c0.345,1.496,5.625,3.137,8.014,4.295c2.383,1.156,7.003,4.936,8.223,6.106
	c-0.047,0.469-0.095,0.814-0.134,0.987c-0.229,1.035-3.68,6.556-3.796,7.706c-0.114,1.15,1.15,6.9,2.761,8.281
	s0.69,2.876,0.69,2.876s4.485,1.151,10.008,0.806c5.521-0.346,10.007-2.531,10.007-2.531s-1.495-2.99-2.07-3.797
	c-0.576-0.805,1.149-2.875,4.025-4.83s3.911-8.395,2.646-11.156c-1.266-2.761-5.982-8.513-5.982-8.513S52.841,47.764,53.991,47.189z
	 M28.111,47.534c-1.841-0.921-5.521-3.22-5.521-3.22c2.645-1.266,4.715-3.912,4.715-3.912s1.956,3.335,3.451,6.21
	c0.694,1.335,0.941,3.609,0.985,5.77C30.969,50.716,29.478,48.217,28.111,47.534z"/>
<path fill="none" stroke="#1D1D1B" stroke-width="4" stroke-miterlimit="10" d="M66.696,13.303
	C59.864,6.47,50.425,2.244,39.998,2.244C19.147,2.244,2.244,19.148,2.244,40c0,10.426,4.226,19.863,11.058,26.695
	c6.833,6.834,16.271,11.061,26.696,11.061c20.853,0,37.757-16.904,37.757-37.756C77.755,29.574,73.528,20.135,66.696,13.303z"/>
<path d="M70.314,16.399c-1.841-1.84-2.388-3.556-4.575-4.985L12.197,65.247c1.385,2.074,2.966,2.789,4.723,4.546
	c0.188,0.187,0.384,0.364,0.574,0.548l53.122-53.625C70.515,16.612,70.417,16.503,70.314,16.399z"/>
</svg>
