<?xml version="1.0" encoding="utf-8"?>
<!-- Generator: Adobe Illustrator 16.0.0, SVG Export Plug-In . SVG Version: 6.00 Build 0)  -->
<!DOCTYPE svg PUBLIC "-//W3C//DTD SVG 1.1//EN" "http://www.w3.org/Graphics/SVG/1.1/DTD/svg11.dtd">
<svg version="1.1" id="Ebene_1" xmlns="http://www.w3.org/2000/svg" xmlns:xlink="http://www.w3.org/1999/xlink" x="0px" y="0px"
	 width="80px" height="80px" viewBox="0 0 80 80" enable-background="new 0 0 80 80" xml:space="preserve">
<g>
	<circle fill="#D5D5D6" stroke="#1D1D1B" stroke-width="4" stroke-miterlimit="10" cx="39.998" cy="40.001" r="37.754"/>
	<g transform="matrix(0.1,0,0,-0.1,0,362)">
		<path fill="#26A076" d="M632.812,3435.215c-12.148-3.193-37.832-8.975-56.953-12.764c-48.77-9.57-56.523-12.461-78.262-28.574
			c-30.84-22.939-52.422-67.305-52.266-107.568c0.156-15.342,2.441-26.289,5.02-23.408c0.605,0.762,2.734,5.176,4.551,9.727
			c9.277,22.344,36.172,56.377,59.121,74.766c11.699,9.414,35.254,18.682,35.254,13.828c0-1.68-8.066-11.709-17.637-21.738
			c-8.965-9.57-11.992-13.516-28.867-37.979c-17.461-25.674-40.273-71.572-55.605-112.441c-14.902-39.658-25.84-71.26-33.125-94.961
			c-12.3-40.576-23.394-72.627-25.376-73.232c-2.432-0.918-9.111,20.811-23.096,74.746
			c-21.719,84.482-30.996,113.506-53.174,166.387c-15.195,36.006-35.259,64.873-75.972,109.082
			c-22.334,24.473-54.087,47.871-73.228,54.248c-12.461,4.258-13.516,2.129-4.102-8.359c44.351-49.99,70.034-87.061,97.241-139.775
			c22.949-44.824,38.735-89.355,67.456-191.455c7.285-26.133,23.398-92.686,28.564-118.506c5.771-28.73,12.158-56.836,13.828-61.25
			c0.615-1.357,2.881-3.184,5.166-3.789c5.156-1.367,30.078-1.367,35.386,0c7.91,2.275,9.414,8.506,20.371,80.225
			c7.285,48.467,13.516,77.49,25.977,120.791c21.133,73.848,43.613,127.949,57.285,136.758c1.973,1.211,11.699,3.643,21.875,5.312
			c39.512,6.533,71.25,24.004,93.73,51.816c15.039,18.535,18.984,32.207,22.793,77.793c1.973,24.16,3.184,30.996,7.754,45.43
			c2.891,9.414,4.863,17.93,4.551,18.994C660.019,3442.041,657.578,3441.748,632.812,3435.215z"/>
	</g>
</g>
</svg>
