<?xml version="1.0" encoding="UTF-8" standalone="no"?>
<!-- Created with Inkscape (http://www.inkscape.org/) -->

<svg
   xmlns:osb="http://www.openswatchbook.org/uri/2009/osb"
   xmlns:dc="http://purl.org/dc/elements/1.1/"
   xmlns:cc="http://creativecommons.org/ns#"
   xmlns:rdf="http://www.w3.org/1999/02/22-rdf-syntax-ns#"
   xmlns:svg="http://www.w3.org/2000/svg"
   xmlns="http://www.w3.org/2000/svg"
   xmlns:sodipodi="http://sodipodi.sourceforge.net/DTD/sodipodi-0.dtd"
   xmlns:inkscape="http://www.inkscape.org/namespaces/inkscape"
   width="57.709236mm"
   height="41.533703mm"
   viewBox="0 0 57.709236 41.533703"
   version="1.1"
   id="svg8"
   inkscape:version="0.92.4 (5da689c313, 2019-01-14)"
   sodipodi:docname="1.svg">
  <defs
     id="defs2">
    <inkscape:perspective
       sodipodi:type="inkscape:persp3d"
       inkscape:vp_x="0 : 148.5 : 1"
       inkscape:vp_y="0 : 1000 : 0"
       inkscape:vp_z="210.00001 : 148.5 : 1"
       inkscape:persp3d-origin="105 : 99.000002 : 1"
       id="perspective5986" />
    <linearGradient
       id="linearGradient5982"
       osb:paint="solid">
      <stop
         style="stop-color:#000000;stop-opacity:1;"
         offset="0"
         id="stop5980" />
    </linearGradient>
  </defs>
  <sodipodi:namedview
     id="base"
     pagecolor="#ffffff"
     bordercolor="#666666"
     borderopacity="1.0"
     inkscape:pageopacity="0.0"
     inkscape:pageshadow="2"
     inkscape:zoom="0.70710678"
     inkscape:cx="-240.67621"
     inkscape:cy="155.68117"
     inkscape:document-units="mm"
     inkscape:current-layer="layer1"
     showgrid="false"
     inkscape:window-width="1920"
     inkscape:window-height="1017"
     inkscape:window-x="-8"
     inkscape:window-y="-8"
     inkscape:window-maximized="1" />
  <metadata
     id="metadata5">
    <rdf:RDF>
      <cc:Work
         rdf:about="">
        <dc:format>image/svg+xml</dc:format>
        <dc:type
           rdf:resource="http://purl.org/dc/dcmitype/StillImage" />
        <dc:title></dc:title>
      </cc:Work>
    </rdf:RDF>
  </metadata>
  <g
     inkscape:label="Ebene 1"
     inkscape:groupmode="layer"
     id="layer1"
     transform="translate(-68.12251,-142.02284)">
    <path
       style="fill:#62626a;fill-opacity:0.34726688;stroke:#62626a;stroke-width:0.26569992;stroke-opacity:1"
       d="m 96.960619,142.15618 c -1.476152,-0.005 -2.854458,0.0283 -3.782013,0.106 -13.617578,1.13984 -24.078849,6.33746 -24.567544,14.12362 -0.128792,2.05201 -0.178266,8.99015 -0.355082,13.24247 -0.01125,0.10492 0.140921,-3.0469 0,0 0,8.77323 16.503881,13.79284 28.941374,13.79286 13.239296,0.13362 26.298076,-4.97198 28.168966,-13.47794 -0.005,-0.44595 0.073,0.44411 0,0 0.4456,-2.3113 0.42885,-12.50478 0.0369,-14.06814 -54.919403,-6.21693 -10.47338,-11.85766 -21.88428,-13.41171 -1.36666,-0.1861 -4.098112,-0.29911 -6.558363,-0.30716 z"
       id="path4518"
       inkscape:connector-curvature="0"
       sodipodi:nodetypes="ccsccccccccc" />
    <path
       style="fill:#ffffff;fill-opacity:1;stroke:#62626a;stroke-width:0.31368861;stroke-opacity:1"
       id="path6234"
       sodipodi:type="arc"
       sodipodi:cx="97.082214"
       sodipodi:cy="155.60387"
       sodipodi:rx="28.41753"
       sodipodi:ry="13.369059"
       sodipodi:start="0.023356695"
       sodipodi:end="0.019614847"
       d="M 125.49199,155.9161 A 28.41753,13.369059 0 0 1 96.445112,168.96956 28.41753,13.369059 0 0 1 68.671243,155.31664 28.41753,13.369059 0 0 1 97.666162,142.23763 28.41753,13.369059 0 0 1 125.49428,155.86608"
       sodipodi:open="true" />
    <path
       style="opacity:0.806;fill:#636368;fill-opacity:0.34509804;stroke:#62626a;stroke-width:0.42126131;stroke-opacity:1"
       d="m 68.951882,154.17775 c 0,0 -0.100322,0.22276 -0.106584,0.43191 l -0.0306,1.02209 c -0.0051,0.17118 -0.0034,0.28 0.144682,0.28001 l 56.34533,0.004 c 0.14807,1e-5 0.18314,0.0344 0.16085,-0.32335 l -0.0679,-1.09013 c -0.009,-0.13775 0.0128,-0.32766 -0.13428,-0.32765 z"
       id="rect6252"
       inkscape:connector-curvature="0"
       sodipodi:nodetypes="csssssssc" />
  </g>
</svg>
