<?xml version="1.0" encoding="UTF-8" standalone="no"?>
<svg
   xmlns:dc="http://purl.org/dc/elements/1.1/"
   xmlns:cc="http://creativecommons.org/ns#"
   xmlns:rdf="http://www.w3.org/1999/02/22-rdf-syntax-ns#"
   xmlns:svg="http://www.w3.org/2000/svg"
   xmlns="http://www.w3.org/2000/svg"
   xmlns:sodipodi="http://sodipodi.sourceforge.net/DTD/sodipodi-0.dtd"
   xmlns:inkscape="http://www.inkscape.org/namespaces/inkscape"
   viewBox="0 0 341.25613 160.28098"
   version="1.1"
   id="svg35"
   sodipodi:docname="4.svg"
   width="341.25613"
   height="160.28098"
   inkscape:version="0.92.4 (5da689c313, 2019-01-14)">
  <metadata
     id="metadata39">
    <rdf:RDF>
      <cc:Work
         rdf:about="">
        <dc:format>image/svg+xml</dc:format>
        <dc:type
           rdf:resource="http://purl.org/dc/dcmitype/StillImage" />
        <dc:title></dc:title>
      </cc:Work>
    </rdf:RDF>
  </metadata>
  <sodipodi:namedview
     pagecolor="#ffffff"
     bordercolor="#666666"
     borderopacity="1"
     objecttolerance="10"
     gridtolerance="10"
     guidetolerance="10"
     inkscape:pageopacity="0"
     inkscape:pageshadow="2"
     inkscape:window-width="1920"
     inkscape:window-height="1017"
     id="namedview37"
     showgrid="false"
     inkscape:zoom="1.3906433"
     inkscape:cx="96.989691"
     inkscape:cy="-50.768059"
     inkscape:window-x="-8"
     inkscape:window-y="-8"
     inkscape:window-maximized="1"
     inkscape:current-layer="svg35" />
  <defs
     id="defs21">
    <linearGradient
       id="e"
       x1="0.65161997"
       x2="0.66336"
       y1="2.3901999"
       y2="2.3901999"
       gradientTransform="matrix(1.9775,-0.063477,0.063477,1.9775,-369.36,-707.69)">
      <stop
         stop-color="#005eff"
         offset="0"
         id="stop2" />
      <stop
         stop-color="#0087ff"
         offset=".5"
         id="stop4" />
      <stop
         stop-color="#005eff"
         offset="1"
         id="stop6" />
    </linearGradient>
    <linearGradient
       id="f"
       x1="178.39007"
       x2="184.02649"
       y1="310.56403"
       y2="310.56403"
       gradientTransform="matrix(1.9355767,0,0,0.51664189,-208.88479,123.83258)"
       gradientUnits="userSpaceOnUse">
      <stop
         stop-color="#fff"
         offset="0"
         id="stop9" />
      <stop
         stop-color="#fff"
         stop-opacity="0"
         offset="1"
         id="stop11" />
    </linearGradient>
    <linearGradient
       id="d"
       x1="0.23598"
       x2="0.24936999"
       y1="2.4705"
       y2="2.4705"
       gradientTransform="matrix(1.9775,-0.063477,0.063477,1.9775,-369.36,-707.69)">
      <stop
         stop-color="#f00"
         offset="0"
         id="stop14" />
      <stop
         stop-color="#ff4f00"
         offset=".5"
         id="stop16" />
      <stop
         stop-color="#f00"
         offset="1"
         id="stop18" />
    </linearGradient>
  </defs>
  <g
     id="g29"
     style="fill:#62626a;fill-opacity:0.34901961;stroke-width:2.52900004"
     transform="translate(-187.31204,-145.10769)">
    <path
       d="m 460.15,145.55 c -1.0312,0.12656 -2.0814,0.29114 -3.1208,0.47261 l -109.17,18.996 -23.102,4.0227 -86.926,15.127 c -33.19,5.7828 -55.386,37.445 -49.603,70.637 5.7829,33.191 37.414,55.453 70.615,49.669 l 86.891,-15.153 23.133,-4.027 109.13,-18.992 c 33.198,-5.7842 55.44,-37.507 49.656,-70.708 -5.0613,-29.05 -29.964,-49.624 -58.323,-50.459 -3.0322,-0.0894 -6.0951,0.0353 -9.1886,0.41502 v 5e-5 z"
       id="path23"
       style="fill:#62626a;fill-opacity:0.34901961"
       inkscape:connector-curvature="0" />
    <path
       d="M 349.59,170.243 458.8,151.216 c 30.344,-5.2868 59.028,14.885 64.315,45.229 5.2868,30.344 -14.885,59.028 -45.229,64.315 l -109.99,19.164 c 13.181,-25.067 12.255,-70.741 -18.303,-109.68 z"
       id="path25"
       style="fill:#ffffff;fill-opacity:0.94117647"
       inkscape:connector-curvature="0" />
    <path
       d="m 348.81,170.38 -109.99,19.164 c -30.344,5.2868 -50.516,33.971 -45.229,64.315 5.2868,30.344 33.971,50.516 64.315,45.229 l 109.99,-19.164 c 11.578,-30.86 12.523,-66.399 -19.086,-109.54 z"
       id="path27"
       style="opacity:1;fill:#62626a;fill-opacity:1"
       inkscape:connector-curvature="0" />
  </g>
  <path
     d="m 160.35796,24.952309 -1.9664,1.5751 c 30.874,38.089 32.379,83.347001 19.893,108.030001 l 2.235,1.1349 c 13.08,-25.858 11.302,-71.928001 -20.161,-110.740001 z"
     id="path33"
     style="fill:#62626a;fill-opacity:0.34901961;stroke:none;stroke-width:2.52900004"
     inkscape:connector-curvature="0" />
</svg>
