<?xml version="1.0" encoding="UTF-8" standalone="no"?>
<svg
   xmlns:dc="http://purl.org/dc/elements/1.1/"
   xmlns:cc="http://creativecommons.org/ns#"
   xmlns:rdf="http://www.w3.org/1999/02/22-rdf-syntax-ns#"
   xmlns:svg="http://www.w3.org/2000/svg"
   xmlns="http://www.w3.org/2000/svg"
   xmlns:sodipodi="http://sodipodi.sourceforge.net/DTD/sodipodi-0.dtd"
   xmlns:inkscape="http://www.inkscape.org/namespaces/inkscape"
   viewBox="0 0 256 256"
   version="1.1"
   id="svg31"
   sodipodi:docname="allergy.svg"
   inkscape:version="0.92.4 (5da689c313, 2019-01-14)"
   width="256"
   height="256">
  <metadata
     id="metadata35">
    <rdf:RDF>
      <cc:Work
         rdf:about="">
        <dc:format>image/svg+xml</dc:format>
        <dc:type
           rdf:resource="http://purl.org/dc/dcmitype/StillImage" />
        <dc:title></dc:title>
      </cc:Work>
    </rdf:RDF>
  </metadata>
  <sodipodi:namedview
     pagecolor="#ffffff"
     bordercolor="#666666"
     borderopacity="1"
     objecttolerance="10"
     gridtolerance="10"
     guidetolerance="10"
     inkscape:pageopacity="0"
     inkscape:pageshadow="2"
     inkscape:window-width="1920"
     inkscape:window-height="1017"
     id="namedview33"
     showgrid="false"
     inkscape:zoom="1.3037281"
     inkscape:cx="-110.13496"
     inkscape:cy="5.5849932"
     inkscape:window-x="-8"
     inkscape:window-y="-8"
     inkscape:window-maximized="1"
     inkscape:current-layer="Outline" />
  <defs
     id="defs4">
    <style
       id="style2">.cls-1{fill:#ffd4cf;}.cls-2{fill:#f27777;}.cls-3{fill:#58595b;}.cls-4{fill:#6a6b6b;}.cls-5{fill:#91cef4;}.cls-6{fill:#7fb5da;}.cls-7,.cls-8,.cls-9{fill:none;}.cls-7{stroke:#f27777;}.cls-7,.cls-8{stroke-linecap:round;stroke-linejoin:round;}.cls-8{stroke:#e5bbb7;}</style>
  </defs>
  <g
     id="Outline"
     transform="translate(0,192)">
    <path
       class="cls-1"
       d="m 203.44449,-113.01093 -37.08535,-29.34397 -74.955301,-0.73231 c 0,0 -10.984374,63.081719 -20.39955,74.170709 -9.415183,11.088991 -20.922626,11.507443 -16.162729,18.778054 4.759896,7.270612 13.233559,11.507444 11.978201,23.851791 a 54.294208,54.294208 0 0 0 0,7.950597 l 25.10715,7.636757 a 4.6552837,4.6552837 0 0 1 1.778418,7.5321455 L 78.79796,11.478679 a 36.196138,36.196138 0 0 0 20.451872,9.624407 C 130.37223,25.758369 182.94032,7.7649138 182.94032,7.7649138 l 26.72865,-59.2633308 z"
       id="path8"
       style="fill:#1d242d;fill-opacity:0.98823529;stroke-width:5.23065615"
       inkscape:connector-curvature="0" />
    <path
       class="cls-2"
       d="m 205.27521,-95.226704 -1.83072,-17.784226 -37.08535,-29.34397 -74.955301,-0.73231 c 0,0 -4.60297,26.46712 -10.461307,48.174345 a 190.23895,190.23895 0 0 0 124.332678,-0.313839 z"
       id="path10"
       style="fill:#1d242d;fill-opacity:0.98823529;stroke-width:5.23065615"
       inkscape:connector-curvature="0" />
    <path
       class="cls-3"
       d="m 77.281073,-169.03126 c 0,0 -12.553574,45.55902 26.048667,58.32182 0,0 3.81837,-11.50743 8.52597,-12.81511 0,0 8.10751,29.657819 30.28549,31.383934 0,0 9.36287,-13.913544 14.07047,-19.458034 0,0 10.46131,16.162729 8.57827,29.814736 -1.88303,13.652011 -4.23682,29.814738 -4.23682,29.814738 0,0 12.34433,-20.033412 23.43333,-10.461312 11.08899,9.572101 -6.3291,36.196138 -18.67345,39.229918 0,0 16.21504,44.826721 28.14094,47.389743 0,0 0.52306,-11.507444 5.6491,-14.070465 5.12605,-2.563021 42.83908,-37.660722 48.33126,-71.346145 5.4922,-33.685428 -8.63058,-89.444213 -49.53431,-107.280753 -40.90373,-17.83654 -83.69049,9.04903 -106.496151,4.39375 a 64.964745,64.964745 0 0 1 -14.122766,-4.91682 z"
       id="path12"
       style="fill:#1d242d;fill-opacity:0.98823529;stroke-width:5.23065615"
       inkscape:connector-curvature="0" />
    <path
       class="cls-4"
       d="m 247.382,-61.48897 c 5.23065,-33.633113 -8.63059,-89.44421 -49.53432,-107.28076 -30.70394,-13.39046 -62.76787,-1.56918 -86.1489,3.19071 a 164.81797,164.81797 0 0 0 50.31892,34.94079 c 29.5009,12.39665 55.13111,70.97999 61.35559,116.015937 10.67054,-13.23356 21.28877,-30.390111 24.00871,-46.866677 z"
       id="path14"
       style="fill:#1d242d;fill-opacity:0.98823529;stroke-width:5.23065615"
       inkscape:connector-curvature="0" />
    <path
       class="cls-5"
       d="m 135.49827,-70.799537 a 54.398821,54.398821 0 0 1 -4.44606,8.735196 16.42426,16.42426 0 0 0 -4.44605,13.80893 c 1.35997,6.747547 11.14129,7.898291 15.1689,4.184526 a 10.879764,10.879764 0 0 0 1.98764,-12.815107 60.204848,60.204848 0 0 1 -8.26443,-13.913545 z"
       id="path16"
       style="fill:#ffffff;fill-opacity:1;stroke-width:5.23065615"
       inkscape:connector-curvature="0" />
    <path
       class="cls-6"
       d="m 127.49537,-45.953922 a 10.461312,10.461312 0 0 0 14.22738,1.83073 10.775151,10.775151 0 0 0 3.08608,-9.624407 19.928799,19.928799 0 0 1 -17.31346,7.793677 z"
       id="path18"
       style="fill:#1d242d;fill-opacity:0.98823529;stroke-width:5.23065615"
       inkscape:connector-curvature="0" />
    <line
       class="cls-7"
       x1="48.56477"
       x2="10.328683"
       y1="-15.825332"
       y2="-24.089783"
       id="line20"
       style="fill:#1d242d;fill-opacity:0.98823529;stroke:#1d242d;stroke-width:5.23065615;stroke-linecap:round;stroke-linejoin:round;stroke-opacity:0.98823529" />
    <line
       class="cls-7"
       x1="52.226234"
       x2="16.448549"
       y1="16.866262"
       y2="32.610531"
       id="line22"
       style="fill:#1d242d;fill-opacity:0.98823529;stroke:#1d242d;stroke-width:5.23065615;stroke-linecap:round;stroke-linejoin:round;stroke-opacity:0.98823529" />
    <line
       class="cls-7"
       x1="45.530994"
       x2="6.4579902"
       y1="2.3250284"
       y2="4.5219131"
       id="line24"
       style="fill:#1d242d;fill-opacity:0.98823529;stroke:#1d242d;stroke-width:5.23065615;stroke-linecap:round;stroke-linejoin:round;stroke-opacity:0.98823529" />
    <path
       class="cls-8"
       d="m 94.960692,-81.888528 a 24.32255,24.32255 0 0 1 -20.92263,-7.898286"
       id="path26"
       style="fill:#000000;fill-opacity:0.17064849;stroke:#ffffff;stroke-width:5.23065615;stroke-linecap:round;stroke-linejoin:round;stroke-opacity:1"
       inkscape:connector-curvature="0" />
    <rect
       class="cls-9"
       height="334.76199"
       width="334.76199"
       id="rect28"
       x="-39.885616"
       y="-238.54666"
       style="fill:none;stroke-width:5.23065615" />
  </g>
</svg>
