<?xml version="1.0" encoding="UTF-8" standalone="no"?>
<svg
   xmlns:dc="http://purl.org/dc/elements/1.1/"
   xmlns:cc="http://creativecommons.org/ns#"
   xmlns:rdf="http://www.w3.org/1999/02/22-rdf-syntax-ns#"
   xmlns:svg="http://www.w3.org/2000/svg"
   xmlns="http://www.w3.org/2000/svg"
   xmlns:sodipodi="http://sodipodi.sourceforge.net/DTD/sodipodi-0.dtd"
   xmlns:inkscape="http://www.inkscape.org/namespaces/inkscape"
   width="256"
   height="256"
   viewBox="0 0 256.00153 362.05931"
   version="1.1"
   id="svg182"
   sodipodi:docname="brain.svg"
   inkscape:version="0.92.4 (5da689c313, 2019-01-14)">
  <metadata
     id="metadata188">
    <rdf:RDF>
      <cc:Work
         rdf:about="">
        <dc:format>image/svg+xml</dc:format>
        <dc:type
           rdf:resource="http://purl.org/dc/dcmitype/StillImage" />
        <dc:title></dc:title>
      </cc:Work>
    </rdf:RDF>
  </metadata>
  <defs
     id="defs186" />
  <sodipodi:namedview
     pagecolor="#ffffff"
     bordercolor="#666666"
     borderopacity="1"
     objecttolerance="10"
     gridtolerance="10"
     guidetolerance="10"
     inkscape:pageopacity="0"
     inkscape:pageshadow="2"
     inkscape:window-width="1920"
     inkscape:window-height="1017"
     id="namedview184"
     showgrid="false"
     inkscape:zoom="2.5373274"
     inkscape:cx="101.8567"
     inkscape:cy="133.59009"
     inkscape:window-x="-8"
     inkscape:window-y="-8"
     inkscape:window-maximized="1"
     inkscape:current-layer="svg182" />
  <path
     d="m 108.47127,353.37508 c -9.66891,-15.85901 -22.847756,-45.05573 -29.002418,-47.55871 -6.418405,-4.59639 -33.402821,-1.44115 -51.078896,-1.79465 -7.799171,-1.11943 -15.975685,-1.37897 -18.180779,-15.25458 -1.979008,-3.10831 2.106698,-10.08732 0.865747,-25.12532 -9.500061,-7.84579 -7.877393,-12.80951 -8.65741,-18.39551 -10.90103,-3.38785 1.952735,-17.04648 -0.865732,-26.92026 -10.84713,-5.27862 -25.278269,-9.23016 -20.777905,-20.19046"
     id="path2"
     inkscape:connector-curvature="0"
     style="fill:none;stroke:#1d242d;stroke-width:1.92376554;stroke-miterlimit:4;stroke-dasharray:none;stroke-opacity:0.98823529" />
  <path
     d="m 1.989563,245.25109 22.509627,1.34596"
     id="path4"
     inkscape:connector-curvature="0"
     style="fill:none;stroke:#1d242d;stroke-width:1.92376554;stroke-miterlimit:4;stroke-dasharray:none;stroke-opacity:0.98823529" />
  <path
     d="m 21.463014,242.55917 2.164331,7.62739"
     id="path6"
     inkscape:connector-curvature="0"
     style="fill:none;stroke:#1d242d;stroke-width:1.92376554;stroke-miterlimit:4;stroke-dasharray:none;stroke-opacity:0.98823529" />
  <path
     d="m -6.233014,209.35198 c -2.168149,-4.14719 1.034827,-5.11303 6.92597396,-4.48667 4.89766704,-0.20428 7.36375504,1.10368 6.49307804,4.48667"
     id="path8"
     inkscape:connector-curvature="0"
     style="fill:none;stroke:#1d242d;stroke-width:1.92376554;stroke-miterlimit:4;stroke-dasharray:none;stroke-opacity:0.98823529" />
  <path
     d="m 9.134071,208.90502 c 5.202359,2.75176 8.138287,1.27496 7.575251,-6.73012 -0.477148,-2.39286 0.687534,-4.78584 -2.380828,-7.1787"
     id="path10"
     inkscape:connector-curvature="0"
     style="fill:none;stroke:#1d242d;stroke-width:1.92376554;stroke-miterlimit:4;stroke-dasharray:none;stroke-opacity:0.98823529" />
  <path
     d="M -19.4342,198.80776 5.45597,164.93317 c 5.336531,-6.41094 11.545891,-12.30464 9.090289,-23.33137 -1.191639,-8.45072 -3.858323,-17.77483 -1.298555,-24.00385 3.638321,-4.48851 3.974273,-9.03634 4.761542,-18.844496 C 23.396842,70.415105 32.274753,55.644045 42.249639,45.137407 62.488517,26.946076 86.023282,18.146019 110.85954,13.057771 122.9082,9.9172636 134.95587,8.7270206 147.00451,8.5710976 c 23.30348,0.725179 38.40301,4.0013144 50.21254,8.3004734 14.71044,5.670005 28.47711,12.458031 39.1743,22.882378 15.11519,14.057955 20.67303,28.116927 26.8375,42.174876 6.60108,14.958979 6.43467,26.994415 6.27658,39.033925 1.15382,17.25271 -3.05008,32.91768 -9.95626,47.78321 l -21.85986,45.98927 c -2.13071,5.0091 -4.8129,10.01833 -5.85459,15.02704 l -3.88488,22.43643 c -2.03203,18.0034 0.88026,34.46883 4.54514,50.69962"
     id="path12"
     inkscape:connector-curvature="0"
     style="fill:none;stroke:#1d242d;stroke-width:1.92376554;stroke-miterlimit:4;stroke-dasharray:none;stroke-opacity:0.98823529" />
  <path
     d="m 124.04417,22.80661 c 9.7326,7.563605 4.57013,9.337722 1.8365,12.055758 -3.01177,1.360083 -3.91969,4.355641 -3.67302,8.248768 l -0.91824,13.959426 C 99.272726,70.675458 103.60256,72.40743 98.638637,78.326618"
     id="path14"
     inkscape:connector-curvature="0"
     style="fill:#1d242d;fill-opacity:0.98823529;stroke:#000000;stroke-width:0.99777192" />
  <path
     d="m 110.88218,45.967329 c -5.51549,5.894213 -8.21698,12.517976 -3.97908,20.939123 h -0.91826"
     id="path16"
     inkscape:connector-curvature="0"
     style="fill:#1d242d;fill-opacity:0.98823529;stroke:#000000;stroke-width:0.99777192" />
  <path
     d="m 124.65179,23.121512 -6.73387,-1.90355 c -10.37769,1.714704 -12.64551,4.830431 -18.670811,7.296958 l -15.304366,4.758911 c -2.156395,3.066869 -1.608348,6.133724 0.306088,9.200495"
     id="path18"
     inkscape:connector-curvature="0"
     style="fill:#1d242d;fill-opacity:0.98823529;stroke:#000000;stroke-width:0.99777192" />
  <path
     d="m 82.411918,36.763998 c -6.6737,1.179969 -11.680164,3.800274 -13.467752,9.2005 -13.289395,4.638531 -19.951725,13.092908 -26.017223,21.890933 l 2.142574,4.124328 -5.203441,-0.634512 c -8.740319,8.667301 -8.936042,16.227757 -11.631151,24.111527 l 1.530426,2.53804 -2.754793,1.5863 c -1.880612,12.381846 4.723415,17.226286 7.958249,25.063356 4.950969,5.22111 10.458034,7.56167 16.222645,8.56601 4.795352,1.06814 9.590705,4.03921 14.386058,2.85537 6.883728,0.47397 14.018547,0.94792 9.773977,1.42185 l 7.672863,1.11619"
     id="path20"
     inkscape:connector-curvature="0"
     style="fill:#1d242d;fill-opacity:0.98823529;stroke:#000000;stroke-width:0.99777192" />
  <path
     d="m 51.501358,133.5311 -4.591322,0.63451 c -0.322844,0.98525 -1.962723,2.10703 1.530441,2.6967 4.189588,1.16332 4.020721,2.32654 3.826095,3.48986 1.683506,1.79738 3.366941,2.8896 5.050347,1.74487 6.33658,-1.82329 12.586703,-3.01831 18.517928,-1.90355 l 6.733883,-1.42763"
     id="path22"
     inkscape:connector-curvature="0"
     style="fill:#1d242d;fill-opacity:0.98823529;stroke:#000000;stroke-width:0.99777192" />
  <path
     d="m 126.79808,33.757157 c -3.5946,-0.637091 -7.58112,-0.732607 -12.39657,0.317256 -3.00001,0.873099 -10.5433,1.451913 -20.048749,1.90355 -6.414672,0.445723 -13.045357,10.111806 -15.763006,14.752776 1.670284,2.432189 -1.123819,3.181656 -3.826095,3.96577 -2.24459,0.0705 -4.489293,-0.472212 -6.733883,1.586309 0.779447,1.578375 -3.80619,4.894525 -9.488576,8.56601 l -4.897382,1.110397 c -4.576006,4.026513 -5.956901,9.708909 -8.26431,14.911229 -0.120964,2.425784 -4.420689,3.407784 -6.733882,5.07617 -3.089492,2.16278 -3.196023,5.6506 -3.519921,9.04191"
     id="path24"
     inkscape:connector-curvature="0"
     style="fill:#1d242d;fill-opacity:0.98823529;stroke:#000000;stroke-width:0.99777192" />
  <path
     d="m 125.11241,23.598952 c 0.72772,-1.855197 2.9073,-3.16317 8.11123,-3.331189 3.00256,2.024336 6.4873,3.049196 10.71285,2.538034 1.63413,3.882869 0.20225,7.311774 -0.91825,10.787 -3.93487,8.406219 -14.39291,21.082353 -11.32537,24.904884 l 1.22436,7.931443 c -0.92362,8.795684 -8.28724,12.994379 -7.03995,21.41452 l 0.61217,7.93142"
     id="path26"
     inkscape:connector-curvature="0"
     style="fill:#1d242d;fill-opacity:0.98823529;stroke:#000000;stroke-width:0.99777192" />
  <path
     d="m 98.945252,77.853957 c 13.019878,2.88747 16.256968,4.880201 15.457248,6.503791 4.4494,8.574346 2.8969,12.624636 3.21386,18.083642"
     id="path28"
     inkscape:connector-curvature="0"
     style="fill:#1d242d;fill-opacity:0.98823529;stroke:#000000;stroke-width:0.99777192" />
  <path
     d="m 94.652666,42.320533 c -2.371624,5.90864 -7.132668,13.055338 -5.050362,16.656424 2.235385,6.97533 5.403653,14.390117 3.366941,19.352394"
     id="path30"
     inkscape:connector-curvature="0"
     style="fill:#1d242d;fill-opacity:0.98823529;stroke:#000000;stroke-width:0.99777192" />
  <path
     d="m 66.192194,68.020814 c 1.736936,6.69984 4.192822,8.929056 6.733883,10.628526 l -0.459125,-0.475884"
     id="path32"
     inkscape:connector-curvature="0"
     style="fill:#1d242d;fill-opacity:0.98823529;stroke:#000000;stroke-width:0.99777192" />
  <path
     d="m 84.097589,78.331397 c -1.17145,2.4338 -3.301856,3.87373 -5.248123,5.504426 -4.075804,1.063461 -5.406902,4.971831 -7.607494,7.979071 -2.49313,-2.54493 -4.668147,-5.41951 -4.744288,-10.469046"
     id="path34"
     inkscape:connector-curvature="0"
     style="fill:#1d242d;fill-opacity:0.98823529;stroke:#000000;stroke-width:0.99777192" />
  <path
     d="m 71.082609,91.496424 c 2.296053,2.43249 2.773244,4.11082 3.060882,5.71066 -12.275043,9.084676 -9.139503,10.182566 -9.029537,12.849096"
     id="path36"
     inkscape:connector-curvature="0"
     style="fill:#1d242d;fill-opacity:0.98823529;stroke:#000000;stroke-width:0.99777192" />
  <path
     d="m 59.459294,76.421652 -3.520006,8.883252 c 1.482211,3.53251 2.525758,8.65662 4.744288,9.51774 2.451484,2.80956 3.618517,5.809366 3.213847,9.041806"
     id="path38"
     inkscape:connector-curvature="0"
     style="fill:#1d242d;fill-opacity:0.98823529;stroke:#000000;stroke-width:0.99777192" />
  <path
     d="m 55.784142,84.832654 c -9.037473,-0.19942 -9.223878,5.71733 -11.32539,10.31058 -0.949325,3.45531 -3.30891,4.864246 -2.448634,10.945456 2.582023,4.08513 1.633923,5.88353 1.071287,7.93154"
     id="path40"
     inkscape:connector-curvature="0"
     style="fill:#1d242d;fill-opacity:0.98823529;stroke:#000000;stroke-width:0.99777192" />
  <path
     d="m 32.370898,101.64448 c 2.378078,-2.900976 6.274829,-2.260406 10.254203,-1.42763"
     id="path42"
     inkscape:connector-curvature="0"
     style="fill:#1d242d;fill-opacity:0.98823529;stroke:#000000;stroke-width:0.99777192" />
  <path
     d="m 30.685226,104.49893 c 0.729978,7.61125 3.42456,10.47109 6.580789,12.21423 -0.906411,-0.29764 -1.076574,1.31255 -1.180356,3.09471 1.020622,4.64992 -0.535964,3.42281 -1.421358,3.72644"
     id="path44"
     inkscape:connector-curvature="0"
     style="fill:#1d242d;fill-opacity:0.98823529;stroke:#000000;stroke-width:0.99777192" />
  <path
     d="m 36.810494,116.55674 6.427809,-3.01395"
     id="path46"
     inkscape:connector-curvature="0"
     style="fill:#1d242d;fill-opacity:0.98823529;stroke:#000000;stroke-width:0.99777192" />
  <path
     d="m 54.71589,100.53724 c 2.455601,6.74372 5.910737,9.9651 10.407083,9.51774 5.843601,5.93452 12.128033,4.54995 18.365033,3.96575"
     id="path48"
     inkscape:connector-curvature="0"
     style="fill:#1d242d;fill-opacity:0.98823529;stroke:#000000;stroke-width:0.99777192" />
  <path
     d="m 143.62543,22.491709 6.12174,-1.110396 c 7.86142,5.267535 12.46518,4.265016 17.59962,4.282998 7.40335,-0.269715 10.78735,2.869082 13.77354,6.345233 8.17051,0.948643 14.82511,4.411507 20.96703,8.724583 10.0092,1.493553 14.83493,4.640171 14.23318,9.517743 10.99804,3.860009 11.63312,7.719934 14.08028,11.580349 12.09571,6.080816 12.47596,12.161407 14.38606,18.242124 13.61476,9.632101 15.05641,21.119937 14.99859,32.836397 0.42138,5.62969 -0.52662,15.18653 -2.88094,18.35082 l -7.21988,8.77507 c -3.83472,-0.86164 -6.82728,-0.19584 -9.02954,1.90353 -4.82523,19.80954 -19.33919,28.0316 -34.58769,35.37394 -8.91535,2.10164 -18.9707,1.74052 -32.75108,-6.66246 -4.22429,-3.98132 -9.00033,-7.46222 -10.10034,-14.27634 -5.00175,-2.96672 -11.68897,-4.56044 -11.32537,-11.8973"
     id="path50"
     inkscape:connector-curvature="0"
     style="fill:#1d242d;fill-opacity:0.98823529;stroke:#000000;stroke-width:0.99777192" />
  <path
     d="m 216.32506,50.091574 c -5.07604,-4.2e-5 -8.86156,0.382092 -8.26433,2.062206"
     id="path52"
     inkscape:connector-curvature="0"
     style="fill:#1d242d;fill-opacity:0.98823529;stroke:#000000;stroke-width:0.99777192" />
  <path
     d="m 230.09466,61.834462 c -5.40475,-0.498786 -12.02513,-1.67591 -12.39657,0.634512"
     id="path54"
     inkscape:connector-curvature="0"
     style="fill:#1d242d;fill-opacity:0.98823529;stroke:#000000;stroke-width:0.99777192" />
  <path
     d="m 244.94231,79.916079 c 1.3999,4.873295 0.94534,6.863195 -0.91823,6.662465"
     id="path56"
     inkscape:connector-curvature="0"
     style="fill:#1d242d;fill-opacity:0.98823529;stroke:#000000;stroke-width:0.99777192" />
  <path
     d="m 178.36797,37.881387 c 1.92373,1.088252 3.85931,2.15192 6.58079,1.586309 2.88153,-0.416907 8.13289,-0.832132 8.57655,0.435533 l 1.98333,1.309403 c 6.1925,2.167953 6.35127,4.335823 8.41729,6.503796"
     id="path58"
     inkscape:connector-curvature="0"
     style="fill:#1d242d;fill-opacity:0.98823529;stroke:#000000;stroke-width:0.99777192" />
  <path
     d="m 185.56148,39.618447 c -1.02032,2.961122 -2.44864,4.44157 -4.28514,4.44157"
     id="path60"
     inkscape:connector-curvature="0"
     style="fill:#1d242d;fill-opacity:0.98823529;stroke:#000000;stroke-width:0.99777192" />
  <path
     d="m 82.108109,138.28514 c 0.907636,5.44897 5.426009,8.3462 15.304351,7.45562 1.807107,3.3771 4.96215,5.98573 14.84471,4.75892 9.13196,12.15227 18.98932,8.13399 28.92502,2.37945 l 10.86573,-8.40732"
     id="path62"
     inkscape:connector-curvature="0"
     style="fill:#1d242d;fill-opacity:0.98823529;stroke:#000000;stroke-width:0.99777192" />
  <path
     d="m 140.87151,152.8825 c 1.73732,14.46934 10.11111,19.43874 20.35453,21.73247 2.12815,0.17361 3.43073,1.20293 3.51992,3.48984 -0.58019,14.5232 23.46616,35.42676 35.20021,53.14065"
     id="path64"
     inkscape:connector-curvature="0"
     style="fill:none;stroke:#000000;stroke-width:0.99777192" />
  <path
     d="m 205.91699,177.31299 c 1.84199,24.90184 5.51902,37.1242 9.79475,45.20911"
     id="path66"
     inkscape:connector-curvature="0"
     style="fill:none;stroke:#000000;stroke-width:0.99777192" />
  <path
     d="m 151.7402,144.1566 c 4.81436,-5.37026 13.60201,-7.0557 26.17009,-5.23474 8.00059,3.10181 13.32369,0.65277 19.43622,-0.15863 17.27424,-1.63335 29.23959,-1.69448 37.95415,-0.79316 2.09924,2.08346 4.53711,2.76264 7.03994,3.17262"
     id="path68"
     inkscape:connector-curvature="0"
     style="fill:#1d242d;fill-opacity:0.98823529;stroke:#000000;stroke-width:0.99777192" />
  <path
     d="m 235.6123,137.65533 c -3.02244,3.21833 -7.75459,6.57298 -21.27282,10.62854 -11.3048,2.56709 -25.39292,1.09566 -38.56667,0.95177 -6.27649,-0.87525 -9.80533,2.52148 -12.85523,6.66247"
     id="path70"
     inkscape:connector-curvature="0"
     style="fill:#1d242d;fill-opacity:0.98823529;stroke:#000000;stroke-width:0.99777192" />
  <path
     d="m 43.386595,113.38737 c 8.531957,10.7159 9.618831,7.65137 12.855219,8.56601 l 11.936925,0.31726 c 3.602944,0.84603 4.888763,1.69205 5.66261,2.53803 8.81891,-0.32779 11.645855,-1.75148 13.620631,-3.33119 l 7.652176,-5.39339 c 4.569267,-2.93033 9.444294,-7.02258 12.855234,-5.55206 l 9.64167,-8.40736"
     id="path72"
     inkscape:connector-curvature="0"
     style="fill:#1d242d;fill-opacity:0.98823529;stroke:#000000;stroke-width:0.99777192" />
  <path
     d="m 108.27526,110.37038 c -2.10729,4.8406 -5.0289,10.03285 -2.44863,12.84913 2.86417,4.49429 6.60236,5.8174 10.25419,7.45561"
     id="path74"
     inkscape:connector-curvature="0"
     style="fill:#1d242d;fill-opacity:0.98823529;stroke:#000000;stroke-width:0.99777192" />
  <path
     d="m 104.75691,126.38988 c -0.17572,2.27371 -4.04993,4.54743 -7.346017,6.82103 -2.510869,0.9502 -5.074669,2.3941 -7.193022,-0.31725"
     id="path76"
     inkscape:connector-curvature="0"
     style="fill:#1d242d;fill-opacity:0.98823529;stroke:#000000;stroke-width:0.99777192" />
  <path
     d="m 97.563389,133.2162 -0.153037,12.53218"
     id="path78"
     inkscape:connector-curvature="0"
     style="fill:#1d242d;fill-opacity:0.98823529;stroke:#000000;stroke-width:0.99777192" />
  <path
     d="m 93.741212,117.34908 c -1.785436,0.99949 -3.570972,4.45214 -5.356522,7.93152 l -0.91825,3.80709 -2.601728,3.64843 c 0.390849,3.679 -1.322378,4.63193 -2.448634,6.34522"
     id="path80"
     inkscape:connector-curvature="0"
     style="fill:#1d242d;fill-opacity:0.98823529;stroke:#000000;stroke-width:0.99777192" />
  <path
     d="m 38.946999,123.85033 c 4.329132,3.86194 10.493312,2.65159 15.91687,3.48985 l 16.222672,-0.63453 c 5.92671,-0.0126 12.242701,-0.59076 16.222659,2.22079"
     id="path82"
     inkscape:connector-curvature="0"
     style="fill:#1d242d;fill-opacity:0.98823529;stroke:#000000;stroke-width:0.99777192" />
  <path
     d="m 55.019698,127.50728 c 0.827719,3.83432 0.129229,5.45404 -1.071287,6.34522"
     id="path84"
     inkscape:connector-curvature="0"
     style="fill:#1d242d;fill-opacity:0.98823529;stroke:#000000;stroke-width:0.99777192" />
  <path
     d="m 61.595799,128.61453 c 7.240169,4.14424 15.220075,4.45529 23.262302,4.44157"
     id="path86"
     inkscape:connector-curvature="0"
     style="fill:#1d242d;fill-opacity:0.98823529;stroke:#000000;stroke-width:0.99777192" />
  <path
     d="m 74.610766,105.76871 c 19.374484,4.12048 21.139546,7.12335 20.814166,9.99365"
     id="path88"
     inkscape:connector-curvature="0"
     style="fill:#1d242d;fill-opacity:0.98823529;stroke:#000000;stroke-width:0.99777192" />
  <path
     d="m 74.150144,97.205344 c 6.385479,0.29989 12.220175,-0.0722 11.784046,-8.0901 -1.186539,-8.834901 2.262342,-10.8063 6.733882,-11.262408"
     id="path90"
     inkscape:connector-curvature="0"
     style="fill:#1d242d;fill-opacity:0.98823529;stroke:#000000;stroke-width:0.99777192" />
  <path
     d="m 96.338338,85.310074 c -4.879929,1.49042 -3.131238,10.25574 -1.224367,19.193946 0.27289,5.92101 -1.330514,6.39682 -3.060882,6.50379"
     id="path92"
     inkscape:connector-curvature="0"
     style="fill:#1d242d;fill-opacity:0.98823529;stroke:#000000;stroke-width:0.99777192" />
  <path
     d="m 93.123792,77.691419 h 6.121749"
     id="path94"
     inkscape:connector-curvature="0"
     style="fill:#1d242d;fill-opacity:0.98823529;stroke:#000000;stroke-width:0.99777192" />
  <path
     d="m 96.798959,78.00632 c 6.735431,5.446135 6.962421,11.454404 9.182521,17.290304"
     id="path96"
     inkscape:connector-curvature="0"
     style="fill:#1d242d;fill-opacity:0.98823529;stroke:#000000;stroke-width:0.99777192" />
  <path
     d="m 114.40053,83.877771 c 1.52868,-3.737401 1.48565,-9.548108 7.19304,-7.772857"
     id="path98"
     inkscape:connector-curvature="0"
     style="fill:#1d242d;fill-opacity:0.98823529;stroke:#000000;stroke-width:0.99777192" />
  <path
     d="m 117.76209,101.80701 c 13.17178,-10.363396 21.77264,-14.752756 25.55855,-12.849116 6.31638,1.52374 10.32671,0.65727 14.69183,0.15864 3.06087,-0.92161 6.12174,-2.21115 9.18251,-1.1104 2.72296,0.7257 4.21281,1.70708 4.89738,2.85536 14.21062,-3.98151 9.12733,-1.71378 11.63115,-1.90353 7.57083,5.163 7.74088,3.35231 11.32539,4.75891"
     id="path100"
     inkscape:connector-curvature="0"
     style="fill:#1d242d;fill-opacity:0.98823529;stroke:#000000;stroke-width:0.99777192" />
  <path
     d="m 135.66748,96.565374 c -5.40357,8.294896 -23.43383,15.426256 -12.54946,25.221826 -0.11412,4.74368 0.0645,8.57656 0.7652,10.787 0.97755,3.2623 -0.0597,5.27171 -1.07127,7.29694 -1.09059,3.3955 0.42687,5.24632 2.14256,6.97972"
     id="path102"
     inkscape:connector-curvature="0"
     style="fill:#1d242d;fill-opacity:0.98823529;stroke:#000000;stroke-width:0.99777192" />
  <path
     d="m 123.12293,122.11327 8.57037,-2.53802 c 8.91241,-6.36178 12.44851,-5.16058 15.76302,-3.64853 2.57918,3.53262 4.8671,2.83922 7.03995,0.47589 4.00544,-5.76184 9.35755,-8.73189 14.53894,-12.05576 0.0588,-4.875626 -1.64489,-10.032246 3.36694,-14.117876"
     id="path104"
     inkscape:connector-curvature="0"
     style="fill:#1d242d;fill-opacity:0.98823529;stroke:#000000;stroke-width:0.99777192" />
  <path
     d="m 160.00196,88.479444 c 0.92818,2.53803 -3.69428,5.07616 -9.64168,7.6142 -15.58661,6.034456 -12.64942,7.551396 -15.45724,10.469036"
     id="path106"
     inkscape:connector-curvature="0"
     style="fill:#1d242d;fill-opacity:0.98823529;stroke:#000000;stroke-width:0.99777192" />
  <path
     d="m 109.65713,138.76258 c 11.57725,0.37128 11.22346,4.86447 14.99857,7.93143"
     id="path108"
     inkscape:connector-curvature="0"
     style="fill:#1d242d;fill-opacity:0.98823529;stroke:#000000;stroke-width:0.99777192" />
  <path
     d="m 129.85581,151.13527 c 8.65399,-1.65518 10.62663,-6.54188 7.03996,-14.11787 6.68398,4.69543 10.65111,-1.07016 14.53894,-7.13838 9.95823,1.20852 17.01257,-1.49407 18.82467,-11.2624"
     id="path110"
     inkscape:connector-curvature="0"
     style="fill:#1d242d;fill-opacity:0.98823529;stroke:#000000;stroke-width:0.99777192" />
  <path
     d="m 151.7402,129.88431 c -3.0062,0.0754 -6.07872,-0.26138 -9.48859,-2.69671"
     id="path112"
     inkscape:connector-curvature="0"
     style="fill:#1d242d;fill-opacity:0.98823529;stroke:#000000;stroke-width:0.99777192" />
  <path
     d="m 164.90217,127.82218 c 10.71286,5.78267 18.68453,4.10737 26.17011,1.1104 2.56428,-2.55408 4.07335,-5.4447 1.37734,-9.67641"
     id="path114"
     inkscape:connector-curvature="0"
     style="fill:#1d242d;fill-opacity:0.98823529;stroke:#000000;stroke-width:0.99777192" />
  <path
     d="m 191.06933,128.7669 c 23.23879,4.06572 29.59829,-0.15662 29.69042,-7.45561 l -1.07129,5.71063 c 18.23273,2.909 19.9478,-0.24523 18.82468,-4.44157"
     id="path116"
     inkscape:connector-curvature="0"
     style="fill:#1d242d;fill-opacity:0.98823529;stroke:#000000;stroke-width:0.99777192" />
  <path
     d="m 241.58077,111.47763 c 6.31726,-2.46317 11.95358,-3.58626 14.23316,1.90355 -0.86624,18.07653 -6.42555,15.61418 -10.71284,18.71854"
     id="path118"
     inkscape:connector-curvature="0"
     style="fill:#1d242d;fill-opacity:0.98823529;stroke:#000000;stroke-width:0.99777192" />
  <path
     d="m 246.62798,112.90993 c 4.19959,11.08972 0.77508,12.52102 -2.14256,14.5943"
     id="path120"
     inkscape:connector-curvature="0"
     style="fill:#1d242d;fill-opacity:0.98823529;stroke:#000000;stroke-width:0.99777192" />
  <path
     d="m 239.89508,131.46899 c 3.06089,3.1726 1.63247,5.28765 -4.28513,6.34522"
     id="path122"
     inkscape:connector-curvature="0"
     style="fill:#1d242d;fill-opacity:0.98823529;stroke:#000000;stroke-width:0.99777192" />
  <path
     d="m 169.18496,104.02151 c 6.98732,0.9233 10.54037,3.82445 13.92642,6.82103 9.89648,4.09405 19.79393,3.96932 29.69041,3.48984 7.63081,-0.7797 15.34749,-1.82725 22.19112,-0.15861 3.15878,-0.5316 4.94707,-2.01021 4.43823,-5.07617 -1.69665,-7.11125 -1.5172,-10.549286 0.45913,-10.469036"
     id="path124"
     inkscape:connector-curvature="0"
     style="fill:#1d242d;fill-opacity:0.98823529;stroke:#000000;stroke-width:0.99777192" />
  <path
     d="m 250.30315,102.91425 c 0.52024,-5.076146 1.66363,-10.152316 -10.10032,-15.228156 1.79133,5.66553 -2.01988,7.75762 -5.35653,10.15232 -7.40766,3.033746 -12.66314,6.335256 -9.94744,10.628516"
     id="path126"
     inkscape:connector-curvature="0"
     style="fill:#1d242d;fill-opacity:0.98823529;stroke:#000000;stroke-width:0.99777192" />
  <path
     d="m 213.26731,114.17971 c 0.53441,7.46405 -1.66812,10.38881 -5.20344,11.10394"
     id="path128"
     inkscape:connector-curvature="0"
     style="fill:#1d242d;fill-opacity:0.98823529;stroke:#000000;stroke-width:0.99777192" />
  <path
     d="m 177.45653,52.946023 c 12.41812,-0.615829 23.93462,0.201516 30.30196,9.200495 9.63374,2.134639 12.60826,4.583085 13.31487,7.138373 4.19841,1.891777 7.53477,4.453567 10.10033,7.614201 9.40685,4.140684 8.3042,7.291044 9.18251,10.628522"
     id="path130"
     inkscape:connector-curvature="0"
     style="fill:#1d242d;fill-opacity:0.98823529;stroke:#000000;stroke-width:0.99777192" />
  <path
     d="m 207.60266,61.986839 c 2.82566,5.223862 2.33593,7.870265 1.9896,10.628525"
     id="path132"
     inkscape:connector-curvature="0"
     style="fill:#1d242d;fill-opacity:0.98823529;stroke:#000000;stroke-width:0.99777192" />
  <path
     d="m 221.37227,69.605482 c 0.92845,4.408775 -2.86996,5.00679 -5.35652,6.662461 -4.81976,6.013765 -1.94755,12.640891 -1.98958,19.035491 3.08859,7.434976 1.73995,9.695996 1.8365,13.642466"
     id="path134"
     inkscape:connector-curvature="0"
     style="fill:#1d242d;fill-opacity:0.98823529;stroke:#000000;stroke-width:0.99777192" />
  <path
     d="m 200.71295,65.318728 c 0.91413,8.64311 0.71515,13.660762 -1.22437,13.007581 -3.3981,0.742768 0.44028,7.914665 5.50952,16.180005 1.44018,11.783516 -1.68537,8.777906 -3.21386,10.945466"
     id="path136"
     inkscape:connector-curvature="0"
     style="fill:#1d242d;fill-opacity:0.98823529;stroke:#000000;stroke-width:0.99777192" />
  <path
     d="m 189.69727,76.899092 c -1.89334,-3.923724 2.1858,-6.701172 -9.64166,-12.532188 1.32638,-2.855375 0.4081,-6.768222 -2.75481,-11.738838 -3.75641,-2.473717 -4.22663,-5.596354 -15.91688,-6.503791 -4.97489,0.239162 -3.3494,6.749624 -3.8261,11.262407 -4.86885,8.217487 -22.22444,13.787743 -11.17249,25.380301"
     id="path138"
     inkscape:connector-curvature="0"
     style="fill:#1d242d;fill-opacity:0.98823529;stroke:#000000;stroke-width:0.99777192" />
  <path
     d="m 157.70865,50.883901 c -0.88828,-1.813038 -3.23825,-3.350684 -13.00909,-3.489845"
     id="path140"
     inkscape:connector-curvature="0"
     style="fill:#1d242d;fill-opacity:0.98823529;stroke:#000000;stroke-width:0.99777192" />
  <path
     d="m 181.1219,31.532511 c -7.8872,2.6517 -11.93106,8.367424 -14.53896,15.228183"
     id="path142"
     inkscape:connector-curvature="0"
     style="fill:#1d242d;fill-opacity:0.98823529;stroke:#000000;stroke-width:0.99777192" />
  <path
     d="m 172.25251,37.718863 c -3.01697,0.298798 -4.87171,3.609117 -9.33561,0.158628 -3.06087,-3.740246 -6.12174,-4.512068 -9.18252,-4.917482"
     id="path144"
     inkscape:connector-curvature="0"
     style="fill:#1d242d;fill-opacity:0.98823529;stroke:#000000;stroke-width:0.99777192" />
  <path
     d="m 166.58784,59.924717 c 2.65357,1.615768 0.60841,4.449096 0.31622,6.828138 -2.78823,4.333497 -0.42188,8.666993 0.60204,13.00049 l -0.15304,8.090099"
     id="path146"
     inkscape:connector-curvature="0"
     style="fill:#1d242d;fill-opacity:0.98823529;stroke:#000000;stroke-width:0.99777192" />
  <path
     d="m 167.19548,80.860784 c -1.93853,-1.980846 -3.87706,-0.495745 -5.81558,-6.979703 -1.91149,-3.263423 -4.15979,-4.082282 -6.88696,-1.427638"
     id="path148"
     inkscape:connector-curvature="0"
     style="fill:#1d242d;fill-opacity:0.98823529;stroke:#000000;stroke-width:0.99777192" />
  <path
     d="m 162.60887,65.318728 c -3.85362,0.203267 -2.39082,4.539497 -1.53044,8.407341"
     id="path150"
     inkscape:connector-curvature="0"
     style="fill:#1d242d;fill-opacity:0.98823529;stroke:#000000;stroke-width:0.99777192" />
  <path
     d="m 162.91269,164.62538 c -1.77173,2.77644 -5.36614,4.79712 0.61216,10.787"
     id="path152"
     inkscape:connector-curvature="0"
     style="fill:#1d242d;fill-opacity:0.98823529;stroke:#000000;stroke-width:0.99777192" />
  <path
     d="m 193.69585,177.53647 c -0.25252,-0.0636 -1.49222,-0.28698 -2.7548,-0.49649 -4.25996,-0.70687 -9.44242,-2.67911 -14.99664,-5.70729 -2.1163,-1.15376 -3.25776,-2.09737 -6.13262,-5.06955 -3.68633,-3.81116 -4.80955,-5.57238 -5.64337,-8.84872 l -0.41322,-1.62359 1.88521,-2.00868 c 1.16754,-1.24396 2.57909,-2.35741 3.70771,-2.92455 2.1606,-1.0858 1.49417,-1.06387 20.06246,-0.66141 16.54999,0.35869 21.23951,-0.0284 28.52908,-2.35569 6.67595,-2.13129 12.09862,-4.70548 15.47488,-7.34641 l 1.91696,-1.49935 1.40637,0.92448 c 0.77354,0.50847 1.80474,1.01517 2.29162,1.12603 1.11706,0.25432 1.11569,0.59464 -0.0171,4.06837 -3.63929,11.1598 -10.89613,19.2752 -23.89052,26.71813 -4.64875,2.66266 -9.08501,4.75444 -11.01864,5.19562 -1.60941,0.3672 -9.44781,0.75112 -10.40708,0.50971 z"
     id="path154"
     inkscape:connector-curvature="0"
     style="fill:#1d242d;fill-opacity:0.98823529;stroke:#ffffff;stroke-width:0.31162411;stroke-linecap:round" />
  <path
     d="m 123.00531,157.48417 c -2.91111,-0.64129 -6.67155,-3.11401 -8.9621,-5.893 l -1.42028,-1.72313 -3.2312,0.14895 c -5.21031,0.2402 -8.45435,-0.73505 -10.394345,-3.12487 l -0.79747,-0.98233 0.01838,-6.24151 0.01838,-6.24151 2.139045,-1.42764 c 2.45148,-1.63618 4.86435,-4.12901 4.86435,-5.02557 0,-0.34428 -0.26728,-0.68356 -0.61218,-0.77703 -0.39243,-0.10637 -0.61216,-0.01 -0.61216,0.26922 0,1.39827 -5.781477,5.82836 -8.933089,6.84509 -2.024773,0.6532 -2.775482,0.56399 -3.852368,-0.45789 -0.644748,-0.6118 -0.731361,-0.62178 -1.197994,-0.13805 -0.672374,0.6969 -0.188828,1.29486 1.629022,2.01437 1.360007,0.53835 2.820077,0.42274 4.828878,-0.38237 0.567523,-0.22747 0.579435,-0.0685 0.382514,5.10683 -0.111846,2.93786 -0.285058,5.42489 -0.385036,5.52657 -0.10002,0.10162 -1.47164,0.16114 -3.04813,0.13203 -3.168282,-0.0586 -5.709058,-0.68987 -7.504496,-1.86474 -1.179571,-0.7718 -2.733136,-2.79371 -2.733136,-3.55699 0,-0.22543 0.468571,-1.11598 1.041281,-1.97893 0.697008,-1.05026 1.114116,-2.12296 1.261525,-3.24422 0.154932,-1.17856 0.566897,-2.19255 1.3897,-3.42017 0.643194,-0.95971 1.330998,-2.4588 1.528475,-3.33118 0.496084,-2.19214 3.158879,-7.13889 4.852102,-9.01399 1.355206,-1.50067 7.598462,-5.78926 10.232632,-7.02918 1.2423,-0.58466 3.72063,-0.84888 3.51737,-0.37501 -0.0561,0.1309 -0.68741,1.76195 -1.40284,3.62455 -2.18608,5.69124 -1.80415,7.7112 2.2004,11.63623 1.66686,1.63396 7.59564,4.989 8.16817,4.6223 0.75678,-0.48481 0.008,-1.20782 -2.67983,-2.58711 -3.24541,-1.66553 -5.01969,-3.1146 -6.67418,-5.45069 -1.37158,-1.93665 -1.41421,-3.21903 -0.21937,-6.60181 1.81661,-5.1432 2.17776,-5.6309 7.85172,-10.60111 10.79028,-9.451306 19.5352,-15.143856 25.28414,-16.459346 1.46379,-0.33504 2.00272,-0.31504 3.673,0.13637 3.59039,0.97029 11.11665,0.97211 15.53369,0.004 0.73291,-0.1607 0.6766,-0.0474 -0.59233,1.19195 -1.64991,1.6114 -4.1892,2.9719 -10.7452,5.75697 -7.72,3.27938 -9.77896,4.641696 -11.83206,7.828936 -0.98887,1.5349 -1.13391,1.94255 -0.79495,2.23419 0.56638,0.48723 0.89139,0.21715 2.10483,-1.74905 1.59248,-2.58027 4.04983,-4.11863 11.69095,-7.318986 7.98421,-3.34387 12.05061,-6.00705 12.05061,-7.8919 0,-0.70002 0.18242,-0.79639 2.16325,-1.1427 2.4454,-0.42753 3.87646,-0.1838 6.68507,1.13863 l 1.65539,0.77942 -0.62607,0.7084 c -0.34433,0.38961 -0.94881,1.35082 -1.34325,2.13606 -0.63654,1.26713 -0.72955,1.94886 -0.82693,6.0614 l -0.10971,4.633776 -3.87539,2.50461 c -3.216,2.07846 -4.52936,3.1853 -7.71902,6.50572 -2.11395,2.20067 -4.15842,4.17584 -4.54328,4.38925 -0.97485,0.54077 -2.1368,0.16411 -3.39743,-1.10134 -1.3894,-1.39473 -3.25119,-2.0544 -5.79852,-2.0544 -3.16543,0 -6.21131,1.12228 -9.94058,3.66284 -1.00915,0.68741 -2.93199,1.46533 -5.48245,2.21816 l -3.92821,1.15945 -0.76871,-0.74414 c -1.35235,-1.3092 -2.27202,-3.27411 -2.30584,-4.92623 -0.0596,-2.9081 1.571,-5.12491 7.81947,-10.63158 4.47743,-3.94566 7.85584,-7.396996 7.85584,-8.025386 0,-0.22648 -0.21305,-0.49652 -0.47346,-0.60009 -0.31915,-0.12698 -1.09226,0.49811 -2.37219,1.91797 -1.04433,1.15844 -3.48268,3.490456 -5.41866,5.182106 -7.7397,6.76314 -9.7428,10.14023 -8.43524,14.22048 0.28053,0.87541 1.03425,2.20981 1.6749,2.96518 l 1.16488,1.3736 0.20385,3.96575 c 0.11213,2.18117 0.43821,5.22407 0.72466,6.76203 0.51857,2.78405 0.51777,2.80488 -0.18293,4.75891 -0.38707,1.07941 -0.85373,2.56465 -1.03708,3.30051 l -0.33327,1.33784 -1.40459,-1.0392 c -2.35897,-1.74508 -4.40922,-2.40261 -9.00219,-2.88716 -1.72077,-0.18153 -1.77859,-0.16328 -1.68352,0.53129 0.0838,0.61166 0.30456,0.73089 1.47584,0.79691 4.92913,0.27776 7.51527,1.50007 10.62465,5.02141 2.22853,2.5239 3.15339,3.11958 3.62245,2.33314 0.1117,-0.18742 -0.0613,-0.6514 -0.38457,-1.03107 -1.99203,-2.33994 -2.18745,-3.61175 -1.01924,-6.63565 1.04992,-2.71773 1.16165,-4.4436 0.47766,-7.37953 -0.25134,-1.07901 -0.44815,-3.4993 -0.45433,-5.58742 l -0.0114,-3.68388 4.00003,-1.18048 c 2.99845,-0.88486 4.61738,-1.56905 6.46505,-2.73225 1.35579,-0.85351 3.24022,-1.86302 4.18774,-2.24335 3.33352,-1.33813 7.24575,-1.0849 8.84478,0.57257 1.86719,1.93535 3.80503,2.48155 5.52784,1.55816 0.45943,-0.24624 2.00213,-1.77179 3.4283,-3.39009 2.80752,-3.18592 5.48,-5.38476 10.28751,-8.46464 l 3.0793,-1.9726 2.41806,0.63554 c 3.09203,0.81272 5.50697,2.05481 8.38672,4.3138 4.9011,3.84446 13.71473,5.67863 26.24752,5.46186 l 5.89252,-0.1019 -3e-4,1.76662 c -3.3e-4,3.68386 -1.36991,6.44152 -3.67223,7.39639 -1.27474,0.52869 -1.39147,0.70236 -0.95366,1.4185 0.2154,0.35232 0.50259,0.31707 1.60226,-0.1967 2.74746,-1.2837 3.93645,-3.48569 4.1748,-7.73222 l 0.15385,-2.74069 1.41342,-0.19044 c 6.57836,-0.88632 14.52229,-0.96188 18.0769,-0.17193 3.04901,0.67776 6.14634,-1.0132 6.60148,-3.60403 0.0987,-0.56195 -0.10244,-2.42944 -0.44694,-4.14993 -0.83559,-4.17249 -0.83814,-6.67578 -0.009,-7.278866 0.78628,-0.57084 0.49346,-1.56436 -0.42077,-1.42764 -1.52171,0.22774 -1.83259,3.615516 -0.82399,8.979356 0.56616,3.01079 0.57002,3.2292 0.0755,4.28301 -0.70001,1.49172 -2.86701,2.30773 -4.76712,1.79506 -1.65823,-0.44738 -13.31977,-0.40244 -16.87341,0.065 -4.51133,0.59335 -14.27826,0.80081 -18.51204,0.39323 -8.28068,-0.79699 -13.46383,-2.36341 -17.02628,-5.14583 -3.1679,-2.47394 -5.49257,-3.64 -8.96339,-4.49602 l -2.84418,-0.70152 0.10842,-3.965756 c 0.0946,-3.46396 0.2046,-4.16203 0.8688,-5.51662 0.41822,-0.85299 1.03639,-1.72781 1.37373,-1.94408 0.33733,-0.21628 2.64004,-0.92277 5.1172,-1.57005 5.1806,-1.35378 5.5198,-1.33185 8.48179,0.54735 3.17651,2.01538 4.32619,2.44061 8.97592,3.32 0.69242,0.13105 0.84172,0.0448 0.84172,-0.48527 0,-0.55375 -0.40356,-0.73977 -2.86614,-1.32129 -2.05778,-0.48589 -3.54686,-1.08551 -5.27998,-2.12591 -3.80697,-2.28539 -3.88518,-2.32155 -5.03056,-2.32369 -0.5975,-0.001 -3.00226,0.48533 -5.34398,1.08083 l -4.25761,1.08287 -0.84219,-0.73454 c -0.4632,-0.404 -1.47438,-0.98479 -2.24714,-1.2907 l -1.40489,-0.55613 0.0476,-4.154502 c 0.0422,-3.679811 -0.0466,-4.480687 -0.77741,-7.009766 -1.05355,-3.646398 -1.14665,-6.490293 -0.27019,-8.248769 0.89987,-1.805315 1.77545,-5.596984 1.52818,-6.618073 -0.1137,-0.469521 -0.49344,-1.150831 -0.84389,-1.514086 -0.56658,-0.587294 -0.68806,-0.6077 -1.09666,-0.184192 -0.40861,0.423507 -0.38483,0.580944 0.21461,1.421331 l 0.67409,0.945054 -0.62837,2.181871 c -0.34559,1.199998 -0.90501,2.967121 -1.24309,3.926766 -0.33811,0.9597 -0.61925,2.322461 -0.62474,3.028256 -0.009,1.101047 1.12117,6.310992 1.71822,7.923608 0.37033,1.00029 -2.28135,-0.718592 -3.07852,-1.995576 -1.00484,-1.609673 -2.20765,-4.906018 -2.63141,-7.211422 -0.42378,-2.305404 -0.0836,-3.534344 1.06305,-3.832693 0.48851,-0.127121 0.77603,-0.424223 0.77603,-0.801998 0,-0.868053 -1.29884,-0.77635 -2.35504,0.166266 -0.79097,0.705866 -0.85868,0.943906 -0.85727,3.013947 9.8e-4,1.236157 -0.0128,2.247604 -0.0309,2.247604 -0.0178,0 -0.47331,-0.159315 -1.01228,-0.354047 -0.78581,-0.283927 -1.24211,-0.250262 -2.30379,0.170037 -0.72817,0.288243 -1.55092,0.784001 -1.82827,1.101748 -0.44489,0.509549 -0.45059,0.623874 -0.0483,0.969946 0.3701,0.318378 0.62563,0.267151 1.35579,-0.271761 0.50314,-0.371342 1.37441,-0.664099 1.97646,-0.664099 0.87693,0 1.27061,0.234802 2.12168,1.265422 0.57477,0.695984 1.23329,1.85671 1.46341,2.579366 0.64393,2.022402 1.89825,3.572943 3.7815,4.674509 l 1.71605,1.003822 -10e-4,2.931955 -0.001,2.931966 -2.52323,0.0391 c -1.65459,0.0256 -3.20816,0.27127 -4.5128,0.71343 -1.22593,0.41546 -3.64644,0.81924 -6.30647,1.05197 -3.8501,0.33689 -4.64443,0.316 -7.34602,-0.19315 -4.95166,-0.93323 -5.99356,-0.95652 -8.3044,-0.18562 -2.32976,0.7772 -6.50376,2.88727 -9.04698,4.57354 l -1.6936,1.12288 -0.24903,-2.76802 c -0.64482,-7.167422 -0.29452,-8.940333 2.92671,-14.812695 3.73799,-6.813325 4.17438,-8.947052 3.08517,-15.080874 -1.07167,-6.035503 -1.07167,-5.69145 1.7e-4,-8.360207 l 0.97465,-2.426597 h 23.20547 v 3.076218 c 0,2.826614 -0.0671,3.176667 -0.82785,4.314393 -0.45531,0.681002 -2.68992,2.901584 -4.96569,4.934554 -2.27576,2.032955 -4.85925,4.455894 -5.7409,5.384144 -3.71907,3.915693 -4.18224,8.16305 -1.35451,12.421465 1.33952,2.017006 1.99928,2.540165 2.52136,1.999136 0.27884,-0.289043 0.0718,-0.765529 -0.89993,-2.07105 -2.40287,-3.228286 -2.78999,-5.547103 -1.40646,-8.424818 0.79306,-1.649603 3.17132,-4.116914 9.30708,-9.65558 1.43097,-1.291729 3.04941,-2.955838 3.59646,-3.698102 0.90768,-1.231378 0.99504,-1.548718 0.99818,-3.624954 0.001,-1.25149 0.0888,-2.810875 0.19309,-3.465163 l 0.18972,-1.189738 h 15.26124 l 1.43556,1.131013 c 2.58361,2.035409 4.84975,7.011294 4.57485,10.045254 -0.0833,0.920051 -0.24653,1.90477 -0.36259,2.188276 -0.16469,0.402275 0.37351,0.855145 2.4508,2.062221 2.9366,1.706379 5.1262,3.544309 5.77725,4.849128 0.23332,0.467699 0.56439,1.898561 0.73568,3.179723 0.17128,1.281161 0.44858,2.471586 0.6162,2.645295 0.48678,0.504546 1.36246,-3.64e-4 1.11569,-0.643482 -0.11669,-0.303885 -0.33947,-1.463182 -0.49522,-2.576213 -0.15573,-1.113045 -0.50395,-2.505938 -0.7738,-3.095418 -0.69238,-1.512349 -3.33195,-3.909597 -5.77932,-5.24874 l -2.0818,-1.139142 0.0664,-2.353562 c 0.069,-2.446499 -0.55164,-4.802597 -1.87914,-7.134617 l -0.60018,-1.054432 1.63715,-0.04233 c 9.51829,-0.245594 16.53137,0.959 21.07388,3.619685 2.62976,1.540379 5.4557,4.505355 6.46054,6.778257 1.01043,2.285502 1.55073,5.334487 1.292,7.29096 -0.16599,1.255247 -0.12253,1.388927 0.45135,1.388927 0.52271,0 0.67385,-0.266547 0.85452,-1.506966 0.25358,-1.740914 -0.26714,-5.378678 -0.97221,-6.79188 -0.26359,-0.528344 -0.4215,-1.020501 -0.35089,-1.093648 0.26658,-0.276316 5.5347,1.509728 7.53898,2.555918 2.27673,1.188407 3.45583,2.402616 4.00358,4.122913 0.48791,1.532363 -0.0608,2.607005 -1.98684,3.890395 -3.58863,2.391446 -3.75965,2.560067 -4.72627,4.65947 -1.24642,2.707062 -1.43409,4.972031 -0.94526,11.408693 0.3225,4.24653 0.55256,5.60955 1.34637,7.97693 0.88572,2.641426 0.9576,3.171186 0.95921,7.070716 10e-4,4.03372 0.0281,4.2115 0.61393,4.12433 0.58029,-0.0862 0.61081,-0.32238 0.5861,-4.53268 -0.0237,-4.04034 -0.10315,-4.656626 -0.87842,-6.821036 -0.97093,-2.71052 -1.44999,-6.69385 -1.50702,-12.53218 -0.0366,-3.752558 -0.0218,-3.838796 1.03414,-6.017121 1.00337,-2.069845 1.21477,-2.293421 3.33412,-3.52592 2.49126,-1.44876 3.28843,-2.308446 3.58019,-3.861229 0.10657,-0.567111 0.29849,-1.031068 0.42651,-1.031068 0.56031,0 4.911,3.224937 6.58607,4.881939 1.0417,1.030452 2.89624,2.389105 4.28515,3.1394 4.01592,2.169383 5.62634,4.21058 6.09283,7.722779 0.51037,3.84224 0.53552,4.56012 0.197,5.62328 -0.55196,1.7335 -3.34528,4.13399 -6.74898,5.79993 -4.8319,2.364926 -5.48549,2.756636 -7.0765,4.241256 -1.7675,1.64938 -2.45784,3.3009 -2.08866,4.99733 0.29707,1.36525 0.64138,1.74843 1.32639,1.47599 0.34846,-0.13861 0.45406,-0.38478 0.31062,-0.72425 -0.11954,-0.28284 -0.27555,-0.94255 -0.34681,-1.46603 -0.28373,-2.08506 2.42503,-4.5136 7.64436,-6.853336 3.09016,-1.38536 5.75657,-3.35444 7.38286,-5.45222 0.77061,-0.99403 0.95308,-1.55349 1.05668,-3.23986 l 0.12524,-2.03834 1.26593,0.66716 c 2.44648,1.28929 4.81731,3.16905 5.85458,4.6421 1.29679,1.84148 1.74644,3.87637 1.48967,6.740676 -0.18637,2.07827 -0.16193,2.20272 0.43249,2.20272 0.56086,0 0.65363,-0.2613 0.84523,-2.38059 0.42589,-4.710756 -1.05208,-7.805656 -5.08222,-10.642746 -0.963,-0.67783 -2.52282,-1.58631 -3.4662,-2.01874 -1.13491,-0.52022 -1.71528,-0.97303 -1.71528,-1.33815 0,-0.30349 -0.23287,-1.41777 -0.51752,-2.476159 -0.42327,-1.574017 -0.8273,-2.243638 -2.21911,-3.678186 -0.987,-1.017249 -2.66562,-2.27087 -3.9972,-2.985088 -1.26259,-0.677204 -3.18299,-2.085991 -4.26759,-3.130668 -2.0338,-1.95901 -5.62429,-4.549967 -7.30526,-5.271711 -0.52593,-0.225805 -1.03561,-0.669621 -1.13254,-0.986261 -0.57611,-1.881504 -4.9199,-4.411507 -10.06014,-5.859257 -2.94572,-0.829749 -3.07508,-0.905657 -5.07781,-2.981543 -4.72743,-4.900005 -11.43807,-7.033844 -22.56746,-7.17606 -5.4209,-0.06924 -5.94141,-0.126421 -6.73386,-0.738928 l -0.85888,-0.663861 15.79733,-0.0098 15.79731,-0.0098 -0.14628,0.79314 c -0.11114,0.602515 -0.0171,0.793155 0.39132,0.793155 0.29566,0 0.69051,-0.216078 0.8774,-0.480173 0.37456,-0.529242 3.20347,-1.101454 5.45973,-1.1043 2.62259,-0.0028 8.57117,2.791478 11.24502,5.283289 1.48986,1.388422 3.59715,4.427961 3.2903,4.746016 -0.0912,0.0946 -1.86512,0.02817 -3.94194,-0.147542 -4.49947,-0.38083 -6.55658,-0.122075 -7.37698,0.928096 -0.55892,0.715424 -0.55963,0.749692 -0.0198,0.950016 0.30799,0.114227 0.83169,0.01261 1.16371,-0.224935 0.74089,-0.531064 4.48223,-0.571302 8.6674,-0.0932 2.48382,0.283731 3.29922,0.527013 4.96177,1.480463 3.82382,2.192957 7.01671,5.129692 8.72149,8.021829 1.18487,2.010111 3.7719,9.719589 4.03543,12.025288 0.15447,1.35185 0.093,1.60794 -0.4741,1.97507 -0.83003,0.53728 -0.86344,1.53815 -0.0513,1.53815 0.33015,0 0.89286,-0.32122 1.25054,-0.71383 0.55121,-0.60512 0.63263,-1.01192 0.53463,-2.671092 l -0.11555,-1.957188 1.41831,1.230874 c 5.93945,5.154276 9.46467,11.427986 10.89613,19.391002 0.77777,4.32637 0.78123,17.95463 0.006,21.9976 -0.80377,4.19016 -1.58296,5.65721 -5.55116,10.45178 l -3.56118,4.3026 -1.591,-0.1794 c -1.53711,-0.17331 -2.99776,0.0463 -5.57008,0.83729 -1.08441,0.33349 -1.43165,0.29011 -3.03813,-0.37945 -0.99758,-0.41579 -1.86022,-0.90433 -1.91706,-1.08561 -0.0569,-0.18129 0.53646,-0.50701 1.31835,-0.72374 1.74525,-0.48384 3.48376,-2.16675 3.48376,-3.37223 0,-0.95966 -0.65129,-2.40536 -1.35716,-3.01252 -0.37141,-0.31948 -0.5777,-0.32768 -0.91628,-0.0364 -0.37222,0.32019 -0.32521,0.54652 0.31717,1.52768 0.93012,1.42063 0.85348,1.92285 -0.43036,2.81953 -1.78417,1.2462 -4.35404,1.64207 -8.48678,1.30735 -8.43925,-0.68345 -30.91742,0.45551 -39.01846,1.97699 -5.05213,0.94893 -8.26098,0.89718 -12.39657,-0.19986 -3.18465,-0.84481 -3.73161,-0.8936 -10.10034,-0.90107 -5.5635,-0.006 -7.13285,0.0949 -9.02952,0.58352 -3.62352,0.93351 -6.62538,2.56109 -8.62321,4.67532 -0.95494,1.01061 -3.9336,3.54014 -6.61931,5.62105 -5.13083,3.97561 -9.73331,6.60447 -13.98913,7.99004 -2.11162,0.68755 -6.77475,1.09699 -8.40477,0.7379 h -1e-5 z m 10.82556,-6.83465 c 2.42806,-0.97374 4.51643,-3.07673 5.06036,-5.09577 0.38441,-1.42673 0.326,-3.43673 -0.16505,-5.68048 l -0.18613,-0.85046 2.26028,0.17717 c 2.00516,0.15719 2.43187,0.0869 3.7812,-0.62251 1.67538,-0.88095 4.307,-3.60587 5.9621,-6.17356 l 1.06834,-1.65742 3.36694,-0.014 c 3.69417,-0.015 6.73348,-0.55625 8.72533,-1.55371 l 1.2908,-0.64644 1.26074,0.66668 c 1.87011,0.98893 5.25519,2.13363 7.85329,2.65577 4.36079,0.87631 9.27983,0.41245 14.62028,-1.37867 l 2.83566,-0.95111 4.20429,0.62871 c 5.68689,0.85044 14.64969,0.9366 17.60158,0.1692 2.0769,-0.53993 4.25789,-1.52191 5.12327,-2.30673 0.38328,-0.34761 1.03512,-0.33713 3.82609,0.0615 4.4447,0.63485 12.10746,0.72735 13.89603,0.16774 0.74207,-0.23227 1.74065,-0.82804 2.21911,-1.32391 0.74784,-0.77514 0.8699,-1.14992 0.8699,-2.671 0,-1.65142 -0.0485,-1.76936 -0.72762,-1.76936 -0.67909,0 -0.71739,0.094 -0.5764,1.39056 0.18413,1.69317 -0.4492,2.50055 -2.42942,3.09694 -1.64578,0.49564 -8.52266,0.42733 -12.37109,-0.12292 l -2.79019,-0.39888 0.40453,-1.58631 c 0.60651,-2.37834 0.55833,-3.64843 -0.13835,-3.64843 -0.4466,0 -0.64396,0.38217 -0.91216,1.76641 -0.40343,2.08223 -1.22505,3.38877 -2.75951,4.38846 -2.5879,1.68585 -7.66923,2.5878 -12.74645,2.26243 -2.83899,-0.18195 -11.22247,-1.1172 -11.40574,-1.27252 -0.0446,-0.0377 0.28741,-0.75173 0.73767,-1.5867 0.63005,-1.16841 0.81487,-1.93474 0.80223,-3.32601 -0.018,-1.97292 -0.99434,-4.45286 -1.75309,-4.45286 -0.75876,0 -0.81314,0.56706 -0.1736,1.80391 0.91093,1.76163 0.82145,3.77315 -0.2451,5.51031 -1.10715,1.80328 -1.33737,1.97852 -3.69104,2.81078 -7.36914,2.60557 -14.39978,2.35995 -20.82886,-0.72748 l -1.52465,-0.73216 1.07834,-1.08074 c 2.17922,-2.18412 4.19007,-7.86925 2.87574,-8.13053 -0.32672,-0.0649 -0.66196,0.57244 -1.16243,2.21022 -1.24289,4.06726 -3.45662,6.42344 -7.43333,7.91163 -1.78947,0.66966 -2.42914,0.73088 -7.19117,0.68816 -5.74807,-0.0516 -8.07782,-0.47295 -10.39434,-1.87997 -1.33952,-0.81365 -1.97881,-0.80883 -1.97881,0.015 0,1.00108 4.87101,3.02237 7.28339,3.02237 h 1.03306 l -1.14841,1.66565 c -2.70247,3.91934 -5.34546,5.94865 -7.74773,5.94865 -0.79048,0 -1.92913,-0.38729 -3.27257,-1.11303 -1.13312,-0.6122 -2.11473,-1.05656 -2.18138,-0.98756 -0.0667,0.069 0.22966,1.02029 0.65838,2.11382 1.18144,3.01374 1.5464,5.26562 1.11667,6.8894 -0.63217,2.38841 -3.00894,4.24715 -6.64402,5.19582 -1.02758,0.2682 -1.34081,0.49907 -1.34081,0.98831 0,0.55971 0.14134,0.61511 1.14785,0.44962 0.63128,-0.10386 1.96155,-0.51512 2.9562,-0.91399 z m 114.20447,-19.2874 c 1.46712,-0.69922 3.17515,-1.68809 3.7956,-2.19743 2.26214,-1.85711 3.70771,-6.00085 4.32465,-12.39708 0.37858,-3.92512 0.2073,-4.56651 -1.67756,-6.28184 -2.1308,-1.93919 -5.55536,-2.11655 -10.50213,-0.54374 -2.35338,0.74824 -2.73403,0.96345 -2.60554,1.47293 0.19011,0.75353 0.21278,0.75218 2.966,-0.1794 5.2936,-1.79109 9.00091,-1.19287 10.38945,1.67652 0.6977,1.44165 -0.0546,7.68214 -1.36286,11.3071 -0.98818,2.73743 -2.40229,4.16263 -5.71541,5.75991 -2.56792,1.23798 -3.2121,1.83711 -2.62721,2.44325 0.27073,0.28061 0.01,0.37246 3.01461,-1.0598 z m -1.08041,-4.94888 c 1.60325,-1.50138 2.14846,-2.83892 2.13954,-5.24906 -0.016,-4.27862 -1.93804,-9.81454 -2.86692,-8.25679 -0.0856,0.14369 0.18971,1.38883 0.61196,2.7671 0.95156,3.10587 1.24094,6.00137 0.75306,7.53373 -0.33617,1.05585 -1.71253,2.60935 -2.94532,3.32438 -0.35406,0.20537 -0.44798,0.50756 -0.30393,0.97798 0.25177,0.8222 0.81408,0.58594 2.61161,-1.09729 z m -41.77631,-22.81838 c 0.54417,-0.74131 0.60921,-1.29812 0.58553,-5.012476 l -0.0266,-4.17857 -2.65386,-4.60024 c -3.98233,-6.903121 -5.10291,-10.469056 -3.36999,-10.725036 1.15674,-0.170948 1.67685,-1.153578 1.99301,-3.765755 0.20289,-1.676414 0.19417,-3.620903 -0.0269,-5.988985 -0.18001,-1.928638 -0.32727,-3.677583 -0.32727,-3.886428 0,-0.208846 -0.26252,-0.379752 -0.58338,-0.379752 -0.55824,0 -0.57612,0.243366 -0.4151,5.646235 0.17489,5.868396 -9.7e-4,7.044104 -1.05424,7.044104 -0.27542,0 -0.75267,0.236275 -1.0605,0.525065 -1.47536,1.383952 -0.13336,5.797701 3.82315,12.573842 l 2.36886,4.05687 0.17384,2.92273 c 0.22576,3.796016 -0.20009,5.235836 -1.77595,6.004926 -1.35981,0.66366 -1.64744,1.08113 -1.16223,1.68717 0.31552,0.39407 0.54517,0.34969 1.63334,-0.31547 0.69639,-0.4257 1.54161,-1.14929 1.87835,-1.60794 z"
     id="path156"
     inkscape:connector-curvature="0"
     style="fill:#1d242d;fill-opacity:0.98823529;stroke:#ffffff;stroke-width:0.31162411;stroke-linecap:round" />
  <path
     d="m 134.12881,50.30489 c 0.0972,-0.262427 1.88796,-3.3061 3.97956,-6.763756 4.56641,-7.548861 5.4563,-9.326649 6.49162,-12.969992 0.77107,-2.713159 0.8826,-5.500473 0.2847,-7.115429 -0.15689,-0.423747 0.21589,-0.574932 2.21078,-0.896603 l 2.39954,-0.386886 2.79547,1.452726 c 4.20204,2.183806 5.44768,2.446093 12.94833,2.727371 6.36255,0.238544 7.99736,0.48505 9.94744,1.499958 1.48135,0.770813 4.13364,2.929334 4.11492,3.348862 -0.01,0.212462 -0.9394,0.841578 -2.06652,1.397967 -1.12713,0.556404 -2.97542,1.841377 -4.10736,2.855375 -3.74623,3.355869 -7.06142,4.070396 -9.37883,2.021477 -4.10598,-3.630239 -5.55713,-4.454872 -8.69935,-4.943286 -1.31845,-0.204921 -1.44184,-0.168635 -1.44184,0.423929 0,0.526312 0.30187,0.713083 1.60697,0.994221 2.397,0.516347 4.4693,1.647248 6.35128,3.465976 2.13374,2.062108 3.72877,2.726263 5.97121,2.486317 0.92449,-0.09895 1.68087,-0.115909 1.68087,-0.0377 0,0.07807 -0.36562,0.74232 -0.81249,1.476076 -0.44687,0.73377 -1.13744,2.095647 -1.53454,3.026448 l -0.7221,1.692355 -1.44979,-0.227122 c -4.26779,-0.668631 -5.97954,-0.158941 -6.94889,2.069229 l -0.53563,1.231168 -0.96173,-0.580384 c -1.26318,-0.762306 -4.7932,-1.465929 -8.69034,-1.732281 -3.01902,-0.206322 -3.13742,-0.19005 -3.13742,0.431147 0,0.754485 0.52338,0.874514 4.89738,1.123108 3.23022,0.18359 5.69101,0.823988 6.77995,1.764376 0.71653,0.618786 0.67786,0.621071 -10.71482,0.631597 -10.05427,0.0084 -11.41261,-0.04709 -11.25776,-0.466592 z"
     id="path158"
     inkscape:connector-curvature="0"
     style="fill:#1d242d;fill-opacity:0.98823529;stroke:#ffffff;stroke-width:0.31162411;stroke-linecap:round" />
  <path
     d="m 174.83001,49.746188 c -1.68283,-1.344638 -3.56942,-2.335677 -5.69297,-2.99047 -0.79965,-0.246589 -1.4539,-0.590335 -1.4539,-0.763875 0,-0.472386 1.48614,-3.430425 2.53881,-5.053299 1.61207,-2.485322 5.10201,-5.776482 7.52448,-7.09592 2.12943,-1.159871 2.35348,-1.214714 4.12883,-1.011713 5.43816,0.621856 10.94707,2.804064 17.36245,6.877908 1.61481,1.025378 3.17013,1.864237 3.4564,1.864237 2.45658,0 8.35153,2.036726 10.62858,3.672088 1.03591,0.744106 2.41581,2.935031 2.41581,3.835754 0,0.190023 -1.25426,0.408385 -2.98434,0.519529 -2.82399,0.181445 -4.97391,0.667644 -4.97391,1.12493 0,0.113806 -7.07984,0.206897 -15.73263,0.206897 h -15.73265 l -1.48436,-1.185967 z m 29.27684,-1.986438 c 0.31684,-0.395729 0.13336,-0.776069 -1.09158,-2.262242 -1.82179,-2.210322 -3.37174,-3.393445 -5.5544,-4.23983 -0.92644,-0.359275 -2.32377,-1.113438 -3.10516,-1.675896 -1.37236,-0.98783 -1.52504,-1.022322 -4.48154,-1.013801 -1.68342,0.0056 -4.16273,0.07176 -5.50952,0.148663 -2.16451,0.123477 -2.65032,0.04303 -4.18635,-0.694582 -1.728,-0.829721 -2.08838,-0.766301 -2.08838,0.367501 0,0.405064 3.06205,1.569448 4.81946,1.832646 l 1.60562,0.240465 -0.61752,1.050157 c -0.33963,0.577595 -1.09657,1.257686 -1.68214,1.511227 -0.70888,0.306996 -1.06462,0.671653 -1.06462,1.091293 0,0.719684 0.22607,0.765852 1.434,0.292827 1.19722,-0.468849 2.37484,-1.705763 3.00657,-3.157788 0.50256,-1.15519 0.63357,-1.240825 2.20922,-1.444906 2.51381,-0.325539 4.4929,0.02397 5.97669,1.055554 0.71519,0.497201 2.2645,1.31599 3.44298,1.819429 1.67422,0.715297 2.56077,1.364652 4.05563,2.970666 1.05217,1.130416 1.91304,2.174378 1.91304,2.319832 0,0.422358 0.50361,0.306548 0.91811,-0.211145 z"
     id="path160"
     inkscape:connector-curvature="0"
     style="fill:#1d242d;fill-opacity:0.98823529;stroke:#ffffff;stroke-width:0.31162411;stroke-linecap:round" />
  <path
     d="m 158.50249,50.132205 c 0,-0.795032 0.7068,-2.262741 1.36049,-2.825003 0.61732,-0.531021 3.06519,-0.475379 6.16938,0.140226 3.23454,0.641463 4.9058,1.249458 6.55011,2.38291 l 1.37737,0.949455 -7.72863,0.0011 c -7.5874,0.0011 -7.72862,-0.01121 -7.72862,-0.648935 z"
     id="path162"
     inkscape:connector-curvature="0"
     style="fill:#1d242d;fill-opacity:0.98823529;stroke:#ffffff;stroke-width:0.31162411;stroke-linecap:round" />
  <path
     d="m 118.1247,96.890444 c -0.004,-4.32547 -0.41865,-6.46661 -1.97743,-10.24152 l -1.10628,-2.678706 0.98906,-2.974226 c 1.26631,-3.807802 2.12297,-4.679891 4.30259,-4.380225 1.31463,0.180759 1.46967,0.137493 1.46967,-0.409422 0,-0.336331 -0.21787,-0.698157 -0.48415,-0.804072 -0.92796,-0.369086 -2.94749,-0.188804 -3.8116,0.340227 -0.92337,0.565374 -2.11395,2.60273 -2.74765,4.701938 -0.21068,0.69796 -0.43543,1.365156 -0.49945,1.482579 -0.064,0.11745 -0.70017,-0.121375 -1.41371,-0.530839 -1.58277,-0.908194 -5.20942,-2.116867 -9.10244,-3.033653 -1.59933,-0.376597 -3.01648,-0.788837 -3.14937,-0.916042 -0.49472,-0.473642 2.91612,-5.858234 5.13473,-8.106147 2.38102,-2.412385 7.24282,-6.09249 12.55338,-9.502502 1.8518,-1.189023 3.42438,-2.214289 3.49455,-2.278284 0.14176,-0.129363 0.45606,-4.477941 0.91838,-12.706911 0.33595,-5.979329 0.63988,-7.172305 2.13267,-8.370971 4.68892,-3.765039 5.54479,-4.768062 5.54479,-6.497497 0,-1.322396 -0.81538,-2.777056 -2.64582,-4.720326 -1.84327,-1.956879 -1.84994,-2.262334 -0.071,-3.215882 1.30366,-0.698732 5.37378,-1.251898 5.89732,-0.801508 1.15116,0.990283 4.42401,1.978407 7.14334,2.156685 2.99991,0.196695 2.85084,0.102454 3.27255,2.068513 0.27871,1.299438 -0.66352,5.501175 -1.8121,8.080751 -0.55923,1.255976 -2.84123,5.31743 -5.07113,9.025371 -5.95994,9.910654 -7.0915,12.742468 -6.27512,15.701558 0.76653,2.779186 1.44007,7.802317 1.22564,9.139331 -0.34164,2.129271 -1.34001,4.583394 -3.40291,8.365084 -2.99051,5.482085 -3.25854,6.314959 -3.28696,10.212056 -0.0128,1.83214 0.0809,4.61609 0.20924,6.18655 l 0.2335,2.85537 -2.52911,1.79821 c -1.39107,0.98899 -3.11448,2.25055 -3.83001,2.80346 l -1.30091,1.005286 -0.004,-3.755276 z"
     id="path164"
     inkscape:connector-curvature="0"
     style="fill:#1d242d;fill-opacity:0.98823529;stroke:#ffffff;stroke-width:0.31162411;stroke-linecap:round" />
  <path
     d="m 83.960382,40.451419 c -0.818729,-1.295163 -0.913249,-3.917108 -0.193629,-5.370955 l 0.599752,-1.211771 7.774693,-2.428419 c 6.363223,-1.987559 8.598492,-2.847651 12.312272,-4.737789 4.96941,-2.529092 7.67825,-3.580763 11.12251,-4.318051 2.21492,-0.474202 2.31575,-0.467152 5.33654,0.372435 2.92552,0.81314 3.1826,0.955258 5.15974,2.852641 2.19049,2.102137 3.2362,3.839182 2.92434,4.857651 -0.10272,0.335588 -0.56411,1.028825 -1.02522,1.540393 l -0.8384,0.930282 -4.12707,-0.163239 c -3.5406,-0.140015 -4.80231,-0.04401 -8.8789,0.676236 -2.89798,0.51196 -7.99979,1.066402 -13.07671,1.421331 l -8.325378,0.581842 -2.219799,1.147776 c -1.220933,0.63126 -3.074103,1.943368 -4.118234,2.915823 l -1.89845,1.768132 -0.527373,-0.834262 z"
     id="path166"
     inkscape:connector-curvature="0"
     style="fill:#1d242d;fill-opacity:0.98823529;stroke:#ffffff;stroke-width:0.31162411;stroke-linecap:round" />
  <path
     d="m 73.434728,123.61669 c -0.258643,-0.27662 -1.291703,-0.81073 -2.295655,-1.18689 -1.546327,-0.57936 -2.831547,-0.72186 -8.406232,-0.93206 -9.726246,-0.36675 -10.289467,-0.44536 -12.108428,-1.69134 -0.851926,-0.58332 -2.642492,-2.27606 -3.979075,-3.76169 l -2.430126,-2.70117 v -2.17375 c 0,-1.72914 -0.172158,-2.53712 -0.841725,-3.95034 -1.115684,-2.35467 -1.133322,-4.76654 -0.05428,-7.423906 0.425115,-1.04691 1.320512,-3.30721 1.989779,-5.02273 0.669282,-1.71552 1.552297,-3.80537 1.962353,-4.64404 1.362059,-2.78598 3.982209,-4.45132 7.003382,-4.45132 h 1.065018 l 1.138609,3.09327 c 1.405871,3.81928 2.026055,4.94096 3.692321,6.67862 1.727119,1.80106 2.881614,4.30566 3.091742,6.707676 0.144446,1.65121 0.254112,1.92152 0.779661,1.92152 0.564489,0 0.599368,-0.1574 0.453184,-2.04506 -0.20537,-2.651886 -1.591792,-5.747506 -3.381546,-7.550496 -1.57297,-1.58457 -1.950783,-2.28051 -3.389866,-6.24383 l -1.064533,-2.93175 1.664713,-4.172602 c 0.915571,-2.294949 1.597862,-4.353091 1.516121,-4.573836 -0.408815,-1.104187 -1.102447,-0.151648 -2.53566,3.482332 -1.71166,4.33979 -1.115,3.822532 -5.33458,4.625036 -2.15658,0.41019 -3.958885,1.61943 -5.118666,3.43429 -0.489844,0.76651 -1.609617,3.21132 -2.488529,5.43291 -2.499998,6.31953 -1.981644,5.74376 -4.996163,5.54883 -3.557265,-0.23004 -5.059965,0.0594 -6.442997,1.240916 -1.019254,0.87079 -1.099911,1.03909 -0.697977,1.45577 0.40192,0.4167 0.584208,0.36854 1.576205,-0.41574 1.258762,-0.99516 3.283719,-1.31723 6.038826,-0.96059 l 1.619619,0.20968 -0.109139,2.71437 c -0.09703,2.41359 -0.02451,2.87803 0.655874,4.19088 0.944467,1.82278 1.189873,3.05477 0.89061,4.47123 -0.214118,1.01352 -0.437013,1.18588 -3.129571,2.4205 l -2.899068,1.3293 -1.095096,-0.89687 c -2.122,-1.73795 -3.682817,-4.94948 -4.190471,-8.6229 -0.193815,-1.40234 -0.340127,-1.68271 -0.923023,-1.76885 -0.65086,-0.0961 -0.681621,-0.0195 -0.509178,1.26907 0.548203,4.09661 2.327797,8.06217 4.447632,9.91096 l 1.03571,0.90329 0.0043,3.13065 c 0.0043,2.14594 -0.105434,3.13067 -0.346025,3.13077 -0.413574,10e-6 -5.545378,-8.96107 -6.44995,-11.26241 -1.16538,-2.96529 -1.715664,-6.62355 -1.430477,-9.50899 l 0.199143,-2.01468 1.490946,-0.841096 c 0.820025,-0.4626 1.490931,-0.9064 1.490931,-0.98622 0,-0.0799 -0.360017,-0.73629 -0.800064,-1.45882 l -0.800094,-1.31367 0.988664,-3.51818 c 2.770794,-9.86018 5.109178,-14.657283 9.103042,-18.674869 l 1.189773,-1.196732 2.122784,0.317999 c 1.167518,0.1749 2.505084,0.32083 2.972359,0.324278 l 0.849661,0.0056 -1.266712,-2.392259 -1.266697,-2.392258 2.239189,-3.080464 c 3.102529,-4.268086 9.016985,-10.315671 12.215273,-12.489525 2.863491,-1.946522 6.488662,-3.896898 9.362639,-5.036951 1.689804,-0.67035 1.942648,-0.895734 2.711295,-2.417548 1.591792,-3.151285 4.879145,-5.502716 9.399797,-6.723835 l 2.247824,-0.607139 0.208704,1.201511 c 0.114838,0.660819 0.499304,1.791902 0.854476,2.513549 l 0.645773,1.312038 -1.342866,1.652335 c -2.647479,3.257739 -4.039145,5.678841 -4.039145,7.027445 0,1.798826 -1.104114,2.39359 -5.038693,2.71407 -3.703976,0.301699 -5.488941,1.142506 -5.894765,2.776747 -0.285443,1.149401 -1.753492,2.46947 -6.187119,5.563249 -2.32093,1.619623 -3.131238,1.997511 -5.356521,2.498202 -2.38043,0.535633 -2.731584,0.71384 -3.813742,1.935352 -0.655519,0.739993 -1.681654,2.130686 -2.280267,3.090331 -1.045413,1.676007 -4.942163,10.576724 -4.944229,11.292876 -0.0014,0.567224 -0.914432,1.235443 -3.827064,2.801639 -4.388047,2.359539 -5.718647,4.362949 -6.178584,9.303389 -0.169892,1.82462 -0.136637,1.98288 0.416937,1.98288 0.514407,0 0.654835,-0.35528 0.969429,-2.45269 0.662315,-4.41557 1.619818,-5.65843 6.169665,-8.00824 2.074754,-1.071466 3.673015,-2.395894 3.673015,-3.043692 0,-0.64131 3.613516,-9.046801 4.654811,-10.827631 0.540823,-0.924942 1.55935,-2.267716 2.263312,-2.983869 1.096677,-1.115582 1.641574,-1.389347 3.803255,-1.911076 2.185789,-0.527546 2.978059,-0.930773 5.925242,-3.015657 4.002798,-2.831702 5.231667,-3.971152 6.043043,-5.603067 0.733142,-1.474562 1.354422,-1.733093 5.00068,-2.08051 1.998599,-0.19043 3.31686,-0.503747 4.347184,-1.033185 1.438699,-0.739306 1.481428,-0.802334 1.574239,-2.322783 0.07737,-1.2651 0.380819,-1.990503 1.592961,-3.807087 3.473473,-5.205591 6.882845,-8.650432 10.370822,-10.4782 1.444384,-0.757036 2.195691,-0.902293 5.968655,-1.154082 9.173598,-0.612242 12.961078,-0.993353 17.267388,-1.737452 4.19469,-0.724857 8.91477,-1.002603 9.96214,-0.586173 0.36044,0.143379 0.22374,0.40533 -0.60517,1.159661 -2.21587,2.016614 -2.31545,2.475455 -2.87554,13.249355 -0.45812,8.812755 -0.0896,7.814413 -3.75043,10.159229 -2.83723,1.817411 -7.3811,5.016222 -9.44253,6.647226 l -0.80087,0.633663 -0.68244,-1.819849 c -1.02767,-2.740377 -1.17566,-6.418871 -0.36898,-9.171539 0.68412,-2.334557 2.33897,-5.242657 4.19468,-7.371816 0.95408,-1.094643 1.07149,-1.377561 0.74229,-1.788665 -0.34386,-0.429456 -0.51769,-0.362307 -1.44027,0.55632 -1.65216,1.645117 -4.01965,5.608253 -4.69892,7.865808 -0.98495,3.273388 -0.74219,8.214136 0.53307,10.849985 0.66646,1.377658 0.51375,1.807656 -1.39167,3.919042 -0.99336,1.10074 -2.58182,3.367447 -3.53002,5.037246 l -1.723883,3.035979 -2.362106,-0.0014 -2.362092,-0.0014 -0.02066,-2.932768 c -0.0228,-3.227165 -0.189511,-3.950942 -2.807739,-12.183761 l -1.731336,-5.443991 0.926984,-2.80468 c 0.509834,-1.542622 1.806509,-4.704558 2.881529,-7.026641 1.62432,-3.508743 1.878731,-4.271623 1.505934,-4.516138 -0.246745,-0.161754 -0.520419,-0.296275 -0.608172,-0.298938 -0.271965,-0.0084 -4.656393,9.883128 -5.248722,11.841423 -0.308197,1.018973 -0.560357,2.277877 -0.560357,2.797574 0,0.519697 0.881163,3.683567 1.958121,7.030705 2.045945,6.358632 2.819493,10.189699 2.479125,12.278226 -0.208889,1.281555 -0.327261,1.368913 -2.327214,1.717032 -1.740854,0.303044 -3.726031,1.856318 -4.575721,3.580062 -0.690012,1.399803 -0.750595,1.888512 -0.77835,6.278894 -0.03348,5.30573 -0.269698,6.1833 -2.035643,7.56461 -1.36394,1.06691 -2.995797,1.47131 -5.945246,1.47344 l -2.501465,0.001 -0.345584,-1.08541 c -0.190067,-0.59694 -0.762292,-1.68159 -1.271599,-2.41034 l -0.926029,-1.32503 1.104413,-1.72405 c 1.714496,-2.6765 3.254925,-4.28617 4.758309,-4.97215 1.648328,-0.75215 4.661279,-3.379422 5.887513,-5.133846 l 0.8833,-1.263797 -0.661218,-0.305805 c -0.527843,-0.244137 -0.724592,-0.181207 -0.975441,0.312 -0.597416,1.174602 -3.959869,4.216565 -5.538909,5.011051 -2.144242,1.078787 -2.938179,1.844317 -4.91884,4.742357 l -1.690288,2.47321 -1.081176,-1.52139 c -1.591593,-2.23959 -2.295169,-3.89578 -2.547144,-5.995372 -0.195154,-1.626631 -0.316304,-1.884755 -0.926514,-1.974455 -0.678315,-0.09979 -0.694843,-0.04625 -0.490057,1.586309 0.430145,3.428798 1.668916,5.936348 4.479975,9.068228 0.998665,1.11264 2.09151,2.66927 2.428644,3.45918 l 0.612917,1.43617 -0.665634,0.48324 c -1.971158,1.43109 -5.334865,4.434056 -6.696938,5.978706 -1.679303,1.90458 -2.303776,3.54522 -1.982627,5.20944 l 0.198801,1.03025 -1.039928,-0.23283 c -2.796069,-0.62602 -5.103293,-2.84297 -6.920673,-6.64997 -1.08629,-2.27533 -1.636189,-2.811276 -2.095143,-2.04159 -0.343261,0.57566 2.223033,5.52626 3.658013,7.0567 1.662547,1.77301 3.423291,2.72687 5.486676,2.9722 1.155763,0.13735 1.872662,0.44657 2.64279,1.13964 1.385967,1.24723 4.346985,2.66653 6.408888,3.07185 1.787502,0.35137 6.133703,0.37603 9.062962,0.0514 1.634024,-0.18108 1.847871,-0.28675 1.939499,-0.95862 0.08877,-0.65036 0.0043,-0.72959 -0.612162,-0.57103 -1.657945,0.42674 -7.835261,0.59039 -9.591689,0.25408 -2.341618,-0.44835 -5.997763,-2.30226 -7.017502,-3.55832 -1.114016,-1.37228 -1.081673,-3.26108 0.08421,-4.92948 0.932925,-1.33498 3.732115,-3.95803 6.473972,-6.066786 1.244072,-0.95678 1.885613,-1.25393 2.457767,-1.13852 0.425856,0.0859 1.975759,0.0193 3.44435,-0.14788 3.631853,-0.41365 5.736585,-1.48311 6.877359,-3.49443 0.813414,-1.43424 0.84201,-1.64137 0.8621,-6.24233 0.02237,-5.122874 0.290116,-6.329473 1.703895,-7.678371 1.160678,-1.107355 2.757073,-1.645328 5.511482,-1.857327 l 2.558499,-0.196919 2.044948,2.11625 c 2.484326,2.570943 3.949386,5.381827 5.747086,11.026747 1.05442,3.31095 1.39459,4.04499 1.87501,4.04499 0.32275,0 0.58682,-0.20341 0.58682,-0.45203 0,-0.93406 -2.85438,-8.98758 -3.88127,-10.950547 -0.58794,-1.124005 -1.6936,-2.801527 -2.45706,-3.727759 -0.813832,-0.987353 -1.208684,-1.684136 -0.954487,-1.684136 0.238482,0 2.631217,0.570811 5.317127,1.268463 4.82368,1.25292 8.6187,2.850091 9.04727,3.807703 2.69071,6.012026 3.33539,8.714226 3.33539,13.981756 v 4.045406 l -4.60405,4.02274 c -3.15241,2.75441 -4.75831,3.96141 -5.09348,3.82814 -1.48487,-0.59059 -5.48952,1.11932 -10.251264,4.37696 l -0.81803,0.55968 -0.522728,-1.14179 c -0.287494,-0.62797 -0.806888,-1.3481 -1.154196,-1.60021 l -0.631468,-0.45846 0.678686,-0.7488 c 1.543962,-1.70344 1.628538,-4.23222 0.36298,-10.843886 -0.886549,-4.63154 -1.158214,-8.69634 -0.729764,-10.91703 0.193202,-1.00125 1.439297,-2.65618 2.196175,-2.91663 0.502952,-0.1731 0.150885,-1.23604 -0.409386,-1.23604 -0.743941,0 -2.214313,1.57177 -2.744122,2.93348 -0.851769,2.1892 -0.686579,6.74465 0.463101,12.770896 0.712467,3.73446 0.915799,5.49539 0.769302,6.66246 -0.364975,2.90739 -1.368827,3.66407 -3.530322,2.66095 -3.382814,-1.56985 -15.807118,-4.91149 -16.339278,-4.39433 -0.520534,0.50674 0.07893,1.17925 1.240538,1.39198 3.233268,0.59185 10.407083,2.6264 13.216874,3.74816 2.36601,0.94478 3.508936,1.60359 4.514768,2.60255 0.740693,0.73562 1.346771,1.55369 1.346771,1.818 0,0.51809 -8.465419,6.64703 -10.246366,7.41824 -1.594329,0.69049 -4.844053,1.33114 -7.965787,1.57045 -2.297022,0.17607 -2.832915,0.12754 -3.225018,-0.29182 z M 72.680941,77.636576 c -2.427376,-1.807558 -4.050428,-4.224498 -5.205992,-7.75224 -0.561924,-1.715532 -0.809168,-2.110476 -1.266313,-2.022304 -0.312414,0.06027 -0.607546,0.148761 -0.655818,0.196764 -0.0483,0.04793 0.332504,1.283601 0.846213,2.745871 1.13764,3.238125 2.712677,5.684231 4.71793,7.32712 1.395983,1.143711 1.544361,1.196634 1.99498,0.712004 0.447171,-0.480915 0.412021,-0.579374 -0.431043,-1.207201 z"
     id="path168"
     inkscape:connector-curvature="0"
     style="fill:#1d242d;fill-opacity:0.98823529;stroke:#ffffff;stroke-width:0.31162411;stroke-linecap:round" />
  <path
     d="m 49.570665,132.13942 c -5.625751,-1.4904 -8.574401,-3.00642 -12.491626,-6.42191 -1.598945,-1.39432 -1.613748,-1.42307 -0.918279,-1.78338 0.661489,-0.34271 0.706911,-0.55339 0.706911,-3.27877 0,-2.17283 0.116548,-3.02948 0.459125,-3.37293 0.252516,-0.2532 1.681554,-1.02842 3.175635,-1.72262 l 2.71648,-1.26227 1.277783,1.49123 c 2.061133,2.40547 4.931477,5.01511 6.328914,5.75401 1.601011,0.84661 5.27206,1.22549 12.026117,1.24123 5.287049,0.0126 8.11908,0.57845 9.816122,1.96238 0.771468,0.62899 1.068253,0.66492 3.971239,0.48082 5.535475,-0.35105 8.391515,-1.19765 11.556663,-3.42545 0.977421,-0.68798 1.777115,-1.16748 1.777115,-1.06549 0,0.10204 -0.541022,1.21371 -1.202311,2.47057 -0.661318,1.25688 -1.296405,2.82053 -1.411457,3.47493 -0.115123,0.6544 -0.22828,1.18962 -0.251632,1.18952 -0.02337,-1.1e-4 -0.782639,-0.29176 -1.687339,-0.64814 -3.105079,-1.22325 -6.890197,-1.41129 -19.67144,-0.97741 -17.041972,0.57859 -21.920618,0.10568 -25.889805,-2.50989 -0.524138,-0.34534 -0.764444,-0.3623 -1.043062,-0.0736 -0.489473,0.50734 0.0852,1.20223 1.70361,2.05998 2.046629,1.08469 4.054746,1.49804 9.050011,1.86292 2.60938,0.19062 4.797804,0.40041 4.863273,0.46617 0.06554,0.0657 0.134358,0.97558 0.153051,2.02178 0.02736,1.52373 -0.08777,2.01946 -0.578067,2.4911 -0.597771,0.57496 -0.702223,0.56495 -4.438228,-0.42483 z"
     id="path170"
     inkscape:connector-curvature="0"
     style="fill:#1d242d;fill-opacity:0.98823529;stroke:#ffffff;stroke-width:0.31162411;stroke-linecap:round" />
  <path
     d="m 78.962167,137.35059 c -0.918179,-0.16174 -1.747622,-0.4253 -1.843268,-0.58568 -0.285614,-0.479 -5.005467,-0.97584 -10.873589,-1.14453 -4.79427,-0.13791 -5.859772,-0.26715 -8.20756,-0.99596 -2.641023,-0.81982 -2.692772,-0.85478 -2.448648,-1.65476 0.137208,-0.44949 0.245007,-1.78094 0.239664,-2.95868 l -0.01,-2.14145 h 3.004802 c 2.929159,0 2.996395,0.0163 2.670816,0.64693 -0.306573,0.59374 -0.140627,0.73957 2.018888,1.77372 4.450881,2.1315 10.440409,3.28741 17.041003,3.28913 l 3.596461,0.001 v 0.90486 c 0,0.49769 -0.314338,1.38995 -0.698533,1.98289 -0.792028,1.22223 -1.629322,1.3869 -4.490861,0.88279 z"
     id="path172"
     inkscape:connector-curvature="0"
     style="fill:#1d242d;fill-opacity:0.98823529;stroke:#ffffff;stroke-width:0.31162411;stroke-linecap:round" />
  <path
     d="m 73.993346,131.82452 c -1.63324,-0.23086 -4.043661,-0.72326 -5.356522,-1.09423 -2.674549,-0.75572 -6.576485,-2.50929 -6.366656,-2.86117 0.07523,-0.12628 3.480811,-0.32809 7.567885,-0.44848 8.242168,-0.24278 12.373054,0.0582 15.050524,1.09648 l 1.699592,0.65911 -1.128421,1.5667 -1.128407,1.5667 -3.684186,-0.0327 c -2.02634,-0.0179 -5.020569,-0.22158 -6.653809,-0.45246 z"
     id="path174"
     inkscape:connector-curvature="0"
     style="fill:#1d242d;fill-opacity:0.98823529;stroke:#ffffff;stroke-width:0.31162411;stroke-linecap:round" />
  <path
     d="m 54.077397,141.02727 c -0.809823,-0.57037 -1.142356,-1.03652 -1.142356,-1.60143 0,-1.39851 -1.689974,-2.48678 -5.433004,-3.49855 -0.640287,-0.17307 -0.427039,-0.99513 0.306088,-1.17992 2.749465,-0.69306 4.34992,-0.58295 7.762483,0.53402 4.326739,1.4162 6.924834,1.9033 8.790286,1.64806 2.160954,-0.29566 10.347855,0.43241 10.942449,0.97314 0.265781,0.24168 0.765071,0.43943 1.109557,0.43943 0.344501,0 1.091006,0.0963 1.658943,0.21406 1.031108,0.21375 1.030225,0.21462 -0.603713,0.59604 -1.131186,0.26408 -2.359399,0.2971 -3.978676,0.10694 -1.395499,-0.16383 -3.6141,-0.15119 -5.488472,0.0312 -2.937167,0.28592 -9.340255,1.59622 -11.003615,2.25171 -1.141472,0.44983 -1.686869,0.35366 -2.91997,-0.51485 z"
     id="path176"
     inkscape:connector-curvature="0"
     style="fill:#1d242d;fill-opacity:0.98823529;stroke:#ffffff;stroke-width:0.31162411;stroke-linecap:round" />
  <path
     d="m 157.55185,151.49082 c -9.18928,-5.80736 -2.3035,-11.81603 12.97087,-11.31829 14.2469,0.46391 21.10229,0.3743 42.43098,-0.55456 l 19.58911,-0.85314 -7.51948,3.86662 c -9.88374,5.08215 -19.39898,6.53264 -39.76429,6.0614 -15.96685,-0.36943 -16.9126,-0.25111 -19.71651,2.46733 -3.55168,3.44323 -3.09644,3.42434 -7.99088,0.33116 z"
     id="path178"
     inkscape:connector-curvature="0"
     style="fill:#1d242d;fill-opacity:0.98823529;stroke:#ffffff;stroke-width:1.24651647;stroke-linecap:round" />
  <path
     d="m 185.10087,174.38743 c -3.19857,-1.29578 -5.81557,-2.03723 -5.81557,-1.64746 0,0.38977 -1.10197,-0.32506 -2.44865,-1.58834 -1.34667,-1.26328 -2.44864,-1.92123 -2.44864,-1.46208 0,1.81975 -9.09088,-9.72465 -9.42037,-11.96332 -0.21546,-1.4633 0.9313,-3.26627 2.94924,-4.63692 2.74482,-1.86434 6.4088,-2.27879 21.7207,-2.45707 24.76277,-0.28823 31.67305,-1.62256 41.71556,-8.05586 4.40705,-2.82318 8.53382,-2.18564 7.30681,1.12877 -5.01469,13.54497 -12.08786,21.14433 -26.78851,28.77923 -9.84943,5.11537 -17.49966,5.65914 -26.77087,1.90284 z"
     id="path180"
     inkscape:connector-curvature="0"
     style="fill:#1d242d;fill-opacity:0.98823529;stroke:#ffffff;stroke-width:1.24651647;stroke-linecap:round" />
</svg>
