<?xml version="1.0" encoding="UTF-8" standalone="no"?>
<svg
   xmlns:dc="http://purl.org/dc/elements/1.1/"
   xmlns:cc="http://creativecommons.org/ns#"
   xmlns:rdf="http://www.w3.org/1999/02/22-rdf-syntax-ns#"
   xmlns:svg="http://www.w3.org/2000/svg"
   xmlns="http://www.w3.org/2000/svg"
   xmlns:sodipodi="http://sodipodi.sourceforge.net/DTD/sodipodi-0.dtd"
   xmlns:inkscape="http://www.inkscape.org/namespaces/inkscape"
   height="256"
   version="1.1"
   viewBox="0 0 256 256"
   width="256"
   xml:space="preserve"
   id="svg8"
   sodipodi:docname="dehydration.svg"
   inkscape:version="0.92.4 (5da689c313, 2019-01-14)"><metadata
     id="metadata14"><rdf:RDF><cc:Work
         rdf:about=""><dc:format>image/svg+xml</dc:format><dc:type
           rdf:resource="http://purl.org/dc/dcmitype/StillImage" /><dc:title></dc:title></cc:Work></rdf:RDF></metadata><defs
     id="defs12" /><sodipodi:namedview
     pagecolor="#ffffff"
     bordercolor="#666666"
     borderopacity="1"
     objecttolerance="10"
     gridtolerance="10"
     guidetolerance="10"
     inkscape:pageopacity="0"
     inkscape:pageshadow="2"
     inkscape:window-width="1920"
     inkscape:window-height="1017"
     id="namedview10"
     showgrid="false"
     inkscape:zoom="1.84375"
     inkscape:cx="154.00829"
     inkscape:cy="99.207664"
     inkscape:window-x="-8"
     inkscape:window-y="-8"
     inkscape:window-maximized="1"
     inkscape:current-layer="g4" /><g
     id="_x31_8_x2C__blood_x2C__drop_x2C__liquid_x2C__Plus_x2C__Minus"
     transform="translate(0,-256)"><g
       id="g4"><path
         d="m 51.043236,414.31482 c -0.268593,1.09435 -0.492868,2.1426 -0.717839,3.17019 l -0.04497,0.22369 -0.157144,0.82594 -0.02283,0.20029 -0.04497,0.20097 -0.04497,0.20167 v 0.0213 l -0.02146,0.17894 -0.04497,0.20029 -0.02351,0.20168 -0.04497,0.20028 -0.02146,0.20029 -0.02352,0.17894 v 0.0227 l -0.04497,0.20097 -0.02146,0.2003 -0.02352,0.20235 -0.04497,0.17827 -0.06643,0.60292 -0.02282,0.20029 -0.02215,0.17896 -0.02297,0.20029 -0.02215,0.20167 -0.02283,0.11154 v 0.0673 l -0.02215,0.20029 -0.02215,0.17894 -0.02283,0.20098 v 0.17895 l -0.02215,0.20029 -0.02282,0.0895 v 0.0895 0.20166 l -0.02215,0.17897 c -3.95974,26.3825 8.622389,43.30437 22.811882,57.70723 14.14509,14.06495 33.700695,22.77097 55.300465,22.77097 21.57831,0 41.13459,-8.70602 55.30185,-22.77097 14.1451,-14.06495 22.90186,-33.50947 22.90186,-54.98442 0,-21.92369 -20.83623,-58.57927 -41.2682,-94.56723 -15.49219,-27.32531 -30.8051,-54.24865 -36.95698,-74.76413 -6.06257,19.75699 -20.99406,46.16688 -36.261958,73.15699 -13.290889,23.46268 -33.229289,55.49855 -40.167547,83.56032 z"
         style="clip-rule:evenodd;fill:#1d242d;fill-opacity:0.98823529;fill-rule:evenodd;stroke-width:0.69025272"
         id="path2"
         inkscape:connector-curvature="0"
         sodipodi:nodetypes="ccccccccccccccccccccccccccccccccccccscscccc" /><rect
         style="opacity:1;fill:#fb242d;fill-opacity:0.98823529;stroke:#1d242d;stroke-width:3.03928566;stroke-miterlimit:4;stroke-dasharray:none;stroke-opacity:0.98823529"
         id="rect821"
         width="76.458923"
         height="15.309974"
         x="89.12812"
         y="416.82611" /></g></g><g
     id="Layer_1"
     transform="translate(0,-256)" /></svg>