<?xml version="1.0" encoding="UTF-8" standalone="no"?>
<svg
   xmlns:dc="http://purl.org/dc/elements/1.1/"
   xmlns:cc="http://creativecommons.org/ns#"
   xmlns:rdf="http://www.w3.org/1999/02/22-rdf-syntax-ns#"
   xmlns:svg="http://www.w3.org/2000/svg"
   xmlns="http://www.w3.org/2000/svg"
   xmlns:sodipodi="http://sodipodi.sourceforge.net/DTD/sodipodi-0.dtd"
   xmlns:inkscape="http://www.inkscape.org/namespaces/inkscape"
   viewBox="0 0 256 256"
   version="1.1"
   id="svg4"
   sodipodi:docname="old.svg"
   inkscape:version="0.92.4 (5da689c313, 2019-01-14)"
   width="256"
   height="256">
  <metadata
     id="metadata10">
    <rdf:RDF>
      <cc:Work
         rdf:about="">
        <dc:format>image/svg+xml</dc:format>
        <dc:type
           rdf:resource="http://purl.org/dc/dcmitype/StillImage" />
        <dc:title></dc:title>
      </cc:Work>
    </rdf:RDF>
  </metadata>
  <defs
     id="defs8" />
  <sodipodi:namedview
     pagecolor="#ffffff"
     bordercolor="#666666"
     borderopacity="1"
     objecttolerance="10"
     gridtolerance="10"
     guidetolerance="10"
     inkscape:pageopacity="0"
     inkscape:pageshadow="2"
     inkscape:window-width="1920"
     inkscape:window-height="1017"
     id="namedview6"
     showgrid="false"
     inkscape:zoom="1.0776256"
     inkscape:cx="-101.76059"
     inkscape:cy="109.5"
     inkscape:window-x="-8"
     inkscape:window-y="-8"
     inkscape:window-maximized="1"
     inkscape:current-layer="svg4" />
  <path
     d="m 196.94663,3.5932199 c -10.95609,0.204313 -22.32725,4.687179 -22.20918,24.5865461 -33.08103,14.485581 -55.57177,48.60089 -59.95865,77.131544 -0.0298,0.12419 -0.0417,0.16184 -0.071,0.28383 -15.404058,-5.837028 -19.5775,-20.570908 -14.22673,-33.952954 1.70321,-5.222257 3.5883,-9.073725 6.19728,-13.995121 0.34952,-0.788709 2.27472,-1.770309 2.9868,-1.770309 8.55159,0.433364 18.84408,-8.834059 18.84408,-20.635624 0,-11.801565 -9.59188,-21.394019 -21.39401,-21.394019 -11.802133,0 -21.25551,9.081105 -21.25551,20.883124 0.250815,3.299929 1.318791,8.336333 0.03742,10.819057 C 73.117979,57.652968 84.853899,43.43714 58.616503,76.502729 32.17484,109.56787 19.760087,165.37805 20.441281,189.50252 c 0.339336,4.52029 -0.150408,10.80112 0.212873,15.29166 7.08498,0.24974 9.909095,0.41214 14.475363,0.39027 -0.848268,3.35181 -2.810037,35.96475 -3.122137,47.54164 l 29.802218,-0.28384 c 11.094145,-4.65947 -11.843685,-8.82395 -15.29166,-12.23991 1.546196,-9.45973 7.403211,-21.5734 9.224496,-35.05308 l 10.395241,0.10649 c 3.008378,11.6257 8.007203,25.00775 11.956082,35.79786 2.701841,3.93355 1.309595,7.0105 3.760756,10.9629 h 26.112417 c 1.14474,0.002 35.5004,1.07427 38.49425,-0.071 3.00224,-1.14849 2.03222,-2.45809 1.17074,-4.22204 -1.03706,-2.36964 -13.67042,-6.23871 -13.48196,-7.55693 5.51983,-20.71964 5.60577,-37.94248 6.38619,-48.3216 5.00269,12.03442 9.27968,23.54205 14.54576,43.00034 0.76712,3.68639 2.09648,12.01399 3.47692,17.10023 l 30.65371,0.10649 c 1.20049,0.003 3.37168,-1.10283 3.26406,-2.98022 -0.19891,-3.54254 -15.56074,-7.02855 -17.06504,-7.80534 -0.78452,-0.36948 -1.07843,-2.52655 -1.38373,-4.11554 -1.13964,-14.10866 -4.81093,-28.22299 -7.13119,-42.14886 -3.04902,-13.12433 -5.44092,-26.24411 -7.55693,-40.05531 -1.25942,-12.06508 -0.62646,-27.49865 1.7384,-36.86279 3.23238,-11.52807 6.29423,-21.891288 15.29166,-32.498608 2.69344,-2.58684 5.34749,-0.63148 7.69885,2.87372 10.31271,15.667458 26.78908,32.908468 42.22038,43.887038 -0.13914,0.18512 -0.33462,0.29852 -0.46122,0.4967 -0.91192,1.42755 -1.50771,3.1638 -1.91586,5.28629 l 5.57012,1.06436 c 0.31414,-1.6335 0.73803,-2.67754 1.13532,-3.29947 0.0517,-0.0808 0.12816,-0.0377 0.1774,-0.10638 3.94013,3.00985 6.20408,4.58432 8.51492,5.17991 0.0113,0.002 0.0244,0.0329 0.0354,0.0354 l -18.62611,110.16149 5.60566,0.92245 18.73282,-110.87107 c 1.32947,-0.42419 2.70048,-1.21297 4.15097,-3.01564 0.92459,-1.69186 2.89871,-5.23997 -4.04459,-8.90524 -10.37083,-6.91616 -18.17084,-15.85478 -27.35446,-25.82859 -9.97653,-11.995818 -15.70832,-23.585194 -21.07386,-36.684547 -1.56356,-8.437036 -8.2572,-15.476717 -6.13778,-24.232325 0.35489,-0.343004 0.7603,-0.780114 1.13532,-1.135323 1.28882,0.294957 2.63134,0.461225 4.00905,0.461225 10.50094,1.63441 21.18058,-5.584538 21.18058,-18.946264 0,-9.888092 -10.08643,-19.3356791 -19.97486,-19.3356791 z M 89.339627,112.30036 c 1.555165,-0.0883 3.343525,1.34445 5.57012,4.04459 4.000765,3.17879 10.235273,8.64185 16.213533,7.98268 -0.16533,3.52654 -0.14811,7.79853 0.1774,15.92971 0.83628,11.20631 6.00847,31.63122 6.13778,45.76712 0.009,13.22197 -2.56118,38.66001 -5.88949,54.06974 -1.69231,3.6143 -1.00196,5.91605 -4.50586,5.88949 -0.0641,-0.0417 -0.15543,-0.0993 -0.21288,-0.14192 -5.06955,-2.20275 -11.822107,-4.85044 -15.397238,-6.24427 -1.149742,-8.41955 -5.043671,-23.61698 -6.811936,-34.66254 1.329009,0.33806 3.245887,0.0908 5.250867,-0.39026 -8.108701,-42.59958 -12.256943,-51.84337 -4.754163,-87.2064 1.34513,-3.34046 2.666872,-4.94967 4.222037,-5.038 z"
     id="path2"
     inkscape:connector-curvature="0"
     style="fill-rule:evenodd;stroke-width:5.67661285;fill:#1d242d;fill-opacity:0.98823529" />
</svg>
