<?xml version="1.0" encoding="UTF-8" standalone="no"?>
<svg
   xmlns:dc="http://purl.org/dc/elements/1.1/"
   xmlns:cc="http://creativecommons.org/ns#"
   xmlns:rdf="http://www.w3.org/1999/02/22-rdf-syntax-ns#"
   xmlns:svg="http://www.w3.org/2000/svg"
   xmlns="http://www.w3.org/2000/svg"
   xmlns:sodipodi="http://sodipodi.sourceforge.net/DTD/sodipodi-0.dtd"
   xmlns:inkscape="http://www.inkscape.org/namespaces/inkscape"
   viewBox="0 0 235.86719 246.5"
   version="1.1"
   id="svg22"
   sodipodi:docname="op.svg"
   width="235.86719"
   height="246.5"
   inkscape:version="0.92.4 (5da689c313, 2019-01-14)">
  <metadata
     id="metadata28">
    <rdf:RDF>
      <cc:Work
         rdf:about="">
        <dc:format>image/svg+xml</dc:format>
        <dc:type
           rdf:resource="http://purl.org/dc/dcmitype/StillImage" />
        <dc:title></dc:title>
      </cc:Work>
    </rdf:RDF>
  </metadata>
  <defs
     id="defs26" />
  <sodipodi:namedview
     pagecolor="#ffffff"
     bordercolor="#666666"
     borderopacity="1"
     objecttolerance="10"
     gridtolerance="10"
     guidetolerance="10"
     inkscape:pageopacity="0"
     inkscape:pageshadow="2"
     inkscape:window-width="1920"
     inkscape:window-height="1017"
     id="namedview24"
     showgrid="false"
     inkscape:zoom="1.488959"
     inkscape:cx="54.513148"
     inkscape:cy="77.200948"
     inkscape:window-x="-8"
     inkscape:window-y="-8"
     inkscape:window-maximized="1"
     inkscape:current-layer="g20" />
  <g
     id="g20"
     style="fill-rule:evenodd;stroke:#000000;stroke-width:2"
     transform="translate(-52.135888,-21.5)">
    <g
       id="g6"
       style="fill:#d3d3d3">
      <path
         d="M 181.25,55.5 184,61 173,62.25 c -7.33333,0.833333 -15.83333,3.25 -25.5,7.25 -9.66667,4 -16.75,7.583333 -21.25,10.75 -4.5,3.166667 -9,6.416667 -13.5,9.75 L 106,95 102.75,93 C 100.58333,91.666667 99,90.333333 98,89 97,87.666667 95.416667,86.25 93.25,84.75 L 90,82.5 88.75,79.25 c -0.833333,-2.166667 -1.833333,-3.75 -3,-4.75 L 84,73 83.75,72 83.5,71 85,61 c 1,-6.666667 1.433824,-10.389872 1.75,-11 l 0.48745,-0.940637 c 0.914813,-0.917903 0.795236,-1.056849 2.171184,-2.928504 1.643015,-2.234937 0.481761,-0.231266 2.964777,-3.198126 4.559286,-5.447713 10.475729,-7.508142 12.208689,-8.520392 L 107,33 l 5.15678,-2.680879 4.98888,-1.925318 4.77039,-1.824682 C 124.16112,25.710378 126.5,25 131.5,24 c 5,-1 8.33333,-1.5 10,-1.5 h 2.5 l 4.10249,0.553694 c 1.52278,0.205524 2.33213,0.1474 6.19875,1.185183 l 3.98517,2.310514 L 165.25,33.75 c 4.79678,4.960047 6.16667,9 6,10.5 l -0.25,2.25 3.75,1.75 c 2.5,1.166667 4.66667,3.583333 6.5,7.25 z"
         id="path2"
         style="fill:#000000;fill-opacity:1"
         inkscape:connector-curvature="0"
         sodipodi:nodetypes="scsssscssscsscccsscssscccssscsscsscss" />
      <path
         d="M 83.5,83 H 84 l 3,2 q 3,2 5.25,5 2.25,3 4.5,5.5 2.25,2.5 3.25,3 l 1,0.5 -4.5,0.75 q -4.5,0.75 -6,2 L 89,103 87.75,100.5 Q 86.5,98 84.75,90.5 83,83 83.5,83 Z"
         id="path4"
         style="fill:#000000;fill-opacity:1"
         inkscape:connector-curvature="0" />
    </g>
    <g
       id="g14"
       style="fill:#ffffff">
      <path
         d="M 96.5,99.75 101,99 l 5,2.75 q 5,2.75 14,7.75 l 9,5 3.25,5.25 Q 135.5,125 138,132 l 2.5,7 -2.75,3.25 q -2.75,3.25 -8.75,5.25 -6,2 -10,2.25 L 115,150 110.25,139.5 105.5,129 105,128.5 q -0.5,-0.5 -4.75,-3 L 96,123 92.75,117.5 q -3.25,-5.5 -3.5,-10 L 89,103 l 1.5,-1.25 q 1.5,-1.25 6,-2 z"
         id="path8"
         inkscape:connector-curvature="0" />
      <path
         d="M 173,62.25 184,61 h 2 l 2.75,6.5 2.75,6.5 v 6.5 q 0,6.5 -0.25,9 Q 191,92 192,93 q 1,1 1,3 v 2 h -3 L 182.5,96.75 175,95.5 159,104 q -16,8.5 -20,10 l -4,1.5 -2.25,-1.75 Q 130.5,112 120.25,105.25 110,98.5 108,96.75 l -2,-1.75 6.75,-5 q 6.75,-5 13.5,-9.75 Q 133,75.5 147.5,69.5 162,63.5 173,62.25 Z"
         id="path10"
         inkscape:connector-curvature="0" />
      <path
         d="m 183.5,165.5 0.5,1.5 0.25,3.5 q 0.25,3.5 0.75,4 0.5,0.5 5.5,13 5,12.5 8.5,19 3.5,6.5 7.5,12.5 4,6 4.75,12 0.75,6 -0.75,6.75 l -1.5,0.75 -1,0.5 q -1,0.5 -5.75,-2.75 -4.75,-3.25 -7.25,-5.75 -2.5,-2.5 -16.5,-16 -14,-13.5 -20.25,-18.25 -6.25,-4.75 -7.25,-6 -1,-1.25 -4,-2.5 -3,-1.25 -5.25,-2.5 Q 139.5,184 125.25,177 L 111,170 v -4 q 0,-4 1.5,-7.5 l 1.5,-3.5 0.75,-1 0.75,-1 0.25,1 q 0.25,1 7.75,0 l 7.5,-1 2,2.75 q 2,2.75 16,8.25 14,5.5 21,4 7,-1.5 10,-2.75 l 3,-1.25 z"
         id="path12"
         inkscape:connector-curvature="0" />
    </g>
    <path
       d="M 194,153.25 V 152 l 9.5,1.25 c 6.33333,0.83333 12.83333,2.08333 19.5,3.75 6.66667,1.66667 13.58333,5.75 20.75,12.25 7.16667,6.5 12.41667,12.58333 15.75,18.25 3.33333,5.66667 6.5,11.16667 9.5,16.5 l 4.5,8 0.41419,0.75371 c 0.25384,0.46189 1.99556,3.1776 4.3321,4.64446 l 3.45617,2.16976 L 284,221.5 c 2.90879,2.4461 2,8.16667 3,13.5 l -0.30495,9.21729 L 286,248.5 c -0.64522,3.97567 -3.08333,7.66667 -4.25,12 L 280,267 H 54 l -0.25,-7.5 c -0.06922,-2.07668 -0.483791,-6.37442 -0.5502,-8.48745 l -0.06275,-1.99661 0.256775,-3.46913 C 53.575507,243.09221 56.583333,238.66667 56.75,236 L 57.831075,233.30598 58.5,231.75 c 0.400404,-0.93137 2.583333,-2 4.75,-5.5 2.166667,-3.5 5.083333,-8.41667 8.75,-14.75 3.666667,-6.33333 5.916667,-10 6.75,-11 0.833333,-1 2.416667,-2.41667 4.75,-4.25 2.333333,-1.83333 4,-3.16667 5,-4 L 90,191 l 0.25,-1 c 0.166667,-0.66667 1.75,-3.16667 4.75,-7.5 l 4.5,-6.5 3.25,-2 c 2.16667,-1.33333 3.58333,-2.16667 4.25,-2.5 l 2,-1 1,-0.5 14.25,7 c 9.5,4.66667 15,7.41667 16.5,8.25 1.5,0.83333 3.25,1.66667 5.25,2.5 2,0.83333 3.33333,1.66667 4,2.5 0.66667,0.83333 3.08333,2.83333 7.25,6 4.16667,3.16667 10.91667,9.25 20.25,18.25 9.33333,9 14.83333,14.33333 16.5,16 1.66667,1.66667 4.08333,3.58333 7.25,5.75 3.16667,2.16667 5.08333,3.08333 5.75,2.75 l 1,-0.5 1.5,-0.75 c 1,-0.5 1.25,-2.75 0.75,-6.75 -0.5,-4 -2.08333,-8 -4.75,-12 -2.66667,-4 -5.16667,-8.16667 -7.5,-12.5 -2.33333,-4.33333 -5.16667,-10.66667 -8.5,-19 -3.33333,-8.33333 -5.16667,-12.66667 -5.5,-13 -0.33333,-0.33333 -0.58333,-1.66667 -0.75,-4 L 183,167 h 1 l 0.25,-3 c 0.16667,-2 0.58333,-3.66667 1.25,-5 l 1,-2 3.75,-1.25 3.75,-1.25 z"
       id="path16"
       style="fill:#000000;fill-opacity:1"
       inkscape:connector-curvature="0"
       sodipodi:nodetypes="ccssssscsscsscssccsscsscsssssscsscssccssssssssscsssssssccsscccc" />
    <path
       d="M 83.5,73 H 84 l 1.75,1.5 q 1.75,1.5 3,4.75 L 90,82.5 93.25,84.75 Q 96.5,87 98,89 q 1.5,2 4.75,4 l 3.25,2 2,1.75 q 2,1.75 12.25,8.5 10.25,6.75 12.5,8.5 l 2.25,1.75 4,-1.5 q 4,-1.5 20,-10 l 16,-8.5 7.5,1.25 7.5,1.25 1.5,0.75 q 1.5,0.75 4,2.5 L 198,103 196.5,127.5 195,152 v 2.5 l -3.75,1.25 -3.75,1.25 -1,2 q -1,2 -1.25,5 l -0.25,3 h -1 l -0.5,-1.5 -0.5,-1.5 -3,1.25 q -3,1.25 -10,2.75 -7,1.5 -21,-4 -14,-5.5 -16,-8.25 l -2,-2.75 -7.5,1 q -7.5,1 -7.75,0 l -0.25,-1 -0.75,1 -0.75,1 -0.25,-1.5 q -0.25,-1.5 0.5,-2.5 l 0.75,-1 4,-0.25 q 4,-0.25 10,-2.25 6,-2 8.75,-5.25 L 140.5,139 138,132 q -2.5,-7 -5.75,-12.25 l -3.25,-5.25 -9,-5 q -9,-5 -14,-7.75 L 101,99 100,98.5 Q 99,98 96.75,95.5 94.5,93 92.25,90 90,87 87,85 L 84,83 83.25,80 82.5,77 82.75,75 Q 83,73 83.5,73 Z"
       id="path18"
       inkscape:connector-curvature="0"
       style="fill:#edf0f5" />
  </g>
</svg>
