<?xml version="1.0" encoding="UTF-8" standalone="no"?>
<!-- Generator: Adobe Illustrator 16.0.0, SVG Export Plug-In . SVG Version: 6.00 Build 0)  -->

<svg
   xmlns:dc="http://purl.org/dc/elements/1.1/"
   xmlns:cc="http://creativecommons.org/ns#"
   xmlns:rdf="http://www.w3.org/1999/02/22-rdf-syntax-ns#"
   xmlns:svg="http://www.w3.org/2000/svg"
   xmlns="http://www.w3.org/2000/svg"
   xmlns:sodipodi="http://sodipodi.sourceforge.net/DTD/sodipodi-0.dtd"
   xmlns:inkscape="http://www.inkscape.org/namespaces/inkscape"
   version="1.1"
   id="Ebene_1"
   x="0px"
   y="0px"
   width="43.30864"
   height="72.04924"
   viewBox="0 0 43.30864 72.04924"
   enable-background="new 0 0 80 80"
   xml:space="preserve"
   sodipodi:docname="pregnant.svg"
   inkscape:version="0.92.4 (5da689c313, 2019-01-14)"><metadata
   id="metadata15"><rdf:RDF><cc:Work
       rdf:about=""><dc:format>image/svg+xml</dc:format><dc:type
         rdf:resource="http://purl.org/dc/dcmitype/StillImage" /><dc:title></dc:title></cc:Work></rdf:RDF></metadata><defs
   id="defs13" /><sodipodi:namedview
   pagecolor="#ffffff"
   bordercolor="#666666"
   borderopacity="1"
   objecttolerance="10"
   gridtolerance="10"
   guidetolerance="10"
   inkscape:pageopacity="0"
   inkscape:pageshadow="2"
   inkscape:window-width="1920"
   inkscape:window-height="1017"
   id="namedview11"
   showgrid="false"
   inkscape:zoom="4.17193"
   inkscape:cx="-62.76118"
   inkscape:cy="52.527202"
   inkscape:window-x="-8"
   inkscape:window-y="-8"
   inkscape:window-maximized="1"
   inkscape:current-layer="Ebene_1" />

<path
   stroke-miterlimit="10"
   d="m 39.167077,41.233792 c 1.15,-0.576 2.416,-7.822 3.45,-14.838 1.035,-7.017 -2.414,-10.727 -3.066,-11.81 -0.345,-0.576 -1.342,-0.651 -4.907,-0.767 -3.565,-0.115 -2.914,0.767 0.307,1.995 1.881,0.715 4.218,3.603 4.448,5.214 0.229,1.61 -2.646,13.189 -3.452,12.958 -0.805,-0.229 -8.396,-8.856 -8.972,-9.546 -0.575,-0.69 -3.681,-0.92 -3.681,-0.92 0,0 -0.69,-2.243 -0.69,-4.659 0,-2.414 3.451,-1.179 4.746,-1.552 1.293,-0.374 0.718,-4.428 0.718,-4.428 0,0 1.467,-0.259 1.554,-0.891 0.086,-0.633 -1.496,-2.0419995 -2.071,-2.9619995 -0.575,-0.92 -0.346,-4.2560008 -0.805,-4.7160008 -0.46,-0.459 -1.851,-3.46600001 -7.247,-3.79600001 -5.635,-0.345 -7.131,4.94600001 -7.131,4.94600001 -0.46,-0.115 -5.0620004,-0.919 -6.5570004,5.5220003 -1.496,6.44 1.956,11.962 1.956,11.962 -0.116,-0.806 -0.23,-3.336 2.6450004,-6.212 2.049,-2.049 2.228,-4.791 2.163,-6.202 0.561,3.495 3.589,4.521 3.589,5.051 0,0.576 0.575,3.911 -0.69,4.142 -1.265,0.23 -4.945,4.371 -6.0960004,5.981 -1.15,1.61 -9.20300003,13.228 -8.85700003,14.722 0.345,1.496 5.62500003,3.137 8.01400003,4.295 2.3830004,1.156 7.0030004,4.936 8.2230004,6.106 -0.047,0.469 -0.095,0.814 -0.134,0.987 -0.229,1.035 -3.68,6.556 -3.796,7.706 -0.114,1.15 1.15,6.9 2.761,8.281 1.611,1.381 0.69,2.876 0.69,2.876 0,0 4.485,1.151 10.008,0.806 5.521,-0.346 10.007,-2.531 10.007,-2.531 0,0 -1.495,-2.99 -2.07,-3.797 -0.576,-0.805 1.149,-2.875 4.025,-4.83 2.876,-1.955 3.911,-8.395 2.646,-11.156 -1.266,-2.761 -5.982,-8.513 -5.982,-8.513 0,0 3.104,1.151 4.254,0.576 z m -25.88,0.345 c -1.841,-0.921 -5.5210004,-3.22 -5.5210004,-3.22 2.6450004,-1.266 4.7150004,-3.912 4.7150004,-3.912 0,0 1.956,3.335 3.451,6.21 0.694,1.335 0.941,3.609 0.985,5.77 -0.772,-1.666 -2.263,-4.165 -3.63,-4.848 z"
   id="path4"
   style="fill:#000000;fill-opacity:1;stroke:#010101;stroke-miterlimit:10;stroke-opacity:1"
   inkscape:connector-curvature="0" />


</svg>