<?xml version="1.0" encoding="UTF-8" standalone="no"?>
<!-- Created with Inkscape (http://www.inkscape.org/) -->

<svg
   xmlns:dc="http://purl.org/dc/elements/1.1/"
   xmlns:cc="http://creativecommons.org/ns#"
   xmlns:rdf="http://www.w3.org/1999/02/22-rdf-syntax-ns#"
   xmlns:svg="http://www.w3.org/2000/svg"
   xmlns="http://www.w3.org/2000/svg"
   xmlns:sodipodi="http://sodipodi.sourceforge.net/DTD/sodipodi-0.dtd"
   xmlns:inkscape="http://www.inkscape.org/namespaces/inkscape"
   version="1.1"
   id="svg2"
   xml:space="preserve"
   width="256"
   height="256"
   viewBox="0 0 256 256"
   sodipodi:docname="diabetes.svg"
   inkscape:version="0.92.4 (5da689c313, 2019-01-14)"><metadata
     id="metadata8"><rdf:RDF><cc:Work
         rdf:about=""><dc:format>image/svg+xml</dc:format><dc:type
           rdf:resource="http://purl.org/dc/dcmitype/StillImage" /><dc:title></dc:title></cc:Work></rdf:RDF></metadata><defs
     id="defs6"><clipPath
       clipPathUnits="userSpaceOnUse"
       id="clipPath18"><path
         d="M 0,1920 H 1920 V 0 H 0 Z"
         id="path16"
         inkscape:connector-curvature="0" /></clipPath><clipPath
       clipPathUnits="userSpaceOnUse"
       id="clipPath26"><path
         d="M 0,1920 H 1920 V 0 H 0 Z"
         id="path24"
         inkscape:connector-curvature="0" /></clipPath><linearGradient
       x1="0"
       y1="0"
       x2="1"
       y2="0"
       gradientUnits="userSpaceOnUse"
       gradientTransform="matrix(220.72475,0,0,-220.72475,720.62079,281.61765)"
       spreadMethod="pad"
       id="linearGradient62"><stop
         style="stop-opacity:1;stop-color:#ff0000"
         offset="0"
         id="stop58" /><stop
         style="stop-opacity:1;stop-color:#950000"
         offset="1"
         id="stop60" /></linearGradient><clipPath
       clipPathUnits="userSpaceOnUse"
       id="clipPath72"><path
         d="M 0,1920 H 1920 V 0 H 0 Z"
         id="path70"
         inkscape:connector-curvature="0" /></clipPath><linearGradient
       x1="0"
       y1="0"
       x2="1"
       y2="0"
       gradientUnits="userSpaceOnUse"
       gradientTransform="matrix(615.823,0,0,-615.823,1092.177,417.79883)"
       spreadMethod="pad"
       id="linearGradient106"><stop
         style="stop-opacity:1;stop-color:#ff0000"
         offset="0"
         id="stop102" /><stop
         style="stop-opacity:1;stop-color:#950000"
         offset="1"
         id="stop104" /></linearGradient></defs><sodipodi:namedview
     pagecolor="#ffffff"
     bordercolor="#666666"
     borderopacity="1"
     objecttolerance="10"
     gridtolerance="10"
     guidetolerance="10"
     inkscape:pageopacity="0"
     inkscape:pageshadow="2"
     inkscape:window-width="1920"
     inkscape:window-height="1017"
     id="namedview4"
     showgrid="false"
     inkscape:zoom="2.085965"
     inkscape:cx="80.174298"
     inkscape:cy="54.296718"
     inkscape:window-x="-8"
     inkscape:window-y="-8"
     inkscape:window-maximized="1"
     inkscape:current-layer="g10" /><g
     id="g10"
     inkscape:groupmode="layer"
     inkscape:label="the-world-day-of-struggle-against-diabetes-3782054"
     transform="matrix(1.3333333,0,0,-1.3333333,-636.31982,383.86661)"><g
       id="g12"
       style="fill:#1d242d;fill-opacity:0.98823529"
       transform="matrix(0.14121568,0,0,0.13542847,435.71268,85.104671)"><g
         id="g14"
         clip-path="url(#clipPath18)"
         style="fill:#1d242d;fill-opacity:0.98823529"><g
           id="g20"
           style="fill:#1d242d;fill-opacity:0.98823529"><g
             id="g22"
             style="fill:#1d242d;fill-opacity:0.98823529" /><g
             id="g32"
             style="fill:#1d242d;fill-opacity:0.98823529"><g
               clip-path="url(#clipPath26)"
               id="g30"
               style="opacity:0;fill:#1d242d;fill-opacity:0.98823529"><path
                 d="M 1920,0 H 0 v 1920 h 1920 z"
                 style="fill:#1d242d;fill-opacity:0.98823529;fill-rule:nonzero;stroke:none"
                 id="path28"
                 inkscape:connector-curvature="0" /></g></g></g><g
           id="g34"
           transform="translate(742.45188,1472.5424)"
           style="fill:#1d242d;fill-opacity:0.98823529"><path
             d="m 0,0 -197.617,-217.301 c -33.412,-33.412 -90.92,-101.901 -57.508,-135.313 l 13.791,-13.798 c 33.413,-33.412 123.195,-0.893 156.607,32.519 l 109.183,111.556 c 0.002,0.002 0.006,0 0.006,-0.003 v -653.584 c 0,-42.339 33.55,-75.96 75.857,-76.083 42.31,0.123 76.822,33.744 76.822,76.083 v 217.451 c 0,0.004 0.005,0.005 0.007,10e-4 11.108,-28.202 38.72,-46.478 70.992,-46.478 h 0.231 c 28.72,0 53.857,15.312 67.033,38.659 0,0 0.004,0.003 0.005,0.001 14.047,-18.162 36.094,-30.332 60.831,-30.332 h 0.029 c 32.044,0 59.507,20.094 71.022,47.98 0,0.002 0.003,0.003 0.005,0.001 13.338,-11.172 30.527,-17.445 49.287,-17.445 h 10e-4 c 42.637,0 77.523,34.886 77.523,77.524 V 0 Z"
             style="fill:#1d242d;fill-opacity:0.98823529;fill-rule:nonzero;stroke:none"
             id="path36"
             inkscape:connector-curvature="0" /></g></g></g><g
       id="g46"
       style="fill:#1d242d;fill-opacity:0.98823529"
       transform="matrix(0.14121568,0,0,0.13542847,435.71268,85.104671)"><g
         id="g48"
         style="fill:#1d242d;fill-opacity:0.98823529"><g
           id="g54"
           style="fill:#1d242d;fill-opacity:0.98823529"><g
             id="g56"
             style="fill:#1d242d;fill-opacity:0.98823529"><path
               d="M 720.621,206.263 C 720.621,145.352 770.072,95.9 830.984,95.9 v 0 c 60.91,0 110.362,49.452 110.362,110.363 v 0 c 0,78.322 -110.362,261.072 -110.362,261.072 v 0 c 0,0 -110.363,-182.75 -110.363,-261.072"
               style="fill:#1d242d;fill-opacity:0.98823529;stroke:none"
               id="path64"
               inkscape:connector-curvature="0" /></g></g></g></g></g></svg>