<?xml version="1.0" encoding="UTF-8" standalone="no"?>
<svg
   xmlns:dc="http://purl.org/dc/elements/1.1/"
   xmlns:cc="http://creativecommons.org/ns#"
   xmlns:rdf="http://www.w3.org/1999/02/22-rdf-syntax-ns#"
   xmlns:svg="http://www.w3.org/2000/svg"
   xmlns="http://www.w3.org/2000/svg"
   xmlns:sodipodi="http://sodipodi.sourceforge.net/DTD/sodipodi-0.dtd"
   xmlns:inkscape="http://www.inkscape.org/namespaces/inkscape"
   version="1.0"
   width="256pt"
   height="256pt"
   viewBox="0 0 256 256"
   preserveAspectRatio="xMidYMid meet"
   id="svg8"
   sodipodi:docname="kidney.svg"
   inkscape:version="0.92.4 (5da689c313, 2019-01-14)">
  <defs
     id="defs12" />
  <sodipodi:namedview
     pagecolor="#ffffff"
     bordercolor="#666666"
     borderopacity="1"
     objecttolerance="10"
     gridtolerance="10"
     guidetolerance="10"
     inkscape:pageopacity="0"
     inkscape:pageshadow="2"
     inkscape:window-width="1920"
     inkscape:window-height="1017"
     id="namedview10"
     showgrid="false"
     inkscape:zoom="1.2240381"
     inkscape:cx="-147.23467"
     inkscape:cy="233.18881"
     inkscape:window-x="-8"
     inkscape:window-y="-8"
     inkscape:window-maximized="1"
     inkscape:current-layer="g6" />
  <metadata
     id="metadata2"> Created by potrace 1.10, written by Peter Selinger 2001-2011 <rdf:RDF>
  <cc:Work
     rdf:about="">
    <dc:format>image/svg+xml</dc:format>
    <dc:type
       rdf:resource="http://purl.org/dc/dcmitype/StillImage" />
    <dc:title></dc:title>
  </cc:Work>
</rdf:RDF>
</metadata>
  <g
     transform="matrix(0.1,0,0,-0.1,0,256)"
     id="g6"
     style="fill:#000000;stroke:none">
    <path
       d="m 1211.6035,2526.8499 c -32.0465,-4.3985 -79.8021,-16.9659 -106.8218,-27.6481 -140.75353,-56.5528 -229.98126,-135.7265 -294.70274,-262.0277 -32.04656,-63.4649 -43.98548,-98.6531 -78.54549,-233.123 -25.13455,-98.6532 -30.16146,-110.592 -87.34259,-202.3333 -84.20074,-134.4697 -154.5775,-309.155 -179.71206,-442.9965 -15.7091,-84.829 -16.33746,-287.7905 -0.62836,-370.73465 C 477.04609,916.9816 504.6941,820.8419 531.0854,755.49205 542.39594,726.58732 556.21995,673.80474 563.13195,630.44768 583.86796,505.4033 619.68469,416.80397 688.17637,321.92105 775.51894,201.27511 898.67826,115.81767 1041.9452,76.230717 c 45.2423,-13.195621 77.2888,-16.965839 148.9223,-19.479224 83.5724,-3.141884 96.7682,-1.885155 160.2328,13.195621 122.5311,30.161456 244.4335,102.423286 319.2089,190.394266 40.8438,47.12731 81.059,136.35496 104.3084,228.09608 11.3106,43.35707 23.2495,89.22764 26.3913,102.42327 12.5673,46.499 12.5673,167.14478 0,211.75866 -21.3644,79.17388 -58.4378,142.63854 -123.7877,213.01521 -27.6479,30.1616 -33.3033,38.9587 -25.1346,42.1004 5.6553,1.8852 17.5943,-1.2566 27.6481,-7.5404 13.824,-9.4254 15.709,-9.4254 8.797,-0.6283 -12.5673,14.4525 -5.6552,20.736 38.3302,34.5601 54.0393,17.5941 134.47,23.2494 192.9078,13.8238 25.7628,-4.3983 58.4378,-8.1686 72.2618,-9.4253 13.8239,-0.6284 31.4183,-4.3985 38.9586,-8.1688 7.5403,-4.3986 25.1345,-7.5402 38.9585,-7.5402 20.1076,0 27.0197,3.1416 37.7019,18.2225 7.5404,10.0537 15.0808,28.9047 18.2226,42.1004 2.5134,13.824 6.9119,23.8778 9.4255,23.8778 2.5134,-0.6284 21.3643,-4.3986 42.1003,-8.7971 32.675,-6.912 39.5869,-6.912 52.7826,2.5134 18.8508,11.939 25.1345,40.2152 21.3643,88.5993 -3.1417,35.8167 -15.709,56.5528 -40.2153,66.6066 -7.5404,2.5136 -41.472,9.4254 -75.4037,15.0807 -116.2473,19.4794 -226.211,60.9515 -297.8444,113.1055 -47.7557,35.1885 -143.8954,157.091 -144.5237,182.8539 0,3.7701 9.4254,10.6822 20.736,15.0808 62.2079,22.621 98.0248,43.3571 130.0714,75.4036 54.6675,54.6676 65.9781,104.9367 55.9243,251.3456 -4.3985,69.1201 -17.5942,155.2059 -28.2764,185.3674 -54.0393,159.6043 -139.4968,268.9397 -255.1157,327.3775 -108.7069,55.2961 -262.6562,76.0322 -405.2948,55.2961 z m 406.5516,-926.8368 c 0,-16.9658 41.4721,-91.741 64.7214,-116.8757 28.2765,-30.7898 26.3913,-32.0465 -39.5869,-17.5942 -22.6211,5.0269 -59.0663,8.7971 -81.6874,9.4256 h -40.8437 l 9.3145,40.3198 c 10.9647,54.5001 10.9647,54.5001 10.9647,54.5001 0.5776,8.8749 43.1856,35.2513 63.2932,36.5079 7.5404,0 13.8242,-2.5133 13.8242,-6.2835 z m -15.7092,-206.7316 c 74.7753,-11.939 170.2867,-62.8363 245.0619,-129.4431 l 25.1345,-22.6211 -24.5061,4.3986 c -13.1956,1.8851 -57.1813,21.3644 -96.768,42.1003 -39.587,21.3645 -101.7949,50.2691 -138.8684,65.35 -40.2153,16.3373 -67.2349,30.7897 -68.4918,36.445 -2.5134,11.9389 6.2837,12.5674 58.4379,3.7703 z m -29.5331,-140.7537 c 24.5062,-12.5672 112.4772,-39.5869 145.152,-44.6138 37.0735,-6.2836 92.9978,-30.7897 82.9441,-37.0735 -4.3986,-3.1418 -25.1345,-7.5404 -46.499,-10.0537 -33.9316,-3.7702 -82.9439,-19.4793 -142.6386,-45.2422 -9.4254,-3.7703 -12.5672,-8.1688 -7.5404,-9.4255 12.5674,-5.027 8.1689,-13.8241 -5.0268,-10.0538 -18.2225,5.0268 -55.2961,50.2691 -62.8364,76.6604 -3.1418,12.5672 -6.2836,37.7018 -6.2836,55.9244 0,28.9048 1.2566,32.675 12.5671,32.675 7.5405,0 20.7362,-3.7702 30.1616,-8.7973 z"
       id="path4"
       inkscape:connector-curvature="0"
       sodipodi:nodetypes="cccccccccccccccccccccccccscccccccccccsccccscccccccsccccccccccccccccasc"
       style="stroke-width:0.62836391;fill:#1d242d;fill-opacity:0.98823529" />
  </g>
</svg>
