<?xml version="1.0" encoding="UTF-8" standalone="no"?>
<!-- Created with Inkscape (http://www.inkscape.org/) -->

<svg
   xmlns:dc="http://purl.org/dc/elements/1.1/"
   xmlns:cc="http://creativecommons.org/ns#"
   xmlns:rdf="http://www.w3.org/1999/02/22-rdf-syntax-ns#"
   xmlns:svg="http://www.w3.org/2000/svg"
   xmlns="http://www.w3.org/2000/svg"
   xmlns:sodipodi="http://sodipodi.sourceforge.net/DTD/sodipodi-0.dtd"
   xmlns:inkscape="http://www.inkscape.org/namespaces/inkscape"
   width="116.15506mm"
   height="66.939903mm"
   viewBox="0 0 116.15506 66.939904"
   version="1.1"
   id="svg956"
   inkscape:version="0.92.4 (5da689c313, 2019-01-14)"
   sodipodi:docname="crack_smal.svg">
  <defs
     id="defs950">
    <marker
       inkscape:stockid="Arrow2Lend"
       orient="auto"
       refY="0"
       refX="0"
       id="marker6818-8"
       style="overflow:visible"
       inkscape:isstock="true">
      <path
         inkscape:connector-curvature="0"
         id="path6820-0"
         style="fill:#000000;fill-opacity:1;fill-rule:evenodd;stroke:#000000;stroke-width:0.625;stroke-linejoin:round;stroke-opacity:1"
         d="M 8.7185878,4.0337352 -2.2072895,0.01601326 8.7185884,-4.0017078 c -1.7454984,2.3720609 -1.7354408,5.6174519 -6e-7,8.035443 z"
         transform="matrix(-1.1,0,0,-1.1,-1.1,0)" />
    </marker>
    <marker
       inkscape:stockid="Arrow2Lend"
       orient="auto"
       refY="0"
       refX="0"
       id="marker6818"
       style="overflow:visible"
       inkscape:isstock="true">
      <path
         inkscape:connector-curvature="0"
         id="path6820"
         style="fill:#000000;fill-opacity:1;fill-rule:evenodd;stroke:#000000;stroke-width:0.625;stroke-linejoin:round;stroke-opacity:1"
         d="M 8.7185878,4.0337352 -2.2072895,0.01601326 8.7185884,-4.0017078 c -1.7454984,2.3720609 -1.7354408,5.6174519 -6e-7,8.035443 z"
         transform="matrix(-1.1,0,0,-1.1,-1.1,0)" />
    </marker>
  </defs>
  <sodipodi:namedview
     id="base"
     pagecolor="#ffffff"
     bordercolor="#666666"
     borderopacity="1.0"
     inkscape:pageopacity="0.0"
     inkscape:pageshadow="2"
     inkscape:zoom="1.979899"
     inkscape:cx="190.94729"
     inkscape:cy="124.18439"
     inkscape:document-units="mm"
     inkscape:current-layer="layer1"
     showgrid="false"
     inkscape:window-width="1920"
     inkscape:window-height="1017"
     inkscape:window-x="1912"
     inkscape:window-y="-8"
     inkscape:window-maximized="1" />
  <metadata
     id="metadata953">
    <rdf:RDF>
      <cc:Work
         rdf:about="">
        <dc:format>image/svg+xml</dc:format>
        <dc:type
           rdf:resource="http://purl.org/dc/dcmitype/StillImage" />
        <dc:title></dc:title>
      </cc:Work>
    </rdf:RDF>
  </metadata>
  <g
     inkscape:label="Ebene 1"
     inkscape:groupmode="layer"
     id="layer1"
     transform="translate(-44.731992,-63.511862)">
    <path
       style="fill:#fddbdb;fill-opacity:0.72156863;fill-rule:evenodd;stroke:#000000;stroke-width:0.84666669;stroke-linecap:butt;stroke-linejoin:miter;stroke-miterlimit:4;stroke-dasharray:none;stroke-opacity:1"
       d="m 56.21717,77.178772 c 2.635408,3.881523 4.378466,8.342079 8.149514,11.482378 0.399449,0.332635 0.919153,0.69877 1.080784,0.747623 0.401216,0.121274 0.522755,0.781811 0.522755,0.781811 2.077065,7.61973 5.769171,18.032636 12.824725,22.265976 l 0.757438,0.44764 c 1.715757,0.66254 3.242932,0.38215 4.83661,0.43431 1.879063,-0.24404 3.214513,0.92535 5.694842,-0.88195 2.63761,-1.84031 1.780831,-15.867083 -2.444245,-22.754177 l -1.612699,-4.28373 C 84.47679,77.523458 79.836075,72.005657 75.972727,65.889882 v 0 z"
       id="path4162-4"
       inkscape:connector-curvature="0"
       sodipodi:nodetypes="cssccccccccc" />
    <path
       style="fill:#fcfcfc;fill-opacity:1;fill-rule:evenodd;stroke:#000000;stroke-width:0.85026252;stroke-linecap:butt;stroke-linejoin:miter;stroke-miterlimit:4;stroke-dasharray:none;stroke-opacity:1"
       d="m 84.353706,113.308 -1.463402,-1.64671 c -1.492052,-2.7166 -2.500816,-5.75042 -3.512167,-8.78254 -1.206296,-3.613616 -0.437883,-6.318833 2.048761,-8.23363 1.829888,-1.102085 3.815922,-1.374423 5.853613,-1.37227 0.805114,0.1059 1.622047,0.189638 2.224334,0.675947 l 4.54565,10.985663 c 1.264906,1.78124 0.40033,3.32756 -0.665221,4.85171 -1.265952,1.64618 -2.419964,2.40019 -3.547822,2.94567 -1.305295,0.77402 -3.064367,1.04273 -5.483746,0.57616 z"
       id="path4164-9"
       inkscape:connector-curvature="0"
       sodipodi:nodetypes="cccccccccc" />
    <path
       style="fill:none;fill-rule:evenodd;stroke:#000000;stroke-width:0.84666669;stroke-linecap:butt;stroke-linejoin:miter;stroke-miterlimit:4;stroke-dasharray:none;stroke-opacity:1"
       d="m 76.930268,80.101787 c 3.326188,-1.461508 3.376586,-1.461508 3.376586,-1.461508"
       id="path4166-1"
       inkscape:connector-curvature="0" />
    <path
       style="fill:none;fill-rule:evenodd;stroke:#000000;stroke-width:0.84666669;stroke-linecap:butt;stroke-linejoin:miter;stroke-miterlimit:4;stroke-dasharray:none;stroke-opacity:1"
       d="m 78.542964,82.067264 c 2.267857,-0.856745 2.267857,-0.856745 2.267857,-0.856745"
       id="path4168-6"
       inkscape:connector-curvature="0" />
    <path
       style="fill:none;fill-rule:evenodd;stroke:#000000;stroke-width:0.84666669;stroke-linecap:butt;stroke-linejoin:miter;stroke-miterlimit:4;stroke-dasharray:none;stroke-opacity:1"
       d="m 79.046934,84.183931 c 2.066269,-0.806348 2.066269,-0.806348 2.066269,-0.806348"
       id="path4170-9"
       inkscape:connector-curvature="0" />
    <rect
       style="fill:#ffffff;fill-opacity:1;stroke:#8e0000;stroke-width:0;stroke-miterlimit:4;stroke-dasharray:none;stroke-dashoffset:0;stroke-opacity:1"
       id="rect4172-7"
       width="26.655687"
       height="1.8530682"
       x="9.5776863"
       y="94.469925"
       transform="rotate(-29.977451)" />
    <path
       style="fill:#fddbdb;fill-opacity:0.72156863;fill-rule:evenodd;stroke:#000000;stroke-width:0.84666669;stroke-linecap:butt;stroke-linejoin:miter;stroke-miterlimit:4;stroke-dasharray:none;stroke-opacity:1"
       d="m 147.87086,76.962911 c -2.63539,3.881524 -4.37845,8.34208 -8.14951,11.482378 -0.39945,0.332636 -0.91914,0.698771 -1.08077,0.747624 -0.40123,0.121273 -0.52275,0.781811 -0.52275,0.781811 -2.07708,7.61973 -5.76919,18.032636 -12.82475,22.265966 l -0.75743,0.44763 c -1.71574,0.66255 -3.24293,0.38219 -4.83661,0.43432 -1.87906,-0.24401 -3.21451,0.92537 -5.69485,-0.88195 -2.63759,-1.84029 -1.78082,-15.867074 2.44424,-22.754167 l 1.61271,-4.28373 c 1.5501,-7.895196 6.19083,-13.412996 10.05417,-19.528772 v 0 z"
       id="path4162-0-2"
       inkscape:connector-curvature="0"
       sodipodi:nodetypes="cssccccccccc" />
    <path
       style="fill:#fcfcfc;fill-opacity:1;fill-rule:evenodd;stroke:#000000;stroke-width:0.85026252;stroke-linecap:butt;stroke-linejoin:miter;stroke-miterlimit:4;stroke-dasharray:none;stroke-opacity:1"
       d="m 119.73435,113.09216 1.46338,-1.64675 c 1.49205,-2.71658 2.50083,-5.7504 3.51217,-8.78252 1.2063,-3.613616 0.43789,-6.318833 -2.04877,-8.23363 -1.82987,-1.102085 -3.81592,-1.374424 -5.85359,-1.37227 -0.80513,0.1059 -1.62205,0.189638 -2.22434,0.675947 l -4.54564,10.985663 c -1.26492,1.78124 -0.40033,3.32756 0.6652,4.8517 1.26596,1.64618 2.41997,2.40019 3.54784,2.9457 1.30528,0.77399 3.06434,1.04272 5.48375,0.57616 z"
       id="path4164-0-0"
       inkscape:connector-curvature="0"
       sodipodi:nodetypes="cccccccccc" />
    <path
       style="fill:none;fill-rule:evenodd;stroke:#000000;stroke-width:0.84666669;stroke-linecap:butt;stroke-linejoin:miter;stroke-miterlimit:4;stroke-dasharray:none;stroke-opacity:1"
       d="m 127.15778,79.885926 c -3.32618,-1.461508 -3.37659,-1.461508 -3.37659,-1.461508"
       id="path4166-6-0"
       inkscape:connector-curvature="0" />
    <path
       style="fill:none;fill-rule:evenodd;stroke:#000000;stroke-width:0.84666669;stroke-linecap:butt;stroke-linejoin:miter;stroke-miterlimit:4;stroke-dasharray:none;stroke-opacity:1"
       d="m 125.54508,81.851404 c -2.26786,-0.856745 -2.26786,-0.856745 -2.26786,-0.856745"
       id="path4168-5-7"
       inkscape:connector-curvature="0" />
    <path
       style="fill:none;fill-rule:evenodd;stroke:#000000;stroke-width:0.84666669;stroke-linecap:butt;stroke-linejoin:miter;stroke-miterlimit:4;stroke-dasharray:none;stroke-opacity:1"
       d="m 125.04111,83.96807 c -2.06626,-0.806348 -2.06626,-0.806348 -2.06626,-0.806348"
       id="path4170-0-7"
       inkscape:connector-curvature="0" />
    <rect
       style="fill:#ffffff;fill-opacity:1;stroke:#8e0000;stroke-width:0;stroke-miterlimit:4;stroke-dasharray:none;stroke-dashoffset:0;stroke-opacity:1"
       id="rect4172-8-2"
       width="26.655687"
       height="1.8530682"
       x="-167.10007"
       y="-7.6913919"
       transform="matrix(-0.86622211,-0.49965913,-0.49965913,0.86622211,0,0)" />
    <rect
       style="fill:#000000;fill-opacity:1;stroke:#000000;stroke-width:0.56444448;stroke-miterlimit:4;stroke-dasharray:none;stroke-dashoffset:0;stroke-opacity:1"
       id="rect4204-3"
       width="95.955559"
       height="5.6444445"
       x="51.906403"
       y="124.5251" />
    <path
       style="fill:none;fill-rule:evenodd;stroke:#000000;stroke-width:0.70555556;stroke-linecap:butt;stroke-linejoin:miter;stroke-miterlimit:4;stroke-dasharray:none;stroke-opacity:1;marker-end:url(#marker6818)"
       d="M 69.362229,117.23776 C 55.509156,116.3726 52.12803,122.48874 45.754568,126.60999"
       id="path4206-9"
       inkscape:connector-curvature="0"
       sodipodi:nodetypes="cc" />
    <path
       style="fill:none;fill-rule:evenodd;stroke:#000000;stroke-width:0.70555556;stroke-linecap:butt;stroke-linejoin:miter;stroke-miterlimit:4;stroke-dasharray:none;stroke-opacity:1;marker-end:url(#marker6818-8)"
       d="m 136.24332,117.19364 c 13.85307,-0.86517 17.23419,5.25097 23.60766,9.37222"
       id="path4206-9-6"
       inkscape:connector-curvature="0"
       sodipodi:nodetypes="cc" />
    <path
       style="fill:#e4f0f0;fill-opacity:1;fill-rule:evenodd;stroke:#000000;stroke-width:0.49913466;stroke-linecap:butt;stroke-linejoin:miter;stroke-miterlimit:4;stroke-dasharray:none;stroke-opacity:1"
       d="m 87.389425,124.02492 14.221355,-2.96177 c -0.18106,-1.01745 -0.0725,-1.33571 -0.28452,-1.87554 -0.13988,-0.35593 -0.62402,-0.96422 -0.69372,-1.37862 -0.0613,-0.36853 0.24826,-1.4419 0.16332,-1.7673 -0.0958,-0.36696 -0.57459,-0.71938 -0.63793,-1.05654 -0.0777,-0.41516 0.24566,-1.17501 0.1553,-1.51346 -0.19547,-0.73189 -0.737187,-1.27756 -0.837787,-1.80012 -0.116067,-0.59951 0.0649,-1.31965 0.0104,-1.82399 v 0 c -1.742901,0.32402 -15.502108,4.50024 -14.956973,8.62734 1.033854,5.19916 1.238748,5.61003 2.860517,5.55001 z"
       id="path4160"
       inkscape:connector-curvature="0"
       sodipodi:nodetypes="ccsssssscccc"
       inkscape:transform-center-x="-0.53979009"
       inkscape:transform-center-y="-0.042191504" />
    <path
       style="fill:#e4f0f0;fill-opacity:1;fill-rule:evenodd;stroke:#000000;stroke-width:0.49154696;stroke-linecap:butt;stroke-linejoin:miter;stroke-miterlimit:4;stroke-dasharray:none;stroke-opacity:1"
       d="m 117.00846,123.84825 -13.81017,-2.7851 c 0.17522,-1.01846 0.0695,-1.33505 0.27514,-1.87681 0.13551,-0.35723 0.60528,-0.97069 0.67269,-1.38546 0.0589,-0.36892 -0.24198,-1.4372 -0.15971,-1.76324 0.0928,-0.36769 0.55744,-0.72554 0.61872,-1.06308 0.0751,-0.41565 -0.23928,-1.17064 -0.15176,-1.50981 0.18933,-0.73342 0.71494,-1.28504 0.8123,-1.80821 0.11217,-0.60025 -0.0639,-1.31732 -0.0113,-1.82173 v 0 c 1.6925,0.30241 15.05473,4.30617 14.52807,8.4351 -1.00045,5.20569 -1.1991,5.61857 -2.77385,5.57837 z"
       id="path4160-1"
       inkscape:connector-curvature="0"
       sodipodi:nodetypes="ccsssssscccc" />
  </g>
</svg>
