<?xml version="1.0" encoding="utf-8"?>
<!-- Generator: Adobe Illustrator 16.0.0, SVG Export Plug-In . SVG Version: 6.00 Build 0)  -->
<!DOCTYPE svg PUBLIC "-//W3C//DTD SVG 1.1//EN" "http://www.w3.org/Graphics/SVG/1.1/DTD/svg11.dtd">
<svg version="1.1" id="Ebene_1" xmlns="http://www.w3.org/2000/svg" xmlns:xlink="http://www.w3.org/1999/xlink" x="0px" y="0px"
	 width="80px" height="80px" viewBox="0 0 80 80" enable-background="new 0 0 80 80" xml:space="preserve">
<g>
	<circle fill="#D5D5D6" stroke="#1D1D1B" stroke-width="4" stroke-miterlimit="10" cx="40" cy="40" r="37.756"/>
	<g>
		<g transform="matrix(0.1,0,0,-0.1,0,362)">
			<path fill="#339937" d="M302.641,3349.14c-12.129,23.486-32.432,35.508-60.918,41.27c-15.098,3.027-19.326,4.297-28.086,8.232
				c-5.742,2.529-10.967,4.39-11.66,4.287c-1.807-0.474-1.777-2.026,0.518-18.135c1.104-7.915,2.861-24.551,3.838-36.904
				c2.441-31.484,3.691-36.602,12.256-51.484c12.217-21.172,38.623-38.066,64.043-40.918c9.707-1.055,57.705-9.727,56.084-7.881
				c-0.449,0.43-40.039,16.748-42.783,18.232c-13.428,7.49-36.865,21.641-46.787,37.49c-5.078,8.076-9.199,23.623-6.133,23.252
				c1.055-0.117,6.797-5.938,12.422-12.715c5.391-6.357,7.656-8.574,21.855-21.016c14.922-12.91,42.188-30.693,66.865-43.389
				C344.155,3249.463,322.075,3310.527,302.641,3349.14z"/>
		</g>
		<g transform="matrix(0.1,0,0,-0.1,0,362)">
			<path fill="#339937" d="M412.891,3296.933c1.602,1.289,8.594,8.652,17.344,11.299c33.906,10.293,59.746,29.268,76.25,56.255
				c11.055,17.979,12.949,30.439,11.035,70.854c-1.055,21.421-0.762,27.554,1.562,40.737c1.465,8.599,2.207,16.27,1.816,17.183
				c-1.25,2.275-3.359,1.724-24.316-6.851c-10.293-4.209-32.148-12.236-48.516-17.764c-41.68-14.009-48.14-17.432-65.337-34.077
				c-24.404-23.657-38.232-65.059-33.447-100.371c1.113-7.842,1.895-32.871,4.502-51.543c1.865-13.34,5.566-34.531,6.016-32.773
				c5.557,20.664,24.678,127.036,42.686,145.811c9.175,9.604,28.745,20.449,29.312,16.177c0.195-1.46-5.703-11.177-12.93-21.079
				c-6.777-9.429-9.004-13.242-20.942-36.641c-12.393-24.531-35.273-103.018-35.83-105.029c-0.566-2.012,5.234-0.859,9.053,1.094
				C374.947,3252.148,412.891,3296.933,412.891,3296.933z"/>
		</g>
		<path fill="#FFFFFF" d="M51.662,38.783c5.939-5.722,11.158-10.748,11.158-10.748c1.037,0.035,2.092-0.305,2.93-1.045
			c1.752-1.541,1.924-4.209,0.383-5.961c-1.539-1.752-4.209-1.923-5.961-0.382c-0.84,0.74-1.312,1.74-1.412,2.774L39.592,38.783
			H11.789c0,9.442,5.724,17.681,14.218,22.059v5.448c0,0.634,0.422,1.149,0.945,1.149h25.06c0.523,0,0.945-0.516,0.945-1.149v-4.941
			c9.062-4.226,15.254-12.743,15.254-22.565H51.662z"/>
	</g>
</g>
</svg>
