<?xml version="1.0" encoding="UTF-8" standalone="no"?>
<!-- Generator: Adobe Illustrator 16.0.0, SVG Export Plug-In . SVG Version: 6.00 Build 0)  -->

<svg
   xmlns:dc="http://purl.org/dc/elements/1.1/"
   xmlns:cc="http://creativecommons.org/ns#"
   xmlns:rdf="http://www.w3.org/1999/02/22-rdf-syntax-ns#"
   xmlns:svg="http://www.w3.org/2000/svg"
   xmlns="http://www.w3.org/2000/svg"
   xmlns:sodipodi="http://sodipodi.sourceforge.net/DTD/sodipodi-0.dtd"
   xmlns:inkscape="http://www.inkscape.org/namespaces/inkscape"
   version="1.1"
   id="Ebene_1"
   x="0px"
   y="0px"
   width="80px"
   height="80px"
   viewBox="0 0 80 80"
   enable-background="new 0 0 80 80"
   xml:space="preserve"
   sodipodi:docname="otherdrugs.svg"
   inkscape:version="0.92.4 (5da689c313, 2019-01-14)"><metadata
   id="metadata17"><rdf:RDF><cc:Work
       rdf:about=""><dc:format>image/svg+xml</dc:format><dc:type
         rdf:resource="http://purl.org/dc/dcmitype/StillImage" /><dc:title></dc:title></cc:Work></rdf:RDF></metadata><defs
   id="defs15" /><sodipodi:namedview
   pagecolor="#ffffff"
   bordercolor="#666666"
   borderopacity="1"
   objecttolerance="10"
   gridtolerance="10"
   guidetolerance="10"
   inkscape:pageopacity="0"
   inkscape:pageshadow="2"
   inkscape:window-width="1920"
   inkscape:window-height="1017"
   id="namedview13"
   showgrid="false"
   inkscape:zoom="5.6568543"
   inkscape:cx="75.877722"
   inkscape:cy="59.655461"
   inkscape:window-x="1912"
   inkscape:window-y="-8"
   inkscape:window-maximized="1"
   inkscape:current-layer="Ebene_1" />
<path
   fill="#D5D5D6"
   stroke="#1D1D1B"
   stroke-width="4"
   stroke-miterlimit="10"
   d="M66.697,13.303  C59.865,6.47,50.426,2.244,39.998,2.244C19.148,2.244,2.244,19.148,2.244,40c0,10.426,4.227,19.863,11.059,26.695  c6.832,6.834,16.271,11.061,26.695,11.061c20.854,0,37.758-16.904,37.758-37.756C77.756,29.574,73.529,20.135,66.697,13.303z"
   id="path2"
   style="fill:#00aa88;fill-opacity:0.95686275" />

<path
   d="m 221.8576,49.758155 c -1.8258,-1.921335 -2.97657,-3.409848 -5.16357,-4.839848 l -50.07437,50.349955 c 1.385,2.074 2.72193,3.033728 4.47993,4.790728 0.188,0.187 1.24478,0.96062 1.43578,1.14462 l 50.20586,-50.365744 c -0.102,-0.104 -0.78163,-0.975711 -0.88363,-1.079711 z"
   id="path10"
   style="fill:#ff0202;fill-opacity:0.95686275"
   inkscape:connector-curvature="0"
   sodipodi:nodetypes="ccccccc" />
<path
   style="fill:#62626a;fill-opacity:1;stroke:#000000;stroke-width:0.08215056;stroke-opacity:1"
   d="m 26.864907,18.876454 c -0.460506,-0.0015 -0.890487,0.0087 -1.17985,0.03248 -4.248187,0.349284 -7.511721,1.942002 -7.664176,4.327932 -0.04018,0.628802 -0.05561,2.754872 -0.110772,4.05792 -0.0035,0.03215 0.04396,-0.933669 0,0 0,2.6884 5.148607,4.22657 9.02865,4.226576 4.130177,0.04095 8.204039,-1.523574 8.787688,-4.130074 -0.0016,-0.136655 0.02277,0.136089 0,0 0.139011,-0.708258 0.133786,-3.831868 0.01151,-4.310932 -17.132846,-1.905067 -3.267311,-3.633569 -6.827095,-4.10978 -0.426348,-0.05703 -1.278461,-0.09166 -2.045969,-0.09412 z"
   id="path4518"
   inkscape:connector-curvature="0"
   sodipodi:nodetypes="ccsccccccccc" /><path
   style="fill:#ffffff;fill-opacity:1;stroke:#000000;stroke-width:0.09698796;stroke-opacity:1"
   id="path6234"
   sodipodi:type="arc"
   sodipodi:cx="26.902843"
   sodipodi:cy="22.997253"
   sodipodi:rx="8.8652306"
   sodipodi:ry="4.0967097"
   sodipodi:start="0.023356695"
   sodipodi:end="0.019614847"
   d="m 35.765656,23.09293 a 8.8652306,4.0967097 0 0 1 -9.061565,4.000003 8.8652306,4.0967097 0 0 1 -8.664432,-4.183694 8.8652306,4.0967097 0 0 1 9.045355,-4.00783 8.8652306,4.0967097 0 0 1 8.681355,4.176196"
   sodipodi:open="true" /><path
   style="opacity:0.806;fill:#636368;fill-opacity:0.34509804;stroke:#000000;stroke-width:0.13024788;stroke-opacity:1"
   d="m 18.127205,22.56025 c 0,0 -0.0313,0.06826 -0.03325,0.132351 l -0.0095,0.313201 c -0.0016,0.05245 -0.0011,0.0858 0.04514,0.0858 l 17.577683,0.0012 c 0.04619,3e-6 0.05713,0.01054 0.05018,-0.09909 l -0.02118,-0.334051 c -0.0028,-0.04221 0.004,-0.100405 -0.04189,-0.100402 z"
   id="rect6252"
   inkscape:connector-curvature="0"
   sodipodi:nodetypes="csssssssc" /><path
   d="m 61.389851,20.699782 c -1.024679,0.01082 -2.057787,0.404013 -2.921428,1.199324 l -6.24263,5.7506 c 0.104031,0.01534 0.200801,0.01432 0.307519,0.041 0.284294,0.07107 0.566608,0.187733 0.8303,0.369023 0.527384,0.362577 1.780233,1.414018 2.900927,2.378145 1.120693,0.964126 2.111628,1.834862 2.111628,1.834862 0,0 0.07126,0.03942 0.174261,0.153759 0.103005,0.114335 0.233157,0.306023 0.348521,0.615038 0.06268,0.167877 0.09783,0.473913 0.143509,0.717543 0.0384,0.204826 0.09582,0.338038 0.112757,0.604787 0.01945,0.306512 -0.04037,0.789941 -0.0615,1.189073 l 5.627593,-5.186817 c 1.187023,-1.093107 1.76194,-2.688511 1.691353,-4.254009 -0.0468,-1.037944 -0.368271,-2.061324 -1.004561,-2.921428 L 64.905815,22.51414 c -0.79799,-1.078684 -1.91209,-1.682539 -3.075187,-1.793859 -0.145388,-0.01392 -0.294395,-0.02205 -0.440777,-0.0205 z"
   id="path2-8"
   style="fill:#62626a;fill-opacity:1;fill-rule:evenodd;stroke-width:0.32802001"
   inkscape:connector-curvature="0" /><path
   d="m 58.849101,35.397927 c 0.02,-0.378735 0.07667,-0.837463 0.05824,-1.128299 -0.01603,-0.253119 -0.0704,-0.379513 -0.106768,-0.573892 L 53.200165,38.8607 c -0.233648,0.215619 -0.481428,0.400429 -0.737672,0.554407 -0.256244,0.153978 -0.525099,0.276482 -0.79591,0.369615 -0.270811,0.09313 -0.547741,0.151762 -0.825012,0.184808 -0.277272,0.03305 -0.559016,0.03601 -0.834735,0.0097 -0.275721,-0.02625 -0.549204,-0.08049 -0.815325,-0.165328 -0.266121,-0.08483 -0.518358,-0.197818 -0.766806,-0.34045 -0.248448,-0.142633 -0.48587,-0.315893 -0.708538,-0.515501 -0.222669,-0.199607 -0.432292,-0.424987 -0.621198,-0.68087 L 46.61938,37.64486 c -0.188903,-0.255888 -0.342498,-0.534735 -0.475589,-0.817044 -0.133092,-0.282308 -0.242159,-0.575634 -0.32029,-0.875404 -0.07813,-0.29977 -0.131253,-0.606107 -0.155299,-0.914311 -0.0043,-0.05515 0.0025,-0.110107 0,-0.165355 -0.560445,1.579899 -0.373713,3.417891 0.650332,4.805154 l 0.465898,0.632221 c 1.511219,2.047123 4.235947,2.308546 6.105131,0.583603 l 5.959771,-5.495517 z"
   id="path4"
   style="fill:#ffffff;fill-rule:evenodd;stroke:#62626a;stroke-width:0.55083776;stroke-linecap:round;stroke-linejoin:round;stroke-opacity:1"
   inkscape:connector-curvature="0" /><path
   d="m 58.799405,33.695674 c -0.04325,-0.231179 -0.07654,-0.52157 -0.135887,-0.68087 -0.109238,-0.293221 -0.232477,-0.4751 -0.330011,-0.583603 -0.09753,-0.108504 -0.165006,-0.145901 -0.165006,-0.145901 0,0 -0.938319,-0.826226 -1.99948,-1.741097 -1.061161,-0.914872 -2.247493,-1.912537 -2.746874,-2.256598 -0.249687,-0.172025 -0.517023,-0.282722 -0.786188,-0.350162 -0.10105,-0.02532 -0.19268,-0.02435 -0.291186,-0.03891 l -5.387027,4.970429 c -0.602593,0.556088 -1.024293,1.252054 -1.290911,2.003704 0.0025,0.05525 -0.0043,0.110206 0,0.165354 0.02404,0.308211 0.07715,0.614542 0.1553,0.914311 0.07815,0.29977 0.187207,0.593096 0.320289,0.875405 0.133083,0.282308 0.286702,0.561161 0.475589,0.817044 l 0.475589,0.632221 c 0.188903,0.255888 0.398499,0.481231 0.621198,0.68087 0.222699,0.199639 0.460121,0.372883 0.708538,0.5155 0.248417,0.142617 0.500685,0.255603 0.766806,0.340451 0.266122,0.08485 0.539604,0.139078 0.815323,0.165354 0.275718,0.02628 0.557431,0.02332 0.834734,-0.0097 0.277303,-0.03305 0.554233,-0.09167 0.825013,-0.184807 0.27078,-0.09313 0.539665,-0.215622 0.795909,-0.369616 0.256244,-0.153993 0.50404,-0.338801 0.737672,-0.554407 l 5.600408,-5.164964 z"
   id="path6"
   style="fill:#ffffff;fill-opacity:1;fill-rule:evenodd;stroke:#62626a;stroke-width:0.55083776;stroke-linecap:round;stroke-linejoin:round;stroke-opacity:1"
   inkscape:connector-curvature="0" /><path
   d="M 45.744659,52.611135 H 45.5878 v -0.04706 h 0.156859 z"
   style="fill:#afaaaa;fill-opacity:1;fill-rule:nonzero;stroke:none;stroke-width:0.03522132"
   id="path12"
   inkscape:connector-curvature="0" /><g
   id="g22"
   transform="matrix(0.03585345,0,0,-0.03460034,44.710001,52.438078)"><path
     d="m 0,0 -116.372,134.988 c -3.032,3.518 -7.179,5.5 -11.507,5.5 h -3.36 c -8.907,0 -16.129,8.227 -16.129,18.376 v 43.47 c 0,10.149 -7.221,18.377 -16.129,18.377 h -109.757 c -8.908,0 -16.129,-8.228 -16.129,-18.377 v -43.47 c 0,-10.149 -7.221,-18.376 -16.129,-18.376 -4.198,0 -8.23,-1.865 -11.24,-5.198 L -437.242,1.888 c -1.447,-1.603 -2.644,-3.486 -3.454,-5.592 -2.834,-7.372 -4.327,-15.622 -4.327,-24.025 v -399.694 c 0,-27.282 15.873,-49.398 35.454,-49.398 h 376.967 c 21.861,0 39.581,24.69 39.581,55.148 v 395.728 c 0,7.352 -1.353,14.561 -3.912,20.948 C 2.321,-3.135 1.259,-1.46 0,0"
     style="fill:#ffffff;fill-opacity:1;fill-rule:nonzero;stroke:none"
     id="path24"
     inkscape:connector-curvature="0" /></g><g
   id="g26"
   transform="matrix(0.03585345,0,0,-0.03460034,44.710001,52.438078)"
   style="stroke:#62626a;stroke-opacity:1"><path
     d="m 0,0 -116.372,134.988 c -3.032,3.518 -7.179,5.5 -11.507,5.5 h -3.36 c -8.907,0 -16.129,8.227 -16.129,18.376 v 43.47 c 0,10.149 -7.221,18.377 -16.129,18.377 h -109.757 c -8.908,0 -16.129,-8.228 -16.129,-18.377 v -43.47 c 0,-10.149 -7.221,-18.376 -16.129,-18.376 -4.198,0 -8.23,-1.865 -11.24,-5.198 L -437.242,1.888 c -1.447,-1.603 -2.644,-3.486 -3.454,-5.592 -2.834,-7.372 -4.327,-15.622 -4.327,-24.025 v -399.694 c 0,-27.282 15.873,-49.398 35.454,-49.398 h 376.967 c 21.861,0 39.581,24.69 39.581,55.148 v 395.728 c 0,7.352 -1.353,14.561 -3.912,20.948 C 2.321,-3.135 1.259,-1.46 0,0 Z"
     style="fill:none;stroke:#62626a;stroke-width:21;stroke-linecap:butt;stroke-linejoin:miter;stroke-miterlimit:10;stroke-dasharray:none;stroke-opacity:1"
     id="path28"
     inkscape:connector-curvature="0" /></g><g
   id="g30"
   transform="matrix(0.03585345,0,0,-0.03460034,40.263997,45.883476)"><path
     d="m 0,0 h -193.515 c -4.893,0 -8.859,3.966 -8.859,8.859 v 72.023 c 0,4.892 3.966,8.859 8.859,8.859 L 0,89.741 c 4.893,0 8.859,-3.967 8.859,-8.859 V 8.859 C 8.859,3.966 4.893,0 0,0"
     style="fill:#ffffff;fill-opacity:1;fill-rule:nonzero;stroke:none"
     id="path32"
     inkscape:connector-curvature="0" /></g><g
   id="g34"
   transform="matrix(0.03585345,0,0,-0.03460034,40.263997,45.883476)"><path
     d="m 0,0 h -193.515 c -4.893,0 -8.859,3.966 -8.859,8.859 v 72.023 c 0,4.892 3.966,8.859 8.859,8.859 L 0,89.741 c 4.893,0 8.859,-3.967 8.859,-8.859 V 8.859 C 8.859,3.966 4.893,0 0,0 Z"
     style="fill:none;stroke:#62626a;stroke-width:19;stroke-linecap:butt;stroke-linejoin:miter;stroke-miterlimit:10;stroke-dasharray:none;stroke-opacity:0.89419795"
     id="path36"
     inkscape:connector-curvature="0" /></g><g
   id="g38"
   transform="matrix(0.03585345,0,0,-0.03460034,34.989865,44.919027)"
   style="fill:#62626a;fill-opacity:1"><path
     d="m 0,0 h -13.877 c -4.407,0 -7.979,3.572 -7.979,7.979 v 18.035 c 0,4.406 3.572,7.979 7.979,7.979 H 0 c 4.406,0 7.979,-3.573 7.979,-7.979 V 7.979 C 7.979,3.572 4.406,0 0,0"
     style="fill:#62626a;fill-opacity:1;fill-rule:nonzero;stroke:none"
     id="path40"
     inkscape:connector-curvature="0" /></g><g
   id="g42"
   transform="matrix(0.03585345,0,0,-0.03460034,37.123565,44.919027)"
   style="fill:#62626a;fill-opacity:1"><path
     d="m 0,0 h -14.853 c -4.137,0 -7.491,3.354 -7.491,7.491 v 19.01 c 0,4.138 3.354,7.492 7.491,7.492 H 0 c 4.138,0 7.491,-3.354 7.491,-7.492 V 7.491 C 7.491,3.354 4.138,0 0,0"
     style="fill:#62626a;fill-opacity:1;fill-rule:nonzero;stroke:none"
     id="path44"
     inkscape:connector-curvature="0" /></g><g
   id="g46"
   transform="matrix(0.03585345,0,0,-0.03460034,39.109964,44.919027)"
   style="fill:#62626a;fill-opacity:1"><path
     d="m 0,0 h -14.871 c -4.132,0 -7.483,3.35 -7.483,7.482 V 26.51 c 0,4.133 3.351,7.483 7.483,7.483 H 0 c 4.132,0 7.482,-3.35 7.482,-7.483 V 7.482 C 7.482,3.35 4.132,0 0,0"
     style="fill:#62626a;fill-opacity:1;fill-rule:nonzero;stroke:none"
     id="path48"
     inkscape:connector-curvature="0" /></g><path
   d="m 43.176007,68.123043 c -4.215899,-0.01066 -8.431799,-0.02128 -12.647662,-0.03197 -0.363196,-8.93e-4 -0.656943,-0.325277 -0.656226,-0.7246 0.0085,-4.67537 0.01696,-9.350741 0.02542,-14.026111 0.510983,0.12207 1.283625,0.242652 2.214273,0.141135 0.661281,-0.07218 1.48444,-0.161964 2.310576,-0.705709 1.241246,-0.816983 1.21977,-1.823264 2.021704,-1.905371 0.744246,-0.07622 0.927887,0.773594 2.021705,0.882101 0.748511,0.07429 0.795264,-0.310469 1.668726,-0.352854 1.439767,-0.06979 2.545165,0.915801 2.824033,1.164405 0.516146,0.460253 0.841266,0.948983 1.02652,1.270005 -0.04898,4.523752 -0.09795,9.047504 -0.146963,13.571221 -0.0043,0.398422 -0.299735,0.718683 -0.662106,0.717749"
   style="fill:#62626a;fill-opacity:1;fill-rule:nonzero;stroke:none;stroke-width:0.03522132"
   id="path52"
   inkscape:connector-curvature="0" /><g
   id="g54"
   transform="matrix(0.03585345,0,0,-0.03460034,42.763796,61.808721)"><path
     d="m 0,0 h -15.684 c -5.437,0 -9.844,4.408 -9.844,9.846 v 190.44 c 0,5.438 4.407,9.846 9.844,9.846 H 0 c 5.437,0 9.846,-4.408 9.846,-9.846 V 9.846 C 9.846,4.408 5.437,0 0,0"
     style="fill:#f9f9f9;fill-opacity:1;fill-rule:nonzero;stroke:none"
     id="path56"
     inkscape:connector-curvature="0" /></g></svg>