<?xml version="1.0" encoding="UTF-8" standalone="no"?>
<!-- Generator: Adobe Illustrator 16.0.0, SVG Export Plug-In . SVG Version: 6.00 Build 0)  -->

<svg
   xmlns:dc="http://purl.org/dc/elements/1.1/"
   xmlns:cc="http://creativecommons.org/ns#"
   xmlns:rdf="http://www.w3.org/1999/02/22-rdf-syntax-ns#"
   xmlns:svg="http://www.w3.org/2000/svg"
   xmlns="http://www.w3.org/2000/svg"
   xmlns:sodipodi="http://sodipodi.sourceforge.net/DTD/sodipodi-0.dtd"
   xmlns:inkscape="http://www.inkscape.org/namespaces/inkscape"
   version="1.1"
   id="Ebene_1"
   x="0px"
   y="0px"
   width="80px"
   height="80px"
   viewBox="0 0 80 80"
   enable-background="new 0 0 80 80"
   xml:space="preserve"
   sodipodi:docname="11.svg"
   inkscape:version="0.92.4 (5da689c313, 2019-01-14)"><metadata
   id="metadata17"><rdf:RDF><cc:Work
       rdf:about=""><dc:format>image/svg+xml</dc:format><dc:type
         rdf:resource="http://purl.org/dc/dcmitype/StillImage" /><dc:title /></cc:Work></rdf:RDF></metadata><defs
   id="defs15" /><sodipodi:namedview
   pagecolor="#ffffff"
   bordercolor="#666666"
   borderopacity="1"
   objecttolerance="10"
   gridtolerance="10"
   guidetolerance="10"
   inkscape:pageopacity="0"
   inkscape:pageshadow="2"
   inkscape:window-width="1920"
   inkscape:window-height="1017"
   id="namedview13"
   showgrid="false"
   inkscape:zoom="5.6568543"
   inkscape:cx="66.314912"
   inkscape:cy="29.868588"
   inkscape:window-x="-8"
   inkscape:window-y="-8"
   inkscape:window-maximized="1"
   inkscape:current-layer="Ebene_1" />
<path
   stroke-miterlimit="10"
   d="m 66.697002,13.126223 c -6.832,-6.8329994 -16.271,-11.0589994 -26.699,-11.0589994 -20.85,0 -37.7540025,16.9039994 -37.7540025,37.7559994 0,10.426001 4.227002,19.863001 11.0590025,26.695001 6.832,6.834 16.271,11.061 26.695,11.061 20.854,0 37.758,-16.904 37.758,-37.756001 0,-10.426 -4.227,-19.865 -11.059,-26.697 z"
   id="path2"
   style="fill:#ff0000;fill-opacity:0.94178081;stroke:#1d1d1b;stroke-width:4;stroke-miterlimit:10"
   inkscape:connector-curvature="0" />


<g
   transform="matrix(0.82640774,0,0,0.7910622,15.451029,13.320263)"
   data-name="Layer 26"
   id="Layer_26"
   style="fill:#ffffff;fill-opacity:1;stroke:#000000;stroke-opacity:1"><polyline
     class="cls-1"
     points="24 6 24 2 34 2 34 6"
     id="polyline8"
     style="fill:#ffffff;fill-opacity:1;stroke:#000000;stroke-opacity:1" /><rect
     class="cls-1"
     height="36"
     width="34"
     x="2"
     y="16"
     id="rect10"
     style="fill:#ffffff;fill-opacity:1;stroke:#000000;stroke-opacity:1" /><rect
     class="cls-1"
     height="56"
     width="34"
     x="2"
     y="6"
     id="rect12"
     style="fill:#ffffff;fill-opacity:1;stroke:#000000;stroke-opacity:1" /><circle
     class="cls-1"
     cx="19"
     cy="37"
     r="11"
     id="circle14"
     style="fill:#ffffff;fill-opacity:1;stroke:#000000;stroke-opacity:1" /><path
     inkscape:connector-curvature="0"
     class="cls-1"
     d="M 19,26 V 25.47 A 7.24,7.24 0 0 1 23,19 v 0"
     id="path16"
     style="fill:#ffffff;fill-opacity:1;stroke:#000000;stroke-opacity:1" /><path
     inkscape:connector-curvature="0"
     class="cls-1"
     d="m 14.5,24.5 v 0 A 5.12,5.12 0 0 1 13,20.88 V 20 h 0.88 a 5.12,5.12 0 0 1 3.62,1.5 v 0 A 5.12,5.12 0 0 1 19,25.12 V 26 H 18.12 A 5.12,5.12 0 0 1 14.5,24.5 Z"
     id="path18"
     style="fill:#ffffff;fill-opacity:1;stroke:#000000;stroke-opacity:1" /><path
     inkscape:connector-curvature="0"
     class="cls-1"
     d="m 19,30 a 7,7 0 0 1 7,7"
     id="path20"
     style="fill:#ffffff;fill-opacity:1;stroke:#000000;stroke-opacity:1" /><path
     inkscape:connector-curvature="0"
     class="cls-1"
     d="m 40,28 h 22 v 32 a 2,2 0 0 1 -2,2 H 42 a 2,2 0 0 1 -2,-2 z"
     id="path22"
     style="fill:#ffffff;fill-opacity:1;stroke:#000000;stroke-opacity:1" /><polyline
     class="cls-1"
     points="60 28 60 18 56 18 56 28"
     id="polyline24"
     style="fill:#ffffff;fill-opacity:1;stroke:#000000;stroke-opacity:1" /><line
     class="cls-1"
     x1="40"
     x2="62"
     y1="58"
     y2="58"
     id="line26"
     style="fill:#ffffff;fill-opacity:1;stroke:#000000;stroke-opacity:1" /><path
     inkscape:connector-curvature="0"
     class="cls-1"
     d="m 40,38 1.29,-1.29 A 2.41,2.41 0 0 1 43,36 v 0 a 2.41,2.41 0 0 1 1.71,0.71 l 0.58,0.58 A 2.41,2.41 0 0 0 47,38 v 0 a 2.41,2.41 0 0 0 1.71,-0.71 l 0.58,-0.58 A 2.41,2.41 0 0 1 51,36 v 0 a 2.41,2.41 0 0 1 1.71,0.71 l 0.58,0.58 A 2.41,2.41 0 0 0 55,38 v 0 a 2.41,2.41 0 0 0 1.71,-0.71 l 0.58,-0.58 A 2.41,2.41 0 0 1 59,36 v 0 a 2.41,2.41 0 0 1 1.71,0.71 L 62,38"
     id="path28"
     style="fill:#ffffff;fill-opacity:1;stroke:#000000;stroke-opacity:1" /></g><text
   xml:space="preserve"
   style="font-style:normal;font-weight:normal;font-size:25.98201942px;line-height:1.25;font-family:sans-serif;letter-spacing:0px;word-spacing:0px;fill:#1a1a1a;fill-opacity:0.95686275;stroke:none;stroke-width:0.6495505;stroke-opacity:1;"
   x="19.231215"
   y="57.010288"
   id="text3592"
   transform="scale(0.95565303,1.0464049)"><tspan
     sodipodi:role="line"
     id="tspan3590"
     x="19.231215"
     y="57.010288"
     style="font-size:5.19640398px;fill:#1a1a1a;fill-opacity:0.95686275;stroke-width:0.6495505;stroke:none;stroke-opacity:1;">Grapefruit</tspan></text>

<path
   style="opacity:1;fill:#ff882a;fill-opacity:1;stroke:none;stroke-width:3.340662;stroke-miterlimit:4;stroke-dasharray:none;stroke-opacity:1"
   d="m 29.083007,50.56313 c -5.160295,-1.250729 -7.917795,-6.699081 -5.72619,-11.313979 1.435474,-3.022701 4.37445,-4.850865 7.798303,-4.850865 5.563147,0 9.64996,4.998342 8.305915,10.15848 -1.142829,4.387616 -5.840158,7.106232 -10.378028,6.006364 z m 8.287739,-8.667853 c -0.147104,-1.073244 -0.684839,-2.25663 -1.449399,-3.189675 -0.727349,-0.887633 -2.708742,-1.922883 -4.011698,-2.096057 l -0.83969,-0.111602 v 0.541162 c 0,0.507184 0.04162,0.54127 0.662913,0.542889 0.813514,0.0021 2.236423,0.644793 3.093265,1.397109 0.760239,0.667499 1.547123,2.161513 1.547123,2.937439 0,0.668806 0.103303,0.790249 0.67221,0.790249 0.41692,0 0.431516,-0.03641 0.325276,-0.811514 z"
   id="path3594"
   inkscape:connector-curvature="0" /><path
   style="opacity:1;fill:#46ff2a;fill-opacity:1;stroke:none;stroke-width:3.340662;stroke-miterlimit:4;stroke-dasharray:none;stroke-opacity:1"
   d="m 28.860251,33.08875 c -0.776185,-0.343999 -1.472583,-1.061101 -1.860587,-1.915902 -0.472827,-1.041676 -0.456914,-1.5478 0.04863,-1.546547 1.705854,0.0042 3.189234,1.305739 3.575127,3.136801 0.120132,0.570024 0.115778,0.57447 -0.555878,0.567605 -0.372327,-0.0038 -0.915607,-0.112687 -1.207288,-0.241957 z"
   id="path3596"
   inkscape:connector-curvature="0" /><path
   d="M 64.928335,14.053538 C 62.925541,12.317481 61.636417,10.947043 59.321555,9.7349034 L 14.342998,64.684786 c 1.578795,1.930572 3.002149,2.756721 4.921591,4.335757 0.205179,0.167973 1.331722,0.835935 1.539596,1.000632 L 65.912093,15.042879 C 65.800528,14.949219 65.0399,14.147202 64.928335,14.053538 Z"
   id="path10-7"
   style="fill:#000000;fill-opacity:0.95686275"
   inkscape:connector-curvature="0"
   sodipodi:nodetypes="ccccccc" /></svg>