<?xml version="1.0" encoding="UTF-8" standalone="no"?>
<!-- Generator: Adobe Illustrator 16.0.0, SVG Export Plug-In . SVG Version: 6.00 Build 0)  -->

<svg
   xmlns:dc="http://purl.org/dc/elements/1.1/"
   xmlns:cc="http://creativecommons.org/ns#"
   xmlns:rdf="http://www.w3.org/1999/02/22-rdf-syntax-ns#"
   xmlns:svg="http://www.w3.org/2000/svg"
   xmlns="http://www.w3.org/2000/svg"
   xmlns:sodipodi="http://sodipodi.sourceforge.net/DTD/sodipodi-0.dtd"
   xmlns:inkscape="http://www.inkscape.org/namespaces/inkscape"
   version="1.1"
   id="Ebene_1"
   x="0px"
   y="0px"
   width="80px"
   height="80px"
   viewBox="0 0 80 80"
   enable-background="new 0 0 80 80"
   xml:space="preserve"
   sodipodi:docname="16.svg"
   inkscape:version="0.92.4 (5da689c313, 2019-01-14)"><metadata
   id="metadata17"><rdf:RDF><cc:Work
       rdf:about=""><dc:format>image/svg+xml</dc:format><dc:type
         rdf:resource="http://purl.org/dc/dcmitype/StillImage" /><dc:title></dc:title></cc:Work></rdf:RDF></metadata><defs
   id="defs15" /><sodipodi:namedview
   pagecolor="#ffffff"
   bordercolor="#666666"
   borderopacity="1"
   objecttolerance="10"
   gridtolerance="10"
   guidetolerance="10"
   inkscape:pageopacity="0"
   inkscape:pageshadow="2"
   inkscape:window-width="1920"
   inkscape:window-height="1017"
   id="namedview13"
   showgrid="false"
   inkscape:zoom="2.8284271"
   inkscape:cx="-13.028164"
   inkscape:cy="6.085145"
   inkscape:window-x="1912"
   inkscape:window-y="-8"
   inkscape:window-maximized="1"
   inkscape:current-layer="Ebene_1" />
<path
   fill="#D5D5D6"
   stroke="#1D1D1B"
   stroke-width="4"
   stroke-miterlimit="10"
   d="M66.697,13.303  C59.865,6.47,50.426,2.244,39.998,2.244C19.148,2.244,2.244,19.148,2.244,40c0,10.426,4.227,19.863,11.059,26.695  c6.832,6.834,16.271,11.061,26.695,11.061c20.854,0,37.758-16.904,37.758-37.756C77.756,29.574,73.529,20.135,66.697,13.303z"
   id="path2"
   style="fill:#26a076;fill-opacity:1" />


<g
   transform="matrix(0.13196932,0,0,0.13543194,5.8137001,4.3171646)"
   id="A_-_15_x2C__food_x2C__items_x2C__milk_x2C__items_x2C__coffee"
   style="fill:#ffffff;fill-opacity:1"><g
     id="g38"
     style="fill:#ffffff;fill-opacity:1"><polygon
       points="225.723,271.063 178.496,271.063 171.046,326.42 218.309,326.42 "
       id="polygon2"
       style="fill:#ffffff;fill-opacity:1" /><polygon
       points="164.815,174.017 221.038,174.017 262.566,173.033 262.566,150.566 164.815,150.566 "
       id="polygon4"
       style="fill:#ffffff;fill-opacity:1" /><path
       inkscape:connector-curvature="0"
       d="m 149.375,304.434 -0.478,90.534 c 0,0.12 -0.013,0.237 -0.025,0.355 l -0.03,5.44 H 247.68 V 209.222 h -97.776 z m 14.67,24.828 8.332,-61.917 c 0.219,-1.627 1.608,-2.842 3.25,-2.842 h 53.844 c 0.946,0 1.845,0.407 2.468,1.12 0.623,0.712 0.908,1.658 0.783,2.595 l -8.293,61.917 c -0.218,1.628 -1.608,2.845 -3.251,2.845 h -53.883 c -0.946,0 -1.846,-0.409 -2.469,-1.121 -0.622,-0.713 -0.908,-1.659 -0.781,-2.597 z"
       id="path6"
       style="fill:#ffffff;fill-opacity:1" /><path
       inkscape:connector-curvature="0"
       d="m 310.906,374.963 c -1.813,0 -3.279,-1.468 -3.279,-3.28 V 245.427 c 0,-1.811 1.467,-3.28 3.279,-3.28 h 5.586 v -1.496 c 0,-1.811 1.468,-3.28 3.279,-3.28 h 16.424 v -21.274 c 0,-1.811 1.467,-3.28 3.279,-3.28 h 10.954 c -3.201,-13.144 -12.808,-23.928 -25.79,-28.649 -1.296,-0.471 -2.16,-1.703 -2.16,-3.082 v -45.374 h -23.146 v 45.374 c 0,1.375 -0.859,2.605 -2.149,3.079 -4.896,1.796 -9.497,4.583 -13.456,8.131 l 9.562,11.304 c 0.015,0.015 0.024,0.032 0.038,0.046 l 0.15,0.176 c 0.002,0.004 0.004,0.007 0.006,0.01 0.484,0.572 0.79,1.302 0.79,2.11 0,0.064 -0.017,0.124 -0.021,0.187 v 194.406 h 56.707 l -4.451,-25.572 z"
       id="path8"
       style="fill:#ffffff;fill-opacity:1" /><polygon
       points="162.331,181.97 151.956,202.663 248.935,202.663 258.121,184.332 260.003,180.577 221.122,180.577 "
       id="polygon10"
       style="fill:#ffffff;fill-opacity:1" /><rect
       height="191.54201"
       width="33.453999"
       x="254.239"
       y="209.222"
       id="rect12"
       style="fill:#ffffff;fill-opacity:1" /><path
       inkscape:connector-curvature="0"
       d="m 375.131,202.328 c -5.486,0 -10.102,4.475 -11.354,10.489 h 22.706 c -1.252,-6.014 -5.868,-10.489 -11.352,-10.489 z"
       id="path14"
       style="fill:#ffffff;fill-opacity:1" /><path
       inkscape:connector-curvature="0"
       d="m 342.754,237.372 h 105.748 v -7.688 H 371.23 c -1.813,0 -3.28,-1.468 -3.28,-3.28 0,-1.811 1.468,-3.28 3.28,-3.28 h 77.271 v -3.747 h -58.386 -0.019 -29.936 -5.741 c -0.006,0 -0.011,0 -0.019,0 h -11.648 v 17.995 z"
       id="path16"
       style="fill:#ffffff;fill-opacity:1" /><rect
       height="17.916"
       width="23.146"
       x="299.332"
       y="111.237"
       id="rect18"
       style="fill:#ffffff;fill-opacity:1" /><path
       inkscape:connector-curvature="0"
       d="m 256.272,202.663 h 27.625 l -7.174,-8.466 c -0.035,-0.042 -0.059,-0.089 -0.092,-0.132 l -10.078,-11.915 -8.269,16.497 z"
       id="path20"
       style="fill:#ffffff;fill-opacity:1" /><path
       inkscape:connector-curvature="0"
       d="m 136.749,292.131 c -0.556,0 -1.118,-0.142 -1.634,-0.438 -1.569,-0.904 -2.109,-2.909 -1.205,-4.479 l 7.779,-13.504 c -8.419,-4.364 -17.785,-6.868 -27.423,-7.332 v 15.579 c 0,1.811 -1.468,3.279 -3.28,3.279 -1.812,0 -3.28,-1.469 -3.28,-3.279 v -15.583 c -9.849,0.474 -19.14,3.088 -27.44,7.363 l 7.793,13.472 c 0.907,1.567 0.371,3.574 -1.197,4.481 -0.517,0.298 -1.082,0.441 -1.639,0.441 -1.133,0 -2.234,-0.588 -2.842,-1.639 l -7.793,-13.473 c -8.045,5.191 -14.911,12.046 -20.113,20.078 l 13.515,7.781 c 1.569,0.903 2.109,2.909 1.206,4.479 -0.606,1.054 -1.71,1.644 -2.846,1.644 -0.555,0 -1.118,-0.141 -1.633,-0.438 l -13.534,-7.792 c -4.29,8.299 -6.911,17.589 -7.388,27.438 h 15.66 c 1.812,0 3.28,1.468 3.28,3.28 0,1.812 -1.468,3.279 -3.28,3.279 h -15.66 c 0.476,9.852 3.092,19.145 7.374,27.447 l 13.547,-7.803 c 1.569,-0.905 3.575,-0.364 4.479,1.205 0.904,1.569 0.365,3.575 -1.205,4.479 l -13.534,7.794 c 5.204,8.054 12.076,14.926 20.129,20.13 l 7.793,-13.531 c 0.904,-1.568 2.908,-2.11 4.479,-1.204 1.569,0.903 2.109,2.908 1.205,4.479 l -7.8,13.544 c 8.301,4.281 17.594,6.898 27.445,7.373 v -15.582 c 0,-1.812 1.468,-3.28 3.28,-3.28 1.812,0 3.28,1.469 3.28,3.28 v 15.576 c 9.54,-0.47 18.926,-2.984 27.454,-7.36 l -7.81,-13.551 c -0.905,-1.568 -0.366,-3.574 1.204,-4.479 1.569,-0.906 3.574,-0.366 4.479,1.204 l 2.796,4.851 0.425,-76.69 0.105,-19.936 -3.326,5.772 c -0.607,1.055 -1.71,1.645 -2.845,1.645 z m -1.46,36.683 -19.852,7.73 c -0.385,0.15 -0.789,0.224 -1.19,0.224 -0.723,0 -1.438,-0.238 -2.024,-0.699 L 85.85,315.382 c -1.425,-1.118 -1.674,-3.179 -0.556,-4.604 1.119,-1.426 3.18,-1.673 4.605,-0.557 l 24.901,19.532 18.109,-7.05 c 1.689,-0.659 3.589,0.178 4.246,1.865 0.658,1.689 -0.178,3.589 -1.866,4.246 z"
       id="path22"
       style="fill:#ffffff;fill-opacity:1" /><path
       inkscape:connector-curvature="0"
       d="m 314.186,248.708 v 119.696 h 31.181 L 327.96,268.412 h -8.188 c -1.812,0 -3.279,-1.469 -3.279,-3.28 v -16.423 h -2.307 z"
       id="path24"
       style="fill:#ffffff;fill-opacity:1" /><path
       inkscape:connector-curvature="0"
       d="m 352.521,371.12 c 0.01,0.067 0.005,0.135 0.012,0.202 l 2.342,13.451 h 81.475 l 16.504,-94.84 H 338.369 Z m 43.106,-69.329 c 14.432,0 26.172,14.662 26.172,32.685 0,18.063 -11.74,32.758 -26.172,32.758 -14.426,0 -26.162,-14.695 -26.162,-32.758 0,-18.023 11.736,-32.685 26.162,-32.685 z"
       id="path26"
       style="fill:#ffffff;fill-opacity:1" /><polygon
       points="468.207,243.931 451.781,243.931 339.475,243.931 323.052,243.931 323.052,245.427 323.052,261.852 330.717,261.852 460.499,261.852 468.207,261.852 "
       id="polygon28"
       style="fill:#ffffff;fill-opacity:1" /><path
       inkscape:connector-curvature="0"
       d="m 395.627,360.674 c 10.815,0 19.611,-11.752 19.611,-26.198 0,-14.405 -8.796,-26.124 -19.611,-26.124 -10.809,0 -19.602,11.719 -19.602,26.124 0,14.446 8.793,26.198 19.602,26.198 z m 0,-47.515 c 9.562,0 17.34,9.563 17.34,21.316 0,11.794 -7.778,21.39 -17.34,21.39 -9.537,0 -17.297,-9.596 -17.297,-21.39 0,-11.753 7.76,-21.316 17.297,-21.316 z"
       id="path30"
       style="fill:#ffffff;fill-opacity:1" /><polygon
       points="337.227,283.374 453.994,283.374 456.6,268.411 334.619,268.411 "
       id="polygon32"
       style="fill:#ffffff;fill-opacity:1" /><polygon
       points="357.622,400.535 433.605,400.535 435.207,391.333 356.027,391.333 "
       id="polygon34"
       style="fill:#ffffff;fill-opacity:1" /><path
       inkscape:connector-curvature="0"
       d="m 395.627,349.306 c 5.844,0 10.781,-6.792 10.781,-14.83 0,-7.998 -4.938,-14.757 -10.781,-14.757 -5.92,0 -10.738,6.619 -10.738,14.757 0,8.177 4.818,14.83 10.738,14.83 z"
       id="path36"
       style="fill:#ffffff;fill-opacity:1" /></g></g><g
   transform="matrix(0.13196932,0,0,0.13543194,5.8137001,3.9636112)"
   id="Layer_1"
   style="fill:#ffffff;fill-opacity:1" /></svg>