<?xml version="1.0" encoding="UTF-8" standalone="no"?>
<!-- Generator: Adobe Illustrator 16.0.0, SVG Export Plug-In . SVG Version: 6.00 Build 0)  -->

<svg
   xmlns:dc="http://purl.org/dc/elements/1.1/"
   xmlns:cc="http://creativecommons.org/ns#"
   xmlns:rdf="http://www.w3.org/1999/02/22-rdf-syntax-ns#"
   xmlns:svg="http://www.w3.org/2000/svg"
   xmlns="http://www.w3.org/2000/svg"
   xmlns:sodipodi="http://sodipodi.sourceforge.net/DTD/sodipodi-0.dtd"
   xmlns:inkscape="http://www.inkscape.org/namespaces/inkscape"
   version="1.1"
   id="Ebene_1"
   x="0px"
   y="0px"
   width="80px"
   height="80px"
   viewBox="0 0 80 80"
   enable-background="new 0 0 80 80"
   xml:space="preserve"
   sodipodi:docname="4.svg"
   inkscape:version="0.92.4 (5da689c313, 2019-01-14)"><metadata
   id="metadata13"><rdf:RDF><cc:Work
       rdf:about=""><dc:format>image/svg+xml</dc:format><dc:type
         rdf:resource="http://purl.org/dc/dcmitype/StillImage" /></cc:Work></rdf:RDF></metadata><defs
   id="defs11" /><sodipodi:namedview
   pagecolor="#ffffff"
   bordercolor="#666666"
   borderopacity="1"
   objecttolerance="10"
   gridtolerance="10"
   guidetolerance="10"
   inkscape:pageopacity="0"
   inkscape:pageshadow="2"
   inkscape:window-width="1920"
   inkscape:window-height="1017"
   id="namedview9"
   showgrid="false"
   inkscape:zoom="2.95"
   inkscape:cx="40"
   inkscape:cy="40"
   inkscape:window-x="-8"
   inkscape:window-y="-8"
   inkscape:window-maximized="1"
   inkscape:current-layer="g6" />
<g
   id="g6">
	<circle
   fill="#D6D5D6"
   stroke="#000000"
   stroke-width="4"
   stroke-miterlimit="10"
   cx="40"
   cy="40"
   r="37.755"
   id="circle2"
   style="fill:#26a076;fill-opacity:1" />
	<path
   fill="#706F6F"
   d="M62.976,61.65l-11.72-13.092L62.581,36.18c0.451-0.514,0-1.107-0.957-1.107h-6.536   c-0.45,0-0.789,0.197-0.902,0.355l-7.324,8.385h-0.057l-8.827-10.08c4.902-1.385,8.34-4.352,8.34-7.99   c0-4.705-5.522-8.502-12.283-8.502H17.919c-0.619,0-1.07,0.355-1.07,0.75v26.184c0,0.396,0.451,0.752,1.07,0.752h5.184   c0.563,0,1.07-0.355,1.07-0.752V34.088h6.254l12.039,14.471L30.746,61.65c-0.451,0.516,0,1.109,1.015,1.109h6.085   c0.45,0,0.789-0.199,0.958-0.357l7.944-9.057h0.169l8.059,9.057c0.112,0.158,0.506,0.357,0.957,0.357h6.085   C62.976,62.76,63.427,62.205,62.976,61.65z M24.229,29.857v-7.871h9.185c2.986,0,5.579,1.74,5.579,3.836   c0,2.215-2.593,4.035-5.579,4.035H24.229z"
   id="path4"
   style="fill:#ffffff;fill-opacity:1" />
</g>
</svg>