<?xml version="1.0" encoding="utf-8"?>
<!-- Generator: Adobe Illustrator 16.0.0, SVG Export Plug-In . SVG Version: 6.00 Build 0)  -->
<!DOCTYPE svg PUBLIC "-//W3C//DTD SVG 1.1//EN" "http://www.w3.org/Graphics/SVG/1.1/DTD/svg11.dtd">
<svg version="1.1" id="Ebene_1" xmlns="http://www.w3.org/2000/svg" xmlns:xlink="http://www.w3.org/1999/xlink" x="0px" y="0px"
	 width="80px" height="80px" viewBox="0 0 80 80" enable-background="new 0 0 80 80" xml:space="preserve">
<circle fill="#D5D5D6" stroke="#1D1D1B" stroke-width="4" stroke-miterlimit="10" cx="40" cy="40" r="37.756"/>
<g>
	<g transform="matrix(0.1,0,0,-0.1,0,362)">
		<path fill="#26A076" d="M302.641,3349.14c-12.124,23.486-32.432,35.508-60.918,41.27c-15.098,3.027-19.326,4.297-28.091,8.232
			c-5.742,2.529-10.962,4.39-11.66,4.287c-1.802-0.474-1.777-2.026,0.522-18.135c1.099-7.915,2.861-24.551,3.838-36.909
			c2.441-31.484,3.696-36.597,12.256-51.484c12.217-21.162,38.618-38.057,64.043-40.918c9.707-1.045,57.71-9.727,56.084-7.876
			c-0.449,0.43-40.044,16.748-42.783,18.228c-13.423,7.495-36.87,21.646-46.782,37.495c-5.078,8.071-9.199,23.618-6.133,23.257
			c1.055-0.122,6.797-5.938,12.412-12.72c5.396-6.357,7.656-8.574,21.865-21.021c14.912-12.91,42.188-30.688,66.86-43.384
			C344.155,3249.463,322.08,3310.522,302.641,3349.14z"/>
	</g>
	<g transform="matrix(0.1,0,0,-0.1,0,362)">
		<path fill="#26A076" d="M412.91,3296.938c1.602,1.289,8.594,8.647,17.344,11.294c33.887,10.293,59.727,29.263,76.23,56.255
			c11.074,17.979,12.949,30.439,11.035,70.854c-1.055,21.421-0.762,27.554,1.582,40.737c1.445,8.599,2.188,16.27,1.797,17.183
			c-1.25,2.275-3.359,1.724-24.316-6.851c-10.293-4.209-32.148-12.236-48.516-17.764c-41.66-14.009-48.14-17.432-65.337-34.077
			c-24.409-23.657-38.228-65.059-33.447-100.366c1.113-7.847,1.89-32.881,4.502-51.553c1.86-13.335,5.566-34.526,6.016-32.769
			c5.557,20.664,24.678,127.036,42.686,145.811c9.175,9.604,28.765,20.449,29.312,16.177c0.195-1.46-5.703-11.177-12.93-21.079
			c-6.758-9.429-8.984-13.242-20.942-36.641c-12.393-24.531-35.273-103.022-35.835-105.024c-0.566-2.021,5.244-0.859,9.058,1.094
			C374.942,3252.148,412.91,3296.938,412.91,3296.938z"/>
	</g>
	<path fill="#FFFFFF" stroke="#6F6F6E" stroke-miterlimit="10" d="M51.662,38.783c5.939-5.721,11.158-10.747,11.158-10.747
		c1.039,0.035,2.092-0.305,2.932-1.046c1.752-1.541,1.922-4.209,0.383-5.96c-1.541-1.752-4.209-1.923-5.963-0.382
		c-0.84,0.74-1.312,1.74-1.412,2.774L39.591,38.783H11.789c0,9.443,5.724,17.681,14.217,22.059v5.448
		c0,0.634,0.422,1.149,0.945,1.149h25.062c0.521,0,0.945-0.516,0.945-1.149v-4.941c9.061-4.226,15.252-12.743,15.252-22.566H51.662z
		"/>
</g>
</svg>
