<?xml version="1.0" encoding="utf-8"?>
<!-- Generator: Adobe Illustrator 16.0.0, SVG Export Plug-In . SVG Version: 6.00 Build 0)  -->
<!DOCTYPE svg PUBLIC "-//W3C//DTD SVG 1.1//EN" "http://www.w3.org/Graphics/SVG/1.1/DTD/svg11.dtd">
<svg version="1.1" id="Ebene_1" xmlns="http://www.w3.org/2000/svg" xmlns:xlink="http://www.w3.org/1999/xlink" x="0px" y="0px"
	 width="80px" height="80px" viewBox="0 0 80 80" enable-background="new 0 0 80 80" xml:space="preserve">
<circle fill="#D5D5D6" stroke="#1D1D1B" stroke-width="4" stroke-miterlimit="10" cx="40" cy="40" r="37.755"/>
<g>
	<g>
		<path fill="#26A076" d="M26.396,19.063c0,0-5.545,1.983-6.603,2.379l0.527,27.338c0,0-1.189,2.775-3.698,2.775
			s-5.943-3.171-5.943-5.283s-0.13-4.36-0.13-4.36l-3.699,2.907c0,0,0.264,6.473,2.905,8.849c2.64,2.379,5.019,3.035,7.133,3.035
			c2.111,0,7.131-2.903,8.054-6.997c0.926-4.093,0.53-28.794,0.53-28.794L26.396,19.063z"/>
		<path fill="#26A076" d="M28.379,27.385c-0.794,0.527-1.321,1.453-1.321,1.453l0.132,5.415h5.415c0,0,0.132-1.98,0.791-2.112
			c0.66-0.132,3.831-0.659,5.021,1.98c1.188,2.641,0.925,10.83,0.132,12.02s0.527,0.132,1.057,0
			c0.527-0.132,3.961-4.229,3.564-9.775c-0.395-5.546-4.358-8.321-6.206-8.98C35.114,26.726,28.379,27.385,28.379,27.385z"/>
		<path fill="#26A076" d="M68.527,46.272c-0.132-4.36-4.753-6.604-7.527-6.736c-2.773-0.132-6.206,3.697-6.206,3.697l3.301,2.38
			l1.583-1.324c4.229-0.792,4.756,3.437,3.965,5.021c-0.794,1.582-3.17,2.377-7.398,1.85c-3.704-0.467-5.582-7.725-5.989-9.512
			c-0.105-13.361-0.48-28.791-0.48-28.791l0.925-1.849c0,0-5.547,1.98-6.604,2.376l0.264,46.36c0,0-1.32,4.093-5.152,4.225
			c0,0-5.412-0.267-6.338-3.565c-0.925-3.306-1.321-6.077,0.132-8.717c1.453-2.641,2.774-3.303,2.774-4.097
			c0-0.791-4.888,0.662-6.473,2.906c-1.585,2.245-1.98,4.756-1.98,7.264c0,1.205,1.046,4.984,3.17,7.398
			c2.304,2.617,5.783,3.83,8.188,3.83c4.771,0,10.301-4.36,11.227-8.453c0.22-0.973,0.325-4.167,0.363-8.474
			c1.815,1.743,4.267,3.984,8.484,3.984c5.415,0,9.906-5.682,9.906-5.682h4.49v-4.093H68.527z"/>
	</g>
</g>
</svg>
