<?xml version="1.0" encoding="utf-8"?>
<!-- Generator: Adobe Illustrator 16.0.0, SVG Export Plug-In . SVG Version: 6.00 Build 0)  -->
<!DOCTYPE svg PUBLIC "-//W3C//DTD SVG 1.1//EN" "http://www.w3.org/Graphics/SVG/1.1/DTD/svg11.dtd">
<svg version="1.1" id="Ebene_1" xmlns="http://www.w3.org/2000/svg" xmlns:xlink="http://www.w3.org/1999/xlink" x="0px" y="0px"
	 width="80px" height="80px" viewBox="0 0 80 80" enable-background="new 0 0 80 80" xml:space="preserve">
<circle fill="#D5D5D6" stroke="#1D1D1B" stroke-width="4" stroke-miterlimit="10" cx="40" cy="40.001" r="37.755"/>
<path fill="#FFFFFF" stroke="#6F6F6E" stroke-miterlimit="10" d="M48.744,53.319c0,0,1.758,0.602,2.214,1.729l4.87-0.396
	c0.424,0,1.664-0.696,3-1.333c0.219-1.451,0.07-1.01-0.276-2.31c-2.39-8.945-7.469-15.78-16.995-18.286
	c-0.932-0.247-1.972-0.386-2.729-0.911c-0.743-0.514-1.481-1.377-1.71-2.224c-0.811-3.036,0.194-5.455,2.657-7.491
	c2.706-2.232,4.524-5.116,4.935-8.705c0.215-1.866-0.67-2.552-2.234-1.505c-1.792,1.199-3.368,2.743-4.939,4.24
	c-0.772,0.733-1.321,1.696-1.819,2.356c-1.555-3.335-3.755-9.291-4.61-9.888S30.031,8.672,30,8.938
	c-0.191,0.998-0.24,1.733-0.15,2.706c0.227,2.428,0.651,4.838,1.064,7.243c0.194,1.127,0.111,1.919-1.293,1.972
	c-2.982,0.114-5.284,1.761-7.709,3.282c-2.434,1.527-1.969,3.396-0.463,5.309c0.453,0.577,1.229,0.914,1.887,1.314
	c1.496,0.906,2.834,2.056,2.827,3.896c-0.02,5.186,1.844,9.971,2.849,14.941c0.369,1.825,0.694,4.688,0.482,6.47
	c3.333-0.928,4.852-1.02,7.917-1.917C45.13,51.892,46.005,52.548,48.744,53.319z"/>
<g>
	<path fill="none" stroke="#6F6F6E" stroke-width="1.8" stroke-miterlimit="10" d="M22.616,67.798
		c0.944-2.309,2.569-8.917,5.041-10.678c2.568-1.83,6.812-2.29,9.104-2.873c2.559-0.652,3.99-1.49,6.305-1.58
		c2.657-0.104,4.936,0.176,6.336,0.867c0,0,2.906,1.791,0.93,2.621c-3.299,1.382-5.613,0.692-9.758,1.527
		c-2.977,0.598-5.48,2-5.883,3.334"/>
	<path fill="none" stroke="#6F6F6E" stroke-width="1.8" stroke-miterlimit="10" d="M35.661,73.402
		c-0.22-2.206-0.259-4.013,1.369-5.542c1.626-1.529,9.334-4.337,9.334-4.337c3.38-0.293,5.165-2.192,8.596-3.095
		c3.433-0.9,6.946-4.773,11.167-7.186c4.22-2.414,6.309-3.902,5.502-4.254c-0.807-0.351-3.435-1.146-6.479,0.627
		c-3.046,1.774-9.128,5.23-10.152,5.23l-4.082,0.215"/>
</g>
</svg>
