<?xml version="1.0" encoding="UTF-8" standalone="no"?>
<!-- Generator: Adobe Illustrator 16.0.0, SVG Export Plug-In . SVG Version: 6.00 Build 0)  -->

<svg
   xmlns:dc="http://purl.org/dc/elements/1.1/"
   xmlns:cc="http://creativecommons.org/ns#"
   xmlns:rdf="http://www.w3.org/1999/02/22-rdf-syntax-ns#"
   xmlns:svg="http://www.w3.org/2000/svg"
   xmlns="http://www.w3.org/2000/svg"
   xmlns:sodipodi="http://sodipodi.sourceforge.net/DTD/sodipodi-0.dtd"
   xmlns:inkscape="http://www.inkscape.org/namespaces/inkscape"
   version="1.1"
   id="Ebene_1"
   x="0px"
   y="0px"
   width="80px"
   height="80px"
   viewBox="0 0 80 80"
   enable-background="new 0 0 80 80"
   xml:space="preserve"
   sodipodi:docname="12.svg"
   inkscape:version="0.92.4 (5da689c313, 2019-01-14)"><metadata
   id="metadata17"><rdf:RDF><cc:Work
       rdf:about=""><dc:format>image/svg+xml</dc:format><dc:type
         rdf:resource="http://purl.org/dc/dcmitype/StillImage" /><dc:title /></cc:Work></rdf:RDF></metadata><defs
   id="defs15" /><sodipodi:namedview
   pagecolor="#ffffff"
   bordercolor="#666666"
   borderopacity="1"
   objecttolerance="10"
   gridtolerance="10"
   guidetolerance="10"
   inkscape:pageopacity="0"
   inkscape:pageshadow="2"
   inkscape:window-width="1920"
   inkscape:window-height="1017"
   id="namedview13"
   showgrid="false"
   inkscape:zoom="2.8284271"
   inkscape:cx="-13.028164"
   inkscape:cy="6.085145"
   inkscape:window-x="1912"
   inkscape:window-y="-8"
   inkscape:window-maximized="1"
   inkscape:current-layer="Ebene_1" />
<path
   fill="#D5D5D6"
   stroke="#1D1D1B"
   stroke-width="4"
   stroke-miterlimit="10"
   d="M66.697,13.303  C59.865,6.47,50.426,2.244,39.998,2.244C19.148,2.244,2.244,19.148,2.244,40c0,10.426,4.227,19.863,11.059,26.695  c6.832,6.834,16.271,11.061,26.695,11.061c20.854,0,37.758-16.904,37.758-37.756C77.756,29.574,73.529,20.135,66.697,13.303z"
   id="path2"
   style="fill:#26a076;fill-opacity:1" />
<g
   id="g8">
	<path
   fill="#FFFFFF"
   stroke="#6F6F6E"
   stroke-miterlimit="10"
   d="M52.988,34.22c-0.045,2.851,0,32.766,0,32.766h-0.012   c-0.168,2.008-5.912,3.621-12.977,3.621c-7.066,0-12.809-1.613-12.979-3.621h-0.01c0,0,0-28.284,0-32.766   c0-4.48,6.199-15.568,6.199-15.568v-3.063c-0.834-0.339-1.326-0.743-1.352-1.18l0,0v-0.003c-0.002-0.011-0.006-0.021-0.006-0.031   s0.004-0.021,0.006-0.031V11.19c-0.002-0.009-0.006-0.017-0.006-0.025c0-0.008,0.004-0.016,0.006-0.024v-0.024h0.006   C31.986,10.16,35.576,9.394,40,9.394c4.422,0,8.014,0.767,8.135,1.723h0.006v0.026c0,0.008,0.006,0.015,0.006,0.022   c0,0.009-0.006,0.016-0.006,0.023v3.157c0,0.01,0.006,0.019,0.006,0.028s-0.006,0.019-0.006,0.028v0.006h-0.002   c-0.023,0.436-0.516,0.841-1.35,1.18v3.063C46.789,18.651,53.033,31.369,52.988,34.22z"
   id="path4" />
	<ellipse
   fill="#FFFFFF"
   stroke="#6F6F6E"
   stroke-miterlimit="10"
   cx="39.999"
   cy="11.165"
   rx="7.247"
   ry="1.576"
   id="ellipse6" />
</g>
<path
   d="M 67.00122,16.524136 C 65.175415,14.602801 64.024644,13.114288 61.837644,11.684288 L 11.763272,62.034243 c 1.385,2.074 2.721932,3.033728 4.479932,4.790728 0.188,0.187 1.244786,0.960621 1.435786,1.144621 L 67.884847,17.603847 c -0.102,-0.104 -0.781627,-0.975711 -0.883627,-1.079711 z"
   id="path10"
   style="fill:#040404;fill-opacity:0.95686275"
   inkscape:connector-curvature="0"
   sodipodi:nodetypes="ccccccc" />
</svg>