<?xml version="1.0" encoding="UTF-8" standalone="no"?>
<!-- Generator: Adobe Illustrator 16.0.0, SVG Export Plug-In . SVG Version: 6.00 Build 0)  -->

<svg
   xmlns:dc="http://purl.org/dc/elements/1.1/"
   xmlns:cc="http://creativecommons.org/ns#"
   xmlns:rdf="http://www.w3.org/1999/02/22-rdf-syntax-ns#"
   xmlns:svg="http://www.w3.org/2000/svg"
   xmlns="http://www.w3.org/2000/svg"
   xmlns:sodipodi="http://sodipodi.sourceforge.net/DTD/sodipodi-0.dtd"
   xmlns:inkscape="http://www.inkscape.org/namespaces/inkscape"
   version="1.1"
   id="Ebene_1"
   x="0px"
   y="0px"
   width="80px"
   height="80px"
   viewBox="0 0 80 80"
   enable-background="new 0 0 80 80"
   xml:space="preserve"
   sodipodi:docname="18.svg"
   inkscape:version="0.92.4 (5da689c313, 2019-01-14)"><metadata
   id="metadata21"><rdf:RDF><cc:Work
       rdf:about=""><dc:format>image/svg+xml</dc:format><dc:type
         rdf:resource="http://purl.org/dc/dcmitype/StillImage" /><dc:title></dc:title></cc:Work></rdf:RDF></metadata><defs
   id="defs19" /><sodipodi:namedview
   pagecolor="#ffffff"
   bordercolor="#666666"
   borderopacity="1"
   objecttolerance="10"
   gridtolerance="10"
   guidetolerance="10"
   inkscape:pageopacity="0"
   inkscape:pageshadow="2"
   inkscape:window-width="1920"
   inkscape:window-height="1017"
   id="namedview17"
   showgrid="false"
   inkscape:zoom="2.085965"
   inkscape:cx="-142.80205"
   inkscape:cy="-37.813584"
   inkscape:window-x="1912"
   inkscape:window-y="-8"
   inkscape:window-maximized="1"
   inkscape:current-layer="Ebene_1" />
<circle
   fill="#D5D5D6"
   stroke="#1D1D1B"
   stroke-width="4"
   stroke-miterlimit="10"
   cx="40"
   cy="40"
   r="37.756"
   id="circle2"
   style="fill:#26a076;fill-opacity:1" />

<path
   inkscape:connector-curvature="0"
   style="fill:#ffffff;fill-opacity:1;fill-rule:evenodd;stroke-width:1.01176691"
   d="m 50.650638,19.179258 c -2.015536,0.03528 -4.107431,0.809392 -4.085709,4.245658 -6.085748,2.501401 -10.223253,8.392506 -11.030286,13.319242 -0.0055,0.02144 -0.0077,0.02795 -0.01305,0.04901 -2.833805,-1.007952 -3.601573,-3.552229 -2.617218,-5.86307 0.313331,-0.901791 0.660121,-1.56687 1.14008,-2.416708 0.0643,-0.136196 0.418471,-0.3057 0.549468,-0.3057 1.573192,0.07483 3.466649,-1.525485 3.466649,-3.563405 0,-2.037919 -1.76457,-3.694365 -3.935748,-3.694365 -2.171178,0 -3.910267,1.568145 -3.910267,3.606143 0.04614,0.569839 0.242611,1.439536 0.0069,1.868258 -2.350922,2.090089 -0.191925,-0.364731 -5.018684,5.345106 -4.864338,5.709759 -7.148216,15.347183 -7.0229,19.513048 0.06243,0.780573 -0.02767,1.865161 0.03916,2.640597 1.303387,0.04312 1.822925,0.07117 2.662958,0.06739 -0.156051,0.578799 -0.516948,6.210471 -0.574363,8.209592 l 5.482561,-0.04901 c 2.040933,-0.804609 -2.178822,-1.52374 -2.813128,-2.113615 0.284445,-1.633527 1.36193,-3.725341 1.696983,-6.053042 l 1.912359,0.01839 c 0.553436,2.007552 1.473044,4.318393 2.199499,6.181651 0.497044,0.679255 0.24092,1.210589 0.691847,1.893098 h 4.803768 c 0.210593,3.92e-4 6.530826,0.185508 7.081589,-0.01225 0.552308,-0.198324 0.373858,-0.424468 0.215376,-0.729071 -0.190783,-0.409195 -2.514877,-1.077314 -2.480206,-1.304947 1.015453,-3.577912 1.031264,-6.55199 1.174834,-8.344279 0.920318,2.07813 1.707134,4.065292 2.675908,7.425392 0.141124,0.636575 0.38568,2.074601 0.639632,2.952905 l 5.639206,0.01839 c 0.220848,5.89e-4 0.620271,-0.190439 0.600471,-0.514631 -0.03659,-0.611734 -2.862628,-1.213706 -3.139367,-1.347843 -0.144324,-0.0638 -0.198394,-0.43629 -0.254558,-0.710681 -0.209653,-2.436313 -0.885042,-4.873606 -1.311888,-7.278355 -0.560913,-2.266337 -1.000938,-4.531891 -1.390211,-6.916838 -0.231687,-2.083423 -0.115246,-4.748526 0.319806,-6.365546 0.594644,-1.990692 1.157917,-3.780236 2.813128,-5.611931 0.495499,-0.446699 0.983749,-0.109044 1.416318,0.496242 1.897175,2.70549 4.928249,5.682704 7.767067,7.578507 -0.0256,0.03197 -0.06156,0.05155 -0.08485,0.08577 -0.16776,0.246513 -0.277365,0.546333 -0.35245,0.912848 l 1.024706,0.183797 c 0.05779,-0.282077 0.135771,-0.462364 0.20886,-0.569761 0.0095,-0.01396 0.02358,-0.0065 0.03263,-0.01837 0.724847,0.519748 1.141333,0.79163 1.566446,0.894477 0.0021,3.93e-4 0.0045,0.0057 0.0065,0.0061 l -3.426548,19.022924 1.031243,0.15929 3.446182,-19.145454 c 0.244574,-0.07325 0.496793,-0.20946 0.763632,-0.520748 0.170093,-0.292154 0.53326,-0.904849 -0.744062,-1.537777 -1.907869,-1.194297 -3.342796,-2.737838 -5.03226,-4.460136 -1.835333,-2.071464 -2.889781,-4.072742 -3.876851,-6.334767 -0.287641,-1.456925 -1.519035,-2.672553 -1.129136,-4.18449 0.06529,-0.05923 0.139869,-0.134712 0.20886,-0.19605 0.237097,0.05093 0.484073,0.07964 0.737524,0.07964 1.931804,0.282234 3.896483,-0.96435 3.896483,-3.271681 0,-1.707497 -1.85555,-3.338927 -3.674674,-3.338927 z m -19.79591,18.771783 c 0.286096,-0.01526 0.615091,0.232162 1.024707,0.698428 0.736,0.54892 1.882931,1.492293 2.982722,1.378466 -0.03042,0.608971 -0.02725,1.346668 0.03263,2.750777 0.153846,1.935131 1.105347,5.462148 1.129136,7.903166 0.0017,2.283198 -0.471166,6.675893 -1.083458,9.336879 -0.311326,0.624125 -0.184327,1.021597 -0.828922,1.01701 -0.01179,-0.0072 -0.02859,-0.01716 -0.03916,-0.02451 -0.93262,-0.380376 -2.174854,-0.837584 -2.832552,-1.078274 -0.211512,-1.453907 -0.927858,-4.078232 -1.253157,-5.985602 0.244491,0.05838 0.597129,0.01568 0.965975,-0.06739 -1.491716,-7.356186 -2.254847,-8.952425 -0.874599,-15.058989 0.247457,-0.576838 0.490611,-0.854719 0.776707,-0.869972 z"
   id="path2" /></svg>