<?xml version="1.0" encoding="utf-8"?>
<!-- Generator: Adobe Illustrator 16.0.0, SVG Export Plug-In . SVG Version: 6.00 Build 0)  -->
<!DOCTYPE svg PUBLIC "-//W3C//DTD SVG 1.1//EN" "http://www.w3.org/Graphics/SVG/1.1/DTD/svg11.dtd">
<svg version="1.1" id="Ebene_1" xmlns="http://www.w3.org/2000/svg" xmlns:xlink="http://www.w3.org/1999/xlink" x="0px" y="0px"
	 width="80px" height="80px" viewBox="0 0 80 80" enable-background="new 0 0 80 80" xml:space="preserve">
<circle fill="#D5D5D6" stroke="#1D1D1B" stroke-width="4" stroke-miterlimit="10" cx="39.998" cy="40" r="37.754"/>
<g>
	<g>
		<path fill="#26A076" d="M31.105,41.24c0,0-3.696,1.322-4.401,1.586l0.352,18.223c0,0-0.793,1.85-2.465,1.85
			c-1.673,0-3.962-2.113-3.962-3.521s-0.087-2.906-0.087-2.906l-2.465,1.938c0,0,0.176,4.314,1.936,5.898
			c1.76,1.586,3.346,2.023,4.755,2.023c1.407,0,4.752-1.936,5.368-4.664c0.617-2.729,0.354-19.193,0.354-19.193L31.105,41.24z"/>
		<path fill="#26A076" d="M32.426,46.787c-0.529,0.352-0.881,0.969-0.881,0.969l0.088,3.609h3.609c0,0,0.088-1.32,0.527-1.408
			c0.44-0.088,2.554-0.439,3.346,1.32c0.793,1.76,0.617,7.219,0.088,8.012c-0.527,0.793,0.352,0.088,0.705,0
			c0.352-0.088,2.64-2.818,2.375-6.516c-0.262-3.697-2.904-5.547-4.135-5.986C36.916,46.348,32.426,46.787,32.426,46.787z"/>
		<path fill="#26A076" d="M59.186,59.377c-0.088-2.906-3.166-4.402-5.016-4.49s-4.137,2.465-4.137,2.465l2.199,1.586l1.057-0.883
			c2.818-0.527,3.17,2.291,2.643,3.348c-0.529,1.055-2.113,1.584-4.932,1.232c-2.469-0.311-3.721-5.148-3.992-6.34
			c-0.07-8.906-0.32-19.191-0.32-19.191l0.615-1.232c0,0-3.697,1.32-4.402,1.584l0.176,30.902c0,0-0.879,2.729-3.433,2.816
			c0,0-3.607-0.178-4.225-2.377c-0.616-2.203-0.881-4.051,0.088-5.811s1.85-2.201,1.85-2.73c0-0.527-3.258,0.441-4.314,1.938
			s-1.32,3.17-1.32,4.842c0,0.803,0.697,3.322,2.113,4.932c1.535,1.744,3.854,2.553,5.457,2.553c3.181,0,6.867-2.906,7.484-5.635
			c0.146-0.648,0.217-2.777,0.242-5.648c1.209,1.162,2.844,2.656,5.654,2.656c3.609,0,6.604-3.787,6.604-3.787h2.992v-2.729H59.186z
			"/>
	</g>
</g>
<g>
	<path fill="#1D1D1B" d="M11.56,33.87V19.184h2.728v5.581h5.874v-5.581h2.729V33.87h-2.729v-6.588h-5.874v6.588H11.56z"/>
	<path fill="#1D1D1B" d="M34.362,33.87l-1.07-3.462h-4.658l-1.07,3.462h-2.937l4.971-14.687h2.729l4.973,14.687H34.362z
		 M30.962,22.792l-1.552,5.099h3.104L30.962,22.792z"/>
	<path fill="#1D1D1B" d="M39.12,19.184h2.728v12.169h6.23v2.518H39.12V19.184z"/>
	<path fill="#1D1D1B" d="M59.383,33.87l-1.068-3.462h-4.658l-1.07,3.462h-2.938l4.973-14.687h2.729L62.32,33.87H59.383z
		 M55.984,22.792l-1.551,5.099h3.104L55.984,22.792z"/>
	<path fill="#1D1D1B" d="M64.143,19.184h2.727v12.169h6.232v2.518h-8.959V19.184z"/>
</g>
</svg>
