<?xml version="1.0" encoding="utf-8"?>
<!-- Generator: Adobe Illustrator 16.0.0, SVG Export Plug-In . SVG Version: 6.00 Build 0)  -->
<!DOCTYPE svg PUBLIC "-//W3C//DTD SVG 1.1//EN" "http://www.w3.org/Graphics/SVG/1.1/DTD/svg11.dtd">
<svg version="1.1" id="Ebene_1" xmlns="http://www.w3.org/2000/svg" xmlns:xlink="http://www.w3.org/1999/xlink" x="0px" y="0px"
	 width="80px" height="80px" viewBox="0 0 80 80" enable-background="new 0 0 80 80" xml:space="preserve">
<path fill="#D5D5D6" stroke="#1D1D1B" stroke-width="4" stroke-miterlimit="10" d="M66.697,13.214
	C59.865,6.382,50.426,2.156,39.999,2.156c-20.851,0-37.754,16.904-37.754,37.756c0,10.426,4.226,19.863,11.058,26.695
	c6.833,6.834,16.271,11.061,26.696,11.061c20.853,0,37.757-16.904,37.757-37.756C77.756,29.486,73.529,20.046,66.697,13.214z"/>
<g>
	<circle fill="#EBE21D" cx="58.893" cy="41.382" r="5.367"/>
	<circle fill="#EBE21D" cx="20.786" cy="41.207" r="5.012"/>
	<path id="path5294_6_" fill="#6F6F6E" d="M58.912,32.248l-4.523-10.817c-0.184-0.542-0.701-0.931-1.328-0.931H26.916
		c-0.603,0-1.128,0.389-1.327,0.931l-4.508,10.817H58.912z M63.475,41.305c0-2.525-2.045-4.547-4.57-4.547
		c-2.518,0-4.562,2.021-4.562,4.547c0,2.508,2.045,4.561,4.562,4.561C61.43,45.865,63.475,43.812,63.475,41.305 M20.775,45.865
		c2.517,0,4.569-2.053,4.569-4.561c0-2.525-2.053-4.547-4.569-4.547c-2.524,0-4.562,2.021-4.562,4.547
		C16.213,43.812,18.251,45.865,20.775,45.865 M25.001,53.953v4.531c0,2.494-2.021,4.5-4.492,4.5c-2.487,0-4.494-2.006-4.494-4.5
		v-4.531h-4.562V39.236v-0.016c0-3.219,2.16-5.92,5.104-6.721l5.264-12.535c0.779-1.831,2.58-3.127,4.686-3.127h26.96
		c2.121,0,3.938,1.296,4.699,3.127L63.42,32.5c2.953,0.801,5.127,3.502,5.127,6.721l-0.016,0.016v14.717h-4.576l0.023,4.531
		c0,2.494-2.014,4.5-4.494,4.5c-2.496,0-4.5-2.006-4.5-4.5l0.014-4.531H25.001z"/>
</g>
<path d="M66.376,12.77c-1.841-1.841-3.876-3.484-6.063-4.915L8.259,60.4c1.385,2.074,2.966,4.006,4.723,5.763
	c0.188,0.187,0.384,0.364,0.574,0.548l53.122-53.625C66.576,12.982,66.479,12.873,66.376,12.77z"/>
</svg>
