<?xml version="1.0" encoding="utf-8"?>
<!-- Generator: Adobe Illustrator 16.0.0, SVG Export Plug-In . SVG Version: 6.00 Build 0)  -->
<!DOCTYPE svg PUBLIC "-//W3C//DTD SVG 1.1//EN" "http://www.w3.org/Graphics/SVG/1.1/DTD/svg11.dtd">
<svg version="1.1" id="Ebene_1" xmlns="http://www.w3.org/2000/svg" xmlns:xlink="http://www.w3.org/1999/xlink" x="0px" y="0px"
	 width="80px" height="80px" viewBox="0 0 80 80" enable-background="new 0 0 80 80" xml:space="preserve">
<path fill="#D5D5D6" stroke="#1D1D1B" stroke-width="4" stroke-miterlimit="10" d="M66.697,13.303
	C59.865,6.47,50.426,2.244,39.998,2.244C19.148,2.244,2.244,19.148,2.244,40c0,10.426,4.227,19.863,11.059,26.695
	c6.832,6.834,16.271,11.061,26.695,11.061c20.854,0,37.758-16.904,37.758-37.756C77.756,29.574,73.529,20.135,66.697,13.303z"/>
<g>
	<path fill="#FFFFFF" stroke="#6F6F6E" stroke-miterlimit="10" d="M52.988,34.22c-0.045,2.851,0,32.766,0,32.766h-0.012
		c-0.168,2.008-5.912,3.621-12.977,3.621c-7.066,0-12.809-1.613-12.979-3.621h-0.01c0,0,0-28.284,0-32.766
		c0-4.48,6.199-15.568,6.199-15.568v-3.063c-0.834-0.339-1.326-0.743-1.352-1.18l0,0v-0.003c-0.002-0.011-0.006-0.021-0.006-0.031
		s0.004-0.021,0.006-0.031V11.19c-0.002-0.009-0.006-0.017-0.006-0.025c0-0.008,0.004-0.016,0.006-0.024v-0.024h0.006
		C31.986,10.16,35.576,9.394,40,9.394c4.422,0,8.014,0.767,8.135,1.723h0.006v0.026c0,0.008,0.006,0.015,0.006,0.022
		c0,0.009-0.006,0.016-0.006,0.023v3.157c0,0.01,0.006,0.019,0.006,0.028s-0.006,0.019-0.006,0.028v0.006h-0.002
		c-0.023,0.436-0.516,0.841-1.35,1.18v3.063C46.789,18.651,53.033,31.369,52.988,34.22z"/>
	<ellipse fill="#FFFFFF" stroke="#6F6F6E" stroke-miterlimit="10" cx="39.999" cy="11.165" rx="7.247" ry="1.576"/>
</g>
<path d="M68.908,15.486c-1.842-1.84-3.877-3.484-6.064-4.914L10.791,63.117c1.385,2.074,2.965,4.006,4.723,5.763
	c0.188,0.187,0.383,0.364,0.574,0.548l53.121-53.625C69.107,15.699,69.01,15.59,68.908,15.486z"/>
</svg>
