<?xml version="1.0" encoding="utf-8"?>
<!-- Generator: Adobe Illustrator 16.0.0, SVG Export Plug-In . SVG Version: 6.00 Build 0)  -->
<!DOCTYPE svg PUBLIC "-//W3C//DTD SVG 1.1//EN" "http://www.w3.org/Graphics/SVG/1.1/DTD/svg11.dtd">
<svg version="1.1" id="Ebene_1" xmlns="http://www.w3.org/2000/svg" xmlns:xlink="http://www.w3.org/1999/xlink" x="0px" y="0px"
	 width="80px" height="80px" viewBox="0 0 80 80" enable-background="new 0 0 80 80" xml:space="preserve">
<g>
	<path fill="#D6D5D6" stroke="#1D1E1C" stroke-width="4" stroke-miterlimit="10" d="M77.755,40.001
		c0,20.849-16.903,37.753-37.755,37.753c-20.853,0-37.756-16.904-37.756-37.753C2.244,19.147,19.147,2.245,40,2.245
		C60.852,2.245,77.755,19.147,77.755,40.001z"/>
	<g>
		<path fill="#1E1E1C" d="M27.882,12.494h2.728v14.687h-2.875l-5.392-9.693v9.693h-2.728V12.494h2.875l5.392,9.693V12.494z"/>
		<path fill="#1E1E1C" d="M40.299,12.326c2.538,0,4.657,0.986,5.938,3.315c0.65,1.153,0.986,2.56,0.986,4.195
			c0,3.273-1.448,5.665-3.483,6.735c-1.028,0.524-2.161,0.776-3.44,0.776c-2.539,0-4.637-0.986-5.959-3.315
			c-0.65-1.153-0.965-2.56-0.965-4.196c0-3.272,1.447-5.686,3.482-6.713C37.886,12.599,39.019,12.326,40.299,12.326z M40.299,14.844
			c-1.196,0-2.183,0.42-2.979,1.259c-0.776,0.84-1.175,2.077-1.175,3.734c0,1.658,0.398,2.896,1.175,3.735
			c0.797,0.839,1.783,1.259,2.979,1.259c1.195,0,2.182-0.42,2.958-1.259c0.798-0.84,1.196-2.077,1.196-3.735
			c0-1.657-0.398-2.895-1.196-3.734C42.48,15.264,41.494,14.844,40.299,14.844z"/>
		<path fill="#1E1E1C" d="M57.939,12.494h2.727v14.687h-2.874L52.4,17.487v9.693h-2.729V12.494h2.875l5.393,9.693V12.494z"/>
	</g>
	<g>
		<path fill="#1E1E1C" d="M32.811,69.228l-1.07-3.462h-4.657l-1.07,3.462h-2.937l4.972-14.687h2.728l4.973,14.687H32.811z
			 M29.412,58.149l-1.553,5.099h3.105L29.412,58.149z"/>
		<path fill="#1E1E1C" d="M37.57,54.541h2.728V66.71h6.231v2.518H37.57V54.541z"/>
		<path fill="#1E1E1C" d="M57.982,59.45c-0.65-1.699-1.847-2.56-3.631-2.56c-1.195,0-2.203,0.42-3,1.28
			c-0.775,0.86-1.175,2.098-1.175,3.713c0,1.616,0.399,2.854,1.175,3.714c0.797,0.86,1.805,1.28,3,1.28
			c1.784,0,2.98-0.86,3.631-2.56l2.454,0.629c-0.692,2.833-2.896,4.448-6.085,4.448c-1.951,0-3.587-0.672-4.93-1.993
			c-1.343-1.322-2.015-3.168-2.015-5.519c0-2.35,0.672-4.195,2.015-5.518c1.343-1.321,2.979-1.993,4.93-1.993
			c3.189,0,5.393,1.615,6.085,4.448L57.982,59.45z"/>
	</g>
	<g>
		<path fill="#70706F" d="M23.552,29.157c2.611,0,4.594,1.007,6.01,2.989c1.415,1.982,2.108,4.72,2.108,8.274
			c0,3.556-0.693,6.324-2.108,8.307c-1.416,1.982-3.398,2.958-6.01,2.958s-4.594-0.976-6.01-2.958
			c-1.415-1.982-2.108-4.751-2.108-8.307c0-3.555,0.693-6.292,2.108-8.274C18.958,30.164,20.94,29.157,23.552,29.157z
			 M23.552,32.808c-2.8,0-4.216,2.548-4.216,7.613c0,5.066,1.416,7.614,4.216,7.614s4.216-2.548,4.216-7.614
			C27.768,35.355,26.352,32.808,23.552,32.808z"/>
		<path fill="#70706F" d="M34.929,37.637c0-1.133,0.378-2.09,1.158-2.87s1.788-1.158,2.971-1.158c1.184,0,2.165,0.378,2.946,1.158
			c0.78,0.78,1.184,1.737,1.184,2.87s-0.403,2.09-1.184,2.87c-0.781,0.78-1.763,1.158-2.946,1.158c-1.183,0-2.19-0.378-2.971-1.158
			S34.929,38.77,34.929,37.637z M50.186,32.853l1.813,1.436L38.453,52.391l-1.812-1.461L50.186,32.853z M37.9,38.82
			c0.276,0.302,0.68,0.453,1.157,0.453c0.479,0,0.856-0.151,1.134-0.453c0.578-0.63,0.578-1.737,0-2.342
			C39.914,36.151,39.536,36,39.058,36c-0.478,0-0.881,0.151-1.157,0.479C37.371,37.083,37.371,38.19,37.9,38.82z M45.15,47.606
			c0-1.133,0.378-2.09,1.158-2.87c0.781-0.78,1.787-1.158,2.971-1.158s2.166,0.378,2.946,1.158s1.183,1.737,1.183,2.87
			s-0.402,2.09-1.183,2.87c-0.78,0.781-1.763,1.158-2.946,1.158s-2.189-0.377-2.971-1.158C45.528,49.696,45.15,48.739,45.15,47.606z
			 M48.121,48.79c0.277,0.302,0.68,0.453,1.158,0.453s0.856-0.151,1.133-0.453c0.58-0.63,0.58-1.737,0-2.342
			c-0.276-0.327-0.654-0.479-1.133-0.479s-0.881,0.151-1.158,0.479C47.593,47.053,47.593,48.16,48.121,48.79z M55.196,47.606
			c0-1.133,0.378-2.09,1.158-2.87s1.788-1.158,2.971-1.158c1.184,0,2.165,0.378,2.946,1.158c0.78,0.78,1.184,1.737,1.184,2.87
			s-0.403,2.09-1.184,2.87c-0.781,0.781-1.763,1.158-2.946,1.158c-1.183,0-2.19-0.377-2.971-1.158
			C55.574,49.696,55.196,48.739,55.196,47.606z M58.167,48.79c0.277,0.302,0.681,0.453,1.158,0.453c0.479,0,0.856-0.151,1.134-0.453
			c0.578-0.63,0.578-1.737,0-2.342c-0.277-0.327-0.655-0.479-1.134-0.479c-0.478,0-0.881,0.151-1.158,0.479
			C57.639,47.053,57.639,48.16,58.167,48.79z"/>
	</g>
</g>
</svg>
