<?xml version="1.0" encoding="UTF-8" standalone="no"?>
<svg
   xmlns:dc="http://purl.org/dc/elements/1.1/"
   xmlns:cc="http://creativecommons.org/ns#"
   xmlns:rdf="http://www.w3.org/1999/02/22-rdf-syntax-ns#"
   xmlns:svg="http://www.w3.org/2000/svg"
   xmlns="http://www.w3.org/2000/svg"
   xmlns:sodipodi="http://sodipodi.sourceforge.net/DTD/sodipodi-0.dtd"
   xmlns:inkscape="http://www.inkscape.org/namespaces/inkscape"
   viewBox="0 0 452.5 595"
   version="1.1"
   id="svg859"
   sodipodi:docname="sit.svg"
   inkscape:version="0.92.4 (5da689c313, 2019-01-14)">
  <metadata
     id="metadata865">
    <rdf:RDF>
      <cc:Work
         rdf:about="">
        <dc:format>image/svg+xml</dc:format>
        <dc:type
           rdf:resource="http://purl.org/dc/dcmitype/StillImage" />
        <dc:title></dc:title>
      </cc:Work>
    </rdf:RDF>
  </metadata>
  <defs
     id="defs863" />
  <sodipodi:namedview
     pagecolor="#ffffff"
     bordercolor="#666666"
     borderopacity="1"
     objecttolerance="10"
     gridtolerance="10"
     guidetolerance="10"
     inkscape:pageopacity="0"
     inkscape:pageshadow="2"
     inkscape:window-width="1920"
     inkscape:window-height="1017"
     id="namedview861"
     showgrid="false"
     inkscape:zoom="0.51398938"
     inkscape:cx="-427.64324"
     inkscape:cy="229.35991"
     inkscape:window-x="-8"
     inkscape:window-y="-8"
     inkscape:window-maximized="1"
     inkscape:current-layer="g855" />
  <g
     transform="matrix(1.25,0,0,-1.25,0,595)"
     id="g857">
    <g
       transform="scale(.24)"
       id="g855">
      <path
         d="m 582.2622,1545.2591 c 112.31,0.35 203.06,91.11 203,203 0.063,112.01 -90.691,202.78 -203,203 -111.61,-0.22 -202.37,-90.99 -202,-203 -0.371,-111.89 90.391,-202.65 202,-203"
         id="path841"
         inkscape:connector-curvature="0"
         style="fill:#575858;fill-opacity:1" />
      <path
         d="m 428.2622,1299.2591 c -36.125,233.08 300.33,303.92 355,65 l 91,-456.99997 h 342 c 100,-0.32 151.92,-80.195 152,-154 v -621 c -0.08,-151.290003 -214.93,-150.580003 -215,2 0.074,142.07 0,484 0,484 h -437 c -101.56,-0.164 -165.45,69.73 -181,150 l -107,530.99997"
         id="path843"
         inkscape:connector-curvature="0"
         style="fill:#575858;fill-opacity:1" />
      <path
         d="m 993.2622,577.30913 c 113.39,0.012 112.86,-167.83 1,-168 h -313 c -152.67,0.168 -304.75,114.75 -345,292 l -97,474.99997 c -20.055,107.68 135.17,143.58 158,33 l 93,-453.99997 c 25.707,-116.08 111.57,-177.99 215,-178 h 288"
         id="path845"
         inkscape:connector-curvature="0"
         style="fill:#575858;fill-opacity:1" />
    </g>
  </g>
</svg>
